<?xml version="1.0" standalone="no"?>
<!DOCTYPE svg PUBLIC "-//W3C//DTD SVG 1.1//EN" "http://www.w3.org/Graphics/SVG/1.1/DTD/svg11.dtd" >
<svg xmlns="http://www.w3.org/2000/svg">
<metadata>
This is a custom SVG webfont generated by Font Squirrel.
Copyright   : Digitized data  2007 Ascender Corporation All rights reserved
Designer    : Steve Matteson
Foundry     : Ascender Corporation
Foundry URL : httpwwwascendercorpcom
</metadata>
<defs>
<font id="webfont8MWsR99N" horiz-adv-x="1024" >
<font-face units-per-em="2048" ascent="1638" descent="-410" />
<missing-glyph horiz-adv-x="512" />
<glyph unicode=" "  horiz-adv-x="512" />
<glyph unicode="&#x09;" horiz-adv-x="512" />
<glyph unicode="&#xa0;" horiz-adv-x="512" />
<glyph unicode="!" horiz-adv-x="796" d="M156 137q0 27 14 64q12 31 35 53q27 27 51 37q31 12 65.5 12t65.5 -12q27 -10 53 -37q23 -23 35 -53.5t12 -63.5q0 -35 -12 -65q-10 -27 -35 -52q-27 -27 -53 -36q-31 -12 -65.5 -12.5t-65.5 12.5q-25 10 -51 36q-25 25 -35 52q-14 34 -14 65zM319 420l62 921h299 l-264 -921h-97z" />
<glyph unicode="&#x22;" horiz-adv-x="1136" d="M369 860l8 481h237l-161 -481h-84zM754 860l10 481h237l-163 -481h-84z" />
<glyph unicode="#" d="M-4 412l20 123h179l104 286h-231l20 123h254l143 397h154l-145 -397h262l143 397h152l-144 -397h152l-23 -123h-174l-100 -286h225l-22 -123h-252l-148 -412h-151l147 412h-262l-145 -412h-154l147 412h-151zM346 535h262l105 286h-264z" />
<glyph unicode="$" d="M-25 51l66 361h86l2 -215q31 -47 92 -82q57 -33 150 -33l98 514q-55 28 -111 61q-63 39 -100 76q-45 45 -72 103q-27 55 -26 143q0 184 112 276q113 90 338 101l25 127h102l-24 -129q49 -2 139 -15q49 -6 129 -26l-55 -320h-88l-9 197q-28 22 -61 37q-31 14 -76 20 l-82 -436q16 -8 113 -68q53 -31 102 -79q46 -46 74 -105q31 -66 31 -135q0 -203 -121 -313q-117 -109 -354 -127l-27 -140h-100l24 136q-127 4 -219 24q-88 20 -158 47zM399 1047q0 -63 33 -109q35 -47 84 -82l76 393q-57 -6 -90 -22q-37 -18 -60 -47q-25 -31 -32 -62 q-11 -36 -11 -71zM475 90q53 12 94 37t66 59q23 33 37 76q12 41 12 84q0 41 -8 68q-9 31 -25 55q-10 16 -39 45q-8 8 -49 39z" />
<glyph unicode="%" horiz-adv-x="1705" d="M131 883q0 96 27 190q25 84 75 152q47 63 123 100q74 37 172 37q133 0 203 -63.5t70 -192.5q0 -35 -2 -53q-4 -37 -8 -58q-16 -90 -48 -159q-33 -74 -79 -117q-51 -49 -113 -72q-63 -25 -150 -24q-133 0 -202 65q-68 66 -68 195zM203 -20l1192 1382h149l-1192 -1382h-149 zM324 854q0 -37 2 -53q2 -18 14 -43q9 -18 25 -31q12 -10 41 -10q68 0 114 71q53 80 74 207q12 68 12 119q0 76 -20.5 115t-67.5 39q-63 0 -110 -72q-49 -76 -70 -201q-2 -10 -5 -33.5t-5 -33.5q-4 -25 -4 -74zM932 231q0 96 26 191q27 90 74 153q47 61 125 101 q74 37 170 37q133 0 205 -66q70 -63 70 -192q0 -16 -4.5 -53t-8.5 -58q-14 -88 -47 -158q-35 -76 -78 -116q-51 -47 -114.5 -72t-149.5 -25q-131 0 -201 66q-67 63 -67 192zM1122 203q0 -18 4 -51q4 -27 13 -46q6 -12 26 -28q14 -12 39 -12q68 0 117 73q53 80 74 205 q12 68 12 121q0 76 -20.5 114.5t-67.5 38.5q-63 0 -111 -71q-49 -76 -69 -203q-2 -10 -5.5 -33.5t-5.5 -31.5q-6 -37 -6 -76z" />
<glyph unicode="&#x26;" horiz-adv-x="1591" d="M49 346q0 98 39 164q41 70 98 115q55 43 129 75q86 37 131 54q-31 47 -59 120q-27 68 -27 162q0 74 27 133.5t76 102.5q51 45 121 65q80 25 164 25q90 0 161 -23q61 -20 109 -59q43 -37 61 -84q20 -51 21 -94q0 -74 -33 -133q-29 -51 -82 -95q-55 -45 -113 -69l-127 -53 l312 -351q57 88 90 160q33 76 49 156l-117 26l13 64h477l-13 -64l-124 -26q-25 -59 -46 -96l-61 -111q-45 -78 -74 -117q-51 -68 -90 -110l172 -195l123 -25l-10 -63h-365l-100 121q-66 -43 -90 -55q-45 -25 -103 -43q-55 -18 -122.5 -30.5t-151.5 -12.5q-125 0 -211 26 q-90 29 -143 76q-57 51 -84 115q-27 65 -27 149zM315 356q0 -61 19 -106q18 -47 49 -78q33 -33 72 -47q45 -16 92 -16q104 0 188 32q94 37 152 86l-371 430l-70 -39q-35 -20 -65 -57q-29 -35 -47.5 -84t-18.5 -121zM596 1071q0 -61 20.5 -116.5t59.5 -110.5q68 33 80 41 q29 16 63 51q27 27 43.5 65.5t16.5 85.5q0 84 -37 132q-37 45 -94 45q-74 0 -113 -51.5t-39 -141.5z" />
<glyph unicode="'" horiz-adv-x="567" d="M283 860l8 481h237l-161 -481h-84z" />
<glyph unicode="(" horiz-adv-x="681" d="M100 217q0 43 9 141q6 82 20 156q35 197 88 328q57 143 137 243q84 106 193 185q115 82 258 151l-23 -125q-94 -63 -159 -153q-72 -96 -115 -199q-53 -125 -80 -227q-27 -104 -51 -244q-20 -104 -29 -180q-8 -80 -8 -172q0 -147 35 -258q37 -115 125 -195l-23 -104 q-86 51 -164 121q-76 70 -118 143q-45 78 -70 174q-25 95 -25 215z" />
<glyph unicode=")" horiz-adv-x="681" d="M-154 -436l23 125q96 68 159.5 153.5t114.5 198.5q47 104 80 229q33 131 53 244q16 80 27 182q10 98 10 174t-8 134q-10 72 -26 120q-18 55 -50 105q-29 47 -73 88l16 104q98 -57 168 -121q72 -66 117 -143q49 -84 71 -174q23 -88 23 -215q0 -121 -29 -293 q-35 -193 -88 -328q-59 -147 -137 -245q-88 -111 -193 -187q-108 -77 -258 -151z" />
<glyph unicode="*" d="M164 944l315 39l-289 137l127 195l246 -275l-18 324l229 -37l-121 -301l320 178l61 -221l-321 -37l295 -135l-127 -193l-248 271l20 -324l-229 37l119 305l-320 -188z" />
<glyph unicode="+" horiz-adv-x="1165" d="M125 608v144h403v405h144v-405h405v-144h-405v-405h-144v405h-403z" />
<glyph unicode="," horiz-adv-x="512" d="M-43 -225q55 16 86 39q35 27 55 51q23 29 31 51.5t8 44.5q0 18 -10 33q-9 12 -25 24l-18 12.5t-16 10.5q-18 12 -35 28.5t-25 39.5q-10 27 -10 59q0 66 45 98q47 35 113 35q37 0 71.5 -12.5t59.5 -36.5q27 -27 41 -61.5t14 -84.5q0 -74 -20 -135q-23 -66 -68 -121 q-45 -53 -121 -98q-72 -43 -176 -69v92z" />
<glyph unicode="-" horiz-adv-x="681" d="M43 395l33 174h532l-33 -174h-532z" />
<glyph unicode="." horiz-adv-x="512" d="M14 137q0 27 15 64q12 31 34 53q27 27 54 37q31 12 63 12q35 0 66 -12q27 -10 53 -37q23 -23 35 -53.5t12 -63.5q0 -35 -12 -65q-10 -27 -35 -52q-27 -27 -53 -36q-31 -12 -66 -13q-33 0 -63 13q-27 10 -54 36q-25 25 -34 52q-15 34 -15 65z" />
<glyph unicode="/" horiz-adv-x="567" d="M-125 -20l711 1370h139l-709 -1370h-141z" />
<glyph unicode="0" d="M72 399q0 59 6 131q6 74 18 146q33 176 78 295q51 133 115 215q68 86 155.5 131t198.5 45q168 0 256 -100.5t88 -311.5q0 -55 -6 -129q-6 -76 -18 -145q-29 -162 -78 -297q-45 -123 -117 -219q-68 -90 -156 -135t-202 -45q-166 0 -252 104t-86 315zM315 367q0 -59 7 -111 q6 -53 20 -88t37 -57q20 -20 55 -21q52 0 92 37q41 37 74 106q33 68 57 175q35 145 50 241l12 90q8 66 10 86q2 16 5 43t3 37q4 49 4 66q0 135 -28 209q-29 72 -97 71q-51 0 -90 -36.5t-71 -110.5q-39 -90 -60 -178q-29 -125 -47 -244q-15 -98 -24 -172q-9 -65 -9 -143z" />
<glyph unicode="1" d="M47 0l16 86l246 25l176 1005l-252 -72l15 86l418 222h131l-219 -1241l239 -25l-14 -86h-756z" />
<glyph unicode="2" d="M-25 0l33 188q141 106 277 226q133 117 219 217q98 115 145 209q51 102 51 209q0 109 -49 157q-47 47 -131 47q-51 0 -88 -14q-43 -16 -72 -37l-75 -194h-88l55 305q86 18 162 30q80 12 168 13q100 0 170 -21q80 -23 125 -57q49 -37 75 -92q25 -51 25 -119 q0 -84 -29 -166q-27 -76 -80 -151q-49 -70 -125 -140q-74 -68 -159 -135q-51 -41 -187 -133l-204 -135h671l-39 -207h-850z" />
<glyph unicode="3" d="M-16 20l45 324h92l14 -215q8 -8 37 -18q27 -10 55 -17q37 -8 57.5 -10t51.5 -2q139 0 215 78q78 82 78 233q0 115 -51 172q-49 55 -146 68l-115 6l23 123l113 6q57 2 108 27q47 23 76 59q29 39 41 86q12 49 12 111q0 102 -47 151q-49 51 -133 51q-49 0 -86 -14 q-43 -16 -70 -37l-78 -194h-86l54 305q12 2 36.5 8t36.5 8q29 6 76 14q51 8 84 11q29 2 96 2q98 0 168 -21q80 -23 125 -57q47 -35 76 -92q27 -53 27 -121q0 -76 -21 -135q-23 -66 -61 -107q-45 -49 -107 -78q-66 -31 -149 -43q51 -8 114 -36q49 -23 86 -64q37 -40 56 -92 q18 -51 18 -113q0 -104 -43 -184q-43 -82 -117 -131q-74 -51 -178 -76q-111 -27 -221 -26q-227 -1 -362 40z" />
<glyph unicode="4" d="M-33 274l29 154l764 920h203l-158 -887h158l-33 -187h-158l-47 -274h-250l47 274h-555zM170 461h385l70 385q2 6 6 29.5t8 37.5q10 39 18 76q4 18 7.5 29.5t8.5 26t9 32.5z" />
<glyph unicode="5" d="M23 20l45 324h92l14 -215q29 -23 78 -35t102 -12q80 0 127 24q51 27 88 76q35 45 54 115q16 59 16 147q0 49 -10 97q-8 41 -31 75q-18 31 -61 52q-37 18 -95 18q-18 0 -55 -4t-53 -8q-33 -8 -47 -12q-4 -2 -37 -15h-92l121 694h692l-35 -202h-567l-64 -367q25 8 39 10 q6 0 21.5 3t23.5 6q16 2 57 6q20 2 70 2q102 0 176 -25q76 -25 123 -69q49 -46 74 -111q25 -66 24 -143q0 -117 -39 -201q-41 -90 -110 -148q-74 -61 -180 -92q-109 -31 -244 -30q-41 0 -98 4q-53 4 -80 8q-25 4 -70 12z" />
<glyph unicode="6" d="M70 446q0 125 24 242q23 104 70 217q43 101 104 185q59 80 138 141q74 58 159 92q84 33 176 33q82 0 156 -13q70 -12 127 -30l-53 -305h-88l-9 194q-35 29 -67 39q-37 12 -74 12q-72 0 -129 -39q-61 -41 -106 -108q-47 -70 -82 -164q-33 -90 -56 -201q70 35 121 52 q72 23 144 22q80 0 141 -24q59 -25 100 -68q37 -41 58 -107q20 -68 20 -133q0 -98 -33 -196q-31 -92 -92 -160q-57 -63 -153 -107q-92 -41 -207 -40q-92 0 -166 30.5t-123 91.5q-49 63 -74 146q-26 92 -26 198zM330 416q0 -96 12 -162q12 -70 33 -102q25 -41 49 -56 q27 -14 57 -14q45 0 80 27q37 29 62 75q27 53 41 119t14 156q0 119 -47 176q-45 55 -119 55q-39 0 -82 -12q-57 -16 -86 -29q-14 -106 -14 -233z" />
<glyph unicode="7" d="M86 0l774 1139h-528l-78 -181h-86l68 383h856l-15 -79l-733 -1262h-258z" />
<glyph unicode="8" d="M37 322q0 80 22 147q20 63 62 113q39 49 94 82q47 29 123 47q-41 25 -59 45q-25 28 -43 61q-25 43 -31 76q-10 47 -10 88q0 90 26 158q29 72 84 121q53 47 141 75q82 27 203 27q88 0 152 -19q66 -18 108.5 -55t63.5 -88q20 -49 20 -115q0 -84 -20 -143q-23 -63 -55 -108 q-35 -47 -80 -78t-97 -45q88 -33 131 -99q47 -72 48 -172q0 -111 -31 -196q-31 -88 -92 -146q-59 -57 -155.5 -87.5t-221.5 -30.5q-100 0 -170 24q-76 27 -121 72q-49 49 -70 108q-22 64 -22 138zM289 272q0 -92 37 -141q35 -47 116 -47q57 0 103 29q41 27 69 80 q27 49 39 122q12 70 13 156q0 45 -9 76q-10 35 -26 57q-18 25 -47 37q-27 12 -72 12q-57 0 -98 -26.5t-70 -77.5q-25 -43 -41 -121q-14 -66 -14 -156zM446 913q0 -66 25 -106.5t82 -40.5q45 0 84 29q35 27 57 77q25 55 35 109q10 51 10 129q0 72 -26 111q-29 41 -88 41 q-47 0 -80 -27t-56 -76q-25 -53 -32 -110q-11 -73 -11 -136z" />
<glyph unicode="9" d="M31 23l53 305h86l10 -195q31 -27 78 -39q43 -12 82 -12q70 0 127 39t104 108q46 68 80 160q25 70 51 195q-70 -31 -118 -45q-65 -18 -142 -19q-82 0 -145 29q-66 31 -104 74q-41 47 -60 110q-18 66 -18 139q0 100 32 187q35 94 93 153q61 66 149 105q86 39 199 39 q82 0 160 -33q76 -31 126 -92q55 -66 84 -148q29 -84 29 -202q0 -137 -22 -244q-25 -115 -68 -217q-45 -104 -102 -180q-68 -86 -133 -140q-72 -57 -160 -88q-92 -33 -176 -32q-86 0 -160 12q-86 15 -135 31zM379 872q0 -113 41 -170t115 -57q41 0 90 12q74 18 94 27 q10 82 10 199q0 121 -12 178q-14 70 -37 113q-23 47 -49 63q-28 18 -56 18q-41 0 -79.5 -28.5t-63.5 -77.5q-23 -45 -39 -121q-14 -66 -14 -156z" />
<glyph unicode=":" horiz-adv-x="681" d="M70 137q0 33 12 63.5t35 53.5q27 27 53 37q31 12 66 12q33 0 63 -12q27 -10 53 -37q23 -23 35 -53q14 -37 14 -64q0 -31 -14 -65q-10 -27 -35 -52q-27 -27 -53 -36q-31 -12 -63 -13q-35 0 -66 13q-27 10 -53 36q-25 25 -35 52q-12 30 -12 65zM209 795q0 35 12 65.5t35 53 t53.5 35t65.5 12.5q33 0 63.5 -12.5t53 -35t34.5 -53.5q14 -37 14.5 -65.5t-14.5 -65.5q-12 -31 -34.5 -53.5t-53 -34.5t-63.5 -12q-35 0 -65.5 12t-53.5 34.5t-35 53.5t-12 66z" />
<glyph unicode=";" horiz-adv-x="681" d="M27 -225q55 16 86 39q35 27 55 51q23 29 31 51q10 27 10 45q0 16 -12 33q-9 12 -25 24l-18.5 12.5t-16.5 10.5q-12 8 -33 29q-18 18 -26 39q-10 27 -10 59q0 66 45 98q47 35 112 35q41 0 74 -12q35 -12 59 -37q23 -23 39.5 -61.5t16.5 -84.5q0 -68 -23 -135 q-23 -66 -67 -121q-45 -53 -121 -98q-72 -43 -176 -69v92zM217 795q0 35 12.5 65.5t35 53t53 35t65.5 12.5q33 0 63.5 -12.5t53 -35t35.5 -53.5q14 -37 14 -65.5t-14 -65.5q-12 -31 -35 -53.5t-53.5 -34.5t-63.5 -12q-35 0 -65.5 12t-53 34.5t-35 53.5t-12.5 66z" />
<glyph unicode="&#x37e;" horiz-adv-x="681" d="M27 -225q55 16 86 39q35 27 55 51q23 29 31 51q10 27 10 45q0 16 -12 33q-9 12 -25 24l-18.5 12.5t-16.5 10.5q-12 8 -33 29q-18 18 -26 39q-10 27 -10 59q0 66 45 98q47 35 112 35q41 0 74 -12q35 -12 59 -37q23 -23 39.5 -61.5t16.5 -84.5q0 -68 -23 -135 q-23 -66 -67 -121q-45 -53 -121 -98q-72 -43 -176 -69v92zM217 795q0 35 12.5 65.5t35 53t53 35t65.5 12.5q33 0 63.5 -12.5t53 -35t35.5 -53.5q14 -37 14 -65.5t-14 -65.5q-12 -31 -35 -53.5t-53.5 -34.5t-63.5 -12q-35 0 -65.5 12t-53 34.5t-35 53.5t-12.5 66z" />
<glyph unicode="&#x3c;" horiz-adv-x="1165" d="M100 635v90l953 469v-143l-766 -371l766 -371v-143z" />
<glyph unicode="=" horiz-adv-x="1165" d="M119 403v144h950v-144h-950zM119 813v143h950v-143h-950z" />
<glyph unicode="&#x3e;" horiz-adv-x="1165" d="M154 166v143l768 371l-768 371v143l952 -469v-90z" />
<glyph unicode="?" d="M184 137q0 33 12.5 63.5t34.5 53.5q27 27 54 37q31 12 65.5 12t65.5 -12q25 -10 51.5 -37t36.5 -53q12 -31 12 -64q0 -35 -12 -65q-10 -25 -37 -51.5t-51 -36.5q-31 -12 -66 -12.5t-65 12.5q-27 10 -54 36q-25 25 -34 52q-13 30 -13 65zM190 1014l39 295q72 23 150 34 q80 12 164 13q98 0 178 -23q77 -22 129 -61q51 -39 75.5 -98.5t24.5 -131.5q0 -168 -90 -274q-84 -100 -282 -154l-80 -22l-64 -203h-102l-2 313l106 23q49 10 103 39q45 25 75 63q31 41 50 95q16 49 16 129q0 94 -43 149q-41 53 -145 53q-37 0 -80 -12q-41 -12 -68 -35 l-65 -192h-89z" />
<glyph unicode="@" horiz-adv-x="1703" d="M47 362q0 135 33 272.5t88 242.5q59 113 141 200q83 89 185 154q100 63 223 98t256 35q169 0 295 -43q121 -41 211 -125q84 -78 127 -192t43 -252q0 -109 -23 -197q-25 -94 -67 -174q-49 -90 -101 -148q-66 -74 -127 -112q-74 -49 -149 -72q-80 -25 -162 -24 q-31 0 -62 10q-29 10 -51 28q-20 16 -35 41q-16 25 -18 52q-20 -16 -57 -41q-45 -29 -70 -43q-37 -20 -74 -33q-47 -14 -73 -14q-51 0 -86 20.5t-58 54.5q-25 39 -33 78q-10 47 -10 88q0 168 70 307q68 133 203 232q61 43 96 59q59 27 96 37q49 12 105 19q37 4 122 4 q33 0 99 -4q53 -4 84 -7l-121 -534q-2 -8 -5 -23.5t-5 -21.5l-9 -45l-5 -20.5t-3 -18.5q-4 -25 -4 -27q0 -23 12 -39q12 -14 41 -14q45 0 82 23q45 27 72 65q31 43 55 98q18 41 41 121q16 57 27 135q8 63 8 138q0 125 -32.5 217t-98.5 157q-61 61 -156 97q-90 33 -202 32 q-106 0 -211 -32q-92 -29 -176 -91q-88 -63 -144 -139q-63 -84 -104 -180q-45 -102 -66 -213q-23 -119 -22 -233q0 -125 37 -242q37 -115 110 -205q70 -86 189 -139q117 -53 268 -53q102 0 174 14q78 16 139 39q65 25 117 55q45 27 102 70l54 -76q-49 -41 -119 -84 q-57 -35 -139 -70q-63 -27 -164 -47q-80 -16 -195 -16q-180 0 -328 59q-139 57 -239 160q-96 100 -150 240q-51 134 -51 292zM643 319q0 -66 20.5 -98.5t49.5 -32.5q16 0 39 7q18 6 41 16q25 12 34 20l29 23l127 551l-4 1q-4 1 -8 1t-8.5 1t-8.5 1h-14q-2 0 -7 1l-5 1 q-8 0 -37 -4t-43 -8q-18 -6 -45 -21q-18 -10 -43 -35q-16 -23 -39 -69q-20 -43 -39 -103q-8 -27 -27 -122q-12 -65 -12 -130z" />
<glyph unicode="A" horiz-adv-x="1363" d="M-106 0l14 74l102 26l670 1252h240l254 -1252l108 -26l-14 -74h-549l14 74l137 26l-59 346h-473l-184 -346l147 -26l-12 -74h-395zM393 557h398l-103 561z" />
<glyph unicode="B" horiz-adv-x="1363" d="M-18 0l12 74l176 26l203 1141l-168 27l12 73h588q137 0 225 -20.5t150 -58.5q59 -37 84 -93q27 -59 26 -120q0 -74 -24 -134q-25 -57 -72 -98q-49 -43 -107 -65q-66 -27 -135 -35q68 -6 129 -29q59 -23 103 -61q47 -43 69 -95q25 -55 25 -129q0 -207 -158 -309 q-156 -100 -473 -100q-20 0 -53 1t-45 1q-14 0 -42 1t-40 1q-20 0 -40.5 1t-39.5 1h-84h-321zM469 111q45 -4 68 -5q18 -2 61 -2h55q96 0 156 21q63 23 100 61q41 45 56 95q16 59 16 125q0 70 -20 112q-23 47 -62 78q-33 25 -96 43q-51 14 -125 14h-115zM584 764h94 q154 0 235 65q80 63 80 205q0 96 -61 146q-63 51 -176 51h-90z" />
<glyph unicode="C" horiz-adv-x="1363" d="M70 530q0 186 63 347q59 150 174 260q111 109 266 163q154 55 338 56q143 0 265 -17q137 -18 208 -34l-53 -338h-84v194q-53 41 -129 66q-78 25 -162 24q-125 0 -227 -51q-106 -53 -182 -147q-80 -98 -121 -230q-43 -135 -43 -301q0 -100 20 -176q20 -80 66 -139 q39 -53 109 -90q63 -33 155 -33q61 0 109 8q66 12 98 23q70 23 86 30q39 18 66 39l75 219h86l-65 -340q-49 -15 -111 -30q-51 -12 -127 -27q-68 -12 -139 -18q-94 -8 -141 -8q-145 0 -258 40q-117 43 -189 111q-74 72 -114 174q-39 98 -39 225z" />
<glyph unicode="D" horiz-adv-x="1478" d="M-14 0l12 74l176 26l201 1141l-166 27l12 73h520q168 0 297 -36q131 -37 215 -107q88 -72 133.5 -174t45.5 -236q0 -180 -58 -325q-57 -147 -164 -250q-106 -104 -262 -160q-160 -57 -350 -57q-154 0 -227.5 2t-190.5 2h-194zM471 115l61 -6q20 -2 64 -3q121 0 221 48 q94 45 166 135q68 86 102 211q35 127 35 274q0 125 -30 211q-33 92 -84 143q-53 53 -132 78q-76 25 -169 25h-37z" />
<glyph unicode="E" horiz-adv-x="1363" d="M-14 0l12 74l176 26l201 1141l-166 27l12 73h1053l-62 -342h-90l6 218q-6 0 -31.5 3l-41.5 5q-57 4 -86 4q-14 0 -43 1t-43 1h-76h-137l-88 -492h280l58 148h90l-74 -412h-88l-4 152h-283l-90 -516h182h117q41 0 98 4q49 4 76 6q33 4 47 6l105 248h90l-84 -375h-1116z " />
<glyph unicode="F" horiz-adv-x="1363" d="M-2 0l12 74l164 26l201 1141l-166 27l12 73h1110l-63 -360h-94l10 236q-22 3 -56 6q-12 2 -37.5 3t-39.5 1q-29 2 -86 2q-14 0 -44 1t-42 1h-72h-47h-90l-95 -529h363l61 170h91l-80 -452h-90v172h-365l-86 -492l217 -26l-10 -74h-678z" />
<glyph unicode="G" horiz-adv-x="1478" d="M70 522q0 201 65 357q63 152 180 262q106 102 273 159q158 55 336 56q133 0 254 -17q96 -12 221 -45l-56 -309h-83l2 174q-57 43 -140 68q-80 25 -182 24q-113 0 -213 -49q-102 -49 -178 -143q-78 -96 -123 -236q-45 -137 -45 -319q0 -104 25 -185q25 -82 65 -131 q47 -57 104 -79q61 -25 134 -25q82 0 139 14q74 18 96 29l70 379l-168 33l12 67h598l-12 -67l-135 -33l-78 -436q-66 -20 -133 -37q-80 -18 -135 -29q-72 -12 -144 -18q-74 -6 -157 -6q-135 0 -252 38q-111 37 -187 107q-74 68 -114 172q-39 98 -39 225z" />
<glyph unicode="H" horiz-adv-x="1591" d="M-14 0l12 74l176 26l201 1141l-166 27l12 73h639l-12 -73l-178 -27l-86 -496h487l86 496l-166 27l13 73h641l-13 -73l-178 -27l-201 -1141l168 -26l-12 -74h-641l12 74l176 26l95 535h-488l-94 -535l168 -26l-14 -74h-637z" />
<glyph unicode="I" horiz-adv-x="796" d="M-20 0l14 74l176 26l201 1141l-168 27l12 73h639l-12 -73l-176 -27l-201 -1141l166 -26l-13 -74h-638z" />
<glyph unicode="J" d="M-4 10l53 303h84l4 -178q18 -27 43 -37q29 -12 70 -12q35 0 65 12q37 14 58 35q27 27 43 59.5t26 83.5l170 965l-166 27l13 73h618l-12 -73l-158 -27l-141 -809q-25 -139 -80 -225q-57 -88 -127 -137q-76 -51 -153 -70q-92 -20 -162 -20q-76 0 -135 8q-76 10 -113 22z " />
<glyph unicode="K" horiz-adv-x="1363" d="M-14 0l12 74l176 26l201 1141l-166 27l12 73h629l-12 -73l-168 -27l-90 -522l575 522l-113 27l13 73h426l-15 -73l-139 -27l-473 -428l354 -713l133 -26l-12 -74h-385l-297 637l-92 -45l-86 -492l178 -26l-12 -74h-649z" />
<glyph unicode="L" horiz-adv-x="1249" d="M-14 0l12 74l176 26l201 1141l-166 27l12 73h664l-13 -73l-202 -27l-201 -1135h115q72 0 110 3q18 0 56 1t57 3q61 4 94 6q27 2 57 8l117 279h84l-90 -406h-1083z" />
<glyph unicode="M" horiz-adv-x="1820" d="M-27 0l13 74l176 26l200 1141l-165 27l12 73h493l164 -874l477 874h535l-12 -73l-178 -27l-201 -1141l168 -26l-13 -74h-657l12 74l195 26l186 1057l-639 -1157h-45l-221 1157l-186 -1057l176 -26l-12 -74h-478z" />
<glyph unicode="N" horiz-adv-x="1478" d="M-18 0l12 74l176 26l201 1141l-166 27l12 73h432l436 -895l140 795l-174 27l12 73h477l-12 -73l-178 -27l-217 -1241h-115l-543 1112l-180 -1012l174 -26l-10 -74h-477z" />
<glyph unicode="O" horiz-adv-x="1478" d="M74 524q0 111 22 219q18 92 68 197q43 94 110 170q66 74 154 131q82 51 193 84q109 31 235.5 31t233 -41t178.5 -113q74 -74 112 -172q41 -104 41 -219q0 -96 -18.5 -194.5t-59 -192.5t-102.5 -174q-59 -76 -149 -141q-84 -59 -199 -95q-117 -35 -254 -34 q-127 0 -233.5 40.5t-178 112.5t-112.5 172t-41 219zM375 485q0 -92 18 -166q18 -76 56 -126q41 -57 86 -82q51 -27 122 -27q80 0 142 35q72 41 117 94t90 139q37 70 63 162q29 96 39 170q12 86 12 160q0 94 -18 168q-18 72 -58 127q-43 59 -90 84q-57 29 -123 28 q-77 0 -141 -37q-63 -37 -115 -96q-51 -61 -88 -139q-39 -84 -61 -164q-29 -102 -39 -170q-12 -86 -12 -160z" />
<glyph unicode="P" horiz-adv-x="1249" d="M0 0l10 74l162 26l203 1141l-168 27l10 73h533q135 0 233 -24q96 -25 160 -72q61 -45 92 -115q29 -63 29 -147q0 -100 -35 -186q-33 -78 -107 -144q-68 -59 -180 -94q-104 -33 -256 -33h-141l-76 -426l217 -26l-10 -74h-676zM563 637h80q82 0 137 22q57 23 103 68 q43 43 65 109q23 68 23 145q0 68 -18.5 115t-49.5 77.5t-74 43.5q-51 14 -92 14h-67z" />
<glyph unicode="Q" horiz-adv-x="1478" d="M74 524q0 111 22 219q18 92 68 197q43 94 110 170q66 74 154 131q82 51 193 84q109 31 235.5 31t233 -41t178.5 -113q74 -74 112 -172q41 -104 41 -219t-28 -242q-25 -113 -93 -229q-59 -104 -157.5 -190.5t-233.5 -129.5l33 -49q27 -43 66 -90q23 -27 59 -55 q27 -20 53 -31q23 -8 45 -8q35 0 49 2q29 4 41 6l13 -78q-8 -4 -49 -16q-39 -12 -68 -16l-74 -13q-25 -4 -69 -4q-70 0 -129 17q-51 14 -97 49q-49 39 -81.5 82t-77.5 116l-29 50q-115 6 -215 51q-96 43 -164 114q-66 70 -104 168q-37 95 -37 209zM375 485q0 -92 18 -166 q18 -76 56 -126q41 -57 86 -82q51 -27 122 -27q80 0 142 35q72 41 117 94t90 139q37 70 63 162q29 96 39 170q12 86 12 160q0 94 -18 168q-18 72 -58 127q-43 59 -90 84q-57 29 -123 28q-77 0 -141 -37q-63 -37 -115 -96q-51 -61 -88 -139q-39 -84 -61 -164 q-29 -102 -39 -170q-12 -86 -12 -160z" />
<glyph unicode="R" horiz-adv-x="1363" d="M-2 0l10 74l164 26l203 1141l-168 27l12 73h537q129 0 231 -22q100 -23 160 -64q63 -45 92 -104q31 -65 31 -147t-27 -156q-25 -68 -67 -117q-41 -47 -105 -82q-66 -37 -131 -53l201 -496l147 -26l-12 -74h-399l-209 567h-115l-84 -467l168 -26l-12 -74h-627zM571 678h56 q84 0 145 20q65 22 111 62q45 39 69.5 96t24.5 131q0 127 -62 187q-59 57 -178 57h-67z" />
<glyph unicode="S" horiz-adv-x="1138" d="M37 51l63 361h88l2 -215q23 -29 46 -47q28 -22 61 -37q27 -12 72 -23q35 -8 80 -8q86 0 137 16q57 18 94 49q39 33 55 72q18 43 19 92q0 53 -25 95q-23 37 -63 71q-39 33 -91 62l-102 57q-49 29 -102 66q-55 39 -90 77q-39 43 -64 105q-23 53 -22 135q0 98 34 166 q39 76 103 119q72 49 166 69q102 23 219 23q86 0 174 -13q86 -12 162 -30l-56 -320h-90l-6 197q-39 29 -92 45q-55 16 -119 16q-68 0 -110 -14q-45 -14 -74 -41q-29 -25 -43 -57q-14 -31 -14 -70q0 -53 22 -86q23 -35 66 -67.5t90 -59.5l102 -57q70 -41 102 -64 q49 -35 93 -80q37 -39 63 -100q25 -55 25 -131q0 -115 -39 -195q-39 -82 -113 -137q-76 -57 -182 -84q-111 -29 -246 -28q-129 0 -231 22q-82 18 -164 49z" />
<glyph unicode="T" horiz-adv-x="1249" d="M150 967l65 374h1104l-68 -374h-88l15 247l-19 4q-18 3 -28.5 5t-31 3t-30.5 1q-41 4 -63 4q-10 0 -29 1t-25 1h-59l-201 -1133l209 -26l-12 -74h-721l10 74l219 26l201 1135h-61q-6 0 -25.5 -1t-30.5 -1q-20 0 -61 -4q-6 0 -19.5 -2t-23.5 -3t-19 -1q-10 -2 -28 -5 l-19 -4l-75 -247h-86z" />
<glyph unicode="U" horiz-adv-x="1478" d="M168 1268l12 73h619l-13 -73l-178 -27l-112 -655q-6 -35 -17 -115q-6 -53 -6 -82q0 -139 69.5 -202.5t196.5 -63.5q92 0 160 24q66 25 117 72q45 41 78 109q31 61 43 135l137 778l-176 27l12 73h457l-13 -73l-157 -27l-135 -770q-18 -111 -58 -197q-41 -90 -108.5 -155.5 t-165.5 -100.5q-102 -37 -242 -36q-135 0 -229 30.5t-158 87.5q-61 55 -92 131q-29 72 -29 168q0 39 6 84q10 72 15 101l112 657z" />
<glyph unicode="V" horiz-adv-x="1363" d="M121 1268l10 73h549l-12 -73l-146 -27l203 -879l487 879l-131 27l13 73h411l-12 -73l-131 -27l-723 -1272h-113l-301 1272z" />
<glyph unicode="W" horiz-adv-x="1820" d="M141 1268l13 73h565l-14 -73l-162 -27l106 -813l398 829h100l151 -833l363 817l-166 27l14 73h433l-15 -73l-121 -27l-592 -1272h-94l-157 848l-404 -848h-100l-189 1272z" />
<glyph unicode="X" horiz-adv-x="1363" d="M-51 0l10 74l154 26l460 535l-237 606l-146 27l13 73h612l-12 -73l-164 -27l141 -367l318 367l-152 27l12 73h451l-14 -73l-154 -27l-416 -481l260 -660l148 -26l-12 -74h-615l12 74l166 26l-166 420l-362 -420l152 -26l-13 -74h-446z" />
<glyph unicode="Y" horiz-adv-x="1249" d="M104 1268l15 73h635l-13 -73l-186 -27l178 -555l365 555l-160 27l14 73h457l-14 -73l-148 -27l-465 -692l-80 -449l207 -26l-12 -74h-721l12 74l218 26l79 443l-233 698z" />
<glyph unicode="Z" horiz-adv-x="1249" d="M-4 0l18 115l828 1120h-193q-16 0 -46 -1t-44 -1q-31 0 -84 -4q-35 -2 -69 -6l-50 -9l-67 -210h-90l59 337h940l-18 -106l-824 -1131h189q78 0 119 2q51 2 116 11q12 2 46 5t48 5q16 2 38 6l22 4l104 256h90l-96 -393h-1036z" />
<glyph unicode="[" horiz-adv-x="681" d="M51 -274l299 1695h436l-12 -67l-211 -41l-260 -1479l197 -41l-13 -67h-436z" />
<glyph unicode="\" horiz-adv-x="567" d="M129 1350h127l213 -1370h-129z" />
<glyph unicode="]" horiz-adv-x="681" d="M-106 -274l12 67l211 41l260 1479l-197 41l13 67h436l-299 -1695h-436z" />
<glyph unicode="^" horiz-adv-x="1165" d="M131 389l428 952h90l428 -952h-143l-330 762l-330 -762h-143z" />
<glyph unicode="_" d="M-154 -141h1057v-144h-1057v144z" />
<glyph unicode="`" horiz-adv-x="681" d="M229 1386l9 37h264l137 -272l-6 -33h-86z" />
<glyph unicode="a" d="M25 319q0 131 38 246q39 113 115 205q74 89 178 141q106 53 232 54q72 0 137 -13q70 -14 115 -32l82 36h53l-152 -866l109 -33l-8 -57h-346l-5 137q-33 -39 -59 -61q-45 -37 -70 -51q-35 -20 -75 -33q-40 -12 -80 -12q-59 0 -107 20q-51 23 -84 63q-39 49 -55 107 q-18 63 -18 149zM287 350q0 -53 10 -100q8 -39 28.5 -69.5t39.5 -41.5q22 -12 43 -12q23 0 47 12q27 14 49 33q25 20 45 45q22 25 37 49l98 563q-22 15 -55 25q-31 8 -70 8q-63 0 -110 -45q-51 -49 -87 -117q-37 -74 -55 -165q-20 -103 -20 -185z" />
<glyph unicode="b" d="M27 47l227 1286l-92 23l10 65h367l-76 -430q0 -4 -3 -18.5l-5 -24.5q-2 -16 -11 -49l-12 -51l-12 -51q25 33 59 67q33 33 68 54q41 25 76 34q41 12 77 13q57 0 105 -21q51 -23 84 -63q31 -39 53 -105q20 -59 21 -145q0 -94 -17 -168q-16 -76 -49 -154q-33 -76 -76 -135 q-49 -66 -102 -104q-59 -43 -125 -68q-68 -25 -145 -25q-31 0 -101 5q-53 4 -108 12q-74 12 -111 20q-55 13 -102 33zM307 125q14 -14 30.5 -22.5t35.5 -14.5q14 -4 35 -8q25 -4 28 -4q57 0 105 45q47 43 84 119q33 63 55 163q20 88 20 185q0 55 -10 102q-8 39 -28.5 70 t-38.5 41q-22 12 -43 12q-16 0 -41 -10q-23 -10 -45.5 -28.5t-44.5 -45.5q-22 -25 -43 -55z" />
<glyph unicode="c" horiz-adv-x="907" d="M31 330q0 160 47 274q51 125 127 201q78 78 178 119t203 41q25 0 82 -4q25 -2 80 -11q49 -8 73 -14q53 -14 58 -16l-50 -287h-71l-15 170q-29 33 -59 45q-35 14 -86 14q-61 0 -112.5 -37t-96.5 -108q-39 -61 -65 -164q-25 -94 -25 -213q0 -61 12 -109q10 -41 37 -73 q20 -27 55 -41q31 -12 68 -13q78 0 137 27q53 25 117 68l45 -64q-29 -27 -65 -51q-41 -29 -89 -49q-66 -29 -104 -39q-61 -16 -121 -16q-84 0 -158 26q-63 23 -112 72q-46 46 -68 110q-22 68 -22 142z" />
<glyph unicode="d" d="M25 309q0 135 34 248q37 117 103 209q61 86 157 143q92 55 209 56q31 0 47 -2l48 -7q29 -4 45 -8q14 -4 34 -12q0 10 3 29q0 12 4 36q0 6 1 16.5t3 16.5q0 4 1 13.5t3 13.5l45 270l-160 25l12 65h435l-238 -1335l100 -27l-12 -59h-332l-8 143q-27 -37 -59 -65 q-39 -35 -70 -53q-35 -20 -76 -33q-39 -12 -78 -12q-57 0 -100 20t-80 63q-35 41 -53 102.5t-18 143.5zM287 354q0 -63 8 -102q10 -45 24.5 -71.5t32.5 -39.5q20 -14 37 -14q10 0 43 12q23 8 49 29q25 18 49 43q29 29 48 55l96 551q-10 10 -31 21q-25 12 -37 16t-37 8 q-12 2 -28 2q-57 0 -103 -45q-49 -49 -80 -117q-37 -80 -53 -163q-18 -93 -18 -185z" />
<glyph unicode="e" horiz-adv-x="907" d="M47 330q0 78 21 170q18 83 55 153q37 72 84 127q53 63 104 99q66 45 121 63q68 23 131 23q78 0 129 -15q53 -14 94 -43q37 -27 58 -65q20 -41 20 -82q0 -68 -37 -125q-39 -61 -104 -107q-72 -49 -168 -77q-115 -35 -229 -43l-1 -5q-1 -4 -1 -8q0 -2 -1 -8t-1 -10t-1.5 -8 t-1.5 -11v-18q0 -49 9 -88q10 -47 28 -76q18 -31 56 -51q35 -20 90 -21q70 0 137 29q51 23 117 66l45 -64q-37 -31 -74 -53q-53 -35 -92 -51q-51 -23 -106.5 -37t-116.5 -14q-96 0 -164 24q-72 27 -113 70q-45 47 -65 110q-23 68 -23 146zM342 508q61 6 119 33q47 23 86 61 q35 35 55 82q18 43 19 88q0 43 -20.5 63.5t-49.5 20.5q-41 0 -72 -29q-34 -31 -61 -79q-23 -39 -47 -111q-17 -49 -29 -129z" />
<glyph unicode="f" horiz-adv-x="681" d="M0 -436l221 1272h-162l13 69l170 39l22 123q37 199 143.5 287t284.5 88q47 0 90 -6q51 -8 70 -15l-39 -223h-63l-13 113q-8 8 -20 14t-35 6q-20 0 -45 -10q-16 -6 -39 -37q-16 -23 -33 -70q-12 -39 -26 -116l-29 -158h205l-19 -104h-204l-224 -1272h-268z" />
<glyph unicode="g" d="M-39 -365l23 252h57l35 -131q35 -35 94 -59.5t125 -24.5q58 0 98 19q39 18 66 51q25 29 41 80q16 47 24 102q6 33 8 45q2 14 6.5 29.5t6.5 28.5l12 61q8 41 14 57q-28 -37 -61 -67q-39 -35 -70 -53q-41 -25 -75 -35q-41 -12 -76 -13q-59 0 -103 21q-51 25 -82 63 q-34 43 -55 105q-20 59 -20 145q0 80 16 168q14 74 47 154q29 72 78 135q46 61 104.5 104t128.5 68q72 25 152 25q31 0 100 -4q74 -4 107 -9q16 -2 53 -7t53 -7q70 -8 103 -14l-172 -959q-23 -111 -64 -184q-45 -80 -104 -125q-63 -49 -148 -70q-90 -23 -188 -22 q-53 0 -102 6q-43 6 -95 16q-29 6 -78 23q-30 10 -59 26zM293 354q0 -63 8 -102q8 -35 27 -70q16 -29 37 -41q22 -12 43 -12q35 0 82 35t92 94l106 584q-18 8 -55 16q-41 8 -74 8q-63 0 -110 -45q-51 -49 -84 -119q-37 -80 -54 -163q-18 -93 -18 -185z" />
<glyph unicode="h" horiz-adv-x="1138" d="M41 0l233 1331l-92 25l13 65h364l-84 -463q0 -6 -10 -53l-4 -20.5t-4 -17.5t-4 -19q-2 -6 -5.5 -23.5t-5.5 -25.5t-4 -18.5t-2 -12.5q78 100 170 147q94 49 211 50q46 0 86 -13q39 -12 70 -38.5t45 -61.5t14 -86q0 -27 -2 -43q-4 -33 -6 -51q-2 -10 -5 -26.5t-3 -24.5 q-2 -12 -5 -22.5t-3 -18.5l-86 -490l114 -24l-12 -66h-385l100 569l9 43q2 6 4 22.5t4 22.5q0 6 1 19.5t3 19.5q2 12 2 29q0 96 -90 96q-39 0 -74 -20q-43 -25 -74 -53q-35 -33 -65 -72q-23 -31 -47 -82l-107 -594h-264z" />
<glyph unicode="i" horiz-adv-x="567" d="M51 0l152 850l-92 24l12 66h364l-149 -850l119 -24l-13 -66h-393zM254 1268q0 37 10 59q12 27 35 49q20 20 47 32.5t62 12.5q31 0 59.5 -12t49 -32.5t32.5 -49.5q10 -23 10 -59.5t-10 -59.5q-12 -29 -32.5 -49t-49.5 -32.5t-59 -12.5q-35 0 -62 12.5t-47 32.5 q-23 23 -35 49q-10 23 -10 60z" />
<glyph unicode="j" horiz-adv-x="567" d="M-268 -418l39 225h63l25 -118q14 -8 18 -11q16 -4 27 -4q22 0 43 13q20 12 41 45q20 35 37 78q14 39 28 118l160 912l-160 34l13 66h434l-172 -979q-18 -106 -58 -182q-37 -74 -94 -123q-53 -47 -127 -69.5t-149 -22.5q-45 0 -88 6q-74 10 -80 12zM268 1268 q0 31 12.5 59.5t33 49t48.5 32.5q27 12 60 12t59 -12q29 -12 49.5 -32.5t32.5 -49.5t12 -59.5t-12 -59t-32.5 -49t-49.5 -33.5q-27 -12 -59.5 -12t-59.5 12q-29 12 -49 33t-32.5 49.5t-12.5 59.5z" />
<glyph unicode="k" d="M29 0l233 1331l-92 25l12 65h367l-162 -913l352 344l-86 22l11 66h344l-11 -66l-92 -22l-243 -223l223 -539l80 -24l-13 -66h-313l-166 453l-108 -70l-68 -383h-268z" />
<glyph unicode="l" horiz-adv-x="567" d="M45 0l236 1331l-91 25l11 65h364l-235 -1331l119 -24l-11 -66h-393z" />
<glyph unicode="m" horiz-adv-x="1591" d="M39 0l147 850l-88 24l13 66h327l-2 -168q70 96 154 146q82 47 180 47q45 0 74 -11q39 -14 59 -34q27 -27 41 -62q16 -39 17 -90q68 98 155 150q80 47 182 47q40 0 74 -13q31 -10 62 -39q27 -25 43 -65q14 -37 14 -94q0 -20 -2 -35q0 -10 -1 -16.5t-3 -13.5t-4 -17 q-2 -8 -4 -25.5t-4 -25.5q-4 -25 -7 -41l-88 -490l117 -24l-12 -66h-387l102 569l8 43l6 45q2 14 7 39q2 12 2 29q0 96 -72 96q-31 0 -62 -22q-37 -27 -65 -62q-35 -41 -57 -84q-20 -39 -31 -90l-100 -563h-267l103 569l8 43l6 45q0 6 1 19.5t3 19.5q2 12 2 29q0 96 -74 96 q-29 0 -57 -20q-33 -23 -57 -53q-37 -45 -53 -72q-14 -23 -37 -82l-107 -594h-266z" />
<glyph unicode="n" horiz-adv-x="1138" d="M43 0l147 850l-90 24l15 66h334l-9 -174q72 92 170 147q90 51 209 52q46 0 86 -13q43 -12 70 -37q29 -27 45 -63q14 -35 14 -88q0 -27 -2 -41l-6 -49l-8 -49q-2 -8 -5 -23.5t-3 -21.5l-86 -490l114 -24l-12 -66h-387l102 569l9 43q0 6 4 22.5t4 23t1 19.5t3 19q2 12 2 29 q0 96 -90 96q-39 0 -74 -20q-43 -25 -74 -53q-35 -33 -65 -72q-23 -31 -47 -82l-107 -594h-264z" />
<glyph unicode="o" d="M33 375q0 117 37 223q33 98 110 188q70 82 172 132q96 47 228 47q86 0 151 -27q74 -31 119 -78q51 -55 78 -125q27 -72 26 -164q0 -113 -39 -225q-35 -102 -108 -188q-66 -76 -174 -129q-101 -49 -227 -49q-86 0 -152 26q-72 29 -119 80q-49 53 -76 123q-26 72 -26 166z M297 319q0 -117 37 -178t94 -61q49 0 94 39q39 35 80 114q39 80 60 173q20 96 20 219q0 119 -30.5 180t-94.5 61q-46 0 -92 -43q-47 -43 -84 -118q-41 -84 -62 -175q-22 -102 -22 -211z" />
<glyph unicode="p" d="M-145 -436l12 65l102 25l215 1200l-98 27l10 59h346l-6 -137q51 68 123 117q66 45 143 45q59 0 103 -21q51 -25 82 -63q34 -43 55 -105q20 -59 21 -145q0 -129 -37 -246q-41 -127 -103 -209q-72 -94 -161 -143q-96 -53 -213 -53q-39 0 -87 10q-33 6 -67 22q0 -6 -2 -13 t-2 -15q0 -23 -2 -35q-4 -25 -6 -35t-2 -25l-39 -235l159 -25l-12 -65h-534zM322 127q25 -25 57 -37q29 -10 59 -10q41 0 74 20q43 27 63 56q39 53 54 84q20 45 37 106q15 55 24 117q8 55 8 125q0 63 -8 102q-8 35 -26 70q-16 31 -35 41q-23 12 -41 12q-35 0 -78 -37 q-51 -43 -90 -96z" />
<glyph unicode="q" d="M27 311q0 125 34 248q33 115 101 209q63 88 160 143q92 53 219 54q125 0 219 -11q117 -12 213 -30l-230 -1272l93 -23l-13 -65h-364l73 387l7 43q2 16 10 49l12 51l12 51q-28 -37 -61 -67q-39 -37 -72 -53q-45 -25 -80 -35q-41 -12 -75 -13q-59 0 -103 21q-51 25 -82 63 q-34 43 -55 105q-18 53 -18 145zM289 354q0 -55 10 -102q8 -35 27 -70q16 -29 36 -41q23 -12 41 -12q14 0 39 10q20 8 47 29q16 12 50 45q29 29 47 55l104 574q-18 8 -59 16q-45 8 -76 8q-63 0 -111 -45q-51 -49 -84 -119q-37 -80 -53 -163q-18 -93 -18 -185z" />
<glyph unicode="r" horiz-adv-x="796" d="M43 0l150 850l-117 24l10 66h375l-23 -203q35 68 66 103q39 45 74 71q39 29 77 41q40 12 74 13q29 0 45 -2q10 -2 22.5 -5.5t14.5 -3.5l-57 -336h-56l-43 138q-41 0 -67 -8q-33 -10 -62 -29q-28 -18 -55.5 -49t-54.5 -74l-105 -596h-268z" />
<glyph unicode="s" horiz-adv-x="796" d="M-10 35l45 260h65l17 -131q16 -25 28 -35q25 -20 39 -29q27 -16 49 -20q29 -6 60 -6q43 0 78 12t55 33q23 23 35 49q12 29 12 57q0 31 -14 54q-14 25 -39 45q-8 8 -58 36l-63 39q-43 23 -78 50q-43 33 -65 59q-33 39 -45 76q-16 45 -17 96q0 84 31 139q33 59 82 88 q57 33 121 45q68 12 143 13q74 0 133 -9q80 -10 129 -22l-43 -242h-65l-13 111q-23 27 -61.5 47t-91.5 20q-78 0 -113 -32.5t-35 -89.5q0 -28 13 -50q12 -23 34 -41q14 -12 52 -36q18 -10 59 -35l84 -51q41 -25 71.5 -60t49.5 -76q18 -43 18 -102q0 -152 -100 -234 q-102 -84 -305 -83q-45 0 -90 6q-57 8 -86 14l-24.5 5t-27 6l-20.5 5q-31 10 -49 19z" />
<glyph unicode="t" horiz-adv-x="567" d="M61 836l13 65l141 39l139 213h146l-37 -213h158l-19 -104h-158l-92 -508q-8 -51 -10 -70q-4 -45 -4 -51q0 -55 24.5 -78t65.5 -23q23 0 51 7q31 6 60 18l24 -70q-18 -14 -49 -28q-29 -14 -65 -27q-39 -12 -74 -18q-53 -8 -78 -8q-63 0 -109 16q-39 14 -69 45 q-25 25 -39 65q-12 37 -12 78t4 68q2 14 7 40.5l7 37.5l90 506h-115z" />
<glyph unicode="u" horiz-adv-x="1138" d="M76 874l12 66h385l-100 -567l-8 -45q0 -8 -4.5 -22.5t-4.5 -20.5t-1 -19.5t-3 -19.5q-2 -12 -2 -31q0 -96 90 -96q37 0 72 20q49 29 76 54q31 27 65 73q27 33 47 80l107 594h264l-147 -850l108 -24l-12 -66h-354l8 176q-74 -96 -170 -149q-90 -51 -209 -52q-46 0 -86 13 q-39 12 -69.5 38.5t-45.5 65.5q-14 37 -14 94q0 20 2 35q3 22 6 49q4 37 8 56q2 16 5 29.5t5 21.5l84 473z" />
<glyph unicode="v" horiz-adv-x="907" d="M18 874l13 66h299l149 -653l203 313q29 47 49 100q16 43 17 80q0 27 -7 41q-6 16 -20 26.5t-29 16.5q-6 2 -17 5l-18 5l13 66h231q8 -8 17 -25q10 -20 10 -38q0 -8 -4 -37q-3 -22 -13 -49q-6 -20 -24 -60q-6 -14 -43 -74l-436 -677h-123l-205 872z" />
<glyph unicode="w" horiz-adv-x="1363" d="M2 874l10 66h305l125 -657l310 563h100l113 -563l163 297q16 29 23 47q4 8 8 26.5t8 26.5q8 27 13 53q0 6 3 20.5t3 20.5q0 27 -10 47q-10 18 -23 27q-20 12 -33 16q-23 8 -35 10l13 66h243q14 -12 22.5 -30.5t8.5 -51.5t-12 -82t-53 -119l-404 -677h-119l-102 538 l-297 -538h-131l-172 870z" />
<glyph unicode="x" d="M-25 43q0 35 33 76q29 37 105 102l282 240l-200 389l-86 24l10 66h299l166 -326l100 86q45 37 55 50q23 25 29 36q10 16 12 27q2 8 2 23q0 16 -12 24q-8 6 -43 14l12 66h213q8 -4 17 -18q6 -9 6 -25q0 -37 -35 -84q-31 -43 -104 -106l-207 -175l227 -446l86 -20l-10 -66 h-303l-191 375l-164 -139q-37 -31 -53 -50q-18 -23 -26 -34q-10 -16 -11 -27q0 -4 -1 -11.5t-1 -9.5q0 -8 11 -22q8 -10 30 -16l-10 -66h-221q-8 8 -12.5 16.5t-4.5 26.5z" />
<glyph unicode="y" horiz-adv-x="907" d="M-205 -424l41 244h62l18 -127q8 -8 29 -17q14 -6 43 -6q41 0 73 23q35 23 72 63q43 47 72 88q34 49 67 105l27 47l-213 854l-61 24l12 66h303l152 -639l180 299q6 10 26 49l19 49q6 16 14 45q4 14 4 37q0 27 -6 41q-6 16 -20.5 26.5t-28.5 16.5q-6 2 -17.5 5t-17.5 5 l12 66h232q12 -12 18 -25q8 -16 8 -38q0 -8 -4 -37q-2 -18 -12 -47q-9 -28 -25 -62q-12 -27 -40 -74l-439 -716q-43 -72 -98 -150q-43 -61 -102 -121q-49 -49 -111 -82q-59 -31 -127 -30q-10 0 -26.5 1t-22.5 1q-27 0 -39 2q-6 0 -17.5 2t-17.5 4q-25 4 -39 8z" />
<glyph unicode="z" horiz-adv-x="796" d="M-57 0l8 49l516 801h-72q-37 0 -55 -2q-10 -2 -26.5 -5t-24.5 -3q-23 -2 -45 -11q-20 -6 -31 -14l-61 -156h-72l49 281h659l-8 -53l-516 -797h82q18 0 60 4q37 4 57 8q37 8 53 15q29 10 43 20l82 178h72l-74 -315h-696z" />
<glyph unicode="{" horiz-adv-x="712" d="M29 532l14 86q104 4 168 52q63 49 86 164l55 315q25 143 109 207q88 66 239 65h136l-15 -88h-61q-72 0 -111 -32.5t-55 -120.5l-64 -361q-8 -43 -32 -92q-18 -37 -56 -74q-34 -34 -73.5 -55t-85.5 -31v-2q78 -18 118 -69q43 -53 43 -131v-25q0 -8 -4 -29l-53 -303 q-6 -34 -6 -61q0 -61 27 -97q27 -37 84 -36h61l-16 -88h-136q-66 0 -112 18q-51 20 -78 47q-29 29 -45 76q-16 45 -16 94q0 31 8 80l47 274q6 34 6 62q0 80 -47 117q-45 34 -135 38z" />
<glyph unicode="|" horiz-adv-x="450" d="M139 -442v1863h144v-1863h-144z" />
<glyph unicode="}" horiz-adv-x="712" d="M-121 -274l17 88h61q70 0 111 34.5t55 118.5l63 365q8 51 31 94q18 37 55 74q29 29 74 53.5t88 32.5v2q-71 15 -117 67q-45 51 -45 133q0 4 1 12.5t1 12.5q0 16 2 27l54 299q6 34 6 61q0 63 -26.5 98t-84.5 35h-61l14 88h135q129 0 193 -63q61 -61 61 -168q0 -25 -2 -39 l-6 -43l-47 -274q-6 -34 -6 -62q0 -80 47 -117q41 -33 135 -37l-14 -86q-55 -4 -94 -14q-33 -10 -74 -39q-33 -25 -55 -65t-31 -99l-55 -315q-25 -139 -109 -205q-88 -70 -242 -69h-135z" />
<glyph unicode="~" horiz-adv-x="1165" d="M86 481q6 78 20 137q16 74 46 125q29 53 84 88q53 35 141 35q40 0 74 -12q57 -20 67 -27q27 -14 62 -39l57 -45l39 -34q23 -20 51 -39q41 -27 53 -33q27 -12 51 -12q33 0 58 12q18 10 41 43q14 20 28 76q10 37 21 110h143q-10 -72 -24 -137q-16 -68 -47 -125 q-29 -53 -84 -88q-53 -35 -136 -35q-49 0 -92 19q-49 20 -84 45q-53 37 -77 57l-72 57q-35 29 -66 46q-35 18 -63 18q-35 0 -60 -12q-23 -12 -43 -41q-14 -23 -28 -74q-12 -45 -19 -115h-141z" />
<glyph unicode="&#xa1;" horiz-adv-x="796" d="M76 -410l264 922h94l-59 -922h-299zM266 794.5q0 28.5 15 65.5q12 31 34.5 53.5t53 35t63.5 12.5q35 0 65.5 -12.5t53 -35t35 -53.5t12.5 -65.5t-12 -65.5q-10 -27 -35 -51q-27 -27 -53 -37q-31 -12 -66 -12q-33 0 -63 12q-27 10 -54 37q-25 25 -34 51q-15 37 -15 65.5z " />
<glyph unicode="&#xa2;" d="M123 535q0 158 47 270q49 115 127 196q78 80 174 123q96 41 199 45l30 172h93l-31 -174q12 0 32.5 -4t32.5 -4q23 -2 64 -10t57 -12q25 -6 43 -13l-49 -286h-72l-14 170q-39 45 -113 57l-133 -754q66 10 121 37q45 23 109 64l43 -64q-33 -29 -52 -41q-39 -27 -69.5 -45 t-79.5 -39q-47 -20 -92 -28l-35 -195h-90l31 184q-84 0 -160 27q-70 25 -117 72t-72 110q-24 65 -24 142zM391 545q0 -101 37 -160t90 -74l133 754q-51 -14 -98 -59q-45 -43 -84 -113q-35 -66 -57 -156q-21 -83 -21 -192z" />
<glyph unicode="&#xa3;" d="M-4 0l20 123l93 72q53 39 90 79q43 47 65 95q25 53 25 120q0 41 -4 64q-8 45 -15 68h-161l18 100h88q-12 43 -18 86q-8 57 -9 94q0 109 33 193q33 86 100.5 143t165.5 88q102 31 236 31q31 0 84 -4q49 -4 76 -9q43 -8 69 -14q35 -8 74 -16l-53 -305h-88l-8 194 q-27 20 -70 36.5t-96 16.5q-68 0 -117 -30q-53 -33 -84 -84t-51 -137q-16 -72 -17 -183v-51q0 -10 1 -26.5t1 -22.5h263l-19 -100h-242v-35v-35q0 -55 -12 -109q-12 -51 -35 -96q-27 -51 -47 -80q-18 -25 -57 -63h610l-37 -203h-872z" />
<glyph unicode="&#xa4;" d="M98 350l103 103q-31 49 -49.5 104t-18.5 118.5t18.5 119t49.5 104.5l-103 105l105 104l100 -107q55 35 105 52q55 18 118.5 18t118.5 -18q49 -16 105 -52l104 105l102 -100l-102 -107q31 -49 49.5 -104.5t18.5 -119t-18.5 -118.5t-49.5 -104l102 -103l-100 -102l-106 104 q-47 -33 -105 -51q-55 -18 -118.5 -18t-118.5 18q-49 16 -105 51l-104 -104zM272 676q0 -55 21 -98q23 -49 55 -82q31 -31 80 -54q43 -20 98 -20q57 0 101 20q53 25 82 54q33 33 55 82q18 39 18 98q0 61 -18 100q-22 46 -55 80q-33 33 -82 55q-43 20 -101 21q-55 0 -98 -21 q-46 -22 -80 -55.5t-55 -79.5q-21 -43 -21 -100z" />
<glyph unicode="&#xa5;" d="M72 297l18 102h256l25 138h-256l16 102h234l-154 612l-80 25l12 65h473l-12 -65l-117 -27l111 -547l317 549l-104 25l10 65h332l-12 -65l-88 -21l-373 -616h231l-16 -102h-256l-23 -138h254l-18 -102h-254l-37 -207l139 -24l-12 -66h-553l10 66l148 24l37 207h-258z" />
<glyph unicode="&#xa6;" horiz-adv-x="450" d="M182 180h142v-622h-142v622zM182 801v620h142v-620h-142z" />
<glyph unicode="&#xa7;" d="M37 -205l47 262h66l14 -133q12 -15 31 -30q12 -10 45 -27q23 -10 53 -21q27 -8 63 -8q43 0 80 12q39 12 62 33q29 25 39 51q14 37 14 66q0 52 -31 92t-80 74l-102 70q-51 31 -105 77q-51 45 -79 97q-31 55 -31 129q0 59 22 114q23 51 60 90q40 40 92 68q51 27 115 43 q-45 31 -58 41q-27 23 -47 53q-20 29 -33 68q-14 43 -14 80q0 78 33 137q31 57 86 90q61 37 125 51q76 16 149 17q61 0 140 -11q115 -14 133 -18l-41 -242h-68l-12 111q-16 16 -28.5 24.5t-41.5 20.5q-12 4 -49 14q-25 6 -49 6q-80 0 -123 -36q-41 -35 -41 -101 q0 -41 18.5 -67.5t51.5 -53.5q37 -29 69 -47l82 -45l80 -49q41 -25 72 -59.5t49 -75.5q18 -43 18 -98q0 -68 -20 -117q-23 -53 -62 -96q-37 -41 -94 -72q-55 -31 -127 -49q37 -27 64 -54q25 -25 49 -63q20 -33 32.5 -72t12.5 -84q0 -147 -109 -231q-106 -82 -325 -82 q-47 0 -96 6q-57 6 -88 14q-35 8 -70 19q-8 2 -17.5 5t-15.5 4t-10 3zM338 608q0 -35 14 -61q18 -33 39 -53.5t55 -44.5q12 -8 36 -21.5t32 -19.5q43 10 72 26q27 14 57 45q20 20 39 58q14 29 14 61q0 35 -14 61q-14 25 -39 48q-25 20 -57 41q-12 6 -37 17t-31 15 q-39 -6 -69.5 -20.5t-59.5 -38.5q-18 -16 -39 -53q-12 -23 -12 -60z" />
<glyph unicode="&#xa8;" horiz-adv-x="681" d="M164 1251.5q0 28.5 8 47t27 36.5q14 14 38.5 24.5t47.5 10.5q20 0 44.5 -10t39.5 -25t24 -37q10 -25 10 -47t-10 -47q-9 -22 -24 -37q-18 -18 -37 -26q-25 -10 -47.5 -10.5t-46.5 10.5q-20 10 -39 26q-18 18 -26.5 37t-8.5 47.5zM518 1251.5q0 22.5 10 46.5q8 18 27 37 q14 14 38.5 24.5t45.5 10.5q23 0 47.5 -10t38.5 -25q15 -15 25 -37q10 -25 10 -47t-10 -47q-9 -22 -25 -37q-16 -16 -39 -26q-25 -10 -47 -11q-20 0 -45 11q-20 10 -39 26q-18 18 -27 37q-10 25 -10 47.5z" />
<glyph unicode="&#xa9;" horiz-adv-x="1529" d="M86 670q0 95 25 184q25 92 69 166q41 68 109 139q55 57 139 109q74 45 166 69q90 25 182 25q95 0 185 -25q92 -25 165 -69q82 -49 142 -109q57 -57 106 -139q45 -74 70 -166q25 -89 24 -184q0 -95 -24 -185q-25 -88 -70 -163q-53 -88 -106 -140q-68 -63 -141.5 -108 t-165.5 -70q-89 -25 -185 -24q-141 0 -268 55t-219 147t-147.5 219.5t-55.5 268.5zM176 670q0 -123 47 -236q45 -106 129 -194q80 -83 191 -129q113 -47 233 -48q123 0 236 48q104 43 190 129q82 82 129 194.5t47 235.5q0 88 -20 161q-23 78 -62 146q-41 70 -94 123 q-55 55 -121 94q-76 45 -143 63q-74 20 -162 21q-127 0 -233 -47q-113 -49 -191 -131q-86 -90 -129 -193q-47 -112 -47 -237zM385 664q0 109 31 188q33 84 84 133q57 53 135 78q86 27 178 27q76 0 148 -11q80 -12 120 -20l4 -207h-67l-21 104q-45 27 -82 39q-40 12 -98 13 q-65 0 -110 -19q-47 -18 -76 -59t-41 -105q-14 -76 -15 -159q0 -164 53.5 -248t182.5 -84q82 0 121 16q47 20 76 43l20 119h72l-4 -219q-14 -6 -60 -14l-67 -13q-47 -8 -78 -10q-27 -2 -80 -2q-94 0 -176 29q-76 27 -135 82q-51 49 -84 129q-31 76 -31 170z" />
<glyph unicode="&#xaa;" horiz-adv-x="544" d="M88 983q0 76 24.5 143.5t71.5 120.5t115 84t158 31q43 0 80 -10l51 -17l6 4l4 4h3q3 0 5 3q4 2 9.5 6t9.5 6h51l-92 -512l55 -15l-10 -49h-203v43q-33 -23 -70 -39q-43 -18 -102 -18q-37 0 -66 14q-33 16 -53 43q-23 31 -35 68q-12 41 -12 90zM248 991q0 -71 18 -104 t53 -33q27 0 51.5 8t55.5 29l70 387q-20 8 -33 10q-25 4 -39 4q-45 0 -78 -26q-35 -29 -55 -70q-25 -47 -33 -98q-10 -58 -10 -107z" />
<glyph unicode="&#xab;" d="M80 430l12 66l383 356h100l-262 -389l125 -389h-100zM489 430l13 66l383 356h100l-260 -389l123 -389h-100z" />
<glyph unicode="&#xac;" horiz-adv-x="1239" d="M115 608v144h952v-549h-141v405h-811z" />
<glyph unicode="&#xad;" horiz-adv-x="681" d="M43 395l33 174h532l-33 -174h-532z" />
<glyph unicode="&#xae;" horiz-adv-x="1529" d="M86 670q0 95 25 184q25 92 69 166q41 68 109 139q55 57 139 109q74 45 166 69q90 25 182 25q95 0 185 -25q92 -25 165 -69q82 -49 142 -109q57 -57 106 -139q45 -74 70 -166q25 -89 24 -184q0 -95 -24 -185q-25 -88 -70 -163q-53 -88 -106 -140q-68 -63 -141.5 -108 t-165.5 -70q-89 -25 -185 -24q-141 0 -268 55t-219 147t-147.5 219.5t-55.5 268.5zM176 670q0 -123 47 -236q45 -106 129 -194q80 -83 191 -129q113 -47 233 -48q123 0 236 48q104 43 190 129q82 82 129 194.5t47 235.5q0 88 -20 161q-23 78 -62 146q-41 70 -94 123 q-55 55 -121 94q-76 45 -143 63q-74 20 -162 21q-127 0 -233 -47q-113 -49 -191 -131q-86 -90 -129 -193q-47 -112 -47 -237zM426 1026v55h350q82 0 144 -16q59 -16 98 -45q39 -31 57 -70q18 -41 19 -90q0 -76 -47.5 -135t-133.5 -86l207 -289l72 -16v-58h-225l-232 342h-49 v-268l94 -16v-58h-346v58l78 16v660zM686 694h25q104 0 151 35t47 129q0 51 -12 78t-39 43t-63 22q-25 4 -88 5h-21v-312z" />
<glyph unicode="&#xaf;" d="M137 1452v94h1059v-94h-1059z" />
<glyph unicode="&#xb0;" horiz-adv-x="817" d="M184 1051q0 63 25 120q25 59 65 101q39 39 99 65q55 25 121 25q63 0 120 -25q59 -25 100.5 -65.5t65.5 -100.5q25 -57 25 -120q0 -66 -25 -121q-27 -59 -65 -99q-41 -41 -101 -65q-57 -25 -120 -25q-66 0 -121 25q-59 27 -98 65.5t-66 98.5q-25 55 -25 121zM303 1049 q0 -41 14 -76q14 -33 41 -64q25 -27 60 -43q37 -16 75.5 -16t75.5 16q39 18 62 43q23 27 39 64q14 35 14 76q0 45 -14 79q-16 37 -39 64q-23 25 -62 43q-31 14 -75.5 14t-75.5 -14q-35 -16 -60 -43q-27 -31 -41 -64q-14 -34 -14 -79z" />
<glyph unicode="&#xb1;" horiz-adv-x="1122" d="M86 0v141h952v-141h-952zM86 608v144h403v405h144v-405h405v-144h-405v-405h-144v405h-403z" />
<glyph unicode="&#xb2;" horiz-adv-x="612" d="M41 535l18 114q88 68 164 133q82 72 129 127q49 59 82 123q31 61 31 129q0 49 -23 84q-20 33 -67 33q-29 0 -51 -8q-29 -10 -43 -23l-48 -117h-61l33 193l98 18q43 8 100 9q119 0 182.5 -51.5t63.5 -137.5q0 -70 -35 -133q-31 -55 -94 -119q-53 -53 -137 -114l-170 -117 h362l-24 -143h-510z" />
<glyph unicode="&#xb3;" horiz-adv-x="612" d="M41 549l27 203h65l8 -131q29 -14 47 -19q28 -6 62 -6q92 0 135 49t43 139q0 59 -31 90q-29 29 -80 33l-67 6l12 84l64 4q59 2 96 43q37 40 37 130q0 47 -25 75q-25 27 -67 27q-31 0 -52 -6q-18 -6 -45 -21l-47 -119h-61l35 193l88 18q41 8 108 9q53 0 101 -13 q43 -12 79 -34q31 -20 50 -54q16 -31 16 -73q0 -98 -53 -150q-57 -55 -148 -70q82 -12 125 -55t43 -113q0 -51 -22.5 -102t-63.5 -86t-108 -57q-61 -20 -154 -21q-66 0 -117 8q-80 13 -100 19z" />
<glyph unicode="&#xb4;" horiz-adv-x="681" d="M254 1118l4 33l197 272h284l-4 -37l-395 -268h-86z" />
<glyph unicode="&#xb5;" horiz-adv-x="1179" d="M-57 -436l8 45q16 33 26 61q23 61 35 105q18 61 37 135q20 80 35 160l137 780l-117 24l15 66h385l-103 -569l-8 -43l-6 -45q0 -6 -1 -19.5t-3 -19.5q-2 -12 -2 -29q0 -96 90 -96q37 0 72 20q43 25 73 54q35 33 66 71q23 31 47 82l107 594h266l-148 -850l88 -24l-12 -66 h-330l5 174q-23 -31 -52 -63q-35 -39 -65 -64q-35 -29 -72 -47q-41 -20 -72 -20q-39 0 -65.5 12t-44.5 37l-25 -125q-10 -49 -28 -121l-31 -115q-4 -16 -10.5 -34.5t-12.5 -39t-10 -30.5h-274z" />
<glyph unicode="&#xb6;" d="M35 952q0 88 28 162q31 76 82 123q59 53 136 78q80 27 188 26h487v-73l-82 -23v-1503h-141v1503h-135v-1503h-139v803q-88 4 -164 30q-80 29 -135 76q-57 47 -92 125q-33 72 -33 176z" />
<glyph unicode="&#xb7;" horiz-adv-x="512" d="M104 678q0 33 12.5 63.5t35 53t53.5 34.5q37 14 65.5 14.5t63.5 -14.5q31 -12 53 -34q27 -27 37 -54q12 -31 12 -63q0 -35 -12 -66q-10 -27 -37 -53q-23 -23 -53.5 -35t-63.5 -12q-35 0 -65.5 12.5t-53 35t-35 53t-12.5 65.5z" />
<glyph unicode="&#x2219;" horiz-adv-x="512" d="M104 678q0 33 12.5 63.5t35 53t53.5 34.5q37 14 65.5 14.5t63.5 -14.5q31 -12 53 -34q27 -27 37 -54q12 -31 12 -63q0 -35 -12 -66q-10 -27 -37 -53q-23 -23 -53.5 -35t-63.5 -12q-35 0 -65.5 12.5t-53 35t-35 53t-12.5 65.5z" />
<glyph unicode="&#xb8;" horiz-adv-x="681" d="M-55 -403l37 98q35 -14 59 -17q37 -4 43 -4q29 0 47 9q25 10 35 20q14 14 20.5 28.5t6.5 35.5q0 37 -23 59q-25 25 -84 27l86 194h90l-43 -110q45 -8 68 -17q33 -12 53 -31q25 -20 37 -44.5t12 -59.5q0 -55 -24 -96q-27 -43 -66 -68q-39 -27 -96 -39q-61 -14 -111 -14 q-31 0 -72 6q-34 7 -75 23z" />
<glyph unicode="&#xb9;" horiz-adv-x="612" d="M76 535l10 67l141 14l103 572l-148 -41l13 65l249 136h91l-129 -732l139 -14l-13 -67h-456z" />
<glyph unicode="&#xba;" horiz-adv-x="612" d="M125 1008q0 66 22 133q20 63 66 114q43 49 106.5 78t137.5 29q47 0 92 -16q39 -14 72 -48q29 -29 45 -73.5t16 -100.5q0 -68 -23 -135q-20 -61 -65 -112.5t-105 -77.5q-63 -29 -139 -29q-45 0 -90 16q-39 14 -71.5 47t-47.5 74q-16 46 -16 101zM285 958q0 -119 80 -118 q41 0 71.5 34.5t48.5 81.5q20 53 29 107q10 61 10 104q0 59 -22 93q-23 31 -64 30q-27 0 -49 -16.5t-41 -42.5q-16 -23 -29 -60q-8 -23 -20 -71q-9 -37 -12 -74q-2 -25 -2 -68z" />
<glyph unicode="&#xbb;" d="M-2 74l260 389l-123 389h101l256 -356l-13 -66l-381 -356h-100zM408 74l260 389l-123 389h100l256 -356l-10 -66l-383 -356h-100z" />
<glyph unicode="&#xbc;" horiz-adv-x="1536" d="M288 0l965 1341h121l-963 -1341h-123zM66 535l10 67l141 14l103 572l-148 -41l13 65l249 136h91l-129 -732l139 -14l-13 -67h-456zM802 155l19 98l456 553h144l-94 -528h79l-20 -123h-82l-27 -158h-161l28 158h-342zM942 278h225l39 227q4 29 8 41q2 8 5 22.5t5 20.5 l13 50z" />
<glyph unicode="&#xbd;" horiz-adv-x="1536" d="M241 0l965 1341h121l-963 -1341h-123zM45 535l10 67l141 14l103 572l-148 -41l13 65l249 136h91l-129 -732l139 -14l-13 -67h-456zM883 0l18 114q88 68 164 133q82 72 129 127q49 59 82 123q31 61 31 129q0 49 -23 84q-20 33 -67 33q-29 0 -51 -8q-29 -10 -43 -23 l-48 -117h-61l33 193l98 18q43 8 100 9q119 0 182.5 -51.5t63.5 -137.5q0 -70 -35 -133q-31 -55 -94 -119q-53 -53 -137 -114l-170 -117h362l-24 -143h-510z" />
<glyph unicode="&#xbe;" horiz-adv-x="1536" d="M317 0l965 1341h121l-963 -1341h-123zM98 549l27 203h65l8 -131q29 -14 47 -19q28 -6 62 -6q92 0 135 49t43 139q0 59 -31 90q-29 29 -80 33l-67 6l12 84l64 4q59 2 96 43q37 40 37 130q0 47 -25 75q-25 27 -67 27q-31 0 -52 -6q-18 -6 -45 -21l-47 -119h-61l35 193 l88 18q41 8 108 9q53 0 101 -13q43 -12 79 -34q31 -20 50 -54q16 -31 16 -73q0 -98 -53 -150q-57 -55 -148 -70q82 -12 125 -55t43 -113q0 -51 -22.5 -102t-63.5 -86t-108 -57q-61 -20 -154 -21q-66 0 -117 8q-80 13 -100 19zM819 155l19 98l456 553h144l-94 -528h79 l-20 -123h-82l-27 -158h-161l28 158h-342zM959 278h225l39 227q4 29 8 41q2 8 5 22.5t5 20.5l13 50z" />
<glyph unicode="&#xbf;" d="M47 -127q0 172 86 281q88 109 277 157l92 25l61 203h105l2 -314l-101 -24q-61 -14 -110 -41q-45 -25 -78 -64t-47 -92q-16 -59 -17 -127q0 -92 45 -149q41 -53 146 -54q35 0 78 13q41 12 67 34l66 193h90l-41 -295q-59 -18 -150 -33q-94 -14 -161 -14q-209 0 -307 78 q-103 80 -103 223zM481 790.5q0 28.5 15 65.5q12 31 34.5 53.5t53 34.5t63.5 12q35 0 65.5 -12t53 -34.5t35 -53.5t12.5 -65.5t-12 -65.5q-10 -27 -35 -51q-23 -23 -53 -35q-37 -14 -66 -14t-63 14q-31 12 -54 35q-25 25 -34 51q-15 37 -15 65.5z" />
<glyph unicode="&#xc0;" horiz-adv-x="1363" d="M-106 0l14 74l102 26l670 1252h240l254 -1252l108 -26l-14 -74h-549l14 74l137 26l-59 346h-473l-184 -346l147 -26l-12 -74h-395zM393 557h398l-103 561zM542 1720l9 37h264l137 -272l-6 -33h-86z" />
<glyph unicode="&#xc1;" horiz-adv-x="1363" d="M-106 0l14 74l102 26l670 1252h240l254 -1252l108 -26l-14 -74h-549l14 74l137 26l-59 346h-473l-184 -346l147 -26l-12 -74h-395zM393 557h398l-103 561zM690 1452l4 33l197 272h284l-4 -37l-395 -268h-86z" />
<glyph unicode="&#xc2;" horiz-adv-x="1363" d="M-106 0l14 74l102 26l670 1252h240l254 -1252l108 -26l-14 -74h-549l14 74l137 26l-59 346h-473l-184 -346l147 -26l-12 -74h-395zM393 557h398l-103 561zM478 1452l6 33l268 293h213l168 -293l-6 -33h-78l-219 162l-277 -162h-75z" />
<glyph unicode="&#xc3;" horiz-adv-x="1363" d="M-106 0l14 74l102 26l670 1252h240l254 -1252l108 -26l-14 -74h-549l14 74l137 26l-59 346h-473l-184 -346l147 -26l-12 -74h-395zM393 557h398l-103 561zM438 1442q14 63 32.5 108.5t53.5 90.5q29 37 76 63q43 25 106 25q51 0 91 -21q33 -18 69 -47l23 -18l26 -21 q14 -10 29 -16q20 -8 27 -8q35 0 57 26q18 20 41 86h100q-20 -74 -34 -108q-18 -45 -54 -90q-31 -39 -75 -64q-47 -25 -107 -24q-27 0 -49 6q-18 6 -41 16q-12 6 -37 23q-6 4 -10 7t-7 5l-7.5 5t-8.5 7q-2 2 -9 8.5l-11 10.5q-2 2 -27 20q-20 14 -29 19q-16 6 -26 6 q-37 0 -59.5 -27t-40.5 -88h-99z" />
<glyph unicode="&#xc4;" horiz-adv-x="1363" d="M-106 0l14 74l102 26l670 1252h240l254 -1252l108 -26l-14 -74h-549l14 74l137 26l-59 346h-473l-184 -346l147 -26l-12 -74h-395zM393 557h398l-103 561zM516 1585.5q0 28.5 8 47t27 36.5q14 14 38.5 24.5t47.5 10.5q20 0 44.5 -10t39.5 -25t24 -37q10 -25 10 -47 t-10 -47q-9 -22 -24 -37q-18 -18 -37 -26q-25 -10 -47.5 -10.5t-46.5 10.5q-20 10 -39 26q-18 18 -26.5 37t-8.5 47.5zM870 1585.5q0 22.5 10 46.5q8 18 27 37q14 14 38.5 24.5t45.5 10.5q23 0 47.5 -10t38.5 -25q15 -15 25 -37q10 -25 10 -47t-10 -47q-9 -22 -25 -37 q-16 -16 -39 -26q-25 -10 -47 -11q-20 0 -45 11q-20 10 -39 26q-18 18 -27 37q-10 25 -10 47.5z" />
<glyph unicode="&#xc5;" horiz-adv-x="1363" d="M-106 0l14 74l102 26l670 1252h240l254 -1252l108 -26l-14 -74h-549l14 74l137 26l-59 346h-473l-184 -346l147 -26l-12 -74h-395zM393 557h398l-103 561zM590 1450q0 39 16 82q14 37 45 67q33 33 66 45q43 16 84 16.5t84 -16.5q37 -14 67 -45q28 -28 43 -67 q16 -43 16.5 -82t-16.5 -82q-15 -40 -43 -68q-29 -29 -67 -47q-35 -16 -84 -16t-84 16.5t-65.5 47t-45.5 67.5q-16 43 -16 82zM702 1450q0 -20 8.5 -36.5t23 -31t30.5 -22.5t36.5 -8t37.5 8q20 10 32 22q10 10 21 31q8 16 8 37q0 23 -8 39q-10 20 -21 30q-12 12 -32 23 q-12 6 -37 6t-37 -6q-16 -8 -30.5 -22.5t-23 -30.5t-8.5 -39z" />
<glyph unicode="&#xc6;" horiz-adv-x="1931" d="M-162 0l12 74l125 26l852 1151l-141 19l12 71h1141l-59 -342h-90l6 218q-8 0 -31 3t-37 5q-49 4 -72 4q-12 0 -34.5 1t-32.5 1h-55h-199l-88 -492h283l57 148h90l-74 -412h-90l-4 152h-283l-90 -516h244h109q35 0 79 4q34 3 56 6q29 4 39 6l100 248h90l-84 -375h-1118 l10 74l178 26l62 346h-414l-254 -346l150 -26l-13 -74h-432zM469 557h350l113 641z" />
<glyph unicode="&#xc7;" horiz-adv-x="1363" d="M70 530q0 186 63 347q59 150 174 260q111 109 266 163q154 55 338 56q143 0 265 -17q137 -18 208 -34l-53 -338h-84v194q-53 41 -129 66q-78 25 -162 24q-125 0 -227 -51q-106 -53 -182 -147q-80 -98 -121 -230q-43 -135 -43 -301q0 -100 20 -176q20 -80 66 -139 q39 -53 109 -90q63 -33 155 -33q61 0 109 8q66 12 98 23q70 23 86 30q39 18 66 39l75 219h86l-65 -340q-49 -15 -111 -30q-51 -12 -127 -27q-68 -12 -139 -18q-94 -8 -141 -8q-145 0 -258 40q-117 43 -189 111q-74 72 -114 174q-39 98 -39 225zM408 -403l37 98 q35 -14 59 -17q37 -4 43 -4q29 0 47 9q25 10 35 20q14 14 20.5 28.5t6.5 35.5q0 37 -23 59q-25 25 -84 27l86 194h90l-43 -110q45 -8 68 -17q33 -12 53 -31q25 -20 37 -44.5t12 -59.5q0 -55 -24 -96q-27 -43 -66 -68q-39 -27 -96 -39q-61 -14 -111 -14q-31 0 -72 6 q-34 7 -75 23z" />
<glyph unicode="&#xc8;" horiz-adv-x="1363" d="M-14 0l12 74l176 26l201 1141l-166 27l12 73h1053l-62 -342h-90l6 218q-6 0 -31.5 3l-41.5 5q-57 4 -86 4q-14 0 -43 1t-43 1h-76h-137l-88 -492h280l58 148h90l-74 -412h-88l-4 152h-283l-90 -516h182h117q41 0 98 4q49 4 76 6q33 4 47 6l105 248h90l-84 -375h-1116z M528 1720l9 37h264l137 -272l-6 -33h-86z" />
<glyph unicode="&#xc9;" horiz-adv-x="1363" d="M-14 0l12 74l176 26l201 1141l-166 27l12 73h1053l-62 -342h-90l6 218q-6 0 -31.5 3l-41.5 5q-57 4 -86 4q-14 0 -43 1t-43 1h-76h-137l-88 -492h280l58 148h90l-74 -412h-88l-4 152h-283l-90 -516h182h117q41 0 98 4q49 4 76 6q33 4 47 6l105 248h90l-84 -375h-1116z M657 1452l4 33l197 272h284l-4 -37l-395 -268h-86z" />
<glyph unicode="&#xca;" horiz-adv-x="1363" d="M-14 0l12 74l176 26l201 1141l-166 27l12 73h1053l-62 -342h-90l6 218q-6 0 -31.5 3l-41.5 5q-57 4 -86 4q-14 0 -43 1t-43 1h-76h-137l-88 -492h280l58 148h90l-74 -412h-88l-4 152h-283l-90 -516h182h117q41 0 98 4q49 4 76 6q33 4 47 6l105 248h90l-84 -375h-1116z M506 1452l6 33l268 293h213l168 -293l-6 -33h-78l-219 162l-277 -162h-75z" />
<glyph unicode="&#xcb;" horiz-adv-x="1363" d="M-14 0l12 74l176 26l201 1141l-166 27l12 73h1053l-62 -342h-90l6 218q-6 0 -31.5 3l-41.5 5q-57 4 -86 4q-14 0 -43 1t-43 1h-76h-137l-88 -492h280l58 148h90l-74 -412h-88l-4 152h-283l-90 -516h182h117q41 0 98 4q49 4 76 6q33 4 47 6l105 248h90l-84 -375h-1116z M526 1585.5q0 28.5 8 47t27 36.5q14 14 38.5 24.5t47.5 10.5q20 0 44.5 -10t39.5 -25t24 -37q10 -25 10 -47t-10 -47q-9 -22 -24 -37q-18 -18 -37 -26q-25 -10 -47.5 -10.5t-46.5 10.5q-20 10 -39 26q-18 18 -26.5 37t-8.5 47.5zM880 1585.5q0 22.5 10 46.5q8 18 27 37 q14 14 38.5 24.5t45.5 10.5q23 0 47.5 -10t38.5 -25q15 -15 25 -37q10 -25 10 -47t-10 -47q-9 -22 -25 -37q-16 -16 -39 -26q-25 -10 -47 -11q-20 0 -45 11q-20 10 -39 26q-18 18 -27 37q-10 25 -10 47.5z" />
<glyph unicode="&#xcc;" horiz-adv-x="796" d="M-20 0l14 74l176 26l201 1141l-168 27l12 73h639l-12 -73l-176 -27l-201 -1141l166 -26l-13 -74h-638zM307 1720l9 37h264l137 -272l-6 -33h-86z" />
<glyph unicode="&#xcd;" horiz-adv-x="796" d="M-20 0l14 74l176 26l201 1141l-168 27l12 73h639l-12 -73l-176 -27l-201 -1141l166 -26l-13 -74h-638zM408 1452l4 33l197 272h284l-4 -37l-395 -268h-86z" />
<glyph unicode="&#xce;" horiz-adv-x="796" d="M-20 0l14 74l176 26l201 1141l-168 27l12 73h639l-12 -73l-176 -27l-201 -1141l166 -26l-13 -74h-638zM230 1452l6 33l268 293h213l168 -293l-6 -33h-78l-219 162l-277 -162h-75z" />
<glyph unicode="&#xcf;" horiz-adv-x="796" d="M-20 0l14 74l176 26l201 1141l-168 27l12 73h639l-12 -73l-176 -27l-201 -1141l166 -26l-13 -74h-638zM281 1585.5q0 28.5 8 47t27 36.5q14 14 38.5 24.5t47.5 10.5q20 0 44.5 -10t39.5 -25t24 -37q10 -25 10 -47t-10 -47q-9 -22 -24 -37q-18 -18 -37 -26 q-25 -10 -47.5 -10.5t-46.5 10.5q-20 10 -39 26q-18 18 -26.5 37t-8.5 47.5zM635 1585.5q0 22.5 10 46.5q8 18 27 37q14 14 38.5 24.5t45.5 10.5q23 0 47.5 -10t38.5 -25q15 -15 25 -37q10 -25 10 -47t-10 -47q-9 -22 -25 -37q-16 -16 -39 -26q-25 -10 -47 -11q-20 0 -45 11 q-20 10 -39 26q-18 18 -27 37q-10 25 -10 47.5z" />
<glyph unicode="&#xd0;" horiz-adv-x="1478" d="M-14 0l12 74l176 26l88 508h-172l23 123h172l90 510l-166 27l12 73h520q168 0 297 -36q131 -37 215 -107q88 -72 133.5 -174t45.5 -236q0 -180 -58 -325q-57 -147 -164 -250q-106 -104 -262 -160q-160 -57 -350 -57q-154 0 -227.5 2t-190.5 2h-194zM471 115l61 -6 q20 -2 64 -3q121 0 221 48q94 45 166 135q68 86 102 211q35 127 35 274q0 125 -30 211q-33 92 -84 143q-53 53 -132 78q-76 25 -169 25h-37l-88 -500h258l-23 -123h-258z" />
<glyph unicode="&#xd1;" horiz-adv-x="1478" d="M-18 0l12 74l176 26l201 1141l-166 27l12 73h432l436 -895l140 795l-174 27l12 73h477l-12 -73l-178 -27l-217 -1241h-115l-543 1112l-180 -1012l174 -26l-10 -74h-477zM592 1442q14 63 32.5 108.5t53.5 90.5q29 37 76 63q43 25 106 25q51 0 91 -21q33 -18 69 -47l23 -18 l26 -21q14 -10 29 -16q20 -8 27 -8q35 0 57 26q18 20 41 86h100q-20 -74 -34 -108q-18 -45 -54 -90q-31 -39 -75 -64q-47 -25 -107 -24q-27 0 -49 6q-18 6 -41 16q-12 6 -37 23q-6 4 -10 7t-7 5l-7.5 5t-8.5 7q-2 2 -9 8.5l-11 10.5q-2 2 -27 20q-20 14 -29 19q-16 6 -26 6 q-37 0 -59.5 -27t-40.5 -88h-99z" />
<glyph unicode="&#xd2;" horiz-adv-x="1478" d="M74 524q0 111 22 219q18 92 68 197q43 94 110 170q66 74 154 131q82 51 193 84q109 31 235.5 31t233 -41t178.5 -113q74 -74 112 -172q41 -104 41 -219q0 -96 -18.5 -194.5t-59 -192.5t-102.5 -174q-59 -76 -149 -141q-84 -59 -199 -95q-117 -35 -254 -34 q-127 0 -233.5 40.5t-178 112.5t-112.5 172t-41 219zM375 485q0 -92 18 -166q18 -76 56 -126q41 -57 86 -82q51 -27 122 -27q80 0 142 35q72 41 117 94t90 139q37 70 63 162q29 96 39 170q12 86 12 160q0 94 -18 168q-18 72 -58 127q-43 59 -90 84q-57 29 -123 28 q-77 0 -141 -37q-63 -37 -115 -96q-51 -61 -88 -139q-39 -84 -61 -164q-29 -102 -39 -170q-12 -86 -12 -160zM610 1720l9 37h264l137 -272l-6 -33h-86z" />
<glyph unicode="&#xd3;" horiz-adv-x="1478" d="M74 524q0 111 22 219q18 92 68 197q43 94 110 170q66 74 154 131q82 51 193 84q109 31 235.5 31t233 -41t178.5 -113q74 -74 112 -172q41 -104 41 -219q0 -96 -18.5 -194.5t-59 -192.5t-102.5 -174q-59 -76 -149 -141q-84 -59 -199 -95q-117 -35 -254 -34 q-127 0 -233.5 40.5t-178 112.5t-112.5 172t-41 219zM375 485q0 -92 18 -166q18 -76 56 -126q41 -57 86 -82q51 -27 122 -27q80 0 142 35q72 41 117 94t90 139q37 70 63 162q29 96 39 170q12 86 12 160q0 94 -18 168q-18 72 -58 127q-43 59 -90 84q-57 29 -123 28 q-77 0 -141 -37q-63 -37 -115 -96q-51 -61 -88 -139q-39 -84 -61 -164q-29 -102 -39 -170q-12 -86 -12 -160zM746 1452l4 33l197 272h284l-4 -37l-395 -268h-86z" />
<glyph unicode="&#xd4;" horiz-adv-x="1478" d="M74 524q0 111 22 219q18 92 68 197q43 94 110 170q66 74 154 131q82 51 193 84q109 31 235.5 31t233 -41t178.5 -113q74 -74 112 -172q41 -104 41 -219q0 -96 -18.5 -194.5t-59 -192.5t-102.5 -174q-59 -76 -149 -141q-84 -59 -199 -95q-117 -35 -254 -34 q-127 0 -233.5 40.5t-178 112.5t-112.5 172t-41 219zM375 485q0 -92 18 -166q18 -76 56 -126q41 -57 86 -82q51 -27 122 -27q80 0 142 35q72 41 117 94t90 139q37 70 63 162q29 96 39 170q12 86 12 160q0 94 -18 168q-18 72 -58 127q-43 59 -90 84q-57 29 -123 28 q-77 0 -141 -37q-63 -37 -115 -96q-51 -61 -88 -139q-39 -84 -61 -164q-29 -102 -39 -170q-12 -86 -12 -160zM572 1452l6 33l268 293h213l168 -293l-6 -33h-78l-219 162l-277 -162h-75z" />
<glyph unicode="&#xd5;" horiz-adv-x="1478" d="M74 524q0 111 22 219q18 92 68 197q43 94 110 170q66 74 154 131q82 51 193 84q109 31 235.5 31t233 -41t178.5 -113q74 -74 112 -172q41 -104 41 -219q0 -96 -18.5 -194.5t-59 -192.5t-102.5 -174q-59 -76 -149 -141q-84 -59 -199 -95q-117 -35 -254 -34 q-127 0 -233.5 40.5t-178 112.5t-112.5 172t-41 219zM375 485q0 -92 18 -166q18 -76 56 -126q41 -57 86 -82q51 -27 122 -27q80 0 142 35q72 41 117 94t90 139q37 70 63 162q29 96 39 170q12 86 12 160q0 94 -18 168q-18 72 -58 127q-43 59 -90 84q-57 29 -123 28 q-77 0 -141 -37q-63 -37 -115 -96q-51 -61 -88 -139q-39 -84 -61 -164q-29 -102 -39 -170q-12 -86 -12 -160zM555 1442q14 63 32.5 108.5t53.5 90.5q29 37 76 63q43 25 106 25q51 0 91 -21q33 -18 69 -47l23 -18l26 -21q14 -10 29 -16q20 -8 27 -8q35 0 57 26q18 20 41 86 h100q-20 -74 -34 -108q-18 -45 -54 -90q-31 -39 -75 -64q-47 -25 -107 -24q-27 0 -49 6q-18 6 -41 16q-12 6 -37 23q-6 4 -10 7t-7 5l-7.5 5t-8.5 7q-2 2 -9 8.5l-11 10.5q-2 2 -27 20q-20 14 -29 19q-16 6 -26 6q-37 0 -59.5 -27t-40.5 -88h-99z" />
<glyph unicode="&#xd6;" horiz-adv-x="1478" d="M74 524q0 111 22 219q18 92 68 197q43 94 110 170q66 74 154 131q82 51 193 84q109 31 235.5 31t233 -41t178.5 -113q74 -74 112 -172q41 -104 41 -219q0 -96 -18.5 -194.5t-59 -192.5t-102.5 -174q-59 -76 -149 -141q-84 -59 -199 -95q-117 -35 -254 -34 q-127 0 -233.5 40.5t-178 112.5t-112.5 172t-41 219zM375 485q0 -92 18 -166q18 -76 56 -126q41 -57 86 -82q51 -27 122 -27q80 0 142 35q72 41 117 94t90 139q37 70 63 162q29 96 39 170q12 86 12 160q0 94 -18 168q-18 72 -58 127q-43 59 -90 84q-57 29 -123 28 q-77 0 -141 -37q-63 -37 -115 -96q-51 -61 -88 -139q-39 -84 -61 -164q-29 -102 -39 -170q-12 -86 -12 -160zM619 1585.5q0 28.5 8 47t27 36.5q14 14 38.5 24.5t47.5 10.5q20 0 44.5 -10t39.5 -25t24 -37q10 -25 10 -47t-10 -47q-9 -22 -24 -37q-18 -18 -37 -26 q-25 -10 -47.5 -10.5t-46.5 10.5q-20 10 -39 26q-18 18 -26.5 37t-8.5 47.5zM973 1585.5q0 22.5 10 46.5q8 18 27 37q14 14 38.5 24.5t45.5 10.5q23 0 47.5 -10t38.5 -25q15 -15 25 -37q10 -25 10 -47t-10 -47q-9 -22 -25 -37q-16 -16 -39 -26q-25 -10 -47 -11q-20 0 -45 11 q-20 10 -39 26q-18 18 -27 37q-10 25 -10 47.5z" />
<glyph unicode="&#xd7;" horiz-adv-x="1165" d="M180 356l324 326l-324 322l105 104l321 -324l326 324l100 -102l-323 -324l323 -326l-100 -102l-326 324l-325 -324z" />
<glyph unicode="&#xd8;" horiz-adv-x="1478" d="M-39 -55l229 229q-55 66 -86 158q-31 90 -30 192q0 111 22 219q18 92 68 197q43 94 110 170q66 74 154 131q82 51 193 84q109 31 235 31q117 0 217 -35q98 -35 170 -96l166 166h145l-239 -242q49 -63 77.5 -153.5t28.5 -184.5q0 -96 -18.5 -194.5t-59 -192.5t-102.5 -174 q-59 -76 -149 -141q-84 -59 -199 -95q-117 -35 -254 -34q-106 0 -209 32q-96 31 -166 88l-153 -155h-150zM375 485q0 -10 1 -30.5t1 -30.5q0 -31 6 -57l700 698q-33 88 -98 137q-63 49 -154 49q-77 0 -141 -37q-63 -37 -115 -96q-51 -61 -88 -139q-39 -84 -61 -164 q-29 -102 -39 -170q-12 -86 -12 -160zM416 252q35 -84 94 -125q61 -43 147 -43q80 0 142 35q72 41 117 94t90 139q37 70 63 162q29 96 39 170q12 86 12 160q0 37 -2 53l-6 51z" />
<glyph unicode="&#xd9;" horiz-adv-x="1478" d="M168 1268l12 73h619l-13 -73l-178 -27l-112 -655q-6 -35 -17 -115q-6 -53 -6 -82q0 -139 69.5 -202.5t196.5 -63.5q92 0 160 24q66 25 117 72q45 41 78 109q31 61 43 135l137 778l-176 27l12 73h457l-13 -73l-157 -27l-135 -770q-18 -111 -58 -197q-41 -90 -108.5 -155.5 t-165.5 -100.5q-102 -37 -242 -36q-135 0 -229 30.5t-158 87.5q-61 55 -92 131q-29 72 -29 168q0 39 6 84q10 72 15 101l112 657zM643 1720l9 37h264l137 -272l-6 -33h-86z" />
<glyph unicode="&#xda;" horiz-adv-x="1478" d="M168 1268l12 73h619l-13 -73l-178 -27l-112 -655q-6 -35 -17 -115q-6 -53 -6 -82q0 -139 69.5 -202.5t196.5 -63.5q92 0 160 24q66 25 117 72q45 41 78 109q31 61 43 135l137 778l-176 27l12 73h457l-13 -73l-157 -27l-135 -770q-18 -111 -58 -197q-41 -90 -108.5 -155.5 t-165.5 -100.5q-102 -37 -242 -36q-135 0 -229 30.5t-158 87.5q-61 55 -92 131q-29 72 -29 168q0 39 6 84q10 72 15 101l112 657zM799 1452l4 33l197 272h284l-4 -37l-395 -268h-86z" />
<glyph unicode="&#xdb;" horiz-adv-x="1478" d="M168 1268l12 73h619l-13 -73l-178 -27l-112 -655q-6 -35 -17 -115q-6 -53 -6 -82q0 -139 69.5 -202.5t196.5 -63.5q92 0 160 24q66 25 117 72q45 41 78 109q31 61 43 135l137 778l-176 27l12 73h457l-13 -73l-157 -27l-135 -770q-18 -111 -58 -197q-41 -90 -108.5 -155.5 t-165.5 -100.5q-102 -37 -242 -36q-135 0 -229 30.5t-158 87.5q-61 55 -92 131q-29 72 -29 168q0 39 6 84q10 72 15 101l112 657zM625 1452l6 33l268 293h213l168 -293l-6 -33h-78l-219 162l-277 -162h-75z" />
<glyph unicode="&#xdc;" horiz-adv-x="1478" d="M168 1268l12 73h619l-13 -73l-178 -27l-112 -655q-6 -35 -17 -115q-6 -53 -6 -82q0 -139 69.5 -202.5t196.5 -63.5q92 0 160 24q66 25 117 72q45 41 78 109q31 61 43 135l137 778l-176 27l12 73h457l-13 -73l-157 -27l-135 -770q-18 -111 -58 -197q-41 -90 -108.5 -155.5 t-165.5 -100.5q-102 -37 -242 -36q-135 0 -229 30.5t-158 87.5q-61 55 -92 131q-29 72 -29 168q0 39 6 84q10 72 15 101l112 657zM672 1585.5q0 28.5 8 47t27 36.5q14 14 38.5 24.5t47.5 10.5q20 0 44.5 -10t39.5 -25t24 -37q10 -25 10 -47t-10 -47q-9 -22 -24 -37 q-18 -18 -37 -26q-25 -10 -47.5 -10.5t-46.5 10.5q-20 10 -39 26q-18 18 -26.5 37t-8.5 47.5zM1026 1585.5q0 22.5 10 46.5q8 18 27 37q14 14 38.5 24.5t45.5 10.5q23 0 47.5 -10t38.5 -25q15 -15 25 -37q10 -25 10 -47t-10 -47q-9 -22 -25 -37q-16 -16 -39 -26 q-25 -10 -47 -11q-20 0 -45 11q-20 10 -39 26q-18 18 -27 37q-10 25 -10 47.5z" />
<glyph unicode="&#xdd;" horiz-adv-x="1249" d="M104 1268l15 73h635l-13 -73l-186 -27l178 -555l365 555l-160 27l14 73h457l-14 -73l-148 -27l-465 -692l-80 -449l207 -26l-12 -74h-721l12 74l218 26l79 443l-233 698zM709 1452l4 33l197 272h284l-4 -37l-395 -268h-86z" />
<glyph unicode="&#xde;" horiz-adv-x="1249" d="M-14 0l12 74l176 26l201 1141l-166 27l12 73h639l-12 -73l-178 -27l-29 -158h111q113 0 204 -26q82 -23 140 -72q53 -45 80 -113q27 -70 26 -145q0 -98 -31 -184q-29 -80 -100 -146q-66 -59 -174 -94q-111 -35 -254 -35h-145l-29 -168l168 -26l-12 -74h-639zM518 379h45 q346 0 346 336q0 129 -61 194q-61 63 -182 64h-43z" />
<glyph unicode="&#xdf;" d="M-76 0l13 66l86 24l151 862q20 113 59 211q37 90 97 154q58 61 141 92q88 33 193 33q176 0 256 -82q82 -86 81 -244q0 -18 -4 -63q-4 -41 -8 -68q-47 0 -94 -10q-39 -8 -74 -32.5t-51 -55.5t-16 -84q0 -40 12 -74q8 -25 35 -65q23 -37 47 -66q12 -14 53 -70 q29 -39 45 -84q18 -49 19 -108q0 -82 -25 -146q-25 -66 -76 -112q-51 -49 -121 -72q-80 -27 -165 -26q-70 0 -136 14q-61 14 -82 26l35 224h66l16 -133q12 -10 41 -27q18 -10 57 -10q34 0 62 12q27 12 45 37q16 23 27 57q8 31 8 72q0 49 -10 78q-12 37 -31 65q-23 39 -43 64 q-47 57 -51 63q-29 35 -52 86q-20 47 -20 113q0 53 16 108q12 43 45 91q29 41 70 69q39 27 90 43q4 25 8 78t4 66q0 86 -24 124q-25 41 -80 41q-41 0 -70 -24q-31 -27 -51 -74q-25 -57 -41 -121q-12 -47 -35 -170l-166 -952h-352z" />
<glyph unicode="&#xe0;" d="M25 319q0 131 38 246q39 113 115 205q74 89 178 141q106 53 232 54q72 0 137 -13q70 -14 115 -32l82 36h53l-152 -866l109 -33l-8 -57h-346l-5 137q-33 -39 -59 -61q-45 -37 -70 -51q-35 -20 -75 -33q-40 -12 -80 -12q-59 0 -107 20q-51 23 -84 63q-39 49 -55 107 q-18 63 -18 149zM287 350q0 -53 10 -100q8 -39 28.5 -69.5t39.5 -41.5q22 -12 43 -12q23 0 47 12q27 14 49 33q25 20 45 45q22 25 37 49l98 563q-22 15 -55 25q-31 8 -70 8q-63 0 -110 -45q-51 -49 -87 -117q-37 -74 -55 -165q-20 -103 -20 -185zM397 1386l9 37h264 l137 -272l-6 -33h-86z" />
<glyph unicode="&#xe1;" d="M25 319q0 131 38 246q39 113 115 205q74 89 178 141q106 53 232 54q72 0 137 -13q70 -14 115 -32l82 36h53l-152 -866l109 -33l-8 -57h-346l-5 137q-33 -39 -59 -61q-45 -37 -70 -51q-35 -20 -75 -33q-40 -12 -80 -12q-59 0 -107 20q-51 23 -84 63q-39 49 -55 107 q-18 63 -18 149zM287 350q0 -53 10 -100q8 -39 28.5 -69.5t39.5 -41.5q22 -12 43 -12q23 0 47 12q27 14 49 33q25 20 45 45q22 25 37 49l98 563q-22 15 -55 25q-31 8 -70 8q-63 0 -110 -45q-51 -49 -87 -117q-37 -74 -55 -165q-20 -103 -20 -185zM545 1118l4 33l197 272h284 l-4 -37l-395 -268h-86z" />
<glyph unicode="&#xe2;" d="M25 319q0 131 38 246q39 113 115 205q74 89 178 141q106 53 232 54q72 0 137 -13q70 -14 115 -32l82 36h53l-152 -866l109 -33l-8 -57h-346l-5 137q-33 -39 -59 -61q-45 -37 -70 -51q-35 -20 -75 -33q-40 -12 -80 -12q-59 0 -107 20q-51 23 -84 63q-39 49 -55 107 q-18 63 -18 149zM287 350q0 -53 10 -100q8 -39 28.5 -69.5t39.5 -41.5q22 -12 43 -12q23 0 47 12q27 14 49 33q25 20 45 45q22 25 37 49l98 563q-22 15 -55 25q-31 8 -70 8q-63 0 -110 -45q-51 -49 -87 -117q-37 -74 -55 -165q-20 -103 -20 -185zM306 1118l6 33l268 293h213 l168 -293l-6 -33h-78l-219 162l-277 -162h-75z" />
<glyph unicode="&#xe3;" d="M25 319q0 131 38 246q39 113 115 205q74 89 178 141q106 53 232 54q72 0 137 -13q70 -14 115 -32l82 36h53l-152 -866l109 -33l-8 -57h-346l-5 137q-33 -39 -59 -61q-45 -37 -70 -51q-35 -20 -75 -33q-40 -12 -80 -12q-59 0 -107 20q-51 23 -84 63q-39 49 -55 107 q-18 63 -18 149zM287 350q0 -53 10 -100q8 -39 28.5 -69.5t39.5 -41.5q22 -12 43 -12q23 0 47 12q27 14 49 33q25 20 45 45q22 25 37 49l98 563q-22 15 -55 25q-31 8 -70 8q-63 0 -110 -45q-51 -49 -87 -117q-37 -74 -55 -165q-20 -103 -20 -185zM256 1108q14 63 32.5 108.5 t53.5 90.5q29 37 76 63q43 25 106 25q51 0 91 -21q33 -18 69 -47l23 -18l26 -21q14 -10 29 -16q20 -8 27 -8q35 0 57 26q18 20 41 86h100q-20 -74 -34 -108q-18 -45 -54 -90q-31 -39 -75 -64q-47 -25 -107 -24q-27 0 -49 6q-18 6 -41 16q-12 6 -37 23q-6 4 -10 7t-7 5 l-7.5 5t-8.5 7q-2 2 -9 8.5l-11 10.5q-2 2 -27 20q-20 14 -29 19q-16 6 -26 6q-37 0 -59.5 -27t-40.5 -88h-99z" />
<glyph unicode="&#xe4;" d="M25 319q0 131 38 246q39 113 115 205q74 89 178 141q106 53 232 54q72 0 137 -13q70 -14 115 -32l82 36h53l-152 -866l109 -33l-8 -57h-346l-5 137q-33 -39 -59 -61q-45 -37 -70 -51q-35 -20 -75 -33q-40 -12 -80 -12q-59 0 -107 20q-51 23 -84 63q-39 49 -55 107 q-18 63 -18 149zM287 350q0 -53 10 -100q8 -39 28.5 -69.5t39.5 -41.5q22 -12 43 -12q23 0 47 12q27 14 49 33q25 20 45 45q22 25 37 49l98 563q-22 15 -55 25q-31 8 -70 8q-63 0 -110 -45q-51 -49 -87 -117q-37 -74 -55 -165q-20 -103 -20 -185zM334 1251.5q0 28.5 8 47 t27 36.5q14 14 38.5 24.5t47.5 10.5q20 0 44.5 -10t39.5 -25t24 -37q10 -25 10 -47t-10 -47q-9 -22 -24 -37q-18 -18 -37 -26q-25 -10 -47.5 -10.5t-46.5 10.5q-20 10 -39 26q-18 18 -26.5 37t-8.5 47.5zM688 1251.5q0 22.5 10 46.5q8 18 27 37q14 14 38.5 24.5t45.5 10.5 q23 0 47.5 -10t38.5 -25q15 -15 25 -37q10 -25 10 -47t-10 -47q-9 -22 -25 -37q-16 -16 -39 -26q-25 -10 -47 -11q-20 0 -45 11q-20 10 -39 26q-18 18 -27 37q-10 25 -10 47.5z" />
<glyph unicode="&#xe5;" d="M25 319q0 131 38 246q39 113 115 205q74 89 178 141q106 53 232 54q72 0 137 -13q70 -14 115 -32l82 36h53l-152 -866l109 -33l-8 -57h-346l-5 137q-33 -39 -59 -61q-45 -37 -70 -51q-35 -20 -75 -33q-40 -12 -80 -12q-59 0 -107 20q-51 23 -84 63q-39 49 -55 107 q-18 63 -18 149zM287 350q0 -53 10 -100q8 -39 28.5 -69.5t39.5 -41.5q22 -12 43 -12q23 0 47 12q27 14 49 33q25 20 45 45q22 25 37 49l98 563q-22 15 -55 25q-31 8 -70 8q-63 0 -110 -45q-51 -49 -87 -117q-37 -74 -55 -165q-20 -103 -20 -185zM426 1272q0 39 16 82 q14 37 45 67q33 33 66 45q43 16 84 16.5t84 -16.5q37 -14 67 -45q28 -28 43 -67q16 -43 16.5 -82t-16.5 -82q-15 -40 -43 -68q-29 -29 -67 -47q-35 -16 -84 -16t-84 16.5t-65.5 47t-45.5 67.5q-16 43 -16 82zM538 1272q0 -20 8.5 -36.5t23 -31t30.5 -22.5t36.5 -8t37.5 8 q20 10 32 22q10 10 21 31q8 16 8 37q0 23 -8 39q-10 20 -21 30q-12 12 -32 23q-12 6 -37 6t-37 -6q-16 -8 -30.5 -22.5t-23 -30.5t-8.5 -39z" />
<glyph unicode="&#xe6;" horiz-adv-x="1478" d="M27 319q0 129 43 246q41 113 120 205q76 88 186.5 141.5t233.5 53.5q33 0 74 -7q27 -4 76 -16q25 -6 69 -22q31 -10 58 -25l53 29q33 14 61 22q27 8 66 15q23 4 68 4q78 0 129 -15q59 -16 94 -43q39 -29 57.5 -65.5t18.5 -81.5q0 -68 -37 -125q-39 -63 -107 -107 q-74 -47 -172 -77q-115 -35 -231 -43l-1 -5q-1 -4 -1 -8q0 -2 -1 -8t-1 -10v-19v-18q0 -49 8 -88q8 -37 33 -76q18 -29 57 -51q35 -20 92 -21q39 0 70 9q33 8 61 20q29 10 58 31q45 29 55 35l43 -64q-37 -31 -74 -53q-53 -35 -92 -51q-45 -20 -107 -37q-51 -14 -116 -14 q-137 0 -215 47t-113 131q-47 -57 -84 -86q-33 -25 -84 -54q-41 -23 -82 -30q-39 -8 -84 -8q-59 0 -108 20q-51 20 -90 63q-41 43 -62 107q-22 67 -22 149zM289 350q0 -55 10 -102q8 -39 29 -70q16 -27 43 -39q25 -12 51 -12q25 0 51 12q25 10 57 33q25 16 51.5 43t41.5 49 q0 4 -1 13.5t-1 15.5v37q0 63 8 114q8 55 28 119q18 58 50 117q29 55 69 108l-45 29q-25 15 -49 25q-8 2 -53 14q-25 6 -47 6q-63 0 -115 -45q-55 -49 -92 -117q-43 -80 -64 -165q-22 -97 -22 -185zM901 508q61 6 123 33q53 25 94 61q35 31 60 82q23 45 22.5 88t-24.5 64 q-23 20 -54 20q-39 0 -73 -29q-29 -25 -64 -79q-29 -45 -51 -111q-25 -70 -33 -129z" />
<glyph unicode="&#xe7;" horiz-adv-x="907" d="M31 330q0 160 47 274q51 125 127 201q78 78 178 119t203 41q25 0 82 -4q25 -2 80 -11q49 -8 73 -14q53 -14 58 -16l-50 -287h-71l-15 170q-29 33 -59 45q-35 14 -86 14q-61 0 -112.5 -37t-96.5 -108q-39 -61 -65 -164q-25 -94 -25 -213q0 -61 12 -109q10 -41 37 -73 q20 -27 55 -41q31 -12 68 -13q78 0 137 27q53 25 117 68l45 -64q-29 -27 -65 -51q-41 -29 -89 -49q-66 -29 -104 -39q-61 -16 -121 -16q-84 0 -158 26q-63 23 -112 72q-46 46 -68 110q-22 68 -22 142zM88 -403l37 98q35 -14 59 -17q37 -4 43 -4q29 0 47 9q25 10 35 20 q14 14 20.5 28.5t6.5 35.5q0 37 -23 59q-25 25 -84 27l86 194h90l-43 -110q45 -8 68 -17q33 -12 53 -31q25 -20 37 -44.5t12 -59.5q0 -55 -24 -96q-27 -43 -66 -68q-39 -27 -96 -39q-61 -14 -111 -14q-31 0 -72 6q-34 7 -75 23z" />
<glyph unicode="&#xe8;" horiz-adv-x="907" d="M47 330q0 78 21 170q18 83 55 153q37 72 84 127q53 63 104 99q66 45 121 63q68 23 131 23q78 0 129 -15q53 -14 94 -43q37 -27 58 -65q20 -41 20 -82q0 -68 -37 -125q-39 -61 -104 -107q-72 -49 -168 -77q-115 -35 -229 -43l-1 -5q-1 -4 -1 -8q0 -2 -1 -8t-1 -10t-1.5 -8 t-1.5 -11v-18q0 -49 9 -88q10 -47 28 -76q18 -31 56 -51q35 -20 90 -21q70 0 137 29q51 23 117 66l45 -64q-37 -31 -74 -53q-53 -35 -92 -51q-51 -23 -106.5 -37t-116.5 -14q-96 0 -164 24q-72 27 -113 70q-45 47 -65 110q-23 68 -23 146zM342 508q61 6 119 33q47 23 86 61 q35 35 55 82q18 43 19 88q0 43 -20.5 63.5t-49.5 20.5q-41 0 -72 -29q-34 -31 -61 -79q-23 -39 -47 -111q-17 -49 -29 -129zM329 1386l9 37h264l137 -272l-6 -33h-86z" />
<glyph unicode="&#xe9;" horiz-adv-x="907" d="M47 330q0 78 21 170q18 83 55 153q37 72 84 127q53 63 104 99q66 45 121 63q68 23 131 23q78 0 129 -15q53 -14 94 -43q37 -27 58 -65q20 -41 20 -82q0 -68 -37 -125q-39 -61 -104 -107q-72 -49 -168 -77q-115 -35 -229 -43l-1 -5q-1 -4 -1 -8q0 -2 -1 -8t-1 -10t-1.5 -8 t-1.5 -11v-18q0 -49 9 -88q10 -47 28 -76q18 -31 56 -51q35 -20 90 -21q70 0 137 29q51 23 117 66l45 -64q-37 -31 -74 -53q-53 -35 -92 -51q-51 -23 -106.5 -37t-116.5 -14q-96 0 -164 24q-72 27 -113 70q-45 47 -65 110q-23 68 -23 146zM342 508q61 6 119 33q47 23 86 61 q35 35 55 82q18 43 19 88q0 43 -20.5 63.5t-49.5 20.5q-41 0 -72 -29q-34 -31 -61 -79q-23 -39 -47 -111q-17 -49 -29 -129zM479 1118l4 33l197 272h284l-4 -37l-395 -268h-86z" />
<glyph unicode="&#xea;" horiz-adv-x="907" d="M47 330q0 78 21 170q18 83 55 153q37 72 84 127q53 63 104 99q66 45 121 63q68 23 131 23q78 0 129 -15q53 -14 94 -43q37 -27 58 -65q20 -41 20 -82q0 -68 -37 -125q-39 -61 -104 -107q-72 -49 -168 -77q-115 -35 -229 -43l-1 -5q-1 -4 -1 -8q0 -2 -1 -8t-1 -10t-1.5 -8 t-1.5 -11v-18q0 -49 9 -88q10 -47 28 -76q18 -31 56 -51q35 -20 90 -21q70 0 137 29q51 23 117 66l45 -64q-37 -31 -74 -53q-53 -35 -92 -51q-51 -23 -106.5 -37t-116.5 -14q-96 0 -164 24q-72 27 -113 70q-45 47 -65 110q-23 68 -23 146zM342 508q61 6 119 33q47 23 86 61 q35 35 55 82q18 43 19 88q0 43 -20.5 63.5t-49.5 20.5q-41 0 -72 -29q-34 -31 -61 -79q-23 -39 -47 -111q-17 -49 -29 -129zM258 1118l6 33l268 293h213l168 -293l-6 -33h-78l-219 162l-277 -162h-75z" />
<glyph unicode="&#xeb;" horiz-adv-x="907" d="M47 330q0 78 21 170q18 83 55 153q37 72 84 127q53 63 104 99q66 45 121 63q68 23 131 23q78 0 129 -15q53 -14 94 -43q37 -27 58 -65q20 -41 20 -82q0 -68 -37 -125q-39 -61 -104 -107q-72 -49 -168 -77q-115 -35 -229 -43l-1 -5q-1 -4 -1 -8q0 -2 -1 -8t-1 -10t-1.5 -8 t-1.5 -11v-18q0 -49 9 -88q10 -47 28 -76q18 -31 56 -51q35 -20 90 -21q70 0 137 29q51 23 117 66l45 -64q-37 -31 -74 -53q-53 -35 -92 -51q-51 -23 -106.5 -37t-116.5 -14q-96 0 -164 24q-72 27 -113 70q-45 47 -65 110q-23 68 -23 146zM342 508q61 6 119 33q47 23 86 61 q35 35 55 82q18 43 19 88q0 43 -20.5 63.5t-49.5 20.5q-41 0 -72 -29q-34 -31 -61 -79q-23 -39 -47 -111q-17 -49 -29 -129zM283 1251.5q0 28.5 8 47t27 36.5q14 14 38.5 24.5t47.5 10.5q20 0 44.5 -10t39.5 -25t24 -37q10 -25 10 -47t-10 -47q-9 -22 -24 -37 q-18 -18 -37 -26q-25 -10 -47.5 -10.5t-46.5 10.5q-20 10 -39 26q-18 18 -26.5 37t-8.5 47.5zM637 1251.5q0 22.5 10 46.5q8 18 27 37q14 14 38.5 24.5t45.5 10.5q23 0 47.5 -10t38.5 -25q15 -15 25 -37q10 -25 10 -47t-10 -47q-9 -22 -25 -37q-16 -16 -39 -26 q-25 -10 -47 -11q-20 0 -45 11q-20 10 -39 26q-18 18 -27 37q-10 25 -10 47.5z" />
<glyph unicode="&#xec;" horiz-adv-x="567" d="M47 0l150 850l-91 24l11 66h364l-149 -850l119 -24l-11 -66h-393zM100 1386l9 37h264l137 -272l-6 -33h-86z" />
<glyph unicode="&#xed;" horiz-adv-x="567" d="M47 0l150 850l-91 24l11 66h364l-149 -850l119 -24l-11 -66h-393zM221 1118l4 33l197 272h284l-4 -37l-395 -268h-86z" />
<glyph unicode="&#xee;" horiz-adv-x="567" d="M47 0l150 850l-91 24l11 66h364l-149 -850l119 -24l-11 -66h-393zM25 1118l6 33l268 293h213l168 -293l-6 -33h-78l-219 162l-277 -162h-75z" />
<glyph unicode="&#xef;" horiz-adv-x="567" d="M47 0l150 850l-91 24l11 66h364l-149 -850l119 -24l-11 -66h-393zM78 1251.5q0 28.5 8 47t27 36.5q14 14 38.5 24.5t47.5 10.5q20 0 44.5 -10t39.5 -25t24 -37q10 -25 10 -47t-10 -47q-9 -22 -24 -37q-18 -18 -37 -26q-25 -10 -47.5 -10.5t-46.5 10.5q-20 10 -39 26 q-18 18 -26.5 37t-8.5 47.5zM432 1251.5q0 22.5 10 46.5q8 18 27 37q14 14 38.5 24.5t45.5 10.5q23 0 47.5 -10t38.5 -25q15 -15 25 -37q10 -25 10 -47t-10 -47q-9 -22 -25 -37q-16 -16 -39 -26q-25 -10 -47 -11q-20 0 -45 11q-20 10 -39 26q-18 18 -27 37q-10 25 -10 47.5z " />
<glyph unicode="&#xf0;" d="M35 352q0 131 39 230q41 104 108 172q70 70 170 110q96 39 219 39q16 0 62 -4q39 -4 55 -8q-4 63 -26 125q-25 68 -70 123l-281 -148l23 125l190 101q-43 35 -75.5 55t-92.5 41l21 108q90 -23 153 -51q61 -29 134 -76l313 164l-23 -123l-211 -110q94 -92 154 -226 q59 -135 59 -313q0 -84 -16 -178q-14 -88 -45 -166q-33 -86 -76 -145q-49 -70 -106 -115q-61 -49 -135 -75.5t-168 -26.5q-78 0 -146 24q-66 25 -119 74t-82 117q-28 65 -28 157zM301 283q0 -101 37 -154q35 -49 94 -49q51 0 96 43q47 45 82 119q35 76 55.5 170t20.5 204 q0 49 -10 91q-8 33 -29 57q-18 20 -41 31q-25 10 -49 10q-46 0 -92 -43q-43 -41 -82 -115t-59 -166q-23 -100 -23 -198z" />
<glyph unicode="&#xf1;" horiz-adv-x="1138" d="M43 0l147 850l-90 24l15 66h334l-9 -174q72 92 170 147q90 51 209 52q46 0 86 -13q43 -12 70 -37q29 -27 45 -63q14 -35 14 -88q0 -27 -2 -41l-6 -49l-8 -49q-2 -8 -5 -23.5t-3 -21.5l-86 -490l114 -24l-12 -66h-387l102 569l9 43q0 6 4 22.5t4 23t1 19.5t3 19q2 12 2 29 q0 96 -90 96q-39 0 -74 -20q-43 -25 -74 -53q-35 -33 -65 -72q-23 -31 -47 -82l-107 -594h-264zM313 1108q14 63 32.5 108.5t53.5 90.5q29 37 76 63q43 25 106 25q51 0 91 -21q33 -18 69 -47l23 -18l26 -21q14 -10 29 -16q20 -8 27 -8q35 0 57 26q18 20 41 86h100 q-20 -74 -34 -108q-18 -45 -54 -90q-31 -39 -75 -64q-47 -25 -107 -24q-27 0 -49 6q-18 6 -41 16q-12 6 -37 23q-6 4 -10 7t-7 5l-7.5 5t-8.5 7q-2 2 -9 8.5l-11 10.5q-2 2 -27 20q-20 14 -29 19q-16 6 -26 6q-37 0 -59.5 -27t-40.5 -88h-99z" />
<glyph unicode="&#xf2;" d="M33 375q0 117 37 223q33 98 110 188q70 82 172 132q96 47 228 47q86 0 151 -27q74 -31 119 -78q51 -55 78 -125q27 -72 26 -164q0 -113 -39 -225q-35 -102 -108 -188q-66 -76 -174 -129q-101 -49 -227 -49q-86 0 -152 26q-72 29 -119 80q-49 53 -76 123q-26 72 -26 166z M297 319q0 -117 37 -178t94 -61q49 0 94 39q39 35 80 114q39 80 60 173q20 96 20 219q0 119 -30.5 180t-94.5 61q-46 0 -92 -43q-47 -43 -84 -118q-41 -84 -62 -175q-22 -102 -22 -211zM335 1386l9 37h264l137 -272l-6 -33h-86z" />
<glyph unicode="&#xf3;" d="M33 375q0 117 37 223q33 98 110 188q70 82 172 132q96 47 228 47q86 0 151 -27q74 -31 119 -78q51 -55 78 -125q27 -72 26 -164q0 -113 -39 -225q-35 -102 -108 -188q-66 -76 -174 -129q-101 -49 -227 -49q-86 0 -152 26q-72 29 -119 80q-49 53 -76 123q-26 72 -26 166z M297 319q0 -117 37 -178t94 -61q49 0 94 39q39 35 80 114q39 80 60 173q20 96 20 219q0 119 -30.5 180t-94.5 61q-46 0 -92 -43q-47 -43 -84 -118q-41 -84 -62 -175q-22 -102 -22 -211zM469 1118l4 33l197 272h284l-4 -37l-395 -268h-86z" />
<glyph unicode="&#xf4;" d="M33 375q0 117 37 223q33 98 110 188q70 82 172 132q96 47 228 47q86 0 151 -27q74 -31 119 -78q51 -55 78 -125q27 -72 26 -164q0 -113 -39 -225q-35 -102 -108 -188q-66 -76 -174 -129q-101 -49 -227 -49q-86 0 -152 26q-72 29 -119 80q-49 53 -76 123q-26 72 -26 166z M297 319q0 -117 37 -178t94 -61q49 0 94 39q39 35 80 114q39 80 60 173q20 96 20 219q0 119 -30.5 180t-94.5 61q-46 0 -92 -43q-47 -43 -84 -118q-41 -84 -62 -175q-22 -102 -22 -211zM281 1118l6 33l268 293h213l168 -293l-6 -33h-78l-219 162l-277 -162h-75z" />
<glyph unicode="&#xf5;" d="M33 375q0 117 37 223q33 98 110 188q70 82 172 132q96 47 228 47q86 0 151 -27q74 -31 119 -78q51 -55 78 -125q27 -72 26 -164q0 -113 -39 -225q-35 -102 -108 -188q-66 -76 -174 -129q-101 -49 -227 -49q-86 0 -152 26q-72 29 -119 80q-49 53 -76 123q-26 72 -26 166z M297 319q0 -117 37 -178t94 -61q49 0 94 39q39 35 80 114q39 80 60 173q20 96 20 219q0 119 -30.5 180t-94.5 61q-46 0 -92 -43q-47 -43 -84 -118q-41 -84 -62 -175q-22 -102 -22 -211zM256 1108q14 63 32.5 108.5t53.5 90.5q29 37 76 63q43 25 106 25q51 0 91 -21 q33 -18 69 -47l23 -18l26 -21q14 -10 29 -16q20 -8 27 -8q35 0 57 26q18 20 41 86h100q-20 -74 -34 -108q-18 -45 -54 -90q-31 -39 -75 -64q-47 -25 -107 -24q-27 0 -49 6q-18 6 -41 16q-12 6 -37 23q-6 4 -10 7t-7 5l-7.5 5t-8.5 7q-2 2 -9 8.5l-11 10.5q-2 2 -27 20 q-20 14 -29 19q-16 6 -26 6q-37 0 -59.5 -27t-40.5 -88h-99z" />
<glyph unicode="&#xf6;" d="M33 375q0 117 37 223q33 98 110 188q70 82 172 132q96 47 228 47q86 0 151 -27q74 -31 119 -78q51 -55 78 -125q27 -72 26 -164q0 -113 -39 -225q-35 -102 -108 -188q-66 -76 -174 -129q-101 -49 -227 -49q-86 0 -152 26q-72 29 -119 80q-49 53 -76 123q-26 72 -26 166z M297 319q0 -117 37 -178t94 -61q49 0 94 39q39 35 80 114q39 80 60 173q20 96 20 219q0 119 -30.5 180t-94.5 61q-46 0 -92 -43q-47 -43 -84 -118q-41 -84 -62 -175q-22 -102 -22 -211zM326 1251.5q0 28.5 8 47t27 36.5q14 14 38.5 24.5t47.5 10.5q20 0 44.5 -10t39.5 -25 t24 -37q10 -25 10 -47t-10 -47q-9 -22 -24 -37q-18 -18 -37 -26q-25 -10 -47.5 -10.5t-46.5 10.5q-20 10 -39 26q-18 18 -26.5 37t-8.5 47.5zM680 1251.5q0 22.5 10 46.5q8 18 27 37q14 14 38.5 24.5t45.5 10.5q23 0 47.5 -10t38.5 -25q15 -15 25 -37q10 -25 10 -47t-10 -47 q-9 -22 -25 -37q-16 -16 -39 -26q-25 -10 -47 -11q-20 0 -45 11q-20 10 -39 26q-18 18 -27 37q-10 25 -10 47.5z" />
<glyph unicode="&#xf7;" horiz-adv-x="1122" d="M100 608v144h953v-144h-953zM440 317q0 25 11 52q8 23 28.5 43t42.5 28q27 10 53 11q25 0 52 -11q23 -8 43 -28.5t28 -42.5q10 -27 11 -52q0 -27 -11 -53q-8 -23 -28.5 -43t-42.5 -28q-27 -10 -52 -11q-27 0 -53 11q-23 8 -43 28.5t-28 42.5q-11 26 -11 53zM440 1042 q0 27 11 54q8 23 28.5 43t42.5 28q27 10 53 11q25 0 52 -11q23 -8 43 -28.5t28 -42.5q10 -27 11 -54q0 -25 -11 -51q-8 -23 -28.5 -43t-42.5 -28q-27 -10 -52 -11q-27 0 -53 11q-23 8 -43 28.5t-28 42.5q-11 26 -11 51z" />
<glyph unicode="&#xf8;" d="M-47 -84l164 190q-45 59 -64 117q-20 63 -20 152q0 117 37 223q33 98 110 188q70 82 172 132q96 47 227.5 47t221.5 -64l104 121h123l-158 -184q41 -53 62 -119q23 -72 22 -148q0 -113 -39 -225q-35 -102 -108 -188q-66 -76 -174 -129q-101 -49 -227 -49q-127 0 -220 61 l-106 -125h-127zM297 315l373 435q-14 57 -41 86q-27 31 -72 30q-46 0 -92 -43q-47 -43 -84 -118q-41 -84 -62 -175q-23 -102 -22 -211v-4zM313 188q18 -57 47 -82q29 -27 68 -26q47 0 92 39q43 37 82 112q35 66 57 170q23 102 23 217z" />
<glyph unicode="&#xf9;" horiz-adv-x="1138" d="M76 874l12 66h385l-100 -567l-8 -45q0 -8 -4.5 -22.5t-4.5 -20.5t-1 -19.5t-3 -19.5q-2 -12 -2 -31q0 -96 90 -96q37 0 72 20q49 29 76 54q31 27 65 73q27 33 47 80l107 594h264l-147 -850l108 -24l-12 -66h-354l8 176q-74 -96 -170 -149q-90 -51 -209 -52q-46 0 -86 13 q-39 12 -69.5 38.5t-45.5 65.5q-14 37 -14 94q0 20 2 35q3 22 6 49q4 37 8 56q2 16 5 29.5t5 21.5l84 473zM419 1386l9 37h264l137 -272l-6 -33h-86z" />
<glyph unicode="&#xfa;" horiz-adv-x="1138" d="M76 874l12 66h385l-100 -567l-8 -45q0 -8 -4.5 -22.5t-4.5 -20.5t-1 -19.5t-3 -19.5q-2 -12 -2 -31q0 -96 90 -96q37 0 72 20q49 29 76 54q31 27 65 73q27 33 47 80l107 594h264l-147 -850l108 -24l-12 -66h-354l8 176q-74 -96 -170 -149q-90 -51 -209 -52q-46 0 -86 13 q-39 12 -69.5 38.5t-45.5 65.5q-14 37 -14 94q0 20 2 35q3 22 6 49q4 37 8 56q2 16 5 29.5t5 21.5l84 473zM504 1118l4 33l197 272h284l-4 -37l-395 -268h-86z" />
<glyph unicode="&#xfb;" horiz-adv-x="1138" d="M76 874l12 66h385l-100 -567l-8 -45q0 -8 -4.5 -22.5t-4.5 -20.5t-1 -19.5t-3 -19.5q-2 -12 -2 -31q0 -96 90 -96q37 0 72 20q49 29 76 54q31 27 65 73q27 33 47 80l107 594h264l-147 -850l108 -24l-12 -66h-354l8 176q-74 -96 -170 -149q-90 -51 -209 -52q-46 0 -86 13 q-39 12 -69.5 38.5t-45.5 65.5q-14 37 -14 94q0 20 2 35q3 22 6 49q4 37 8 56q2 16 5 29.5t5 21.5l84 473zM338 1118l6 33l268 293h213l168 -293l-6 -33h-78l-219 162l-277 -162h-75z" />
<glyph unicode="&#xfc;" horiz-adv-x="1138" d="M76 874l12 66h385l-100 -567l-8 -45q0 -8 -4.5 -22.5t-4.5 -20.5t-1 -19.5t-3 -19.5q-2 -12 -2 -31q0 -96 90 -96q37 0 72 20q49 29 76 54q31 27 65 73q27 33 47 80l107 594h264l-147 -850l108 -24l-12 -66h-354l8 176q-74 -96 -170 -149q-90 -51 -209 -52q-46 0 -86 13 q-39 12 -69.5 38.5t-45.5 65.5q-14 37 -14 94q0 20 2 35q3 22 6 49q4 37 8 56q2 16 5 29.5t5 21.5l84 473zM373 1251.5q0 28.5 8 47t27 36.5q14 14 38.5 24.5t47.5 10.5q20 0 44.5 -10t39.5 -25t24 -37q10 -25 10 -47t-10 -47q-9 -22 -24 -37q-18 -18 -37 -26 q-25 -10 -47.5 -10.5t-46.5 10.5q-20 10 -39 26q-18 18 -26.5 37t-8.5 47.5zM727 1251.5q0 22.5 10 46.5q8 18 27 37q14 14 38.5 24.5t45.5 10.5q23 0 47.5 -10t38.5 -25q15 -15 25 -37q10 -25 10 -47t-10 -47q-9 -22 -25 -37q-16 -16 -39 -26q-25 -10 -47 -11q-20 0 -45 11 q-20 10 -39 26q-18 18 -27 37q-10 25 -10 47.5z" />
<glyph unicode="&#xfd;" horiz-adv-x="907" d="M-205 -424l41 244h62l18 -127q8 -8 29 -17q14 -6 43 -6q41 0 73 23q35 23 72 63q43 47 72 88q34 49 67 105l27 47l-213 854l-61 24l12 66h303l152 -639l180 299q6 10 26 49l19 49q6 16 14 45q4 14 4 37q0 27 -6 41q-6 16 -20.5 26.5t-28.5 16.5q-6 2 -17.5 5t-17.5 5 l12 66h232q12 -12 18 -25q8 -16 8 -38q0 -8 -4 -37q-2 -18 -12 -47q-9 -28 -25 -62q-12 -27 -40 -74l-439 -716q-43 -72 -98 -150q-43 -61 -102 -121q-49 -49 -111 -82q-59 -31 -127 -30q-10 0 -26.5 1t-22.5 1q-27 0 -39 2q-6 0 -17.5 2t-17.5 4q-25 4 -39 8zM408 1118 l4 33l197 272h284l-4 -37l-395 -268h-86z" />
<glyph unicode="&#xfe;" d="M-168 -436l12 65l105 25l297 1681l-99 27l13 59h368l-75 -432q-12 -74 -21 -108q-18 -76 -22 -90q33 47 59 73q29 29 74 53.5t82 34.5q43 12 84 13q55 0 98 -21q47 -23 80 -63.5t51 -104.5q18 -61 18 -145q0 -129 -36 -246q-41 -131 -101 -209q-72 -94 -162 -143 q-96 -53 -215 -53q-14 0 -47 4t-47 6t-43 10q-18 6 -33 12q0 -10 -2 -28q0 -10 -4 -35q0 -6 -1 -17.5t-3 -17.5q-4 -20 -4 -25l-37 -235l160 -25l-12 -65h-537zM301 127q12 -12 29 -21q25 -12 37 -16q14 -4 34 -8q12 -2 29 -2q57 0 106.5 43t84.5 117q37 76 53 161 q18 92 18 187q0 57 -10 104q-8 35 -27 70q-14 27 -37 39q-22 12 -43 12q-14 0 -38 -10q-16 -6 -45 -29q-8 -6 -48 -45q-29 -29 -47 -55z" />
<glyph unicode="&#xff;" horiz-adv-x="907" d="M-205 -424l41 244h62l18 -127q8 -8 29 -17q14 -6 43 -6q41 0 73 23q35 23 72 63q43 47 72 88q34 49 67 105l27 47l-213 854l-61 24l12 66h303l152 -639l180 299q6 10 26 49l19 49q6 16 14 45q4 14 4 37q0 27 -6 41q-6 16 -20.5 26.5t-28.5 16.5q-6 2 -17.5 5t-17.5 5 l12 66h232q12 -12 18 -25q8 -16 8 -38q0 -8 -4 -37q-2 -18 -12 -47q-9 -28 -25 -62q-12 -27 -40 -74l-439 -716q-43 -72 -98 -150q-43 -61 -102 -121q-49 -49 -111 -82q-59 -31 -127 -30q-10 0 -26.5 1t-22.5 1q-27 0 -39 2q-6 0 -17.5 2t-17.5 4q-25 4 -39 8zM240 1251.5 q0 28.5 8 47t27 36.5q14 14 38.5 24.5t47.5 10.5q20 0 44.5 -10t39.5 -25t24 -37q10 -25 10 -47t-10 -47q-9 -22 -24 -37q-18 -18 -37 -26q-25 -10 -47.5 -10.5t-46.5 10.5q-20 10 -39 26q-18 18 -26.5 37t-8.5 47.5zM594 1251.5q0 22.5 10 46.5q8 18 27 37q14 14 38.5 24.5 t45.5 10.5q23 0 47.5 -10t38.5 -25q15 -15 25 -37q10 -25 10 -47t-10 -47q-9 -22 -25 -37q-16 -16 -39 -26q-25 -10 -47 -11q-20 0 -45 11q-20 10 -39 26q-18 18 -27 37q-10 25 -10 47.5z" />
<glyph unicode="&#x100;" horiz-adv-x="1363" d="M-106 0l14 74l102 26l670 1252h240l254 -1252l108 -26l-14 -74h-549l14 74l137 26l-59 346h-473l-184 -346l147 -26l-12 -74h-395zM393 557h398l-103 561zM477 1485l27 149h626l-24 -149h-629z" />
<glyph unicode="&#x101;" d="M25 319q0 131 38 246q39 113 115 205q74 89 178 141q106 53 232 54q72 0 137 -13q70 -14 115 -32l82 36h53l-152 -866l109 -33l-8 -57h-346l-5 137q-33 -39 -59 -61q-45 -37 -70 -51q-35 -20 -75 -33q-40 -12 -80 -12q-59 0 -107 20q-51 23 -84 63q-39 49 -55 107 q-18 63 -18 149zM287 350q0 -53 10 -100q8 -39 28.5 -69.5t39.5 -41.5q22 -12 43 -12q23 0 47 12q27 14 49 33q25 20 45 45q22 25 37 49l98 563q-22 15 -55 25q-31 8 -70 8q-63 0 -110 -45q-51 -49 -87 -117q-37 -74 -55 -165q-20 -103 -20 -185zM313 1151l27 149h626 l-24 -149h-629z" />
<glyph unicode="&#x102;" horiz-adv-x="1363" d="M-106 0l14 74l102 26l670 1252h240l254 -1252l108 -26l-14 -74h-549l14 74l137 26l-59 346h-473l-184 -346l147 -26l-12 -74h-395zM393 557h398l-103 561zM540 1698q0 37 6 78h121q2 -70 49 -103q41 -29 109 -28q70 0 121 28q53 31 82 103h120q-15 -71 -43 -129 q-29 -59 -71.5 -102.5t-104 -68t-139.5 -24.5q-66 0 -113 18.5t-77 49.5q-29 29 -45 78q-15 43 -15 100z" />
<glyph unicode="&#x103;" d="M25 319q0 131 38 246q39 113 115 205q74 89 178 141q106 53 232 54q72 0 137 -13q70 -14 115 -32l82 36h53l-152 -866l109 -33l-8 -57h-346l-5 137q-33 -39 -59 -61q-45 -37 -70 -51q-35 -20 -75 -33q-40 -12 -80 -12q-59 0 -107 20q-51 23 -84 63q-39 49 -55 107 q-18 63 -18 149zM287 350q0 -53 10 -100q8 -39 28.5 -69.5t39.5 -41.5q22 -12 43 -12q23 0 47 12q27 14 49 33q25 20 45 45q22 25 37 49l98 563q-22 15 -55 25q-31 8 -70 8q-63 0 -110 -45q-51 -49 -87 -117q-37 -74 -55 -165q-20 -103 -20 -185zM319 1364q0 37 6 78h121 q2 -70 49 -103q41 -29 109 -28q70 0 121 28q53 31 82 103h120q-15 -71 -43 -129q-29 -59 -71.5 -102.5t-104 -68t-139.5 -24.5q-66 0 -113 18.5t-77 49.5q-29 29 -45 78q-15 43 -15 100z" />
<glyph unicode="&#x104;" horiz-adv-x="1363" d="M-106 0l14 74l102 26l670 1252h240l254 -1252l108 -26l-14 -74h-549l14 74l137 26l-59 346h-473l-184 -346l147 -26l-12 -74h-395zM393 557h398l-103 561zM772 -229q0 39 8 69q10 37 27 68q18 35 41 59q29 33 51 47h133q-33 -51 -53 -108q-23 -61 -23 -113q0 -53 27 -84 q25 -29 78 -28q23 0 53 6q29 6 57 18l31 -82q-45 -25 -94.5 -39t-112.5 -14q-109 0 -166 51.5t-57 149.5z" />
<glyph unicode="&#x105;" d="M25 319q0 131 38 246q39 113 115 205q74 89 178 141q106 53 232 54q72 0 137 -13q70 -14 115 -32l82 36h53l-152 -866l109 -33l-8 -57h-346l-5 137q-33 -39 -59 -61q-45 -37 -70 -51q-35 -20 -75 -33q-40 -12 -80 -12q-59 0 -107 20q-51 23 -84 63q-39 49 -55 107 q-18 63 -18 149zM287 350q0 -53 10 -100q8 -39 28.5 -69.5t39.5 -41.5q22 -12 43 -12q23 0 47 12q27 14 49 33q25 20 45 45q22 25 37 49l98 563q-22 15 -55 25q-31 8 -70 8q-63 0 -110 -45q-51 -49 -87 -117q-37 -74 -55 -165q-20 -103 -20 -185zM465 -229q0 39 8 69 q10 37 27 68q18 35 41 59q29 33 51 47h133q-33 -51 -53 -108q-23 -61 -23 -113q0 -53 27 -84q25 -29 78 -28q23 0 53 6q29 6 57 18l31 -82q-45 -25 -94.5 -39t-112.5 -14q-109 0 -166 51.5t-57 149.5z" />
<glyph unicode="&#x106;" horiz-adv-x="1363" d="M70 530q0 186 63 347q59 150 174 260q111 109 266 163q154 55 338 56q143 0 265 -17q137 -18 208 -34l-53 -338h-84v194q-53 41 -129 66q-78 25 -162 24q-125 0 -227 -51q-106 -53 -182 -147q-80 -98 -121 -230q-43 -135 -43 -301q0 -100 20 -176q20 -80 66 -139 q39 -53 109 -90q63 -33 155 -33q61 0 109 8q66 12 98 23q70 23 86 30q39 18 66 39l75 219h86l-65 -340q-49 -15 -111 -30q-51 -12 -127 -27q-68 -12 -139 -18q-94 -8 -141 -8q-145 0 -258 40q-117 43 -189 111q-74 72 -114 174q-39 98 -39 225zM754 1452l4 33l197 272h284 l-4 -37l-395 -268h-86z" />
<glyph unicode="&#x107;" horiz-adv-x="907" d="M31 330q0 160 47 274q51 125 127 201q78 78 178 119t203 41q25 0 82 -4q25 -2 80 -11q49 -8 73 -14q53 -14 58 -16l-50 -287h-71l-15 170q-29 33 -59 45q-35 14 -86 14q-61 0 -112.5 -37t-96.5 -108q-39 -61 -65 -164q-25 -94 -25 -213q0 -61 12 -109q10 -41 37 -73 q20 -27 55 -41q31 -12 68 -13q78 0 137 27q53 25 117 68l45 -64q-29 -27 -65 -51q-41 -29 -89 -49q-66 -29 -104 -39q-61 -16 -121 -16q-84 0 -158 26q-63 23 -112 72q-46 46 -68 110q-22 68 -22 142zM479 1118l4 33l197 272h284l-4 -37l-395 -268h-86z" />
<glyph unicode="&#x108;" horiz-adv-x="1363" d="M70 530q0 186 63 347q59 150 174 260q111 109 266 163q154 55 338 56q143 0 265 -17q137 -18 208 -34l-53 -338h-84v194q-53 41 -129 66q-78 25 -162 24q-125 0 -227 -51q-106 -53 -182 -147q-80 -98 -121 -230q-43 -135 -43 -301q0 -100 20 -176q20 -80 66 -139 q39 -53 109 -90q63 -33 155 -33q61 0 109 8q66 12 98 23q70 23 86 30q39 18 66 39l75 219h86l-65 -340q-49 -15 -111 -30q-51 -12 -127 -27q-68 -12 -139 -18q-94 -8 -141 -8q-145 0 -258 40q-117 43 -189 111q-74 72 -114 174q-39 98 -39 225zM574 1452l6 33l268 293h213 l168 -293l-6 -33h-78l-219 162l-277 -162h-75z" />
<glyph unicode="&#x109;" horiz-adv-x="907" d="M31 330q0 160 47 274q51 125 127 201q78 78 178 119t203 41q25 0 82 -4q25 -2 80 -11q49 -8 73 -14q53 -14 58 -16l-50 -287h-71l-15 170q-29 33 -59 45q-35 14 -86 14q-61 0 -112.5 -37t-96.5 -108q-39 -61 -65 -164q-25 -94 -25 -213q0 -61 12 -109q10 -41 37 -73 q20 -27 55 -41q31 -12 68 -13q78 0 137 27q53 25 117 68l45 -64q-29 -27 -65 -51q-41 -29 -89 -49q-66 -29 -104 -39q-61 -16 -121 -16q-84 0 -158 26q-63 23 -112 72q-46 46 -68 110q-22 68 -22 142zM295 1118l6 33l268 293h213l168 -293l-6 -33h-78l-219 162l-277 -162 h-75z" />
<glyph unicode="&#x10a;" horiz-adv-x="1363" d="M70 530q0 186 63 347q59 150 174 260q111 109 266 163q154 55 338 56q143 0 265 -17q137 -18 208 -34l-53 -338h-84v194q-53 41 -129 66q-78 25 -162 24q-125 0 -227 -51q-106 -53 -182 -147q-80 -98 -121 -230q-43 -135 -43 -301q0 -100 20 -176q20 -80 66 -139 q39 -53 109 -90q63 -33 155 -33q61 0 109 8q66 12 98 23q70 23 86 30q39 18 66 39l75 219h86l-65 -340q-49 -15 -111 -30q-51 -12 -127 -27q-68 -12 -139 -18q-94 -8 -141 -8q-145 0 -258 40q-117 43 -189 111q-74 72 -114 174q-39 98 -39 225zM772 1624q0 33 12 62 q12 27 33 47t49.5 32.5t59.5 12.5t59.5 -12.5t49 -33t32.5 -46.5q12 -29 12 -62t-12 -59q-12 -29 -32.5 -49.5t-49 -32.5t-59.5 -12t-59.5 12t-49 32.5t-33.5 49.5q-12 26 -12 59z" />
<glyph unicode="&#x10b;" horiz-adv-x="907" d="M31 330q0 160 47 274q51 125 127 201q78 78 178 119t203 41q25 0 82 -4q25 -2 80 -11q49 -8 73 -14q53 -14 58 -16l-50 -287h-71l-15 170q-29 33 -59 45q-35 14 -86 14q-61 0 -112.5 -37t-96.5 -108q-39 -61 -65 -164q-25 -94 -25 -213q0 -61 12 -109q10 -41 37 -73 q20 -27 55 -41q31 -12 68 -13q78 0 137 27q53 25 117 68l45 -64q-29 -27 -65 -51q-41 -29 -89 -49q-66 -29 -104 -39q-61 -16 -121 -16q-84 0 -158 26q-63 23 -112 72q-46 46 -68 110q-22 68 -22 142zM461 1290q0 33 12 62q12 27 33 47t49.5 32.5t59.5 12.5t59.5 -12.5 t49 -33t32.5 -46.5q12 -29 12 -62t-12 -59q-12 -29 -32.5 -49.5t-49 -32.5t-59.5 -12t-59.5 12t-49 32.5t-33.5 49.5q-12 26 -12 59z" />
<glyph unicode="&#x10c;" horiz-adv-x="1363" d="M70 530q0 186 63 347q59 150 174 260q111 109 266 163q154 55 338 56q143 0 265 -17q137 -18 208 -34l-53 -338h-84v194q-53 41 -129 66q-78 25 -162 24q-125 0 -227 -51q-106 -53 -182 -147q-80 -98 -121 -230q-43 -135 -43 -301q0 -100 20 -176q20 -80 66 -139 q39 -53 109 -90q63 -33 155 -33q61 0 109 8q66 12 98 23q70 23 86 30q39 18 66 39l75 219h86l-65 -340q-49 -15 -111 -30q-51 -12 -127 -27q-68 -12 -139 -18q-94 -8 -141 -8q-145 0 -258 40q-117 43 -189 111q-74 72 -114 174q-39 98 -39 225zM629 1745l4 33h78l219 -162 l276 162h76l-6 -33l-268 -293h-213z" />
<glyph unicode="&#x10d;" horiz-adv-x="907" d="M31 330q0 160 47 274q51 125 127 201q78 78 178 119t203 41q25 0 82 -4q25 -2 80 -11q49 -8 73 -14q53 -14 58 -16l-50 -287h-71l-15 170q-29 33 -59 45q-35 14 -86 14q-61 0 -112.5 -37t-96.5 -108q-39 -61 -65 -164q-25 -94 -25 -213q0 -61 12 -109q10 -41 37 -73 q20 -27 55 -41q31 -12 68 -13q78 0 137 27q53 25 117 68l45 -64q-29 -27 -65 -51q-41 -29 -89 -49q-66 -29 -104 -39q-61 -16 -121 -16q-84 0 -158 26q-63 23 -112 72q-46 46 -68 110q-22 68 -22 142zM326 1411l4 33h78l219 -162l276 162h76l-6 -33l-268 -293h-213z" />
<glyph unicode="&#x10e;" horiz-adv-x="1478" d="M-14 0l12 74l176 26l201 1141l-166 27l12 73h520q168 0 297 -36q131 -37 215 -107q88 -72 133.5 -174t45.5 -236q0 -180 -58 -325q-57 -147 -164 -250q-106 -104 -262 -160q-160 -57 -350 -57q-154 0 -227.5 2t-190.5 2h-194zM471 115l61 -6q20 -2 64 -3q121 0 221 48 q94 45 166 135q68 86 102 211q35 127 35 274q0 125 -30 211q-33 92 -84 143q-53 53 -132 78q-76 25 -169 25h-37zM543 1745l4 33h78l219 -162l276 162h76l-6 -33l-268 -293h-213z" />
<glyph unicode="&#x10f;" horiz-adv-x="1531" d="M25 309q0 135 34 248q37 117 103 209q61 86 157 143q92 55 209 56q31 0 47 -2l48 -7q29 -4 45 -8q14 -4 34 -12q0 10 3 29q0 12 4 36q0 6 1 16.5t3 16.5q0 4 1 13.5t3 13.5l45 270l-160 25l12 65h435l-238 -1335l100 -27l-12 -59h-332l-8 143q-27 -37 -59 -65 q-39 -35 -70 -53q-35 -20 -76 -33q-39 -12 -78 -12q-57 0 -100 20t-80 63q-35 41 -53 102.5t-18 143.5zM287 354q0 -63 8 -102q10 -45 24.5 -71.5t32.5 -39.5q20 -14 37 -14q10 0 43 12q23 8 49 29q25 18 49 43q29 29 48 55l96 551q-10 10 -31 21q-25 12 -37 16t-37 8 q-12 2 -28 2q-57 0 -103 -45q-49 -49 -80 -117q-37 -80 -53 -163q-18 -93 -18 -185zM1105 888l17 80q59 14 100 37q37 20 64 43q25 23 34 45q12 29 13 37q0 23 -17 43l-19 18.5l-17 16.5q-29 31 -35 37q-16 23 -17 53q0 29 15 57q10 23 34 39q18 14 50 21q27 6 57 6 q33 0 57 -8q33 -10 51.5 -26.5t32.5 -47.5q14 -33 15 -70q0 -71 -31 -129q-31 -59 -84 -106q-49 -43 -137 -84q-79 -37 -183 -62z" />
<glyph unicode="&#x110;" horiz-adv-x="1478" d="M-14 0l12 74l176 26l88 508h-172l23 123h172l90 510l-166 27l12 73h520q168 0 297 -36q131 -37 215 -107q88 -72 133.5 -174t45.5 -236q0 -180 -58 -325q-57 -147 -164 -250q-106 -104 -262 -160q-160 -57 -350 -57q-154 0 -227.5 2t-190.5 2h-194zM471 115l61 -6 q20 -2 64 -3q121 0 221 48q94 45 166 135q68 86 102 211q35 127 35 274q0 125 -30 211q-33 92 -84 143q-53 53 -132 78q-76 25 -169 25h-37l-88 -500h258l-23 -123h-258z" />
<glyph unicode="&#x111;" d="M25 309q0 135 34 248q37 117 103 209q61 86 157 143q92 55 209 56q31 0 47 -2l48 -7q29 -4 45 -8q14 -4 34 -12q0 10 3 29q0 12 4 36q0 6 1 16.5t3 16.5q0 4 1 13.5t3 13.5l6 39h-211l18 102h211l23 129l-162 25l12 65h435l-39 -219h100l-16 -102h-103l-180 -1014 l100 -27l-12 -59h-332l-8 143q-27 -37 -59 -65q-39 -35 -70 -53q-35 -20 -76 -33q-39 -12 -78 -12q-57 0 -100 20t-80 63q-35 41 -53 102.5t-18 143.5zM287 354q0 -55 10 -102q10 -45 25 -72q14 -25 34.5 -39t38.5 -14q10 0 39 12q20 8 47 29q25 18 49 43q29 29 48 55 l96 551q-10 10 -31 21q-25 12 -37 16t-37 8q-12 2 -28 2q-57 0 -103 -45q-49 -49 -80 -117q-37 -80 -53 -163q-18 -93 -18 -185z" />
<glyph unicode="&#x112;" horiz-adv-x="1363" d="M-14 0l12 74l176 26l201 1141l-166 27l12 73h1053l-62 -342h-90l6 218q-6 0 -31.5 3l-41.5 5q-57 4 -86 4q-14 0 -43 1t-43 1h-76h-137l-88 -492h280l58 148h90l-74 -412h-88l-4 152h-283l-90 -516h182h117q41 0 98 4q49 4 76 6q33 4 47 6l105 248h90l-84 -375h-1116z M467 1485l27 149h626l-24 -149h-629z" />
<glyph unicode="&#x113;" horiz-adv-x="907" d="M47 330q0 78 21 170q18 83 55 153q37 72 84 127q53 63 104 99q66 45 121 63q68 23 131 23q78 0 129 -15q53 -14 94 -43q37 -27 58 -65q20 -41 20 -82q0 -68 -37 -125q-39 -61 -104 -107q-72 -49 -168 -77q-115 -35 -229 -43l-1 -5q-1 -4 -1 -8q0 -2 -1 -8t-1 -10t-1.5 -8 t-1.5 -11v-18q0 -49 9 -88q10 -47 28 -76q18 -31 56 -51q35 -20 90 -21q70 0 137 29q51 23 117 66l45 -64q-37 -31 -74 -53q-53 -35 -92 -51q-51 -23 -106.5 -37t-116.5 -14q-96 0 -164 24q-72 27 -113 70q-45 47 -65 110q-23 68 -23 146zM342 508q61 6 119 33q47 23 86 61 q35 35 55 82q18 43 19 88q0 43 -20.5 63.5t-49.5 20.5q-41 0 -72 -29q-34 -31 -61 -79q-23 -39 -47 -111q-17 -49 -29 -129zM264 1151l27 149h626l-24 -149h-629z" />
<glyph unicode="&#x114;" horiz-adv-x="1363" d="M-14 0l12 74l176 26l201 1141l-166 27l12 73h1053l-62 -342h-90l6 218q-6 0 -31.5 3l-41.5 5q-57 4 -86 4q-14 0 -43 1t-43 1h-76h-137l-88 -492h280l58 148h90l-74 -412h-88l-4 152h-283l-90 -516h182h117q41 0 98 4q49 4 76 6q33 4 47 6l105 248h90l-84 -375h-1116z M545 1698q0 37 6 78h121q2 -70 49 -103q41 -29 109 -28q70 0 121 28q53 31 82 103h120q-15 -71 -43 -129q-29 -59 -71.5 -102.5t-104 -68t-139.5 -24.5q-66 0 -113 18.5t-77 49.5q-29 29 -45 78q-15 43 -15 100z" />
<glyph unicode="&#x115;" horiz-adv-x="907" d="M47 330q0 78 21 170q18 83 55 153q37 72 84 127q53 63 104 99q66 45 121 63q68 23 131 23q78 0 129 -15q53 -14 94 -43q37 -27 58 -65q20 -41 20 -82q0 -68 -37 -125q-39 -61 -104 -107q-72 -49 -168 -77q-115 -35 -229 -43l-1 -5q-1 -4 -1 -8q0 -2 -1 -8t-1 -10t-1.5 -8 t-1.5 -11v-18q0 -49 9 -88q10 -47 28 -76q18 -31 56 -51q35 -20 90 -21q70 0 137 29q51 23 117 66l45 -64q-37 -31 -74 -53q-53 -35 -92 -51q-51 -23 -106.5 -37t-116.5 -14q-96 0 -164 24q-72 27 -113 70q-45 47 -65 110q-23 68 -23 146zM342 508q61 6 119 33q47 23 86 61 q35 35 55 82q18 43 19 88q0 43 -20.5 63.5t-49.5 20.5q-41 0 -72 -29q-34 -31 -61 -79q-23 -39 -47 -111q-17 -49 -29 -129zM315 1364q0 37 6 78h121q2 -70 49 -103q41 -29 109 -28q70 0 121 28q53 31 82 103h120q-15 -71 -43 -129q-29 -59 -71.5 -102.5t-104 -68 t-139.5 -24.5q-66 0 -113 18.5t-77 49.5q-29 29 -45 78q-15 43 -15 100z" />
<glyph unicode="&#x116;" horiz-adv-x="1363" d="M-14 0l12 74l176 26l201 1141l-166 27l12 73h1053l-62 -342h-90l6 218q-6 0 -31.5 3l-41.5 5q-57 4 -86 4q-14 0 -43 1t-43 1h-76h-137l-88 -492h280l58 148h90l-74 -412h-88l-4 152h-283l-90 -516h182h117q41 0 98 4q49 4 76 6q33 4 47 6l105 248h90l-84 -375h-1116z M643 1624q0 33 12 62q12 27 33 47t49.5 32.5t59.5 12.5t59.5 -12.5t49 -33t32.5 -46.5q12 -29 12 -62t-12 -59q-12 -29 -32.5 -49.5t-49 -32.5t-59.5 -12t-59.5 12t-49 32.5t-33.5 49.5q-12 26 -12 59z" />
<glyph unicode="&#x117;" horiz-adv-x="907" d="M47 330q0 78 21 170q18 83 55 153q37 72 84 127q53 63 104 99q66 45 121 63q68 23 131 23q78 0 129 -15q53 -14 94 -43q37 -27 58 -65q20 -41 20 -82q0 -68 -37 -125q-39 -61 -104 -107q-72 -49 -168 -77q-115 -35 -229 -43l-1 -5q-1 -4 -1 -8q0 -2 -1 -8t-1 -10t-1.5 -8 t-1.5 -11v-18q0 -49 9 -88q10 -47 28 -76q18 -31 56 -51q35 -20 90 -21q70 0 137 29q51 23 117 66l45 -64q-37 -31 -74 -53q-53 -35 -92 -51q-51 -23 -106.5 -37t-116.5 -14q-96 0 -164 24q-72 27 -113 70q-45 47 -65 110q-23 68 -23 146zM342 508q61 6 119 33q47 23 86 61 q35 35 55 82q18 43 19 88q0 43 -20.5 63.5t-49.5 20.5q-41 0 -72 -29q-34 -31 -61 -79q-23 -39 -47 -111q-17 -49 -29 -129zM442 1290q0 33 12 62q12 27 33 47t49.5 32.5t59.5 12.5t59.5 -12.5t49 -33t32.5 -46.5q12 -29 12 -62t-12 -59q-12 -29 -32.5 -49.5t-49 -32.5 t-59.5 -12t-59.5 12t-49 32.5t-33.5 49.5q-12 26 -12 59z" />
<glyph unicode="&#x118;" horiz-adv-x="1363" d="M-14 0l12 74l176 26l201 1141l-166 27l12 73h1053l-62 -342h-90l6 218q-6 0 -31.5 3l-41.5 5q-57 4 -86 4q-14 0 -43 1t-43 1h-76h-137l-88 -492h280l58 148h90l-74 -412h-88l-4 152h-283l-90 -516h182h117q41 0 98 4q49 4 76 6q33 4 47 6l105 248h90l-84 -375h-1116z M680 -229q0 39 8 69q10 37 27 68q18 35 41 59q29 33 51 47h133q-33 -51 -53 -108q-23 -61 -23 -113q0 -53 27 -84q25 -29 78 -28q23 0 53 6q29 6 57 18l31 -82q-45 -25 -94.5 -39t-112.5 -14q-109 0 -166 51.5t-57 149.5z" />
<glyph unicode="&#x119;" horiz-adv-x="907" d="M47 330q0 78 21 170q18 83 55 153q37 72 84 127q53 63 104 99q66 45 121 63q68 23 131 23q78 0 129 -15q53 -14 94 -43q37 -27 58 -65q20 -41 20 -82q0 -68 -37 -125q-39 -61 -104 -107q-72 -49 -168 -77q-115 -35 -229 -43l-1 -5q-1 -4 -1 -8q0 -2 -1 -8t-1 -10t-1.5 -8 t-1.5 -11v-18q0 -49 9 -88q10 -47 28 -76q18 -31 56 -51q35 -20 90 -21q70 0 137 29q51 23 117 66l45 -64q-37 -31 -74 -53q-53 -35 -92 -51q-51 -23 -106.5 -37t-116.5 -14q-96 0 -164 24q-72 27 -113 70q-45 47 -65 110q-23 68 -23 146zM342 508q61 6 119 33q47 23 86 61 q35 35 55 82q18 43 19 88q0 43 -20.5 63.5t-49.5 20.5q-41 0 -72 -29q-34 -31 -61 -79q-23 -39 -47 -111q-17 -49 -29 -129zM336 -229q0 39 8 69q10 37 27 68q18 35 41 59q29 33 51 47h133q-33 -51 -53 -108q-23 -61 -23 -113q0 -53 27 -84q25 -29 78 -28q23 0 53 6 q29 6 57 18l31 -82q-45 -25 -94.5 -39t-112.5 -14q-109 0 -166 51.5t-57 149.5z" />
<glyph unicode="&#x11a;" horiz-adv-x="1363" d="M-14 0l12 74l176 26l201 1141l-166 27l12 73h1053l-62 -342h-90l6 218q-6 0 -31.5 3l-41.5 5q-57 4 -86 4q-14 0 -43 1t-43 1h-76h-137l-88 -492h280l58 148h90l-74 -412h-88l-4 152h-283l-90 -516h182h117q41 0 98 4q49 4 76 6q33 4 47 6l105 248h90l-84 -375h-1116z M494 1745l4 33h78l219 -162l276 162h76l-6 -33l-268 -293h-213z" />
<glyph unicode="&#x11b;" horiz-adv-x="907" d="M47 330q0 78 21 170q18 83 55 153q37 72 84 127q53 63 104 99q66 45 121 63q68 23 131 23q78 0 129 -15q53 -14 94 -43q37 -27 58 -65q20 -41 20 -82q0 -68 -37 -125q-39 -61 -104 -107q-72 -49 -168 -77q-115 -35 -229 -43l-1 -5q-1 -4 -1 -8q0 -2 -1 -8t-1 -10t-1.5 -8 t-1.5 -11v-18q0 -49 9 -88q10 -47 28 -76q18 -31 56 -51q35 -20 90 -21q70 0 137 29q51 23 117 66l45 -64q-37 -31 -74 -53q-53 -35 -92 -51q-51 -23 -106.5 -37t-116.5 -14q-96 0 -164 24q-72 27 -113 70q-45 47 -65 110q-23 68 -23 146zM342 508q61 6 119 33q47 23 86 61 q35 35 55 82q18 43 19 88q0 43 -20.5 63.5t-49.5 20.5q-41 0 -72 -29q-34 -31 -61 -79q-23 -39 -47 -111q-17 -49 -29 -129zM295 1411l4 33h78l219 -162l276 162h76l-6 -33l-268 -293h-213z" />
<glyph unicode="&#x11c;" horiz-adv-x="1478" d="M70 522q0 201 65 357q63 152 180 262q106 102 273 159q158 55 336 56q133 0 254 -17q96 -12 221 -45l-56 -309h-83l2 174q-57 43 -140 68q-80 25 -182 24q-113 0 -213 -49q-102 -49 -178 -143q-78 -96 -123 -236q-45 -137 -45 -319q0 -104 25 -185q25 -82 65 -131 q47 -57 104 -79q61 -25 134 -25q82 0 139 14q74 18 96 29l70 379l-168 33l12 67h598l-12 -67l-135 -33l-78 -436q-66 -20 -133 -37q-80 -18 -135 -29q-72 -12 -144 -18q-74 -6 -157 -6q-135 0 -252 38q-111 37 -187 107q-74 68 -114 172q-39 98 -39 225zM574 1452l6 33 l268 293h213l168 -293l-6 -33h-78l-219 162l-277 -162h-75z" />
<glyph unicode="&#x11d;" d="M-39 -365l23 252h57l35 -131q35 -35 94 -59.5t125 -24.5q58 0 98 19q39 18 66 51q25 29 41 80q16 47 24 102q6 33 8 45q2 14 6.5 29.5t6.5 28.5l12 61q8 41 14 57q-28 -37 -61 -67q-39 -35 -70 -53q-41 -25 -75 -35q-41 -12 -76 -13q-59 0 -103 21q-51 25 -82 63 q-34 43 -55 105q-20 59 -20 145q0 80 16 168q14 74 47 154q29 72 78 135q46 61 104.5 104t128.5 68q72 25 152 25q31 0 100 -4q74 -4 107 -9q16 -2 53 -7t53 -7q70 -8 103 -14l-172 -959q-23 -111 -64 -184q-45 -80 -104 -125q-63 -49 -148 -70q-90 -23 -188 -22 q-53 0 -102 6q-43 6 -95 16q-29 6 -78 23q-30 10 -59 26zM293 354q0 -63 8 -102q8 -35 27 -70q16 -29 37 -41q22 -12 43 -12q35 0 82 35t92 94l106 584q-18 8 -55 16q-41 8 -74 8q-63 0 -110 -45q-51 -49 -84 -119q-37 -80 -54 -163q-18 -93 -18 -185zM250 1118l6 33 l268 293h213l168 -293l-6 -33h-78l-219 162l-277 -162h-75z" />
<glyph unicode="&#x11e;" horiz-adv-x="1478" d="M70 522q0 201 65 357q63 152 180 262q106 102 273 159q158 55 336 56q133 0 254 -17q96 -12 221 -45l-56 -309h-83l2 174q-57 43 -140 68q-80 25 -182 24q-113 0 -213 -49q-102 -49 -178 -143q-78 -96 -123 -236q-45 -137 -45 -319q0 -104 25 -185q25 -82 65 -131 q47 -57 104 -79q61 -25 134 -25q82 0 139 14q74 18 96 29l70 379l-168 33l12 67h598l-12 -67l-135 -33l-78 -436q-66 -20 -133 -37q-80 -18 -135 -29q-72 -12 -144 -18q-74 -6 -157 -6q-135 0 -252 38q-111 37 -187 107q-74 68 -114 172q-39 98 -39 225zM645 1698q0 37 6 78 h121q2 -70 49 -103q41 -29 109 -28q70 0 121 28q53 31 82 103h120q-15 -71 -43 -129q-29 -59 -71.5 -102.5t-104 -68t-139.5 -24.5q-66 0 -113 18.5t-77 49.5q-29 29 -45 78q-15 43 -15 100z" />
<glyph unicode="&#x11f;" d="M-39 -365l23 252h57l35 -131q35 -35 94 -59.5t125 -24.5q58 0 98 19q39 18 66 51q25 29 41 80q16 47 24 102q6 33 8 45q2 14 6.5 29.5t6.5 28.5l12 61q8 41 14 57q-28 -37 -61 -67q-39 -35 -70 -53q-41 -25 -75 -35q-41 -12 -76 -13q-59 0 -103 21q-51 25 -82 63 q-34 43 -55 105q-20 59 -20 145q0 80 16 168q14 74 47 154q29 72 78 135q46 61 104.5 104t128.5 68q72 25 152 25q31 0 100 -4q74 -4 107 -9q16 -2 53 -7t53 -7q70 -8 103 -14l-172 -959q-23 -111 -64 -184q-45 -80 -104 -125q-63 -49 -148 -70q-90 -23 -188 -22 q-53 0 -102 6q-43 6 -95 16q-29 6 -78 23q-30 10 -59 26zM293 354q0 -63 8 -102q8 -35 27 -70q16 -29 37 -41q22 -12 43 -12q35 0 82 35t92 94l106 584q-18 8 -55 16q-41 8 -74 8q-63 0 -110 -45q-51 -49 -84 -119q-37 -80 -54 -163q-18 -93 -18 -185zM338 1364q0 37 6 78 h121q2 -70 49 -103q41 -29 109 -28q70 0 121 28q53 31 82 103h120q-15 -71 -43 -129q-29 -59 -71.5 -102.5t-104 -68t-139.5 -24.5q-66 0 -113 18.5t-77 49.5q-29 29 -45 78q-15 43 -15 100z" />
<glyph unicode="&#x120;" horiz-adv-x="1478" d="M70 522q0 201 65 357q63 152 180 262q106 102 273 159q158 55 336 56q133 0 254 -17q96 -12 221 -45l-56 -309h-83l2 174q-57 43 -140 68q-80 25 -182 24q-113 0 -213 -49q-102 -49 -178 -143q-78 -96 -123 -236q-45 -137 -45 -319q0 -104 25 -185q25 -82 65 -131 q47 -57 104 -79q61 -25 134 -25q82 0 139 14q74 18 96 29l70 379l-168 33l12 67h598l-12 -67l-135 -33l-78 -436q-66 -20 -133 -37q-80 -18 -135 -29q-72 -12 -144 -18q-74 -6 -157 -6q-135 0 -252 38q-111 37 -187 107q-74 68 -114 172q-39 98 -39 225zM772 1624 q0 33 12 62q12 27 33 47t49.5 32.5t59.5 12.5t59.5 -12.5t49 -33t32.5 -46.5q12 -29 12 -62t-12 -59q-12 -29 -32.5 -49.5t-49 -32.5t-59.5 -12t-59.5 12t-49 32.5t-33.5 49.5q-12 26 -12 59z" />
<glyph unicode="&#x121;" d="M-39 -365l23 252h57l35 -131q35 -35 94 -59.5t125 -24.5q58 0 98 19q39 18 66 51q25 29 41 80q16 47 24 102q6 33 8 45q2 14 6.5 29.5t6.5 28.5l12 61q8 41 14 57q-28 -37 -61 -67q-39 -35 -70 -53q-41 -25 -75 -35q-41 -12 -76 -13q-59 0 -103 21q-51 25 -82 63 q-34 43 -55 105q-20 59 -20 145q0 80 16 168q14 74 47 154q29 72 78 135q46 61 104.5 104t128.5 68q72 25 152 25q31 0 100 -4q74 -4 107 -9q16 -2 53 -7t53 -7q70 -8 103 -14l-172 -959q-23 -111 -64 -184q-45 -80 -104 -125q-63 -49 -148 -70q-90 -23 -188 -22 q-53 0 -102 6q-43 6 -95 16q-29 6 -78 23q-30 10 -59 26zM293 354q0 -63 8 -102q8 -35 27 -70q16 -29 37 -41q22 -12 43 -12q35 0 82 35t92 94l106 584q-18 8 -55 16q-41 8 -74 8q-63 0 -110 -45q-51 -49 -84 -119q-37 -80 -54 -163q-18 -93 -18 -185zM450 1290q0 33 12 62 q12 27 33 47t49.5 32.5t59.5 12.5t59.5 -12.5t49 -33t32.5 -46.5q12 -29 12 -62t-12 -59q-12 -29 -32.5 -49.5t-49 -32.5t-59.5 -12t-59.5 12t-49 32.5t-33.5 49.5q-12 26 -12 59z" />
<glyph unicode="&#x122;" horiz-adv-x="1478" d="M70 522q0 201 65 357q63 152 180 262q106 102 273 159q158 55 336 56q133 0 254 -17q96 -12 221 -45l-56 -309h-83l2 174q-57 43 -140 68q-80 25 -182 24q-113 0 -213 -49q-102 -49 -178 -143q-78 -96 -123 -236q-45 -137 -45 -319q0 -104 25 -185q25 -82 65 -131 q47 -57 104 -79q61 -25 134 -25q82 0 139 14q74 18 96 29l70 379l-168 33l12 67h598l-12 -67l-135 -33l-78 -436q-66 -20 -133 -37q-80 -18 -135 -29q-72 -12 -144 -18q-74 -6 -157 -6q-135 0 -252 38q-111 37 -187 107q-74 68 -114 172q-39 98 -39 225zM465 -522l12 67 q53 12 90 29q31 14 54 33q16 14 24 33q6 16 6 28q0 16 -14 35q-6 6 -13.5 15.5t-15.5 17.5q-16 16 -28 35q-14 20 -15 49q0 23 8 39q10 23 27 35q20 16 43 24q31 10 64 10q27 0 53 -10q29 -10 45 -27q18 -18 31 -47q12 -28 12 -61q0 -46 -19 -92q-18 -45 -61 -88 q-41 -41 -117 -76q-61 -29 -186 -49z" />
<glyph unicode="&#x123;" d="M-39 -365l23 252h57l35 -131q35 -35 94 -59.5t125 -24.5q58 0 98 19q39 18 66 51q25 29 41 80q16 47 24 102q6 33 8 45q2 14 6.5 29.5t6.5 28.5l12 61q8 41 14 57q-28 -37 -61 -67q-39 -35 -70 -53q-41 -25 -75 -35q-41 -12 -76 -13q-59 0 -103 21q-51 25 -82 63 q-34 43 -55 105q-20 59 -20 145q0 80 16 168q14 74 47 154q29 72 78 135q46 61 104.5 104t128.5 68q72 25 152 25q31 0 100 -4q74 -4 107 -9q16 -2 53 -7t53 -7q70 -8 103 -14l-172 -959q-23 -111 -64 -184q-45 -80 -104 -125q-63 -49 -148 -70q-90 -23 -188 -22 q-53 0 -102 6q-43 6 -95 16q-29 6 -78 23q-30 10 -59 26zM293 354q0 -63 8 -102q8 -35 27 -70q16 -29 37 -41q22 -12 43 -12q35 0 82 35t92 94l106 584q-18 8 -55 16q-41 8 -74 8q-63 0 -110 -45q-51 -49 -84 -119q-37 -80 -54 -163q-18 -93 -18 -185zM463 1266q0 51 17 92 q18 45 61 88q41 41 117 76q63 29 186 49l-12 -70q-70 -18 -90 -28q-37 -16 -53 -31q-14 -12 -23 -33q-6 -15 -6 -31q0 -18 12 -35l13.5 -14l15.5 -16q20 -20 29 -35q14 -25 14 -49q0 -23 -8 -39q-10 -23 -27 -35q-20 -16 -43 -25q-31 -10 -63 -10q-27 0 -53.5 10.5 t-43.5 26.5q-20 20 -32 47q-11 23 -11 62z" />
<glyph unicode="&#x124;" horiz-adv-x="1591" d="M-14 0l12 74l176 26l201 1141l-166 27l12 73h639l-12 -73l-178 -27l-86 -496h487l86 496l-166 27l13 73h641l-13 -73l-178 -27l-201 -1141l168 -26l-12 -74h-641l12 74l176 26l95 535h-488l-94 -535l168 -26l-14 -74h-637zM627 1452l6 33l268 293h213l168 -293l-6 -33 h-78l-219 162l-277 -162h-75z" />
<glyph unicode="&#x125;" horiz-adv-x="1138" d="M41 0l233 1331l-92 25l13 65h364l-84 -463q0 -6 -10 -53l-4 -20.5t-4 -17.5t-4 -19q-2 -6 -5.5 -23.5t-5.5 -25.5t-4 -18.5t-2 -12.5q78 100 170 147q94 49 211 50q46 0 86 -13q39 -12 70 -38.5t45 -61.5t14 -86q0 -27 -2 -43q-4 -33 -6 -51q-2 -10 -5 -26.5t-3 -24.5 q-2 -12 -5 -22.5t-3 -18.5l-86 -490l114 -24l-12 -66h-385l100 569l9 43q2 6 4 22.5t4 22.5q0 6 1 19.5t3 19.5q2 12 2 29q0 96 -90 96q-39 0 -74 -20q-43 -25 -74 -53q-35 -33 -65 -72q-23 -31 -47 -82l-107 -594h-264zM402 1503l6 33l268 293h213l168 -293l-6 -33h-78 l-219 162l-277 -162h-75z" />
<glyph unicode="&#x126;" horiz-adv-x="1591" d="M-14 0l14 74l174 26l152 852h-172l18 111h172l33 178l-168 27l12 73h639l-12 -73l-176 -27l-33 -178h487l31 178l-166 27l13 73h641l-13 -73l-178 -27l-33 -178h174l-18 -111h-172l-152 -852l168 -26l-12 -74h-641l12 74l176 26l95 535h-488l-94 -535l168 -26l-12 -74 h-639zM584 745h487l37 207h-487z" />
<glyph unicode="&#x127;" horiz-adv-x="1138" d="M41 0l192 1100h-145l21 102h143l22 129l-92 25l13 65h364l-41 -219h256l-20 -102h-254l-25 -142q-4 -37 -8 -51q-2 -14 -5 -28.5t-5 -28.5q-2 -10 -5 -28.5t-3 -22.5q-2 -20 -9 -31q78 98 168 147q92 49 209 50q46 0 86 -13q39 -12 70 -38.5t45 -65.5q14 -37 14 -94 q0 -20 -2 -35q-2 -23 -6 -47q0 -8 -4 -25.5t-4 -25.5q-2 -12 -5 -22.5t-3 -18.5l-86 -490l114 -24l-12 -66h-385l100 569l9 43q2 6 4 22.5t4 22.5q0 6 1 19.5t3 19.5q2 12 2 29q0 96 -90 96q-39 0 -74 -20q-43 -25 -74 -53q-35 -33 -65 -72q-23 -31 -47 -82l-107 -594h-264z " />
<glyph unicode="&#x128;" horiz-adv-x="796" d="M-20 0l14 74l176 26l201 1141l-168 27l12 73h639l-12 -73l-176 -27l-201 -1141l166 -26l-13 -74h-638zM213 1442q14 63 32.5 108.5t53.5 90.5q29 37 76 63q43 25 106 25q51 0 91 -21q33 -18 69 -47l23 -18l26 -21q14 -10 29 -16q20 -8 27 -8q35 0 57 26q18 20 41 86h100 q-20 -74 -34 -108q-18 -45 -54 -90q-31 -39 -75 -64q-47 -25 -107 -24q-27 0 -49 6q-18 6 -41 16q-12 6 -37 23q-6 4 -10 7t-7 5l-7.5 5t-8.5 7q-2 2 -9 8.5l-11 10.5q-2 2 -27 20q-20 14 -29 19q-16 6 -26 6q-37 0 -59.5 -27t-40.5 -88h-99z" />
<glyph unicode="&#x129;" horiz-adv-x="567" d="M47 0l150 850l-91 24l11 66h364l-149 -850l119 -24l-11 -66h-393zM26 1108q14 63 32.5 108.5t53.5 90.5q29 37 76 63q43 25 106 25q51 0 91 -21q33 -18 69 -47l23 -18l26 -21q14 -10 29 -16q20 -8 27 -8q35 0 57 26q18 20 41 86h100q-20 -74 -34 -108q-18 -45 -54 -90 q-31 -39 -75 -64q-47 -25 -107 -24q-27 0 -49 6q-18 6 -41 16q-12 6 -37 23q-6 4 -10 7t-7 5l-7.5 5t-8.5 7q-2 2 -9 8.5l-11 10.5q-2 2 -27 20q-20 14 -29 19q-16 6 -26 6q-37 0 -59.5 -27t-40.5 -88h-99z" />
<glyph unicode="&#x12a;" horiz-adv-x="796" d="M-20 0l14 74l176 26l201 1141l-168 27l12 73h639l-12 -73l-176 -27l-201 -1141l166 -26l-13 -74h-638zM258 1552l27 149h626l-24 -149h-629z" />
<glyph unicode="&#x12b;" horiz-adv-x="567" d="M47 0l150 850l-91 24l11 66h364l-149 -850l119 -24l-11 -66h-393zM39 1151l27 149h626l-24 -149h-629z" />
<glyph unicode="&#x12c;" horiz-adv-x="796" d="M-20 0l14 74l176 26l201 1141l-168 27l12 73h639l-12 -73l-176 -27l-201 -1141l166 -26l-13 -74h-638zM315 1765q0 37 6 78h121q2 -70 49 -103q41 -29 109 -28q70 0 121 28q53 31 82 103h120q-15 -71 -43 -129q-29 -59 -71.5 -102.5t-104 -68t-139.5 -24.5 q-66 0 -113 18.5t-77 49.5q-29 29 -45 78q-15 43 -15 100z" />
<glyph unicode="&#x12d;" horiz-adv-x="567" d="M47 0l150 850l-91 24l11 66h364l-149 -850l119 -24l-11 -66h-393zM96 1364q0 37 6 78h121q2 -70 49 -103q41 -29 109 -28q70 0 121 28q53 31 82 103h120q-15 -71 -43 -129q-29 -59 -71.5 -102.5t-104 -68t-139.5 -24.5q-66 0 -113 18.5t-77 49.5q-29 29 -45 78 q-15 43 -15 100z" />
<glyph unicode="&#x12e;" horiz-adv-x="796" d="M-20 0l14 74l176 26l201 1141l-168 27l12 73h639l-12 -73l-176 -27l-201 -1141l166 -26l-13 -74h-638zM121 -229q0 39 8 69q10 37 27 68q18 35 41 59q29 33 51 47h133q-33 -51 -53 -108q-23 -61 -23 -113q0 -53 27 -84q25 -29 78 -28q23 0 53 6q29 6 57 18l31 -82 q-45 -25 -94.5 -39t-112.5 -14q-109 0 -166 51.5t-57 149.5z" />
<glyph unicode="&#x12f;" horiz-adv-x="567" d="M51 0l152 850l-92 24l12 66h364l-149 -850l119 -24l-13 -66h-393zM254 1268q0 37 10 59q12 27 35 49q20 20 47 32.5t62 12.5q31 0 59.5 -12t49 -32.5t32.5 -49.5q10 -23 10 -59.5t-10 -59.5q-12 -29 -32.5 -49t-49.5 -32.5t-59 -12.5q-35 0 -62 12.5t-47 32.5 q-23 23 -35 49q-10 23 -10 60zM-55 -229q0 39 8 69q10 37 27 68q18 35 41 59q29 33 51 47h133q-33 -51 -53 -108q-23 -61 -23 -113q0 -53 27 -84q25 -29 78 -28q23 0 53 6q29 6 57 18l31 -82q-45 -25 -94.5 -39t-112.5 -14q-109 0 -166 51.5t-57 149.5z" />
<glyph unicode="&#x130;" horiz-adv-x="796" d="M-20 0l14 74l176 26l201 1141l-168 27l12 73h639l-12 -73l-176 -27l-201 -1141l166 -26l-13 -74h-638zM434 1624q0 33 12 62q12 27 33 47t49.5 32.5t59.5 12.5t59.5 -12.5t49 -33t32.5 -46.5q12 -29 12 -62t-12 -59q-12 -29 -32.5 -49.5t-49 -32.5t-59.5 -12t-59.5 12 t-49 32.5t-33.5 49.5q-12 26 -12 59z" />
<glyph unicode="&#x131;" horiz-adv-x="567" d="M47 0l150 850l-91 24l11 66h364l-149 -850l119 -24l-11 -66h-393z" />
<glyph unicode="&#x132;" horiz-adv-x="1683" d="M-20 0l14 74l176 26l201 1141l-168 27l12 73h639l-12 -73l-176 -27l-201 -1141l166 -26l-13 -74h-638zM662 10l53 303h84l4 -178q18 -27 43 -37q29 -12 70 -12q35 0 65 12q37 14 58 35q27 27 43 59.5t26 83.5l170 965l-166 27l13 73h618l-12 -73l-158 -27l-141 -809 q-25 -139 -80 -225q-57 -88 -127 -137q-76 -51 -153 -70q-92 -20 -162 -20q-76 0 -135 8q-76 10 -113 22z" />
<glyph unicode="&#x133;" horiz-adv-x="1130" d="M51 0l152 850l-92 24l12 66h364l-149 -850l119 -24l-13 -66h-393zM254 1268q0 37 10 59q12 27 35 49q20 20 47 32.5t62 12.5q31 0 59.5 -12t49 -32.5t32.5 -49.5q10 -23 10 -59.5t-10 -59.5q-12 -29 -32.5 -49t-49.5 -32.5t-59 -12.5q-35 0 -62 12.5t-47 32.5 q-23 23 -35 49q-10 23 -10 60zM283 -418l39 225h63l25 -118q14 -8 18 -11q16 -4 27 -4q22 0 43 13q20 12 41 45q20 35 37 78q14 39 28 118l160 912l-160 34l13 66h434l-172 -979q-18 -106 -58 -182q-37 -74 -94 -123q-53 -47 -127 -69.5t-149 -22.5q-45 0 -88 6 q-74 10 -80 12zM819 1268q0 31 12.5 59.5t33 49t48.5 32.5q27 12 60 12t59 -12q29 -12 49.5 -32.5t32.5 -49.5t12 -59.5t-12 -59t-32.5 -49t-49.5 -33.5q-27 -12 -59.5 -12t-59.5 12q-29 12 -49 33t-32.5 49.5t-12.5 59.5z" />
<glyph unicode="&#x134;" d="M-4 10l53 303h84l4 -178q18 -27 43 -37q29 -12 70 -12q35 0 65 12q37 14 58 35q27 27 43 59.5t26 83.5l170 965l-166 27l13 73h618l-12 -73l-158 -27l-141 -809q-25 -139 -80 -225q-57 -88 -127 -137q-76 -51 -153 -70q-92 -20 -162 -20q-76 0 -135 8q-76 10 -113 22z M463 1452l6 33l268 293h213l168 -293l-6 -33h-78l-219 162l-277 -162h-75z" />
<glyph unicode="&#x135;" horiz-adv-x="567" d="M-268 -418l39 225h63l23 -114l18 -12q10 -6 29 -7q22 0 43 13q20 12 41 45q20 35 37 78q14 39 28 118l160 912l-160 34l13 66h434l-172 -979q-18 -106 -58 -182q-37 -74 -94 -123q-53 -47 -127 -69.5t-149 -22.5q-45 0 -88 6q-74 10 -80 12zM35 1118l6 33l268 293h213 l166 -293l-6 -33h-76l-221 162l-274 -162h-76z" />
<glyph unicode="&#x136;" horiz-adv-x="1363" d="M-14 0l12 74l176 26l201 1141l-166 27l12 73h629l-12 -73l-168 -27l-90 -522l575 522l-113 27l13 73h426l-15 -73l-139 -27l-473 -428l354 -713l133 -26l-12 -74h-385l-297 637l-92 -45l-86 -492l178 -26l-12 -74h-649zM461 -522l12 67q53 12 90 29q31 14 54 33 q16 14 24 33q6 16 6 28q0 16 -14 35q-6 6 -13.5 15.5t-15.5 17.5q-16 16 -28 35q-14 20 -15 49q0 23 8 39q10 23 27 35q20 16 43 24q31 10 64 10q27 0 53 -10q29 -10 45 -27q18 -18 31 -47q12 -28 12 -61q0 -46 -19 -92q-18 -45 -61 -88q-41 -41 -117 -76q-61 -29 -186 -49z " />
<glyph unicode="&#x137;" d="M29 0l233 1331l-92 25l12 65h367l-162 -913l352 344l-86 22l11 66h344l-11 -66l-92 -22l-243 -223l223 -539l80 -24l-13 -66h-313l-166 453l-108 -70l-68 -383h-268zM229 -522l12 67q53 12 90 29q31 14 54 33q16 14 24 33q6 16 6 28q0 16 -14 35q-6 6 -13.5 15.5 t-15.5 17.5q-16 16 -28 35q-14 20 -15 49q0 23 8 39q10 23 27 35q20 16 43 24q31 10 64 10q27 0 53 -10q29 -10 45 -27q18 -18 31 -47q12 -28 12 -61q0 -46 -19 -92q-18 -45 -61 -88q-41 -41 -117 -76q-61 -29 -186 -49z" />
<glyph unicode="&#x138;" d="M29 0l149 850l-92 24l12 66h367l-82 -465l356 377l-86 22l11 66h344l-11 -66l-92 -22l-250 -254l240 -508l80 -24l-12 -66h-324l-176 420l-105 -66l-61 -354h-268z" />
<glyph unicode="&#x139;" horiz-adv-x="1249" d="M-14 0l12 74l176 26l201 1141l-166 27l12 73h664l-13 -73l-202 -27l-201 -1135h115q72 0 110 3q18 0 56 1t57 3q61 4 94 6q27 2 57 8l117 279h84l-90 -406h-1083zM457 1452l4 33l197 272h284l-4 -37l-395 -268h-86z" />
<glyph unicode="&#x13a;" horiz-adv-x="567" d="M45 0l236 1331l-91 25l11 65h364l-235 -1331l119 -24l-11 -66h-393zM311 1503l4 33l197 272h284l-4 -37l-395 -268h-86z" />
<glyph unicode="&#x13b;" horiz-adv-x="1249" d="M-14 0l12 74l176 26l201 1141l-166 27l12 73h664l-13 -73l-202 -27l-201 -1135h115q72 0 110 3q18 0 56 1t57 3q61 4 94 6q27 2 57 8l117 279h84l-90 -406h-1083zM309 -522l12 67q53 12 90 29q31 14 54 33q16 14 24 33q6 16 6 28q0 16 -14 35q-6 6 -13.5 15.5t-15.5 17.5 q-16 16 -28 35q-14 20 -15 49q0 23 8 39q10 23 27 35q20 16 43 24q31 10 64 10q27 0 53 -10q29 -10 45 -27q18 -18 31 -47q12 -28 12 -61q0 -46 -19 -92q-18 -45 -61 -88q-41 -41 -117 -76q-61 -29 -186 -49z" />
<glyph unicode="&#x13c;" horiz-adv-x="567" d="M45 0l236 1331l-91 25l11 65h364l-235 -1331l119 -24l-11 -66h-393zM-65 -522l12 67q53 12 90 29q31 14 54 33q16 14 24 33q6 16 6 28q0 16 -14 35q-6 6 -13.5 15.5t-15.5 17.5q-16 16 -28 35q-14 20 -15 49q0 23 8 39q10 23 27 35q20 16 43 24q31 10 64 10q27 0 53 -10 q29 -10 45 -27q18 -18 31 -47q12 -28 12 -61q0 -46 -19 -92q-18 -45 -61 -88q-41 -41 -117 -76q-61 -29 -186 -49z" />
<glyph unicode="&#x13d;" horiz-adv-x="1249" d="M-14 0l12 74l176 26l201 1141l-166 27l12 73h664l-13 -73l-202 -27l-201 -1135h115q72 0 110 3q18 0 56 1t57 3q61 4 94 6q27 2 57 8l117 279h84l-90 -406h-1083zM899 829l17 80q59 14 100 37q37 20 64 43q25 23 34 45q12 29 13 37q0 23 -17 43l-19 18.5l-17 16.5 q-29 31 -35 37q-16 23 -17 53q0 29 15 57q10 23 34 39q18 14 50 21q27 6 57 6q33 0 57 -8q33 -10 51.5 -26.5t32.5 -47.5q14 -33 15 -70q0 -71 -31 -129q-31 -59 -84 -106q-49 -43 -137 -84q-79 -37 -183 -62z" />
<glyph unicode="&#x13e;" horiz-adv-x="1064" d="M45 0l236 1331l-91 25l11 65h364l-235 -1331l119 -24l-11 -66h-393zM639 888l17 80q59 14 100 37q37 20 64 43q25 23 34 45q12 29 13 37q0 23 -17 43l-19 18.5l-17 16.5q-29 31 -35 37q-16 23 -17 53q0 29 15 57q10 23 34 39q18 14 50 21q27 6 57 6q33 0 57 -8 q33 -10 51.5 -26.5t32.5 -47.5q14 -33 15 -70q0 -71 -31 -129q-31 -59 -84 -106q-49 -43 -137 -84q-79 -37 -183 -62z" />
<glyph unicode="&#x13f;" horiz-adv-x="1249" d="M-14 0l12 74l176 26l201 1141l-166 27l12 73h664l-13 -73l-202 -27l-201 -1135h115q72 0 110 3q18 0 56 1t57 3q61 4 94 6q27 2 57 8l117 279h84l-90 -406h-1083zM766 712q0 33 12 62q12 27 33 47t49.5 32.5t59.5 12.5t59.5 -12.5t49 -33t32.5 -46.5q12 -29 12 -62 t-12 -59q-12 -29 -32.5 -49.5t-49 -32.5t-59.5 -12t-59.5 12t-49 32.5t-33.5 49.5q-12 26 -12 59z" />
<glyph unicode="&#x140;" horiz-adv-x="768" d="M45 0l236 1331l-91 25l11 65h364l-235 -1331l119 -24l-11 -66h-393zM536 712q0 33 12 62q12 27 33 47t49.5 32.5t59.5 12.5t59.5 -12.5t49 -33t32.5 -46.5q12 -29 12 -62t-12 -59q-12 -29 -32.5 -49.5t-49 -32.5t-59.5 -12t-59.5 12t-49 32.5t-33.5 49.5q-12 26 -12 59z " />
<glyph unicode="&#x141;" horiz-adv-x="1249" d="M-14 0l12 74l176 26l72 402l-185 -101l25 138l182 98l107 604l-166 27l12 73h664l-13 -73l-202 -27l-76 -430l262 139l-22 -133l-263 -137l-102 -574h115q76 0 114 3q18 0 56.5 1t56.5 3q52 3 92 6q23 2 55 8l117 279h84l-90 -406h-1083z" />
<glyph unicode="&#x142;" horiz-adv-x="567" d="M-12 408l22 124l135 70l127 729l-92 25l13 65h364l-115 -651l142 74l-23 -123l-139 -76l-98 -555l98 -24l-10 -66h-375l86 477z" />
<glyph unicode="&#x143;" horiz-adv-x="1478" d="M-18 0l12 74l176 26l201 1141l-166 27l12 73h432l436 -895l140 795l-174 27l12 73h477l-12 -73l-178 -27l-217 -1241h-115l-543 1112l-180 -1012l174 -26l-10 -74h-477zM750 1452l4 33l197 272h284l-4 -37l-395 -268h-86z" />
<glyph unicode="&#x144;" horiz-adv-x="1138" d="M43 0l147 850l-90 24l15 66h334l-9 -174q72 92 170 147q90 51 209 52q46 0 86 -13q43 -12 70 -37q29 -27 45 -63q14 -35 14 -88q0 -27 -2 -41l-6 -49l-8 -49q-2 -8 -5 -23.5t-3 -21.5l-86 -490l114 -24l-12 -66h-387l102 569l9 43q0 6 4 22.5t4 23t1 19.5t3 19q2 12 2 29 q0 96 -90 96q-39 0 -74 -20q-43 -25 -74 -53q-35 -33 -65 -72q-23 -31 -47 -82l-107 -594h-264zM573 1118l4 33l197 272h284l-4 -37l-395 -268h-86z" />
<glyph unicode="&#x145;" horiz-adv-x="1478" d="M-18 0l12 74l176 26l201 1141l-166 27l12 73h432l436 -895l140 795l-174 27l12 73h477l-12 -73l-178 -27l-217 -1241h-115l-543 1112l-180 -1012l174 -26l-10 -74h-477zM385 -522l12 67q53 12 90 29q31 14 54 33q16 14 24 33q6 16 6 28q0 16 -14 35q-6 6 -13.5 15.5 t-15.5 17.5q-16 16 -28 35q-14 20 -15 49q0 23 8 39q10 23 27 35q20 16 43 24q31 10 64 10q27 0 53 -10q29 -10 45 -27q18 -18 31 -47q12 -28 12 -61q0 -46 -19 -92q-18 -45 -61 -88q-41 -41 -117 -76q-61 -29 -186 -49z" />
<glyph unicode="&#x146;" horiz-adv-x="1138" d="M43 0l147 850l-90 24l15 66h334l-9 -174q72 92 170 147q90 51 209 52q46 0 86 -13q43 -12 70 -37q29 -27 45 -63q14 -35 14 -88q0 -27 -2 -41l-6 -49l-8 -49q-2 -8 -5 -23.5t-3 -21.5l-86 -490l114 -24l-12 -66h-387l102 569l9 43q0 6 4 22.5t4 23t1 19.5t3 19q2 12 2 29 q0 96 -90 96q-39 0 -74 -20q-43 -25 -74 -53q-35 -33 -65 -72q-23 -31 -47 -82l-107 -594h-264zM215 -522l12 67q53 12 90 29q31 14 54 33q16 14 24 33q6 16 6 28q0 16 -14 35q-6 6 -13.5 15.5t-15.5 17.5q-16 16 -28 35q-14 20 -15 49q0 23 8 39q10 23 27 35q20 16 43 24 q31 10 64 10q27 0 53 -10q29 -10 45 -27q18 -18 31 -47q12 -28 12 -61q0 -46 -19 -92q-18 -45 -61 -88q-41 -41 -117 -76q-61 -29 -186 -49z" />
<glyph unicode="&#x147;" horiz-adv-x="1478" d="M-18 0l12 74l176 26l201 1141l-166 27l12 73h432l436 -895l140 795l-174 27l12 73h477l-12 -73l-178 -27l-217 -1241h-115l-543 1112l-180 -1012l174 -26l-10 -74h-477zM612 1745l4 33h78l219 -162l276 162h76l-6 -33l-268 -293h-213z" />
<glyph unicode="&#x148;" horiz-adv-x="1138" d="M43 0l147 850l-90 24l15 66h334l-9 -174q72 92 170 147q90 51 209 52q46 0 86 -13q43 -12 70 -37q29 -27 45 -63q14 -35 14 -88q0 -27 -2 -41l-6 -49l-8 -49q-2 -8 -5 -23.5t-3 -21.5l-86 -490l114 -24l-12 -66h-387l102 569l9 43q0 6 4 22.5t4 23t1 19.5t3 19q2 12 2 29 q0 96 -90 96q-39 0 -74 -20q-43 -25 -74 -53q-35 -33 -65 -72q-23 -31 -47 -82l-107 -594h-264zM397 1411l4 33h78l219 -162l276 162h76l-6 -33l-268 -293h-213z" />
<glyph unicode="&#x149;" horiz-adv-x="1470" d="M377 0l147 850l-90 24l15 66h334l-9 -174q72 92 170 147q90 51 209 52q46 0 86 -13q43 -12 70 -37q29 -27 45 -63q14 -35 14 -88q0 -27 -2 -41l-6 -49l-8 -49q-2 -8 -5 -23.5t-3 -21.5l-86 -490l114 -24l-12 -66h-387l102 569l9 43q0 6 4 22.5t4 23t1 19.5t3 19 q2 12 2 29q0 96 -90 96q-39 0 -74 -20q-43 -25 -74 -53q-35 -33 -65 -72q-23 -31 -47 -82l-107 -594h-264zM28 743v93q59 18 86 36q41 29 58 52q20 27 30 53q8 23 8 45q0 18 -10 33q-6 8 -26 24l-33 23q-25 16 -35 26q-14 14 -25 41q-12 33 -12 60q0 66 45 98q47 35 115 35 q33 0 72 -14q35 -12 59 -37q27 -27 41 -62t14 -84q0 -74 -20 -135q-20 -63 -68 -119q-45 -53 -121 -98q-69 -41 -178 -70z" />
<glyph unicode="&#x14a;" horiz-adv-x="1603" d="M-16 0l14 74l174 26l201 1141l-166 27l12 73h455l-8 -122q66 35 125 59q63 27 114 41q55 15 111 24q49 8 106 9q178 0 270.5 -67.5t92.5 -213.5q0 -16 -2 -31q0 -8 -2 -22t-2 -23q0 -6 -3 -22.5t-6 -24.5q-4 -25 -6 -43l-84 -473q-25 -137 -71 -225q-47 -90 -111 -137 q-70 -53 -139 -70q-86 -20 -162 -20q-43 0 -65.5 2t-63.5 6q-20 2 -57 10q-18 4 -47 12l47 275h90l4 -166q20 -16 41 -25q23 -8 57 -8q63 0 101 51q37 53 55 146l110 637l7 34q0 8 2 18.5t4 18.5q4 25 4 33q0 6 1 14.5t1 12.5q0 51 -14 82q-14 33 -39 51q-29 20 -56 26 q-41 8 -63 9q-63 0 -164 -27q-96 -27 -207 -78l-176 -1014l96 -14l-14 -86h-567z" />
<glyph unicode="&#x14b;" horiz-adv-x="1105" d="M43 0l147 850l-90 24l15 66h334l-9 -174q72 92 170 147q90 51 209 52q46 0 86 -13q39 -12 70 -38.5t45 -65.5q14 -37 14 -94q0 -20 -2 -35q-2 -23 -6 -47q-2 -8 -4 -25.5t-4 -25.5q-2 -12 -4 -22.5t-4 -18.5l-107 -619q-18 -106 -57 -182q-37 -70 -96 -123 q-53 -47 -125 -70q-74 -23 -150 -22q-47 0 -90 6q-70 10 -78 12l39 225h64l22 -114q4 -4 17 -12q10 -6 28 -7q23 0 45 13q20 12 41 45q14 25 35 78q18 49 31 118l112 641l9 43q0 6 4 22.5t4 23t1 19.5t3 19q2 12 2 29q0 96 -90 96q-39 0 -74 -20q-43 -25 -74 -53 q-35 -33 -65 -72q-23 -31 -47 -82l-107 -594h-264z" />
<glyph unicode="&#x14c;" horiz-adv-x="1478" d="M74 524q0 111 22 219q18 92 68 197q43 94 110 170q66 74 154 131q82 51 193 84q109 31 235.5 31t233 -41t178.5 -113q74 -74 112 -172q41 -104 41 -219q0 -96 -18.5 -194.5t-59 -192.5t-102.5 -174q-59 -76 -149 -141q-84 -59 -199 -95q-117 -35 -254 -34 q-127 0 -233.5 40.5t-178 112.5t-112.5 172t-41 219zM375 485q0 -92 18 -166q18 -76 56 -126q41 -57 86 -82q51 -27 122 -27q80 0 142 35q72 41 117 94t90 139q37 70 63 162q29 96 39 170q12 86 12 160q0 94 -18 168q-18 72 -58 127q-43 59 -90 84q-57 29 -123 28 q-77 0 -141 -37q-63 -37 -115 -96q-51 -61 -88 -139q-39 -84 -61 -164q-29 -102 -39 -170q-12 -86 -12 -160zM578 1485l27 149h626l-24 -149h-629z" />
<glyph unicode="&#x14d;" d="M33 375q0 117 37 223q33 98 110 188q70 82 172 132q96 47 228 47q86 0 151 -27q74 -31 119 -78q51 -55 78 -125q27 -72 26 -164q0 -113 -39 -225q-35 -102 -108 -188q-66 -76 -174 -129q-101 -49 -227 -49q-86 0 -152 26q-72 29 -119 80q-49 53 -76 123q-26 72 -26 166z M297 319q0 -117 37 -178t94 -61q49 0 94 39q39 35 80 114q39 80 60 173q20 96 20 219q0 119 -30.5 180t-94.5 61q-46 0 -92 -43q-47 -43 -84 -118q-41 -84 -62 -175q-22 -102 -22 -211zM299 1151l27 149h626l-24 -149h-629z" />
<glyph unicode="&#x14e;" horiz-adv-x="1478" d="M74 524q0 111 22 219q18 92 68 197q43 94 110 170q66 74 154 131q82 51 193 84q109 31 235.5 31t233 -41t178.5 -113q74 -74 112 -172q41 -104 41 -219q0 -96 -18.5 -194.5t-59 -192.5t-102.5 -174q-59 -76 -149 -141q-84 -59 -199 -95q-117 -35 -254 -34 q-127 0 -233.5 40.5t-178 112.5t-112.5 172t-41 219zM375 485q0 -92 18 -166q18 -76 56 -126q41 -57 86 -82q51 -27 122 -27q80 0 142 35q72 41 117 94t90 139q37 70 63 162q29 96 39 170q12 86 12 160q0 94 -18 168q-18 72 -58 127q-43 59 -90 84q-57 29 -123 28 q-77 0 -141 -37q-63 -37 -115 -96q-51 -61 -88 -139q-39 -84 -61 -164q-29 -102 -39 -170q-12 -86 -12 -160zM635 1698q0 37 6 78h121q2 -70 49 -103q41 -29 109 -28q70 0 121 28q53 31 82 103h120q-15 -71 -43 -129q-29 -59 -71.5 -102.5t-104 -68t-139.5 -24.5 q-66 0 -113 18.5t-77 49.5q-29 29 -45 78q-15 43 -15 100z" />
<glyph unicode="&#x14f;" d="M33 375q0 117 37 223q33 98 110 188q70 82 172 132q96 47 228 47q86 0 151 -27q74 -31 119 -78q51 -55 78 -125q27 -72 26 -164q0 -113 -39 -225q-35 -102 -108 -188q-66 -76 -174 -129q-101 -49 -227 -49q-86 0 -152 26q-72 29 -119 80q-49 53 -76 123q-26 72 -26 166z M297 319q0 -117 37 -178t94 -61q49 0 94 39q39 35 80 114q39 80 60 173q20 96 20 219q0 119 -30.5 180t-94.5 61q-46 0 -92 -43q-47 -43 -84 -118q-41 -84 -62 -175q-22 -102 -22 -211zM354 1364q0 37 6 78h121q2 -70 49 -103q41 -29 109 -28q70 0 121 28q53 31 82 103h120 q-15 -71 -43 -129q-29 -59 -71.5 -102.5t-104 -68t-139.5 -24.5q-66 0 -113 18.5t-77 49.5q-29 29 -45 78q-15 43 -15 100z" />
<glyph unicode="&#x150;" horiz-adv-x="1478" d="M74 524q0 111 22 219q18 92 68 197q43 94 110 170q66 74 154 131q82 51 193 84q109 31 235.5 31t233 -41t178.5 -113q74 -74 112 -172q41 -104 41 -219q0 -96 -18.5 -194.5t-59 -192.5t-102.5 -174q-59 -76 -149 -141q-84 -59 -199 -95q-117 -35 -254 -34 q-127 0 -233.5 40.5t-178 112.5t-112.5 172t-41 219zM375 485q0 -92 18 -166q18 -76 56 -126q41 -57 86 -82q51 -27 122 -27q80 0 142 35q72 41 117 94t90 139q37 70 63 162q29 96 39 170q12 86 12 160q0 94 -18 168q-18 72 -58 127q-43 59 -90 84q-57 29 -123 28 q-77 0 -141 -37q-63 -37 -115 -96q-51 -61 -88 -139q-39 -84 -61 -164q-29 -102 -39 -170q-12 -86 -12 -160zM625 1452l6 33l191 293h249l-6 -37l-344 -289h-96zM975 1452l6 33l191 293h252l-9 -37l-344 -289h-96z" />
<glyph unicode="&#x151;" d="M33 375q0 117 37 223q33 98 110 188q70 82 172 132q96 47 228 47q86 0 151 -27q74 -31 119 -78q51 -55 78 -125q27 -72 26 -164q0 -113 -39 -225q-35 -102 -108 -188q-66 -76 -174 -129q-101 -49 -227 -49q-86 0 -152 26q-72 29 -119 80q-49 53 -76 123q-26 72 -26 166z M297 319q0 -117 37 -178t94 -61q49 0 94 39q39 35 80 114q39 80 60 173q20 96 20 219q0 119 -30.5 180t-94.5 61q-46 0 -92 -43q-47 -43 -84 -118q-41 -84 -62 -175q-22 -102 -22 -211zM332 1118l6 33l191 293h249l-6 -37l-344 -289h-96zM682 1118l6 33l191 293h252l-9 -37 l-344 -289h-96z" />
<glyph unicode="&#x152;" horiz-adv-x="1931" d="M72 524q0 169 49 320q47 143 149 262q98 114 246 178q150 66 338 66q53 0 90 -2l111 -7h792l-59 -342h-92l6 218q-2 0 -31 3l-47 5q-61 4 -96 4q-16 0 -47 1t-45 1h-68h-57l-86 -492h213l55 148h90l-74 -412h-88l-4 152h-213l-92 -516h105h118q41 0 103 4q53 4 82 6 q34 3 49 6l100 248h90l-84 -375h-874q-16 0 -46 -1t-44 -3q-27 -2 -74 -2q-137 0 -234 37q-109 41 -178 108q-76 74 -114 168q-39 96 -39 217zM373 485q0 -92 18 -166q18 -78 53 -122q37 -49 88 -76q53 -29 121 -29q51 0 90 6t76 19l195 1102l-39 12q-14 4 -39 8l-43 6 q-14 2 -53 2q-84 0 -146 -35q-72 -41 -119 -96q-49 -59 -90 -139q-39 -78 -63 -164q-25 -88 -37 -170q-12 -86 -12 -158z" />
<glyph unicode="&#x153;" horiz-adv-x="1478" d="M45 319q0 47 2 74q2 39 12 82q23 129 62 211q43 94 106 154q68 66 150 94q86 31 196 31q102 0 164 -35q66 -37 101 -96q63 63 135 96q76 35 162 35q152 0 225 -54q76 -55 76 -151q0 -70 -35 -125q-37 -59 -107 -107q-72 -49 -168 -77q-115 -35 -229 -43l-1 -5 q-1 -4 -1 -8q0 -2 -1 -8t-1 -10v-19v-18q0 -59 6 -88q10 -47 29 -76q18 -31 55 -51q35 -20 90 -21q70 0 137 29q51 23 117 66l45 -64q-37 -31 -74 -53q-57 -37 -90 -51q-53 -23 -102 -37q-51 -14 -113 -14q-104 0 -178 34q-70 33 -108 92q-58 -58 -136 -92q-80 -35 -180 -34 q-176 0 -262 86q-84 83 -84 253zM307 242q0 -84 23 -121q25 -41 82 -41q43 0 77 24q33 23 62 76q23 41 47 123q12 45 37 172q12 68 18 123t6 98q0 84 -24 127q-23 41 -86 41q-41 0 -76 -24q-37 -27 -59 -72q-29 -57 -45 -123q-12 -47 -35 -170q-18 -100 -21 -129 q-6 -58 -6 -104zM913 508q61 6 119 33q51 25 88 61q31 33 54 82q18 43 18 88q0 43 -20.5 63.5t-49.5 20.5q-41 0 -71 -29q-29 -27 -60 -79q-28 -49 -49 -111q-17 -49 -29 -129z" />
<glyph unicode="&#x154;" horiz-adv-x="1363" d="M-2 0l10 74l164 26l203 1141l-168 27l12 73h537q129 0 231 -22q100 -23 160 -64q63 -45 92 -104q31 -65 31 -147t-27 -156q-25 -68 -67 -117q-41 -47 -105 -82q-66 -37 -131 -53l201 -496l147 -26l-12 -74h-399l-209 567h-115l-84 -467l168 -26l-12 -74h-627zM571 678h56 q84 0 145 20q65 22 111 62q45 39 69.5 96t24.5 131q0 127 -62 187q-59 57 -178 57h-67zM645 1452l4 33l197 272h284l-4 -37l-395 -268h-86z" />
<glyph unicode="&#x155;" horiz-adv-x="796" d="M43 0l150 850l-117 24l10 66h375l-23 -203q35 68 66 103q39 45 74 71q39 29 77 41q40 12 74 13q29 0 45 -2q10 -2 22.5 -5.5t14.5 -3.5l-57 -336h-56l-43 138q-41 0 -67 -8q-33 -10 -62 -29q-28 -18 -55.5 -49t-54.5 -74l-105 -596h-268zM406 1118l4 33l197 272h284 l-4 -37l-395 -268h-86z" />
<glyph unicode="&#x156;" horiz-adv-x="1363" d="M-2 0l10 74l164 26l203 1141l-168 27l12 73h537q129 0 231 -22q100 -23 160 -64q63 -45 92 -104q31 -65 31 -147t-27 -156q-25 -68 -67 -117q-41 -47 -105 -82q-66 -37 -131 -53l201 -496l147 -26l-12 -74h-399l-209 567h-115l-84 -467l168 -26l-12 -74h-627zM571 678h56 q84 0 145 20q65 22 111 62q45 39 69.5 96t24.5 131q0 127 -62 187q-59 57 -178 57h-67zM381 -522l12 67q53 12 90 29q31 14 54 33q16 14 24 33q6 16 6 28q0 16 -14 35q-6 6 -13.5 15.5t-15.5 17.5q-16 16 -28 35q-14 20 -15 49q0 23 8 39q10 23 27 35q20 16 43 24 q31 10 64 10q27 0 53 -10q29 -10 45 -27q18 -18 31 -47q12 -28 12 -61q0 -46 -19 -92q-18 -45 -61 -88q-41 -41 -117 -76q-61 -29 -186 -49z" />
<glyph unicode="&#x157;" horiz-adv-x="796" d="M43 0l150 850l-117 24l10 66h375l-23 -203q35 68 66 103q39 45 74 71q39 29 77 41q40 12 74 13q29 0 45 -2q10 -2 22.5 -5.5t14.5 -3.5l-57 -336h-56l-43 138q-41 0 -67 -8q-33 -10 -62 -29q-28 -18 -55.5 -49t-54.5 -74l-105 -596h-268zM-88 -522l12 67q53 12 90 29 q31 14 54 33q16 14 24 33q6 16 6 28q0 16 -14 35q-6 6 -13.5 15.5t-15.5 17.5q-16 16 -28 35q-14 20 -15 49q0 23 8 39q10 23 27 35q20 16 43 24q31 10 64 10q27 0 53 -10q29 -10 45 -27q18 -18 31 -47q12 -28 12 -61q0 -46 -19 -92q-18 -45 -61 -88q-41 -41 -117 -76 q-61 -29 -186 -49z" />
<glyph unicode="&#x158;" horiz-adv-x="1363" d="M-2 0l10 74l164 26l203 1141l-168 27l12 73h537q129 0 231 -22q100 -23 160 -64q63 -45 92 -104q31 -65 31 -147t-27 -156q-25 -68 -67 -117q-41 -47 -105 -82q-66 -37 -131 -53l201 -496l147 -26l-12 -74h-399l-209 567h-115l-84 -467l168 -26l-12 -74h-627zM571 678h56 q84 0 145 20q65 22 111 62q45 39 69.5 96t24.5 131q0 127 -62 187q-59 57 -178 57h-67zM524 1745l4 33h78l219 -162l276 162h76l-6 -33l-268 -293h-213z" />
<glyph unicode="&#x159;" horiz-adv-x="796" d="M43 0l150 850l-117 24l10 66h375l-23 -203q35 68 66 103q39 45 74 71q39 29 77 41q40 12 74 13q29 0 45 -2q10 -2 22.5 -5.5t14.5 -3.5l-57 -336h-56l-43 138q-41 0 -67 -8q-33 -10 -62 -29q-28 -18 -55.5 -49t-54.5 -74l-105 -596h-268zM234 1411l4 33h78l219 -162 l276 162h76l-6 -33l-268 -293h-213z" />
<glyph unicode="&#x15a;" horiz-adv-x="1138" d="M37 51l63 361h88l2 -215q23 -29 46 -47q28 -22 61 -37q27 -12 72 -23q35 -8 80 -8q86 0 137 16q57 18 94 49q39 33 55 72q18 43 19 92q0 53 -25 95q-23 37 -63 71q-39 33 -91 62l-102 57q-49 29 -102 66q-55 39 -90 77q-39 43 -64 105q-23 53 -22 135q0 98 34 166 q39 76 103 119q72 49 166 69q102 23 219 23q86 0 174 -13q86 -12 162 -30l-56 -320h-90l-6 197q-39 29 -92 45q-55 16 -119 16q-68 0 -110 -14q-45 -14 -74 -41q-29 -25 -43 -57q-14 -31 -14 -70q0 -53 22 -86q23 -35 66 -67.5t90 -59.5l102 -57q70 -41 102 -64 q49 -35 93 -80q37 -39 63 -100q25 -55 25 -131q0 -115 -39 -195q-39 -82 -113 -137q-76 -57 -182 -84q-111 -29 -246 -28q-129 0 -231 22q-82 18 -164 49zM584 1452l4 33l197 272h284l-4 -37l-395 -268h-86z" />
<glyph unicode="&#x15b;" horiz-adv-x="796" d="M-10 35l45 260h65l17 -131q16 -25 28 -35q25 -20 39 -29q27 -16 49 -20q29 -6 60 -6q43 0 78 12t55 33q23 23 35 49q12 29 12 57q0 31 -14 54q-14 25 -39 45q-8 8 -58 36l-63 39q-43 23 -78 50q-43 33 -65 59q-33 39 -45 76q-16 45 -17 96q0 84 31 139q33 59 82 88 q57 33 121 45q68 12 143 13q74 0 133 -9q80 -10 129 -22l-43 -242h-65l-13 111q-23 27 -61.5 47t-91.5 20q-78 0 -113 -32.5t-35 -89.5q0 -28 13 -50q12 -23 34 -41q14 -12 52 -36q18 -10 59 -35l84 -51q41 -25 71.5 -60t49.5 -76q18 -43 18 -102q0 -152 -100 -234 q-102 -84 -305 -83q-45 0 -90 6q-57 8 -86 14l-24.5 5t-27 6l-20.5 5q-31 10 -49 19zM363 1118l4 33l197 272h284l-4 -37l-395 -268h-86z" />
<glyph unicode="&#x15c;" horiz-adv-x="1138" d="M37 51l63 361h88l2 -215q23 -29 46 -47q28 -22 61 -37q27 -12 72 -23q35 -8 80 -8q86 0 137 16q57 18 94 49q39 33 55 72q18 43 19 92q0 53 -25 95q-23 37 -63 71q-39 33 -91 62l-102 57q-49 29 -102 66q-55 39 -90 77q-39 43 -64 105q-23 53 -22 135q0 98 34 166 q39 76 103 119q72 49 166 69q102 23 219 23q86 0 174 -13q86 -12 162 -30l-56 -320h-90l-6 197q-39 29 -92 45q-55 16 -119 16q-68 0 -110 -14q-45 -14 -74 -41q-29 -25 -43 -57q-14 -31 -14 -70q0 -53 22 -86q23 -35 66 -67.5t90 -59.5l102 -57q70 -41 102 -64 q49 -35 93 -80q37 -39 63 -100q25 -55 25 -131q0 -115 -39 -195q-39 -82 -113 -137q-76 -57 -182 -84q-111 -29 -246 -28q-129 0 -231 22q-82 18 -164 49zM373 1452l6 33l268 293h213l168 -293l-6 -33h-78l-219 162l-277 -162h-75z" />
<glyph unicode="&#x15d;" horiz-adv-x="796" d="M-10 35l45 260h65l17 -131q16 -25 28 -35q25 -20 39 -29q27 -16 49 -20q29 -6 60 -6q43 0 78 12t55 33q23 23 35 49q12 29 12 57q0 31 -14 54q-14 25 -39 45q-8 8 -58 36l-63 39q-43 23 -78 50q-43 33 -65 59q-33 39 -45 76q-16 45 -17 96q0 84 31 139q33 59 82 88 q57 33 121 45q68 12 143 13q74 0 133 -9q80 -10 129 -22l-43 -242h-65l-13 111q-23 27 -61.5 47t-91.5 20q-78 0 -113 -32.5t-35 -89.5q0 -28 13 -50q12 -23 34 -41q14 -12 52 -36q18 -10 59 -35l84 -51q41 -25 71.5 -60t49.5 -76q18 -43 18 -102q0 -152 -100 -234 q-102 -84 -305 -83q-45 0 -90 6q-57 8 -86 14l-24.5 5t-27 6l-20.5 5q-31 10 -49 19zM179 1118l6 33l268 293h213l168 -293l-6 -33h-78l-219 162l-277 -162h-75z" />
<glyph unicode="&#x15e;" horiz-adv-x="1138" d="M37 51l63 361h88l2 -215q23 -29 46 -47q28 -22 61 -37q27 -12 72 -23q35 -8 80 -8q86 0 137 16q57 18 94 49q39 33 55 72q18 43 19 92q0 53 -25 95q-23 37 -63 71q-39 33 -91 62l-102 57q-49 29 -102 66q-55 39 -90 77q-39 43 -64 105q-23 53 -22 135q0 98 34 166 q39 76 103 119q72 49 166 69q102 23 219 23q86 0 174 -13q86 -12 162 -30l-56 -320h-90l-6 197q-39 29 -92 45q-55 16 -119 16q-68 0 -110 -14q-45 -14 -74 -41q-29 -25 -43 -57q-14 -31 -14 -70q0 -53 22 -86q23 -35 66 -67.5t90 -59.5l102 -57q70 -41 102 -64 q49 -35 93 -80q37 -39 63 -100q25 -55 25 -131q0 -115 -39 -195q-39 -82 -113 -137q-76 -57 -182 -84q-111 -29 -246 -28q-129 0 -231 22q-82 18 -164 49zM224 -403l37 98q35 -14 59 -17q37 -4 43 -4q29 0 47 9q25 10 35 20q14 14 20.5 28.5t6.5 35.5q0 37 -23 59 q-25 25 -84 27l86 194h90l-43 -110q45 -8 68 -17q33 -12 53 -31q25 -20 37 -44.5t12 -59.5q0 -55 -24 -96q-27 -43 -66 -68q-39 -27 -96 -39q-61 -14 -111 -14q-31 0 -72 6q-34 7 -75 23z" />
<glyph unicode="&#x15f;" horiz-adv-x="796" d="M-10 35l45 260h65l17 -131q16 -25 28 -35q25 -20 39 -29q27 -16 49 -20q29 -6 60 -6q43 0 78 12t55 33q23 23 35 49q12 29 12 57q0 31 -14 54q-14 25 -39 45q-8 8 -58 36l-63 39q-43 23 -78 50q-43 33 -65 59q-33 39 -45 76q-16 45 -17 96q0 84 31 139q33 59 82 88 q57 33 121 45q68 12 143 13q74 0 133 -9q80 -10 129 -22l-43 -242h-65l-13 111q-23 27 -61.5 47t-91.5 20q-78 0 -113 -32.5t-35 -89.5q0 -28 13 -50q12 -23 34 -41q14 -12 52 -36q18 -10 59 -35l84 -51q41 -25 71.5 -60t49.5 -76q18 -43 18 -102q0 -152 -100 -234 q-102 -84 -305 -83q-45 0 -90 6q-57 8 -86 14l-24.5 5t-27 6l-20.5 5q-31 10 -49 19zM60 -403l37 98q35 -14 59 -17q37 -4 43 -4q29 0 47 9q25 10 35 20q14 14 20.5 28.5t6.5 35.5q0 37 -23 59q-25 25 -84 27l86 194h90l-43 -110q45 -8 68 -17q33 -12 53 -31 q25 -20 37 -44.5t12 -59.5q0 -55 -24 -96q-27 -43 -66 -68q-39 -27 -96 -39q-61 -14 -111 -14q-31 0 -72 6q-34 7 -75 23z" />
<glyph unicode="&#x160;" horiz-adv-x="1138" d="M37 51l63 361h88l2 -215q23 -29 46 -47q28 -22 61 -37q27 -12 72 -23q35 -8 80 -8q86 0 137 16q57 18 94 49q39 33 55 72q18 43 19 92q0 53 -25 95q-23 37 -63 71q-39 33 -91 62l-102 57q-49 29 -102 66q-55 39 -90 77q-39 43 -64 105q-23 53 -22 135q0 98 34 166 q39 76 103 119q72 49 166 69q102 23 219 23q86 0 174 -13q86 -12 162 -30l-56 -320h-90l-6 197q-39 29 -92 45q-55 16 -119 16q-68 0 -110 -14q-45 -14 -74 -41q-29 -25 -43 -57q-14 -31 -14 -70q0 -53 22 -86q23 -35 66 -67.5t90 -59.5l102 -57q70 -41 102 -64 q49 -35 93 -80q37 -39 63 -100q25 -55 25 -131q0 -115 -39 -195q-39 -82 -113 -137q-76 -57 -182 -84q-111 -29 -246 -28q-129 0 -231 22q-82 18 -164 49zM432 1745l4 33h78l219 -162l276 162h76l-6 -33l-268 -293h-213z" />
<glyph unicode="&#x161;" horiz-adv-x="796" d="M-10 35l45 260h65l17 -131q16 -25 28 -35q25 -20 39 -29q27 -16 49 -20q29 -6 60 -6q43 0 78 12t55 33q23 23 35 49q12 29 12 57q0 31 -14 54q-14 25 -39 45q-8 8 -58 36l-63 39q-43 23 -78 50q-43 33 -65 59q-33 39 -45 76q-16 45 -17 96q0 84 31 139q33 59 82 88 q57 33 121 45q68 12 143 13q74 0 133 -9q80 -10 129 -22l-43 -242h-65l-13 111q-23 27 -61.5 47t-91.5 20q-78 0 -113 -32.5t-35 -89.5q0 -28 13 -50q12 -23 34 -41q14 -12 52 -36q18 -10 59 -35l84 -51q41 -25 71.5 -60t49.5 -76q18 -43 18 -102q0 -152 -100 -234 q-102 -84 -305 -83q-45 0 -90 6q-57 8 -86 14l-24.5 5t-27 6l-20.5 5q-31 10 -49 19zM213 1411l4 33h78l219 -162l276 162h76l-6 -33l-268 -293h-213z" />
<glyph unicode="&#x162;" horiz-adv-x="1249" d="M150 967l65 374h1104l-68 -374h-88l15 247l-19 4q-18 3 -28.5 5t-31 3t-30.5 1q-41 4 -63 4q-10 0 -29 1t-25 1h-59l-201 -1133l209 -26l-12 -74h-721l10 74l219 26l201 1135h-61q-6 0 -25.5 -1t-30.5 -1q-20 0 -61 -4q-6 0 -19.5 -2t-23.5 -3t-19 -1q-10 -2 -28 -5 l-19 -4l-75 -247h-86zM250 -522l12 67q53 12 90 29q31 14 54 33q16 14 24 33q6 16 6 28q0 16 -14 35q-6 6 -13.5 15.5t-15.5 17.5q-16 16 -28 35q-14 20 -15 49q0 23 8 39q10 23 27 35q20 16 43 24q31 10 64 10q27 0 53 -10q29 -10 45 -27q18 -18 31 -47q12 -28 12 -61 q0 -46 -19 -92q-18 -45 -61 -88q-41 -41 -117 -76q-61 -29 -186 -49z" />
<glyph unicode="&#x163;" horiz-adv-x="567" d="M61 836l13 65l141 39l139 213h146l-37 -213h158l-19 -104h-158l-92 -508q-8 -51 -10 -70q-4 -45 -4 -51q0 -55 24.5 -78t65.5 -23q23 0 51 7q31 6 60 18l24 -70q-18 -14 -49 -28q-29 -14 -65 -27q-39 -12 -74 -18q-53 -8 -78 -8q-63 0 -109 16q-39 14 -69 45 q-25 25 -39 65q-12 37 -12 78t4 68q2 14 7 40.5l7 37.5l90 506h-115zM23 -522l12 67q53 12 90 29q31 14 54 33q16 14 24 33q6 16 6 28q0 16 -14 35q-6 6 -13.5 15.5t-15.5 17.5q-16 16 -28 35q-14 20 -15 49q0 23 8 39q10 23 27 35q20 16 43 24q31 10 64 10q27 0 53 -10 q29 -10 45 -27q18 -18 31 -47q12 -28 12 -61q0 -46 -19 -92q-18 -45 -61 -88q-41 -41 -117 -76q-61 -29 -186 -49z" />
<glyph unicode="&#x164;" horiz-adv-x="1249" d="M150 967l65 374h1104l-68 -374h-88l15 247l-19 4q-18 3 -28.5 5t-31 3t-30.5 1q-41 4 -63 4q-10 0 -29 1t-25 1h-59l-201 -1133l209 -26l-12 -74h-721l10 74l219 26l201 1135h-61q-6 0 -25.5 -1t-30.5 -1q-20 0 -61 -4q-6 0 -19.5 -2t-23.5 -3t-19 -1q-10 -2 -28 -5 l-19 -4l-75 -247h-86zM502 1745l4 33h78l219 -162l276 162h76l-6 -33l-268 -293h-213z" />
<glyph unicode="&#x165;" horiz-adv-x="1087" d="M61 836l13 65l141 39l139 213h146l-37 -213h158l-19 -104h-158l-92 -508q-8 -51 -10 -70q-4 -45 -4 -51q0 -55 24.5 -78t65.5 -23q23 0 51 7q31 6 60 18l24 -70q-18 -14 -49 -28q-29 -14 -65 -27q-39 -12 -74 -18q-53 -8 -78 -8q-63 0 -109 16q-39 14 -69 45 q-25 25 -39 65q-12 37 -12 78t4 68q2 14 7 40.5l7 37.5l90 506h-115zM671 888l17 80q59 14 100 37q37 20 64 43q25 23 34 45q12 29 13 37q0 23 -17 43l-19 18.5l-17 16.5q-29 31 -35 37q-16 23 -17 53q0 29 15 57q10 23 34 39q18 14 50 21q27 6 57 6q33 0 57 -8 q33 -10 51.5 -26.5t32.5 -47.5q14 -33 15 -70q0 -71 -31 -129q-31 -59 -84 -106q-49 -43 -137 -84q-79 -37 -183 -62z" />
<glyph unicode="&#x166;" horiz-adv-x="1249" d="M150 967l65 374h1104l-68 -374h-88l15 247l-19 4q-18 3 -28.5 5t-31 3t-30.5 1q-41 4 -63 4q-10 0 -29 1t-25 1h-59l-88 -502h280l-20 -123h-283l-90 -508l209 -26l-12 -74h-721l10 74l219 26l88 508h-278l20 123h281l90 504h-61q-6 0 -25.5 -1t-30.5 -1q-20 0 -61 -4 q-6 0 -19.5 -2t-23.5 -3t-19 -1q-10 -2 -28 -5l-19 -4l-75 -247h-86z" />
<glyph unicode="&#x167;" horiz-adv-x="567" d="M10 477l19 105h102l45 254h-115l13 65l141 39l139 213h146l-37 -213h158l-19 -104h-158l-47 -254h168l-18 -105h-166l-29 -149q-8 -51 -10 -70q-4 -45 -4 -51q0 -55 24.5 -78t65.5 -23q23 0 51 7q31 6 60 18l24 -70q-18 -14 -49 -28q-29 -14 -65 -27q-39 -12 -74 -18 q-53 -8 -78 -8q-63 0 -109 16q-39 14 -69 45q-25 25 -39 65q-12 37 -12 78t4 68q2 14 7 40.5l7 37.5l27 147h-103z" />
<glyph unicode="&#x168;" horiz-adv-x="1478" d="M168 1268l12 73h619l-13 -73l-178 -27l-112 -655q-6 -35 -17 -115q-6 -53 -6 -82q0 -139 69.5 -202.5t196.5 -63.5q92 0 160 24q66 25 117 72q45 41 78 109q31 61 43 135l137 778l-176 27l12 73h457l-13 -73l-157 -27l-135 -770q-18 -111 -58 -197q-41 -90 -108.5 -155.5 t-165.5 -100.5q-102 -37 -242 -36q-135 0 -229 30.5t-158 87.5q-61 55 -92 131q-29 72 -29 168q0 39 6 84q10 72 15 101l112 657zM575 1442q14 63 32.5 108.5t53.5 90.5q29 37 76 63q43 25 106 25q51 0 91 -21q33 -18 69 -47l23 -18l26 -21q14 -10 29 -16q20 -8 27 -8 q35 0 57 26q18 20 41 86h100q-20 -74 -34 -108q-18 -45 -54 -90q-31 -39 -75 -64q-47 -25 -107 -24q-27 0 -49 6q-18 6 -41 16q-12 6 -37 23q-6 4 -10 7t-7 5l-7.5 5t-8.5 7q-2 2 -9 8.5l-11 10.5q-2 2 -27 20q-20 14 -29 19q-16 6 -26 6q-37 0 -59.5 -27t-40.5 -88h-99z " />
<glyph unicode="&#x169;" horiz-adv-x="1138" d="M76 874l12 66h385l-100 -567l-8 -45q0 -8 -4.5 -22.5t-4.5 -20.5t-1 -19.5t-3 -19.5q-2 -12 -2 -31q0 -96 90 -96q37 0 72 20q49 29 76 54q31 27 65 73q27 33 47 80l107 594h264l-147 -850l108 -24l-12 -66h-354l8 176q-74 -96 -170 -149q-90 -51 -209 -52q-46 0 -86 13 q-39 12 -69.5 38.5t-45.5 65.5q-14 37 -14 94q0 20 2 35q3 22 6 49q4 37 8 56q2 16 5 29.5t5 21.5l84 473zM327 1108q14 63 32.5 108.5t53.5 90.5q29 37 76 63q43 25 106 25q51 0 91 -21q33 -18 69 -47l23 -18l26 -21q14 -10 29 -16q20 -8 27 -8q35 0 57 26q18 20 41 86h100 q-20 -74 -34 -108q-18 -45 -54 -90q-31 -39 -75 -64q-47 -25 -107 -24q-27 0 -49 6q-18 6 -41 16q-12 6 -37 23q-6 4 -10 7t-7 5l-7.5 5t-8.5 7q-2 2 -9 8.5l-11 10.5q-2 2 -27 20q-20 14 -29 19q-16 6 -26 6q-37 0 -59.5 -27t-40.5 -88h-99z" />
<glyph unicode="&#x16a;" horiz-adv-x="1478" d="M168 1268l12 73h619l-13 -73l-178 -27l-112 -655q-6 -35 -17 -115q-6 -53 -6 -82q0 -139 69.5 -202.5t196.5 -63.5q92 0 160 24q66 25 117 72q45 41 78 109q31 61 43 135l137 778l-176 27l12 73h457l-13 -73l-157 -27l-135 -770q-18 -111 -58 -197q-41 -90 -108.5 -155.5 t-165.5 -100.5q-102 -37 -242 -36q-135 0 -229 30.5t-158 87.5q-61 55 -92 131q-29 72 -29 168q0 39 6 84q10 72 15 101l112 657zM604 1485l27 149h626l-24 -149h-629z" />
<glyph unicode="&#x16b;" horiz-adv-x="1138" d="M76 874l12 66h385l-100 -567l-8 -45q0 -8 -4.5 -22.5t-4.5 -20.5t-1 -19.5t-3 -19.5q-2 -12 -2 -31q0 -96 90 -96q37 0 72 20q49 29 76 54q31 27 65 73q27 33 47 80l107 594h264l-147 -850l108 -24l-12 -66h-354l8 176q-74 -96 -170 -149q-90 -51 -209 -52q-46 0 -86 13 q-39 12 -69.5 38.5t-45.5 65.5q-14 37 -14 94q0 20 2 35q3 22 6 49q4 37 8 56q2 16 5 29.5t5 21.5l84 473zM362 1151l27 149h626l-24 -149h-629z" />
<glyph unicode="&#x16c;" horiz-adv-x="1478" d="M168 1268l12 73h619l-13 -73l-178 -27l-112 -655q-6 -35 -17 -115q-6 -53 -6 -82q0 -139 69.5 -202.5t196.5 -63.5q92 0 160 24q66 25 117 72q45 41 78 109q31 61 43 135l137 778l-176 27l12 73h457l-13 -73l-157 -27l-135 -770q-18 -111 -58 -197q-41 -90 -108.5 -155.5 t-165.5 -100.5q-102 -37 -242 -36q-135 0 -229 30.5t-158 87.5q-61 55 -92 131q-29 72 -29 168q0 39 6 84q10 72 15 101l112 657zM639 1698q0 37 6 78h121q2 -70 49 -103q41 -29 109 -28q70 0 121 28q53 31 82 103h120q-15 -71 -43 -129q-29 -59 -71.5 -102.5t-104 -68 t-139.5 -24.5q-66 0 -113 18.5t-77 49.5q-29 29 -45 78q-15 43 -15 100z" />
<glyph unicode="&#x16d;" horiz-adv-x="1138" d="M76 874l12 66h385l-100 -567l-8 -45q0 -8 -4.5 -22.5t-4.5 -20.5t-1 -19.5t-3 -19.5q-2 -12 -2 -31q0 -96 90 -96q37 0 72 20q49 29 76 54q31 27 65 73q27 33 47 80l107 594h264l-147 -850l108 -24l-12 -66h-354l8 176q-74 -96 -170 -149q-90 -51 -209 -52q-46 0 -86 13 q-39 12 -69.5 38.5t-45.5 65.5q-14 37 -14 94q0 20 2 35q3 22 6 49q4 37 8 56q2 16 5 29.5t5 21.5l84 473zM420 1364q0 37 6 78h121q2 -70 49 -103q41 -29 109 -28q70 0 121 28q53 31 82 103h120q-15 -71 -43 -129q-29 -59 -71.5 -102.5t-104 -68t-139.5 -24.5 q-66 0 -113 18.5t-77 49.5q-29 29 -45 78q-15 43 -15 100z" />
<glyph unicode="&#x16e;" horiz-adv-x="1478" d="M168 1268l12 73h619l-13 -73l-178 -27l-112 -655q-6 -35 -17 -115q-6 -53 -6 -82q0 -139 69.5 -202.5t196.5 -63.5q92 0 160 24q66 25 117 72q45 41 78 109q31 61 43 135l137 778l-176 27l12 73h457l-13 -73l-157 -27l-135 -770q-18 -111 -58 -197q-41 -90 -108.5 -155.5 t-165.5 -100.5q-102 -37 -242 -36q-135 0 -229 30.5t-158 87.5q-61 55 -92 131q-29 72 -29 168q0 39 6 84q10 72 15 101l112 657zM729 1606q0 39 16 82q14 37 45 67q33 33 66 45q43 16 84 16.5t84 -16.5q37 -14 67 -45q28 -28 43 -67q16 -43 16.5 -82t-16.5 -82 q-15 -40 -43 -68q-29 -29 -67 -47q-35 -16 -84 -16t-84 16.5t-65.5 47t-45.5 67.5q-16 43 -16 82zM841 1606q0 -20 8.5 -36.5t23 -31t30.5 -22.5t36.5 -8t37.5 8q20 10 32 22q10 10 21 31q8 16 8 37q0 23 -8 39q-10 20 -21 30q-12 12 -32 23q-12 6 -37 6t-37 -6 q-16 -8 -30.5 -22.5t-23 -30.5t-8.5 -39z" />
<glyph unicode="&#x16f;" horiz-adv-x="1138" d="M76 874l12 66h385l-100 -567l-8 -45q0 -8 -4.5 -22.5t-4.5 -20.5t-1 -19.5t-3 -19.5q-2 -12 -2 -31q0 -96 90 -96q37 0 72 20q49 29 76 54q31 27 65 73q27 33 47 80l107 594h264l-147 -850l108 -24l-12 -66h-354l8 176q-74 -96 -170 -149q-90 -51 -209 -52q-46 0 -86 13 q-39 12 -69.5 38.5t-45.5 65.5q-14 37 -14 94q0 20 2 35q3 22 6 49q4 37 8 56q2 16 5 29.5t5 21.5l84 473zM486 1272q0 39 16 82q14 37 45 67q33 33 66 45q43 16 84 16.5t84 -16.5q37 -14 67 -45q28 -28 43 -67q16 -43 16.5 -82t-16.5 -82q-15 -40 -43 -68q-29 -29 -67 -47 q-35 -16 -84 -16t-84 16.5t-65.5 47t-45.5 67.5q-16 43 -16 82zM598 1272q0 -20 8.5 -36.5t23 -31t30.5 -22.5t36.5 -8t37.5 8q20 10 32 22q10 10 21 31q8 16 8 37q0 23 -8 39q-10 20 -21 30q-12 12 -32 23q-12 6 -37 6t-37 -6q-16 -8 -30.5 -22.5t-23 -30.5t-8.5 -39z" />
<glyph unicode="&#x170;" horiz-adv-x="1478" d="M168 1268l12 73h619l-13 -73l-178 -27l-112 -655q-6 -35 -17 -115q-6 -53 -6 -82q0 -139 69.5 -202.5t196.5 -63.5q92 0 160 24q66 25 117 72q45 41 78 109q31 61 43 135l137 778l-176 27l12 73h457l-13 -73l-157 -27l-135 -770q-18 -111 -58 -197q-41 -90 -108.5 -155.5 t-165.5 -100.5q-102 -37 -242 -36q-135 0 -229 30.5t-158 87.5q-61 55 -92 131q-29 72 -29 168q0 39 6 84q10 72 15 101l112 657zM623 1452l6 33l191 293h249l-6 -37l-344 -289h-96zM973 1452l6 33l191 293h252l-9 -37l-344 -289h-96z" />
<glyph unicode="&#x171;" horiz-adv-x="1138" d="M76 874l12 66h385l-100 -567l-8 -45q0 -8 -4.5 -22.5t-4.5 -20.5t-1 -19.5t-3 -19.5q-2 -12 -2 -31q0 -96 90 -96q37 0 72 20q49 29 76 54q31 27 65 73q27 33 47 80l107 594h264l-147 -850l108 -24l-12 -66h-354l8 176q-74 -96 -170 -149q-90 -51 -209 -52q-46 0 -86 13 q-39 12 -69.5 38.5t-45.5 65.5q-14 37 -14 94q0 20 2 35q3 22 6 49q4 37 8 56q2 16 5 29.5t5 21.5l84 473zM397 1118l6 33l191 293h249l-6 -37l-344 -289h-96zM747 1118l6 33l191 293h252l-9 -37l-344 -289h-96z" />
<glyph unicode="&#x172;" horiz-adv-x="1478" d="M168 1268l12 73h619l-13 -73l-178 -27l-112 -655q-6 -35 -17 -115q-6 -53 -6 -82q0 -139 69.5 -202.5t196.5 -63.5q92 0 160 24q66 25 117 72q45 41 78 109q31 61 43 135l137 778l-176 27l12 73h457l-13 -73l-157 -27l-135 -770q-18 -111 -58 -197q-41 -90 -108.5 -155.5 t-165.5 -100.5q-102 -37 -242 -36q-135 0 -229 30.5t-158 87.5q-61 55 -92 131q-29 72 -29 168q0 39 6 84q10 72 15 101l112 657zM570 -229q0 39 8 69q10 37 27 68q18 35 41 59q29 33 51 47h133q-33 -51 -53 -108q-23 -61 -23 -113q0 -53 27 -84q25 -29 78 -28q23 0 53 6 q29 6 57 18l31 -82q-45 -25 -94.5 -39t-112.5 -14q-109 0 -166 51.5t-57 149.5z" />
<glyph unicode="&#x173;" horiz-adv-x="1138" d="M76 874l12 66h385l-100 -567l-8 -45q0 -8 -4.5 -22.5t-4.5 -20.5t-1 -19.5t-3 -19.5q-2 -12 -2 -31q0 -96 90 -96q37 0 72 20q49 29 76 54q31 27 65 73q27 33 47 80l107 594h264l-147 -850l108 -24l-12 -66h-354l8 176q-74 -96 -170 -149q-90 -51 -209 -52q-46 0 -86 13 q-39 12 -69.5 38.5t-45.5 65.5q-14 37 -14 94q0 20 2 35q3 22 6 49q4 37 8 56q2 16 5 29.5t5 21.5l84 473zM559 -229q0 39 8 69q10 37 27 68q18 35 41 59q29 33 51 47h133q-33 -51 -53 -108q-23 -61 -23 -113q0 -53 27 -84q25 -29 78 -28q23 0 53 6q29 6 57 18l31 -82 q-45 -25 -94.5 -39t-112.5 -14q-109 0 -166 51.5t-57 149.5z" />
<glyph unicode="&#x174;" horiz-adv-x="1820" d="M141 1268l13 73h565l-14 -73l-162 -27l106 -813l398 829h100l151 -833l363 817l-166 27l14 73h433l-15 -73l-121 -27l-592 -1272h-94l-157 848l-404 -848h-100l-189 1272zM756 1452l6 33l268 293h213l168 -293l-6 -33h-78l-219 162l-277 -162h-75z" />
<glyph unicode="&#x175;" horiz-adv-x="1363" d="M-12 874l10 66h305l125 -657l310 563h100l113 -563l163 297q16 29 23 47q4 8 8 26.5t8 26.5q8 27 13 53q0 6 3 20.5t3 20.5q0 27 -10 47q-10 18 -23 27q-20 12 -33 16q-23 8 -35 10l13 66h243q14 -12 22.5 -30.5t8.5 -51.5t-12 -82t-53 -119l-404 -677h-119l-102 538 l-297 -538h-131l-172 870zM451 1118l6 33l268 293h213l168 -293l-6 -33h-78l-219 162l-277 -162h-75z" />
<glyph unicode="&#x176;" horiz-adv-x="1249" d="M104 1268l15 73h635l-13 -73l-186 -27l178 -555l365 555l-160 27l14 73h457l-14 -73l-148 -27l-465 -692l-80 -449l207 -26l-12 -74h-721l12 74l218 26l79 443l-233 698zM471 1452l6 33l268 293h213l168 -293l-6 -33h-78l-219 162l-277 -162h-75z" />
<glyph unicode="&#x177;" horiz-adv-x="907" d="M-205 -424l41 244h62l18 -127q8 -8 29 -17q14 -6 43 -6q41 0 73 23q35 23 72 63q43 47 72 88q34 49 67 105l27 47l-213 854l-61 24l12 66h303l152 -639l180 299q6 10 26 49l19 49q6 16 14 45q4 14 4 37q0 27 -6 41q-6 16 -20.5 26.5t-28.5 16.5q-6 2 -17.5 5t-17.5 5 l12 66h232q12 -12 18 -25q8 -16 8 -38q0 -8 -4 -37q-2 -18 -12 -47q-9 -28 -25 -62q-12 -27 -40 -74l-439 -716q-43 -72 -98 -150q-43 -61 -102 -121q-49 -49 -111 -82q-59 -31 -127 -30q-10 0 -26.5 1t-22.5 1q-27 0 -39 2q-6 0 -17.5 2t-17.5 4q-25 4 -39 8zM238 1118 l6 33l268 293h213l168 -293l-6 -33h-78l-219 162l-277 -162h-75z" />
<glyph unicode="&#x178;" horiz-adv-x="1249" d="M104 1268l15 73h635l-13 -73l-186 -27l178 -555l365 555l-160 27l14 73h457l-14 -73l-148 -27l-465 -692l-80 -449l207 -26l-12 -74h-721l12 74l218 26l79 443l-233 698zM559 1652.5q0 28.5 8 47t27 36.5q14 14 38.5 24.5t47.5 10.5q20 0 44.5 -10t39.5 -25t24 -37 q10 -25 10 -47t-10 -47q-9 -22 -24 -37q-18 -18 -37 -26q-25 -10 -47.5 -10.5t-46.5 10.5q-20 10 -39 26q-18 18 -26.5 37t-8.5 47.5zM913 1652.5q0 22.5 10 46.5q8 18 27 37q14 14 38.5 24.5t45.5 10.5q23 0 47.5 -10t38.5 -25q15 -15 25 -37q10 -25 10 -47t-10 -47 q-9 -22 -25 -37q-16 -16 -39 -26q-25 -10 -47 -11q-20 0 -45 11q-20 10 -39 26q-18 18 -27 37q-10 25 -10 47.5z" />
<glyph unicode="&#x179;" horiz-adv-x="1249" d="M-4 0l18 115l828 1120h-193q-16 0 -46 -1t-44 -1q-31 0 -84 -4q-35 -2 -69 -6l-50 -9l-67 -210h-90l59 337h940l-18 -106l-824 -1131h189q78 0 119 2q51 2 116 11q12 2 46 5t48 5q16 2 38 6l22 4l104 256h90l-96 -393h-1036zM598 1452l4 33l197 272h284l-4 -37l-395 -268 h-86z" />
<glyph unicode="&#x17a;" horiz-adv-x="796" d="M-57 0l8 49l516 801h-72q-37 0 -55 -2q-10 -2 -26.5 -5t-24.5 -3q-23 -2 -45 -11q-20 -6 -31 -14l-61 -156h-72l49 281h659l-8 -53l-516 -797h82q18 0 60 4q37 4 57 8q37 8 53 15q29 10 43 20l82 178h72l-74 -315h-696zM358 1118l4 33l197 272h284l-4 -37l-395 -268h-86z " />
<glyph unicode="&#x17b;" horiz-adv-x="1249" d="M-4 0l18 115l828 1120h-193q-16 0 -46 -1t-44 -1q-31 0 -84 -4q-35 -2 -69 -6l-50 -9l-67 -210h-90l59 337h940l-18 -106l-824 -1131h189q78 0 119 2q51 2 116 11q12 2 46 5t48 5q16 2 38 6l22 4l104 256h90l-96 -393h-1036zM594 1624q0 33 12 62q12 27 33 47t49.5 32.5 t59.5 12.5t59.5 -12.5t49 -33t32.5 -46.5q12 -29 12 -62t-12 -59q-12 -29 -32.5 -49.5t-49 -32.5t-59.5 -12t-59.5 12t-49 32.5t-33.5 49.5q-12 26 -12 59z" />
<glyph unicode="&#x17c;" horiz-adv-x="796" d="M-57 0l8 49l516 801h-72q-37 0 -55 -2q-10 -2 -26.5 -5t-24.5 -3q-23 -2 -45 -11q-20 -6 -31 -14l-61 -156h-72l49 281h659l-8 -53l-516 -797h82q18 0 60 4q37 4 57 8q37 8 53 15q29 10 43 20l82 178h72l-74 -315h-696zM344 1290q0 33 12 62q12 27 33 47t49.5 32.5 t59.5 12.5t59.5 -12.5t49 -33t32.5 -46.5q12 -29 12 -62t-12 -59q-12 -29 -32.5 -49.5t-49 -32.5t-59.5 -12t-59.5 12t-49 32.5t-33.5 49.5q-12 26 -12 59z" />
<glyph unicode="&#x17d;" horiz-adv-x="1249" d="M-4 0l18 115l828 1120h-193q-16 0 -46 -1t-44 -1q-31 0 -84 -4q-35 -2 -69 -6l-50 -9l-67 -210h-90l59 337h940l-18 -106l-824 -1131h189q78 0 119 2q51 2 116 11q12 2 46 5t48 5q16 2 38 6l22 4l104 256h90l-96 -393h-1036zM459 1745l4 33h78l219 -162l276 162h76 l-6 -33l-268 -293h-213z" />
<glyph unicode="&#x17e;" horiz-adv-x="796" d="M-57 0l8 49l516 801h-72q-37 0 -55 -2q-10 -2 -26.5 -5t-24.5 -3q-23 -2 -45 -11q-20 -6 -31 -14l-61 -156h-72l49 281h659l-8 -53l-516 -797h82q18 0 60 4q37 4 57 8q37 8 53 15q29 10 43 20l82 178h72l-74 -315h-696zM180 1411l4 33h78l219 -162l276 162h76l-6 -33 l-268 -293h-213z" />
<glyph unicode="&#x17f;" horiz-adv-x="681" d="M0 -436l264 1503q20 106 53 170q39 74 91 117q55 47 124 67q68 20 160 21q47 0 90 -6q51 -8 70 -15l-39 -223h-63l-13 111q-12 12 -20 16q-12 6 -35 6q-20 0 -45 -10q-16 -6 -39 -37q-16 -23 -33 -70q-12 -39 -26 -116l-271 -1534h-268z" />
<glyph unicode="&#x192;" d="M160 -285l172 977h-170l14 70l174 35l39 225q12 76 43 141.5t78 108.5q49 45 104 67q57 23 131 23q43 0 113 -4q43 -2 94 -15l-10 -225h-63l-29 115q-4 4 -27 12q-15 6 -37 6t-36 -12q-20 -16 -31 -39q-12 -27 -25 -72q-6 -23 -22 -106l-39 -225h237l-18 -105h-240 l-170 -977h-282z" />
<glyph unicode="&#x1fa;" horiz-adv-x="1363" d="M-106 0l14 74l102 26l670 1252h240l254 -1252l108 -26l-14 -74h-549l14 74l137 26l-59 346h-473l-184 -346l147 -26l-12 -74h-395zM393 557h398l-103 561zM590 1450q0 39 16 82q14 37 45 67q33 33 66 45q43 16 84 16.5t84 -16.5q37 -14 67 -45q28 -28 43 -67 q16 -43 16.5 -82t-16.5 -82q-15 -40 -43 -68q-29 -29 -67 -47q-35 -16 -84 -16t-84 16.5t-65.5 47t-45.5 67.5q-16 43 -16 82zM702 1450q0 -20 8.5 -36.5t23 -31t30.5 -22.5t36.5 -8t37.5 8q20 10 32 22q10 10 21 31q8 16 8 37q0 23 -8 39q-10 20 -21 30q-12 12 -32 23 q-12 6 -37 6t-37 -6q-16 -8 -30.5 -22.5t-23 -30.5t-8.5 -39zM703 1704l4 33l197 272h284l-4 -37l-395 -268h-86z" />
<glyph unicode="&#x1fb;" d="M25 319q0 131 38 246q39 113 115 205q74 89 178 141q106 53 232 54q72 0 137 -13q70 -14 115 -32l82 36h53l-152 -866l109 -33l-8 -57h-346l-5 137q-33 -39 -59 -61q-45 -37 -70 -51q-35 -20 -75 -33q-40 -12 -80 -12q-59 0 -107 20q-51 23 -84 63q-39 49 -55 107 q-18 63 -18 149zM287 350q0 -53 10 -100q8 -39 28.5 -69.5t39.5 -41.5q22 -12 43 -12q23 0 47 12q27 14 49 33q25 20 45 45q22 25 37 49l98 563q-22 15 -55 25q-31 8 -70 8q-63 0 -110 -45q-51 -49 -87 -117q-37 -74 -55 -165q-20 -103 -20 -185zM541 1530l4 33l197 272h284 l-4 -37l-395 -268h-86zM426 1272q0 39 16 82q14 37 45 67q33 33 66 45q43 16 84 16.5t84 -16.5q37 -14 67 -45q28 -28 43 -67q16 -43 16.5 -82t-16.5 -82q-15 -40 -43 -68q-29 -29 -67 -47q-35 -16 -84 -16t-84 16.5t-65.5 47t-45.5 67.5q-16 43 -16 82zM538 1272 q0 -20 8.5 -36.5t23 -31t30.5 -22.5t36.5 -8t37.5 8q20 10 32 22q10 10 21 31q8 16 8 37q0 23 -8 39q-10 20 -21 30q-12 12 -32 23q-12 6 -37 6t-37 -6q-16 -8 -30.5 -22.5t-23 -30.5t-8.5 -39z" />
<glyph unicode="&#x1fc;" horiz-adv-x="1931" d="M-162 0l12 74l125 26l852 1151l-141 19l12 71h1141l-59 -342h-90l6 218q-8 0 -31 3t-37 5q-49 4 -72 4q-12 0 -34.5 1t-32.5 1h-55h-199l-88 -492h283l57 148h90l-74 -412h-90l-4 152h-283l-90 -516h244h109q35 0 79 4q34 3 56 6q29 4 39 6l100 248h90l-84 -375h-1118 l10 74l178 26l62 346h-414l-254 -346l150 -26l-13 -74h-432zM469 557h350l113 641zM1192 1452l4 33l197 272h284l-4 -37l-395 -268h-86z" />
<glyph unicode="&#x1fd;" horiz-adv-x="1478" d="M27 319q0 129 43 246q41 113 120 205q76 88 186.5 141.5t233.5 53.5q33 0 74 -7q27 -4 76 -16q25 -6 69 -22q31 -10 58 -25l53 29q33 14 61 22q27 8 66 15q23 4 68 4q78 0 129 -15q59 -16 94 -43q39 -29 57.5 -65.5t18.5 -81.5q0 -68 -37 -125q-39 -63 -107 -107 q-74 -47 -172 -77q-115 -35 -231 -43l-1 -5q-1 -4 -1 -8q0 -2 -1 -8t-1 -10v-19v-18q0 -49 8 -88q8 -37 33 -76q18 -29 57 -51q35 -20 92 -21q39 0 70 9q33 8 61 20q29 10 58 31q45 29 55 35l43 -64q-37 -31 -74 -53q-53 -35 -92 -51q-45 -20 -107 -37q-51 -14 -116 -14 q-137 0 -215 47t-113 131q-47 -57 -84 -86q-33 -25 -84 -54q-41 -23 -82 -30q-39 -8 -84 -8q-59 0 -108 20q-51 20 -90 63q-41 43 -62 107q-22 67 -22 149zM289 350q0 -55 10 -102q8 -39 29 -70q16 -27 43 -39q25 -12 51 -12q25 0 51 12q25 10 57 33q25 16 51.5 43t41.5 49 q0 4 -1 13.5t-1 15.5v37q0 63 8 114q8 55 28 119q18 58 50 117q29 55 69 108l-45 29q-25 15 -49 25q-8 2 -53 14q-25 6 -47 6q-63 0 -115 -45q-55 -49 -92 -117q-43 -80 -64 -165q-22 -97 -22 -185zM901 508q61 6 123 33q53 25 94 61q35 31 60 82q23 45 22.5 88t-24.5 64 q-23 20 -54 20q-39 0 -73 -29q-29 -25 -64 -79q-29 -45 -51 -111q-25 -70 -33 -129zM709 1118l4 33l197 272h284l-4 -37l-395 -268h-86z" />
<glyph unicode="&#x1fe;" horiz-adv-x="1478" d="M-39 -55l229 229q-55 66 -86 158q-31 90 -30 192q0 111 22 219q18 92 68 197q43 94 110 170q66 74 154 131q82 51 193 84q109 31 235 31q117 0 217 -35q98 -35 170 -96l166 166h145l-239 -242q49 -63 77.5 -153.5t28.5 -184.5q0 -96 -18.5 -194.5t-59 -192.5t-102.5 -174 q-59 -76 -149 -141q-84 -59 -199 -95q-117 -35 -254 -34q-106 0 -209 32q-96 31 -166 88l-153 -155h-150zM375 485q0 -10 1 -30.5t1 -30.5q0 -31 6 -57l700 698q-33 88 -98 137q-63 49 -154 49q-77 0 -141 -37q-63 -37 -115 -96q-51 -61 -88 -139q-39 -84 -61 -164 q-29 -102 -39 -170q-12 -86 -12 -160zM416 252q35 -84 94 -125q61 -43 147 -43q80 0 142 35q72 41 117 94t90 139q37 70 63 162q29 96 39 170q12 86 12 160q0 37 -2 53l-6 51zM774 1452l4 33l197 272h284l-4 -37l-395 -268h-86z" />
<glyph unicode="&#x1ff;" d="M-47 -84l164 190q-45 59 -64 117q-20 63 -20 152q0 117 37 223q33 98 110 188q70 82 172 132q96 47 227.5 47t221.5 -64l104 121h123l-158 -184q41 -53 62 -119q23 -72 22 -148q0 -113 -39 -225q-35 -102 -108 -188q-66 -76 -174 -129q-101 -49 -227 -49q-127 0 -220 61 l-106 -125h-127zM297 315l373 435q-14 57 -41 86q-27 31 -72 30q-46 0 -92 -43q-47 -43 -84 -118q-41 -84 -62 -175q-23 -102 -22 -211v-4zM313 188q18 -57 47 -82q29 -27 68 -26q47 0 92 39q43 37 82 112q35 66 57 170q23 102 23 217zM490 1118l4 33l197 272h284l-4 -37 l-395 -268h-86z" />
<glyph unicode="&#x2c6;" horiz-adv-x="681" d="M113 1118l6 33l268 293h213l168 -293l-6 -33h-78l-219 162l-277 -162h-75z" />
<glyph unicode="&#x2c7;" horiz-adv-x="681" d="M168 1411l4 33h78l219 -162l276 162h76l-6 -33l-268 -293h-213z" />
<glyph unicode="&#x2c9;" horiz-adv-x="681" d="M129 1151l27 149h626l-24 -149h-629z" />
<glyph unicode="&#x2d8;" horiz-adv-x="681" d="M180 1364q0 37 6 78h121q2 -70 49 -103q41 -29 109 -28q70 0 121 28q53 31 82 103h120q-15 -71 -43 -129q-29 -59 -71.5 -102.5t-104 -68t-139.5 -24.5q-66 0 -113 18.5t-77 49.5q-29 29 -45 78q-15 43 -15 100z" />
<glyph unicode="&#x2d9;" horiz-adv-x="681" d="M307 1290q0 33 12 62q12 27 33 47t49.5 32.5t59.5 12.5t59.5 -12.5t49 -33t32.5 -46.5q12 -29 12 -62t-12 -59q-12 -29 -32.5 -49.5t-49 -32.5t-59.5 -12t-59.5 12t-49 32.5t-33.5 49.5q-12 26 -12 59z" />
<glyph unicode="&#x2da;" horiz-adv-x="681" d="M250 1272q0 39 16 82q14 37 45 67q33 33 66 45q43 16 84 16.5t84 -16.5q37 -14 67 -45q28 -28 43 -67q16 -43 16.5 -82t-16.5 -82q-15 -40 -43 -68q-29 -29 -67 -47q-35 -16 -84 -16t-84 16.5t-65.5 47t-45.5 67.5q-16 43 -16 82zM362 1272q0 -20 8.5 -36.5t23 -31 t30.5 -22.5t36.5 -8t37.5 8q20 10 32 22q10 10 21 31q8 16 8 37q0 23 -8 39q-10 20 -21 30q-12 12 -32 23q-12 6 -37 6t-37 -6q-16 -8 -30.5 -22.5t-23 -30.5t-8.5 -39z" />
<glyph unicode="&#x2db;" horiz-adv-x="681" d="M33 -229q0 39 8 69q10 37 27 68q18 35 41 59q29 33 51 47h133q-33 -51 -53 -108q-23 -61 -23 -113q0 -53 27 -84q25 -29 78 -28q23 0 53 6q29 6 57 18l31 -82q-45 -25 -94.5 -39t-112.5 -14q-109 0 -166 51.5t-57 149.5z" />
<glyph unicode="&#x2dc;" horiz-adv-x="681" d="M94 1108q14 63 32.5 108.5t53.5 90.5q29 37 76 63q43 25 106 25q51 0 91 -21q33 -18 69 -47l23 -18l26 -21q14 -10 29 -16q20 -8 27 -8q35 0 57 26q18 20 41 86h100q-20 -74 -34 -108q-18 -45 -54 -90q-31 -39 -75 -64q-47 -25 -107 -24q-27 0 -49 6q-18 6 -41 16 q-12 6 -37 23q-6 4 -10 7t-7 5l-7.5 5t-8.5 7q-2 2 -9 8.5l-11 10.5q-2 2 -27 20q-20 14 -29 19q-16 6 -26 6q-37 0 -59.5 -27t-40.5 -88h-99z" />
<glyph unicode="&#x2dd;" horiz-adv-x="681" d="M168 1118l6 33l191 293h249l-6 -37l-344 -289h-96zM518 1118l6 33l191 293h252l-9 -37l-344 -289h-96z" />
<glyph unicode="&#x384;" horiz-adv-x="681" d="M227 1108v33l123 370h287v-36l-324 -367h-86z" />
<glyph unicode="&#x385;" horiz-adv-x="681" d="M-8 1231q0 25 8 41q10 20 25 35q12 12 34 22q18 8 41 8q27 0 43 -8q20 -10 33 -22q10 -10 23 -35q10 -20 10 -41q0 -23 -8 -41q-10 -25 -23 -37q-10 -10 -35 -23q-16 -8 -43 -8q-23 0 -41 8q-23 8 -34 23q-15 15 -25 37q-8 18 -8 41zM227 1108v33l113 370h242v-36 l-269 -367h-86zM473 1231q0 20 10 41q12 25 23 35q14 12 35 22q18 8 42.5 8t41.5 -8q25 -12 35 -22.5t22 -34.5q8 -16 8 -41q0 -23 -8 -41q-10 -25 -23 -37q-10 -10 -34 -23q-16 -8 -41 -8t-43 8q-20 8 -35 23q-12 12 -22.5 37t-10.5 41z" />
<glyph unicode="&#x386;" horiz-adv-x="1363" d="M-106 0l14 74l102 26l670 1252h240l254 -1252l108 -26l-14 -74h-549l14 74l137 26l-59 346h-473l-184 -346l147 -26l-12 -74h-395zM393 557h398l-103 561zM88 938v33l123 370h287v-36l-324 -367h-86z" />
<glyph unicode="&#x387;" horiz-adv-x="681" d="M206 678q0 33 12.5 63.5t35 53t53.5 34.5q37 14 65.5 14.5t63.5 -14.5q31 -12 53 -34q27 -27 37 -54q12 -31 12 -63q0 -35 -12 -66q-10 -27 -37 -53q-23 -23 -53.5 -35t-63.5 -12q-35 0 -65.5 12.5t-53 35t-35 53t-12.5 65.5z" />
<glyph unicode="&#x388;" horiz-adv-x="1589" d="M211 0l12 74l176 26l201 1141l-166 27l12 73h1053l-62 -342h-90l6 218q-6 0 -31.5 3l-41.5 5q-57 4 -86 4q-14 0 -43 1t-43 1h-76h-137l-88 -492h280l58 148h90l-74 -412h-88l-4 152h-283l-90 -516h182h117q41 0 98 4q49 4 76 6q33 4 47 6l105 248h90l-84 -375h-1116z M-17 938v33l123 370h287v-36l-324 -367h-86z" />
<glyph unicode="&#x389;" horiz-adv-x="1832" d="M226 0l12 74l176 26l201 1141l-166 27l12 73h639l-12 -73l-178 -27l-86 -496h487l86 496l-166 27l13 73h641l-13 -73l-178 -27l-201 -1141l168 -26l-12 -74h-641l12 74l176 26l95 535h-488l-94 -535l168 -26l-14 -74h-637zM-4 938v33l123 370h287v-36l-324 -367h-86z" />
<glyph unicode="&#x38a;" horiz-adv-x="1034" d="M220 0l14 74l176 26l201 1141l-168 27l12 73h639l-12 -73l-176 -27l-201 -1141l166 -26l-13 -74h-638zM-6 938v33l123 370h287v-36l-324 -367h-86z" />
<glyph unicode="&#x38c;" horiz-adv-x="1495" d="M92 524q0 111 22 219q18 92 68 197q43 94 110 170q66 74 154 131q82 51 193 84q109 31 235.5 31t233 -41t178.5 -113q74 -74 112 -172q41 -104 41 -219q0 -96 -18.5 -194.5t-59 -192.5t-102.5 -174q-59 -76 -149 -141q-84 -59 -199 -95q-117 -35 -254 -34 q-127 0 -233.5 40.5t-178 112.5t-112.5 172t-41 219zM393 485q0 -92 18 -166q18 -76 56 -126q41 -57 86 -82q51 -27 122 -27q80 0 142 35q72 41 117 94t90 139q37 70 63 162q29 96 39 170q12 86 12 160q0 94 -18 168q-18 72 -58 127q-43 59 -90 84q-57 29 -123 28 q-77 0 -141 -37q-63 -37 -115 -96q-51 -61 -88 -139q-39 -84 -61 -164q-29 -102 -39 -170q-12 -86 -12 -160zM-111 938v33l123 370h287v-36l-324 -367h-86z" />
<glyph unicode="&#x38e;" horiz-adv-x="1536" d="M389 1268l15 73h635l-13 -73l-186 -27l178 -555l365 555l-160 27l14 73h457l-14 -73l-148 -27l-465 -692l-80 -449l207 -26l-12 -74h-721l12 74l218 26l79 443l-233 698zM-60 938v33l123 370h287v-36l-324 -367h-86z" />
<glyph unicode="&#x38f;" horiz-adv-x="1607" d="M81 0l45 371h66l35 -135q14 -2 41 -7q8 -2 29.5 -3t31.5 -1q45 -4 78 -4q14 0 44 -1t46 -1h68l10 109q-82 14 -160 53q-76 37 -131 90q-57 53 -88 123q-31 68 -31 149q0 144 56 258q55 113 155 193q98 78 244 121q137 41 317 41q150 0 264.5 -31t192.5 -88 q82 -59 121 -141q41 -86 41 -187q0 -129 -41 -225t-117 -172q-74 -74 -176 -121q-98 -45 -223 -63l-31 -109h53q16 0 48 1t47 1q33 0 82 4q12 0 33.5 1t31.5 3q33 4 45 7l80 135h86l-82 -371h-600l100 403q90 12 162 57.5t113 107t63 149.5q20 80 20.5 178t-24 165.5 t-67.5 110.5t-102.5 61.5t-131.5 18.5q-113 0 -203 -38.5t-143 -104.5q-53 -63 -82 -162q-27 -88 -26 -205q0 -135 61 -223q61 -90 174 -115l-45 -403h-580zM-113 938v33l123 370h287v-36l-324 -367h-86z" />
<glyph unicode="&#x390;" horiz-adv-x="567" d="M78 156q0 23 2 34l6 37l109 623l-93 24l13 66h364l-123 -704q-4 -20 -4 -29q0 -6 -1 -13.5t-1 -11.5q0 -35 17 -57q14 -20 53 -21q27 0 49 11q25 10 45 24l33 -53q-25 -23 -68 -47q-33 -18 -73 -33q-47 -16 -76 -20q-37 -6 -68 -6q-88 0 -135 45q-49 45 -49 131zM39 1231 q0 25 8 41q10 20 25 35q12 12 34 22q18 8 41 8q27 0 43 -8q20 -10 33 -22q10 -10 23 -35q10 -20 10 -41q0 -23 -8 -41q-10 -25 -23 -37q-10 -10 -35 -23q-16 -8 -43 -8q-23 0 -41 8q-23 8 -34 23q-15 15 -25 37q-8 18 -8 41zM274 1108v33l113 370h242v-36l-269 -367h-86z M520 1231q0 20 10 41q12 25 23 35q14 12 35 22q18 8 42.5 8t41.5 -8q25 -12 35 -22.5t22 -34.5q8 -16 8 -41q0 -23 -8 -41q-10 -25 -23 -37q-10 -10 -34 -23q-16 -8 -41 -8t-43 8q-20 8 -35 23q-12 12 -22.5 37t-10.5 41z" />
<glyph unicode="&#x391;" horiz-adv-x="1363" d="M-106 0l14 74l102 26l670 1252h240l254 -1252l108 -26l-14 -74h-549l14 74l137 26l-59 346h-473l-184 -346l147 -26l-12 -74h-395zM393 557h398l-103 561z" />
<glyph unicode="&#x392;" horiz-adv-x="1363" d="M-18 0l12 74l176 26l203 1141l-168 27l12 73h588q137 0 225 -20.5t150 -58.5q59 -37 84 -93q27 -59 26 -120q0 -74 -24 -134q-25 -57 -72 -98q-49 -43 -107 -65q-66 -27 -135 -35q68 -6 129 -29q59 -23 103 -61q47 -43 69 -95q25 -55 25 -129q0 -207 -158 -309 q-156 -100 -473 -100q-20 0 -53 1t-45 1q-14 0 -42 1t-40 1q-20 0 -40.5 1t-39.5 1h-84h-321zM469 111q45 -4 68 -5q18 -2 61 -2h55q96 0 156 21q63 23 100 61q41 45 56 95q16 59 16 125q0 70 -20 112q-23 47 -62 78q-33 25 -96 43q-51 14 -125 14h-115zM584 764h94 q154 0 235 65q80 63 80 205q0 96 -61 146q-63 51 -176 51h-90z" />
<glyph unicode="&#x393;" horiz-adv-x="1236" d="M-20 0l14 74l176 24l201 1143l-168 27l14 73h1028l-53 -405h-84l-18 278q-15 3 -50 7q-6 0 -33.5 3l-45.5 5q-16 2 -50 3t-53 1q-37 2 -104 2h-90l-199 -1137l190 -24l-12 -74h-663z" />
<glyph unicode="&#x394;" horiz-adv-x="1282" d="M-68 0l15 80l764 1272h188l209 -1272l-16 -80h-1160zM106 119h693l-140 942z" />
<glyph unicode="&#x395;" horiz-adv-x="1363" d="M-14 0l12 74l176 26l201 1141l-166 27l12 73h1053l-62 -342h-90l6 218q-6 0 -31.5 3l-41.5 5q-57 4 -86 4q-14 0 -43 1t-43 1h-76h-137l-88 -492h280l58 148h90l-74 -412h-88l-4 152h-283l-90 -516h182h117q41 0 98 4q49 4 76 6q33 4 47 6l105 248h90l-84 -375h-1116z " />
<glyph unicode="&#x396;" horiz-adv-x="1249" d="M-4 0l18 115l828 1120h-193q-16 0 -46 -1t-44 -1q-31 0 -84 -4q-35 -2 -69 -6l-50 -9l-67 -210h-90l59 337h940l-18 -106l-824 -1131h189q78 0 119 2q51 2 116 11q12 2 46 5t48 5q16 2 38 6l22 4l104 256h90l-96 -393h-1036z" />
<glyph unicode="&#x397;" horiz-adv-x="1591" d="M-14 0l12 74l176 26l201 1141l-166 27l12 73h639l-12 -73l-178 -27l-86 -496h487l86 496l-166 27l13 73h641l-13 -73l-178 -27l-201 -1141l168 -26l-12 -74h-641l12 74l176 26l95 535h-488l-94 -535l168 -26l-14 -74h-637z" />
<glyph unicode="&#x398;" horiz-adv-x="1562" d="M74 524q0 115 24 219q25 100 72 197q47 94 116.5 170t162.5 131q86 51 206 84q115 31 248 31q135 0 248 -41q109 -39 188 -113q78 -72 121 -172t43 -219q0 -100 -20 -195q-25 -115 -62 -192q-43 -94 -108 -174q-61 -76 -160 -141q-90 -59 -211 -95q-123 -35 -268 -34 q-135 0 -248 40q-109 39 -188 113q-76 70 -121 172q-43 98 -43 219zM375 485q0 -96 20 -166q23 -80 60 -126q43 -55 98 -82t135 -27q90 0 158 35q78 41 129 94q55 57 100 139q39 70 70 162q27 82 43 170q14 80 14 160q0 98 -20 168q-23 76 -62 127q-45 59 -100 84 q-63 29 -137 28q-88 0 -158 -37q-76 -39 -127 -96q-57 -63 -98 -139q-43 -78 -70 -164q-31 -94 -41 -170q-14 -101 -14 -160zM508 469l80 414h67l7 -103h292l47 103h68l-80 -414h-67l-7 100h-292l-48 -100h-67z" />
<glyph unicode="&#x399;" horiz-adv-x="796" d="M-20 0l14 74l176 26l201 1141l-168 27l12 73h639l-12 -73l-176 -27l-201 -1141l166 -26l-13 -74h-638z" />
<glyph unicode="&#x39a;" horiz-adv-x="1363" d="M-14 0l12 74l176 26l201 1141l-166 27l12 73h629l-12 -73l-168 -27l-90 -522l575 522l-113 27l13 73h426l-15 -73l-139 -27l-473 -428l354 -713l133 -26l-12 -74h-385l-297 637l-92 -45l-86 -492l178 -26l-12 -74h-649z" />
<glyph unicode="&#x39b;" horiz-adv-x="1363" d="M-121 0l12 74l111 26l700 1252h250l158 -1252l123 -26l-12 -74h-592l12 74l156 26l-99 1006l-555 -1006l144 -26l-13 -74h-395z" />
<glyph unicode="&#x39c;" horiz-adv-x="1820" d="M-27 0l13 74l176 26l200 1141l-165 27l12 73h493l164 -874l477 874h535l-12 -73l-178 -27l-201 -1141l168 -26l-13 -74h-657l12 74l195 26l186 1057l-639 -1157h-45l-221 1157l-186 -1057l176 -26l-12 -74h-478z" />
<glyph unicode="&#x39d;" horiz-adv-x="1478" d="M-18 0l12 74l176 26l201 1141l-166 27l12 73h432l436 -895l140 795l-174 27l12 73h477l-12 -73l-178 -27l-217 -1241h-115l-543 1112l-180 -1012l174 -26l-10 -74h-477z" />
<glyph unicode="&#x39e;" horiz-adv-x="1349" d="M6 0l66 444h82v-186q12 -2 104 -10q49 -4 201 -4h289q152 0 206 4q100 8 115 10l72 186h84l-105 -444h-1114zM217 940l98 401h1014l-57 -401h-82l-4 164q-27 2 -72 6q-8 0 -24.5 2t-28.5 3t-25 1q-14 0 -37.5 1t-35.5 1h-60h-248h-59q-12 0 -36.5 -1t-39.5 -1l-80 -6 q-45 -4 -71 -6l-70 -164h-82zM356 451l84 432h68l6 -103h397l45 103h68l-84 -432h-68l-2 118h-397l-49 -118h-68z" />
<glyph unicode="&#x39f;" horiz-adv-x="1478" d="M74 524q0 111 22 219q18 92 68 197q43 94 110 170q66 74 154 131q82 51 193 84q109 31 235.5 31t233 -41t178.5 -113q74 -74 112 -172q41 -104 41 -219q0 -96 -18.5 -194.5t-59 -192.5t-102.5 -174q-59 -76 -149 -141q-84 -59 -199 -95q-117 -35 -254 -34 q-127 0 -233.5 40.5t-178 112.5t-112.5 172t-41 219zM375 485q0 -92 18 -166q18 -76 56 -126q41 -57 86 -82q51 -27 122 -27q80 0 142 35q72 41 117 94t90 139q37 70 63 162q29 96 39 170q12 86 12 160q0 94 -18 168q-18 72 -58 127q-43 59 -90 84q-57 29 -123 28 q-77 0 -141 -37q-63 -37 -115 -96q-51 -61 -88 -139q-39 -84 -61 -164q-29 -102 -39 -170q-12 -86 -12 -160z" />
<glyph unicode="&#x3a0;" horiz-adv-x="1591" d="M-14 0l12 74l174 26l201 1141l-166 27l14 73h1424l-15 -73l-176 -27l-201 -1141l166 -26l-10 -74h-637l10 74l179 26l200 1131h-495l-201 -1131l166 -26l-10 -74h-635z" />
<glyph unicode="&#x3a1;" horiz-adv-x="1249" d="M0 0l10 74l162 26l203 1141l-168 27l10 73h533q135 0 233 -24q96 -25 160 -72q61 -45 92 -115q29 -63 29 -147q0 -100 -35 -186q-33 -78 -107 -144q-68 -59 -180 -94q-104 -33 -256 -33h-141l-76 -426l217 -26l-10 -74h-676zM563 637h80q82 0 137 22q57 23 103 68 q43 43 65 109q23 68 23 145q0 68 -18.5 115t-49.5 77.5t-74 43.5q-51 14 -92 14h-67z" />
<glyph unicode="&#x3a3;" horiz-adv-x="1267" d="M-35 0l19 94l536 547l-307 600l20 100h1012l-63 -342h-90l6 218q-6 0 -28.5 3l-37.5 5q-49 4 -74 4q-14 0 -39.5 1t-37.5 1h-68h-278l231 -451l-10 -67l-471 -473h280q20 0 63.5 1t65.5 1q47 0 125 4q18 0 53 1t50 3q45 4 59 6l86 188h92l-106 -444h-1088z" />
<glyph unicode="&#x3a4;" horiz-adv-x="1249" d="M150 967l65 374h1104l-68 -374h-88l15 247l-19 4q-18 3 -28.5 5t-31 3t-30.5 1q-41 4 -63 4q-10 0 -29 1t-25 1h-59l-201 -1133l209 -26l-12 -74h-721l10 74l219 26l201 1135h-61q-6 0 -25.5 -1t-30.5 -1q-20 0 -61 -4q-6 0 -19.5 -2t-23.5 -3t-19 -1q-10 -2 -28 -5 l-19 -4l-75 -247h-86z" />
<glyph unicode="&#x3a5;" horiz-adv-x="1249" d="M104 1268l15 73h635l-13 -73l-186 -27l178 -555l365 555l-160 27l14 73h457l-14 -73l-148 -27l-465 -692l-80 -449l207 -26l-12 -74h-721l12 74l218 26l79 443l-233 698z" />
<glyph unicode="&#x3a6;" horiz-adv-x="1615" d="M70 635q0 113 36.5 205t108.5 157.5t180.5 102.5t247.5 37h129l19 104l-166 27l12 73h616l-14 -73l-176 -27l-19 -104h62q106 0 199 -29q86 -27 149 -84q66 -59 96 -129q33 -74 33 -170q0 -113 -37 -205q-35 -86 -112 -158q-74 -68 -182.5 -104.5t-250.5 -36.5h-118 l-21 -121l164 -26l-10 -74h-617l13 74l178 26l20 121h-71q-111 0 -203 33q-94 33 -148 84q-57 55 -88 131q-30 77 -30 166zM342 633q0 -74 20 -139q18 -57 52 -97q33 -37 78 -57q47 -20 96 -21h41l125 719h-99q-71 0 -129 -24q-57 -25 -98 -78q-45 -57 -63 -127 q-23 -80 -23 -176zM911 319h78q66 0 129 27q57 25 99 78q45 57 63 127q23 80 23 176q0 80 -18.5 137.5t-53.5 98.5q-33 37 -78 57q-43 18 -94 18h-33z" />
<glyph unicode="&#x3a7;" horiz-adv-x="1363" d="M-51 0l10 74l154 26l460 535l-237 606l-146 27l13 73h612l-12 -73l-164 -27l141 -367l318 367l-152 27l12 73h451l-14 -73l-154 -27l-416 -481l260 -660l148 -26l-12 -74h-615l12 74l166 26l-166 420l-362 -420l152 -26l-13 -74h-446z" />
<glyph unicode="&#x3a8;" horiz-adv-x="1636" d="M129 1268l12 73h406l-66 -360q-10 -55 -10 -66q-2 -20 -2 -61q0 -55 18.5 -102t47.5 -78q27 -29 69 -49q45 -20 82 -21l113 637l-127 27l12 73h537l-15 -73l-137 -27l-111 -637q51 0 109 21q55 20 98 59q43 41 74 100q29 57 45 142l76 415h403l-14 -73l-127 -27l-53 -309 q-23 -113 -70 -191q-51 -82 -129 -133t-186 -76q-117 -27 -244 -26l-72 -406l179 -26l-15 -74h-635l13 74l188 26l70 406q-114 0 -203 24q-88 25 -152 72q-61 47 -92 113q-31 68 -31 149q0 41 3 64q4 41 8 59l45 254z" />
<glyph unicode="&#x3a9;" horiz-adv-x="1527" d="M18 0l45 371h66l35 -135q14 -2 41 -7q8 -2 29.5 -3t31.5 -1q45 -4 78 -4q14 0 44 -1t46 -1h68l10 109q-82 14 -160 53q-76 37 -131 90q-57 53 -88 123q-31 68 -31 149q0 144 56 258q55 113 155 193q98 78 244 121q137 41 317 41q150 0 264.5 -31t192.5 -88 q82 -59 121 -141q41 -86 41 -187q0 -129 -41 -225t-117 -172q-74 -74 -176 -121q-98 -45 -223 -63l-31 -109h53q16 0 48 1t47 1q33 0 82 4q12 0 33.5 1t31.5 3q33 4 45 7l80 135h86l-82 -371h-600l100 403q90 12 162 57.5t113 107t63 149.5q20 80 20.5 178t-24 165.5 t-67.5 110.5t-102.5 61.5t-131.5 18.5q-113 0 -203 -38.5t-143 -104.5q-53 -63 -82 -162q-27 -88 -26 -205q0 -135 61 -223q61 -90 174 -115l-45 -403h-580z" />
<glyph unicode="&#x3aa;" horiz-adv-x="796" d="M-20 0l14 74l176 26l201 1141l-168 27l12 73h639l-12 -73l-176 -27l-201 -1141l166 -26l-13 -74h-638zM281 1585.5q0 28.5 8 47t27 36.5q14 14 38.5 24.5t47.5 10.5q20 0 44.5 -10t39.5 -25t24 -37q10 -25 10 -47t-10 -47q-9 -22 -24 -37q-18 -18 -37 -26 q-25 -10 -47.5 -10.5t-46.5 10.5q-20 10 -39 26q-18 18 -26.5 37t-8.5 47.5zM635 1585.5q0 22.5 10 46.5q8 18 27 37q14 14 38.5 24.5t45.5 10.5q23 0 47.5 -10t38.5 -25q15 -15 25 -37q10 -25 10 -47t-10 -47q-9 -22 -25 -37q-16 -16 -39 -26q-25 -10 -47 -11q-20 0 -45 11 q-20 10 -39 26q-18 18 -27 37q-10 25 -10 47.5z" />
<glyph unicode="&#x3ab;" horiz-adv-x="1249" d="M104 1268l15 73h635l-13 -73l-186 -27l178 -555l365 555l-160 27l14 73h457l-14 -73l-148 -27l-465 -692l-80 -449l207 -26l-12 -74h-721l12 74l218 26l79 443l-233 698zM594 1585.5q0 28.5 8 47t27 36.5q14 14 38.5 24.5t47.5 10.5q20 0 44.5 -10t39.5 -25t24 -37 q10 -25 10 -47t-10 -47q-9 -22 -24 -37q-18 -18 -37 -26q-25 -10 -47.5 -10.5t-46.5 10.5q-20 10 -39 26q-18 18 -26.5 37t-8.5 47.5zM948 1585.5q0 22.5 10 46.5q8 18 27 37q14 14 38.5 24.5t45.5 10.5q23 0 47.5 -10t38.5 -25q15 -15 25 -37q10 -25 10 -47t-10 -47 q-9 -22 -25 -37q-16 -16 -39 -26q-25 -10 -47 -11q-20 0 -45 11q-20 10 -39 26q-18 18 -27 37q-10 25 -10 47.5z" />
<glyph unicode="&#x3ac;" horiz-adv-x="1132" d="M27 346q0 150 43 266q41 113 112 193q74 82 162 121q94 41 193 41q59 0 102 -19q51 -23 77.5 -51.5t51.5 -81.5q18 -41 33 -106l92 231h266l-8 -41q-43 -47 -61 -74l-74 -106l-80 -121l-78 -123q14 -139 37 -239q20 -94 66 -156l57 -14l-14 -66h-283q-12 35 -27 98 q-8 37 -16 107q-41 -63 -68 -94q-33 -39 -75 -72q-39 -31 -84 -45q-43 -14 -101 -14q-76 0 -133 24q-59 25 -102 72t-66 117q-22 71 -22 153zM293 315q0 -115 26.5 -166t67.5 -51q43 0 82 25q33 20 74 67q39 45 67 101q35 66 62 125v24q0 6 1 19.5t1 21.5v39v23 q0 157 -37 239q-37 84 -100 84q-37 0 -74 -26q-31 -23 -62 -70q-20 -33 -47 -100q-25 -61 -35 -117q-16 -82 -20 -123q-6 -62 -6 -115zM460 1108v33l123 370h287v-36l-324 -367h-86z" />
<glyph unicode="&#x3ad;" horiz-adv-x="839" d="M25 240q0 65 24 110q27 49 64 80q41 35 84 51q45 18 90 25l2 6q-20 8 -58 33q-27 16 -45 43q-16 23 -30 57q-12 31 -13 66q0 72 39 123q37 49 97 77q61 29 130.5 41.5t141.5 12.5q45 0 70 -2l73 -7q4 0 70 -12q41 -8 61 -14l-43 -217h-67l-23 114q-18 14 -53 27 q-37 12 -76 12q-72 0 -117 -45t-45 -127q0 -31 9 -53q10 -29 20 -43q14 -20 27 -31q14 -10 24 -16q12 3 31 6q10 2 18.5 4t16.5 2q25 4 31 4t12 1t8 1h76l-21 -123h-71h-23q-10 0 -35 5q-6 2 -20.5 3t-20.5 1q-31 4 -39 4q-8 -2 -49 -21q-23 -10 -49 -37q-29 -29 -41 -59 q-14 -35 -14 -88q0 -78 37 -113q41 -37 106 -37q82 0 148 27q61 25 123 70l47 -70q-29 -27 -74 -57q-33 -23 -88 -47q-53 -25 -105 -35q-55 -12 -123 -12q-84 0 -149 18q-57 16 -104 53q-39 31 -64 82q-20 44 -20 107zM440 1108v33l123 370h287v-36l-324 -367h-86z" />
<glyph unicode="&#x3ae;" horiz-adv-x="1122" d="M43 0l147 850l-90 24l15 66h334l-9 -174q72 92 170 147q90 51 209 52q46 0 86 -13q39 -12 70 -38.5t45 -65.5q14 -37 14 -94q0 -20 -2 -35q-2 -23 -6 -47q-2 -8 -4 -25.5t-4 -25.5q-2 -12 -4 -22.5t-4 -18.5l-88 -510q-12 -70 -19 -146q-2 -14 -6 -63l-6 -74 q0 -14 -3 -53t-3 -57.5t-1 -41t-1 -26.5l-9 -45h-276q0 29 4 106q2 23 7 68t5 55q4 37 17 131q12 90 20 133l92 512l7 43l8 45q0 6 1 19.5t3 19.5q2 12 2 29q0 96 -90 96q-39 0 -74 -20q-43 -25 -74 -53q-35 -33 -65 -72q-23 -31 -47 -82l-107 -594h-264zM559 1108v33 l123 370h287v-36l-324 -367h-86z" />
<glyph unicode="&#x3af;" horiz-adv-x="567" d="M78 156q0 23 2 34l6 37l109 623l-93 24l13 66h364l-123 -704q-4 -20 -4 -29q0 -6 -1 -13.5t-1 -11.5q0 -35 17 -57q14 -20 53 -21q27 0 49 11q25 10 45 24l33 -53q-25 -23 -68 -47q-33 -18 -73 -33q-47 -16 -76 -20q-37 -6 -68 -6q-88 0 -135 45q-49 45 -49 131z M245 1108v33l123 370h287v-36l-324 -367h-86z" />
<glyph unicode="&#x3b0;" horiz-adv-x="1001" d="M70 874l10 66h381q-20 -96 -34.5 -174t-27 -137.5t-20.5 -104.5l-14 -80q-4 -33 -9 -57q-4 -33 -6 -47q-4 -29 -4 -39v-39q0 -55 10 -84q10 -31 31 -53q18 -23 41 -31t49 -8q57 0 96 39q41 41 68 106q29 72 41 158q12 90 12 193q0 49 -6 98q-4 33 -16 90q-8 37 -27 74 q-18 35 -33 45l41 76q59 -12 117 -45q52 -31 92 -80q39 -49 62 -115q23 -68 22 -150q0 -150 -35 -253q-37 -113 -102.5 -187t-161.5 -115q-98 -41 -211 -40q-82 0 -151 26q-59 23 -107 70q-43 43 -65.5 104.5t-22.5 126.5q0 6 1 18.5t1 16.5t1 15.5t1 17.5q0 12 4 41 q0 2 2 20.5t4 28.5q2 14 6.5 30.5t6.5 34.5l16 82l23 105q6 31 14 64.5l16 68.5zM273 1231q0 25 8 41q10 20 25 35q12 12 34 22q18 8 41 8q27 0 43 -8q20 -10 33 -22q10 -10 23 -35q10 -20 10 -41q0 -23 -8 -41q-10 -25 -23 -37q-10 -10 -35 -23q-16 -8 -43 -8q-23 0 -41 8 q-23 8 -34 23q-15 15 -25 37q-8 18 -8 41zM508 1108v33l113 370h242v-36l-269 -367h-86zM754 1231q0 20 10 41q12 25 23 35q14 12 35 22q18 8 42.5 8t41.5 -8q25 -12 35 -22.5t22 -34.5q8 -16 8 -41q0 -23 -8 -41q-10 -25 -23 -37q-10 -10 -34 -23q-16 -8 -41 -8t-43 8 q-20 8 -35 23q-12 12 -22.5 37t-10.5 41z" />
<glyph unicode="&#x3b1;" horiz-adv-x="1132" d="M27 346q0 150 43 266q41 113 112 193q74 82 162 121q94 41 193 41q59 0 102 -19q51 -23 77.5 -51.5t51.5 -81.5q18 -41 33 -106l92 231h266l-8 -41q-43 -47 -61 -74l-74 -106l-80 -121l-78 -123q14 -139 37 -239q20 -94 66 -156l57 -14l-14 -66h-283q-12 35 -27 98 q-8 37 -16 107q-41 -63 -68 -94q-33 -39 -75 -72q-39 -31 -84 -45q-43 -14 -101 -14q-76 0 -133 24q-59 25 -102 72t-66 117q-22 71 -22 153zM293 315q0 -115 26.5 -166t67.5 -51q43 0 82 25q33 20 74 67q39 45 67 101q35 66 62 125v24q0 6 1 19.5t1 21.5v39v23 q0 157 -37 239q-37 84 -100 84q-37 0 -74 -26q-31 -23 -62 -70q-20 -33 -47 -100q-25 -61 -35 -117q-16 -82 -20 -123q-6 -62 -6 -115z" />
<glyph unicode="&#x3b2;" horiz-adv-x="1048" d="M-63 -436l241 1376q23 137 74 242q47 96 112.5 153.5t149.5 82t182 24.5q78 0 140 -19q63 -18 108 -57t68 -90q25 -55 24 -123q0 -94 -28 -164q-31 -74 -72 -115q-47 -47 -100 -73q-45 -23 -107 -37l-2 -10q53 -12 94 -37q45 -25 74 -64q33 -41 49 -90q18 -51 19 -114 q0 -117 -37 -203t-102.5 -145.5t-153.5 -90t-195 -30.5q-61 0 -106 14q-55 16 -80 35l-82 -465h-270zM305 129q27 -16 68 -29q43 -12 88 -12q39 0 82 25q45 27 78 69q34 46 55 111q23 68 22 143q0 132 -55 197q-55 63 -154 69l17 99q76 0 129 28.5t86 75.5q31 45 47 111 q14 57 14 129q0 59 -8 92q-8 31 -26 61q-14 23 -35 33t-39 10q-43 0 -80 -16q-31 -14 -57 -59q-23 -39 -45 -123q-23 -82 -43 -205z" />
<glyph unicode="&#x3b3;" horiz-adv-x="851" d="M10 874l13 66h311l31 -162q12 -63 26 -174q16 -119 23 -178q10 -88 18 -170l156 305q43 88 65 148q20 53 21 90q0 29 -19 51q-14 16 -39 24l13 66h219q4 -8 4 -22v-31q0 -27 -12 -60q-27 -72 -29 -77l-45 -91l-53 -100l-269 -493l-8 -111q-8 -94 -14 -135l-19 -135 q-8 -55 -22 -111l-244 -10l-41 28q0 4 21 89l8 33.5t10 39l10 35.5q20 78 33 117q27 88 37 108q-18 162 -33 252q-16 115 -37 230q-16 100 -41 198q-25 102 -43 160z" />
<glyph unicode="&#x3b4;" horiz-adv-x="1048" d="M33 352q0 117 39 201q40 86 104 147q72 68 148 105q92 45 165 65q-37 41 -55 66t-47 74q-14 25 -31 77q-12 39 -12 82q0 70 31 119t86 82q53 31 125 47q66 14 153 15q68 0 133 -13q74 -14 117 -26l-39 -224h-65l-25 115q-25 25 -55 35q-37 12 -78 12q-61 0 -98 -37 t-37 -108q0 -41 14 -72q20 -43 39 -70q16 -23 60 -69l71 -74q57 -59 88 -108q27 -41 54 -103q16 -39 28 -100q8 -43 8 -96q0 -61 -14 -119q-14 -59 -43 -119q-25 -51 -76 -106q-55 -57 -104 -89q-63 -39 -139 -59q-80 -23 -172.5 -22.5t-159.5 26.5q-70 27 -117 78t-72 117 q-24 67 -24 151zM297 307q0 -111 35 -170q33 -57 96 -57q53 0 92 20.5t68 59.5q33 43 47 80q20 49 29 94q12 61 14 90q4 57 4 80q0 86 -31 153q-29 63 -94 129q-33 -14 -82 -49q-45 -33 -78 -80q-41 -59 -71 -147q-29 -84 -29 -203z" />
<glyph unicode="&#x3b5;" horiz-adv-x="839" d="M25 240q0 65 24 110q27 49 64 80q41 35 84 51q45 18 90 25l2 6q-20 8 -58 33q-27 16 -45 43q-16 23 -30 57q-12 31 -13 66q0 72 39 123q37 49 97 77q61 29 130.5 41.5t141.5 12.5q45 0 70 -2l73 -7q4 0 70 -12q41 -8 61 -14l-43 -217h-67l-23 114q-18 14 -53 27 q-37 12 -76 12q-72 0 -117 -45t-45 -127q0 -31 9 -53q10 -29 20 -43q14 -20 27 -31q14 -10 24 -16q12 3 31 6q10 2 18.5 4t16.5 2q25 4 31 4t12 1t8 1h76l-21 -123h-71h-23q-10 0 -35 5q-6 2 -20.5 3t-20.5 1q-31 4 -39 4q-8 -2 -49 -21q-23 -10 -49 -37q-29 -29 -41 -59 q-14 -35 -14 -88q0 -78 37 -113q41 -37 106 -37q82 0 148 27q61 25 123 70l47 -70q-29 -27 -74 -57q-33 -23 -88 -47q-53 -25 -105 -35q-55 -12 -123 -12q-84 0 -149 18q-57 16 -104 53q-39 31 -64 82q-20 44 -20 107z" />
<glyph unicode="&#x3b6;" horiz-adv-x="901" d="M45 328q0 61 21 137q18 66 53 133q53 102 127 195q86 106 164 184q74 74 188 174l193 164v8l-537 -100v153l195 13q37 2 100 7l88 7q33 2 89 8t79 8q86 6 133 15l25 -88l-195 -203q-80 -88 -170 -198.5t-141 -190.5q-66 -100 -103 -185q-18 -41 -32 -92q-10 -39 -11 -78 q0 -65 49 -104q55 -45 140 -68q115 -31 178 -94q61 -61 61 -162q0 -59 -28.5 -112.5t-77.5 -96.5q-43 -39 -119 -75q-70 -35 -149 -60l-25 78q34 12 61 31q31 20 52 41q23 23 35 47t12 53q0 27 -6 45q-6 20 -21 31q-20 16 -35 22q-22 9 -55 19q-94 27 -154 57 q-70 37 -104 74q-41 45 -59 92q-21 56 -21 111z" />
<glyph unicode="&#x3b7;" horiz-adv-x="1122" d="M43 0l147 850l-90 24l15 66h334l-9 -174q72 92 170 147q90 51 209 52q46 0 86 -13q39 -12 70 -38.5t45 -65.5q14 -37 14 -94q0 -20 -2 -35q-2 -23 -6 -47q-2 -8 -4 -25.5t-4 -25.5q-2 -12 -4 -22.5t-4 -18.5l-88 -510q-12 -70 -19 -146q-2 -14 -6 -63l-6 -74 q0 -14 -3 -53t-3 -57.5t-1 -41t-1 -26.5l-9 -45h-276q0 29 4 106q2 23 7 68t5 55q4 37 17 131q12 90 20 133l92 512l7 43l8 45q0 6 1 19.5t3 19.5q2 12 2 29q0 96 -90 96q-39 0 -74 -20q-43 -25 -74 -53q-35 -33 -65 -72q-23 -31 -47 -82l-107 -594h-264z" />
<glyph unicode="&#x3b8;" horiz-adv-x="1062" d="M78 442q0 82 8 154q12 111 25 168q35 184 84 301q52 126 122 209q68 78 154 119q84 39 191 39q92 0 157 -33q70 -35 115 -94q43 -59 70 -152q23 -82 22 -201q0 -68 -6 -141q-6 -68 -23 -156q-31 -162 -88 -303q-49 -123 -125 -211q-66 -76 -163 -121q-92 -41 -199 -40 q-90 0 -154 32q-66 35 -106 92q-43 59 -64 146q-20 81 -20 192zM322 326q0 -55 6 -103q6 -39 20 -78q12 -33 33 -49q18 -16 49 -16q57 0 102.5 39t82 112.5t63.5 178.5q29 109 49 241h-373q-16 -94 -24 -174q-8 -73 -8 -151zM375 760h373q4 18 20 162q8 68 8 139 q0 63 -6 113q-6 51 -22.5 85.5t-41 53t-57.5 18.5q-55 0 -98 -37q-41 -35 -74 -112q-37 -88 -57 -178t-45 -244z" />
<glyph unicode="&#x3b9;" horiz-adv-x="567" d="M78 156q0 23 2 34l6 37l109 623l-93 24l13 66h364l-123 -704q-4 -20 -4 -29q0 -6 -1 -13.5t-1 -11.5q0 -35 17 -57q14 -20 53 -21q27 0 49 11q25 10 45 24l33 -53q-25 -23 -68 -47q-33 -18 -73 -33q-47 -16 -76 -20q-37 -6 -68 -6q-88 0 -135 45q-49 45 -49 131z" />
<glyph unicode="&#x3ba;" horiz-adv-x="1083" d="M45 0l152 850l-93 24l11 66h364l-84 -479l506 479h221l-12 -63l-111 -17l-303 -270l240 -492l96 -24l-12 -74h-326l-190 426l-129 -80l-60 -346h-270z" />
<glyph unicode="&#x3bb;" horiz-adv-x="907" d="M-70 0l9 43l561 961l-17 116q-6 53 -16 92q-9 34 -25 62q-14 25 -36 41q-16 12 -54 12q-35 0 -53 -10l-47 -84h-70l25 188q27 8 72 15q43 6 77 6q57 0 99 -19q45 -20 69 -53q29 -39 47 -92q18 -55 31 -129l156 -981q2 -16 14 -41q8 -16 23 -31q12 -12 28 -18 q4 -2 16.5 -6t16.5 -6l-12 -66h-215l-76 594l-330 -594h-293z" />
<glyph unicode="&#x3bc;" horiz-adv-x="1138" d="M-86 -436l6 45q16 33 27 61q23 61 35 105q18 61 36 135q20 80 35 160l137 780l-114 24l12 66h385l-100 -569l-8 -43q0 -8 -4.5 -22.5t-4.5 -22.5q0 -6 -1 -19.5t-3 -19.5q-2 -12 -2 -29q0 -96 90 -96q37 0 72 20q49 29 76 54q35 33 65 71q23 31 47 82l107 594h264 l-147 -850l90 -24l-15 -66h-327l2 174q-23 -31 -51 -63q-35 -39 -66 -64q-35 -29 -72 -47q-41 -20 -71 -20q-37 0 -66 12q-27 12 -45 37l-24 -125q-10 -49 -29 -121l-31 -115q-4 -16 -10 -34.5l-12.5 -39t-10.5 -30.5h-272z" />
<glyph unicode="&#x3bd;" horiz-adv-x="907" d="M18 874l13 66h299l149 -653l203 313q29 47 49 100q16 43 17 80q0 27 -7 41q-6 16 -20 26.5t-29 16.5q-6 2 -17 5l-18 5l13 66h231q8 -8 17 -25q10 -20 10 -38q0 -8 -4 -37q-3 -22 -13 -49q-6 -20 -24 -60q-6 -14 -43 -74l-436 -677h-123l-205 872z" />
<glyph unicode="&#x3be;" horiz-adv-x="919" d="M59 344q0 98 37 168t101 121q61 49 143 80q78 29 172 45v8q-49 16 -76 29q-39 18 -69 49q-35 35 -54 71q-20 41 -20 98.5t26.5 109t81.5 96.5q51 43 134 73q84 33 184 47v11l-445 -68l23 139h342h94q14 0 38 1t34 1q39 0 55 2q6 0 16.5 2.5t18.5 3.5t14 1l-8 -115 q-41 -8 -110 -29q-57 -16 -115 -55q-59 -41 -92 -88q-35 -51 -35 -133q0 -53 10 -84q12 -39 29 -60q16 -23 43 -39q25 -16 51 -18q4 0 16.5 3t18.5 5q6 0 18.5 4t18.5 4q25 4 32 4q6 0 14.5 1.5t10.5 1.5h31l-23 -148h-33q-2 0 -22.5 4t-32.5 6q-10 2 -18 3t-19 3 q-6 2 -17 4.5t-18 4.5q-170 -43 -253.5 -121t-83.5 -205q0 -43 18 -74q16 -29 53 -51q31 -20 82 -37q35 -12 98 -26q127 -33 193 -95q66 -63 65 -157q0 -59 -24 -109q-25 -51 -70 -86q-46 -37 -110 -67q-51 -25 -146 -54l-24 74q39 18 61 33q31 20 49.5 38.5t32.5 47.5 q10 20 10 55q0 45 -39 66q-40 22 -116 37q-106 20 -181 55q-84 39 -122 78q-51 51 -70 102q-23 61 -23 129z" />
<glyph unicode="&#x3bf;" d="M33 375q0 117 37 223q33 98 110 188q70 82 172 132q96 47 228 47q86 0 151 -27q74 -31 119 -78q51 -55 78 -125q27 -72 26 -164q0 -113 -39 -225q-35 -102 -108 -188q-66 -76 -174 -129q-101 -49 -227 -49q-86 0 -152 26q-72 29 -119 80q-49 53 -76 123q-26 72 -26 166z M297 319q0 -117 37 -178t94 -61q49 0 94 39q39 35 80 114q39 80 60 173q20 96 20 219q0 119 -30.5 180t-94.5 61q-46 0 -92 -43q-47 -43 -84 -118q-41 -84 -62 -175q-22 -102 -22 -211z" />
<glyph unicode="&#x3c0;" horiz-adv-x="1116" d="M14 0l9 45q45 41 61 59q27 29 47 66q20 35 39 88q10 31 39 131l113 447h-121l-84 -134h-74l59 238h1059l-18 -104h-199l-104 -600q-4 -20 -4 -27q0 -4 -1 -11.5t-1 -11.5q0 -82 67 -82q27 0 47 11q16 8 41 24l25 -67q-25 -20 -49 -35q-37 -20 -57.5 -28.5t-65.5 -20.5 q-31 -8 -66 -8q-51 0 -102 14q-45 12 -68 35q-27 27 -35 57q-10 37 -10 70q0 23 2 34q2 6 2 18.5t2 18.5l109 609h-217l-111 -453l-37 -141l-16 -59t-14 -48q-10 -39 -25 -78l-10 -30.5t-8 -26.5h-224z" />
<glyph unicode="&#x3c1;" horiz-adv-x="1054" d="M-51 -436l176 997q23 117 63 191q45 82 99 122q66 51 131 68q74 18 153 19q89 0 166 -25q74 -25 131 -78q55 -52 86 -129t31 -178q0 -125 -37 -229q-35 -98 -106 -181q-66 -74 -168 -118q-98 -43 -221 -43q-27 0 -41 2q-29 4 -43 8q-29 8 -41 12q-20 6 -31 14l-80 -452 h-268zM313 113q29 -14 64 -21q33 -6 76 -6q74 0 122 43q53 45 82 111q33 74 45 153q12 86 13 168q0 145 -39 211q-41 68 -115 68q-37 0 -59.5 -14.5t-44.5 -49.5q-18 -29 -34.5 -88t-31.5 -133z" />
<glyph unicode="&#x3c2;" horiz-adv-x="911" d="M57 311q0 90 21 170q20 76 59 156q33 68 88 131q51 59 115 104q61 43 133 68q71 25 148 25q78 0 149 -11q47 -6 123 -26l-39 -234h-76l-18 129q-16 16 -53 31q-31 12 -76 12q-40 0 -80 -18q-35 -16 -72 -53q-41 -41 -63 -78q-28 -46 -49 -99q-20 -49 -32.5 -108 t-12.5 -115q0 -33 10 -59.5t35 -44.5q23 -16 65 -37q16 -8 105 -37q55 -20 94 -39q41 -20 74 -53q33 -31 47 -72q16 -43 16 -92q0 -59 -27 -106q-28 -49 -73 -93q-49 -45 -111 -77q-59 -31 -141 -58l-23 74q37 20 53 31q29 18 46 37q16 20 30 47q10 20 10 55q0 47 -36 78 q-35 29 -103 45q-176 41 -256 117q-80 77 -80 200z" />
<glyph unicode="&#x3c3;" horiz-adv-x="1103" d="M59 389q0 131 39 229q41 106 111 173q74 72 180 110q104 39 244 39h356l86 135h76l-59 -239h-236l-2 -7q12 -15 31 -43q14 -23 35 -65q14 -29 28 -90q12 -49 13 -111q0 -117 -37 -215q-35 -94 -107 -172q-66 -72 -164 -112.5t-213 -40.5q-88 0 -155 26q-72 29 -121 80 q-51 55 -78 127q-27 74 -27 176zM324 358q0 -76 12 -127q12 -52 31 -86q18 -35 45 -51q23 -14 55 -14q41 0 74 20q35 23 61 58q33 43 51 86q22 49 37 104q16 61 23 113q8 78 8 114q0 92 -16 162q-16 68 -33 99q-68 0 -127 -27q-61 -28 -111 -86q-47 -57 -80 -150 q-30 -89 -30 -215z" />
<glyph unicode="&#x3c4;" horiz-adv-x="907" d="M43 702l57 238h861l-19 -104h-295l-106 -600q-4 -20 -4 -29v-25q0 -39 16 -57q18 -20 47 -21q28 0 55 13q29 12 43 22l33 -53q-33 -29 -53 -41q-25 -14 -68 -33q-39 -16 -75 -24q-35 -8 -80 -8q-47 0 -90 14q-39 12 -58 35q-25 29 -33 57q-12 45 -12 70q0 23 2 34l6 37 l107 609h-176l-86 -134h-72z" />
<glyph unicode="&#x3c5;" horiz-adv-x="1001" d="M70 874l10 66h381q-20 -96 -34.5 -174t-27 -137.5t-20.5 -104.5l-14 -80q-4 -33 -9 -57q-4 -33 -6 -47q-4 -29 -4 -39v-39q0 -55 10 -84q10 -31 31 -53q18 -23 41 -31t49 -8q57 0 96 39q41 41 68 106q29 72 41 158q12 90 12 193q0 49 -6 98q-4 33 -16 90q-8 37 -27 74 q-18 35 -33 45l41 76q59 -12 117 -45q52 -31 92 -80q39 -49 62 -115q23 -68 22 -150q0 -150 -35 -253q-37 -113 -102.5 -187t-161.5 -115q-98 -41 -211 -40q-82 0 -151 26q-59 23 -107 70q-43 43 -65.5 104.5t-22.5 126.5q0 6 1 18.5t1 16.5t1 15.5t1 17.5q0 12 4 41 q0 2 2 20.5t4 28.5q2 14 6.5 30.5t6.5 34.5l16 82l23 105q6 31 14 64.5l16 68.5z" />
<glyph unicode="&#x3c6;" horiz-adv-x="1196" d="M33 375q0 41 2 63q4 49 8 70q20 119 68 203q43 78 108 133q63 53 129 78q63 23 127 32l23 -82q-41 -18 -76 -49q-29 -27 -55 -75q-18 -37 -41 -109q-14 -49 -29 -143q-8 -47 -10 -78q-4 -53 -4 -70q0 -121 41 -190q41 -68 108 -80l107 592q14 72 32.5 121t57.5 94 q31 37 84 59q51 23 121 23q141 0 216.5 -88t75.5 -248q0 -172 -43 -291q-43 -121 -118 -197q-78 -78 -183 -114q-111 -39 -227 -45l-76 -420h-135l74 420q-82 6 -162 36q-74 29 -121 76q-49 47 -76 119q-26 68 -26 160zM569 78q66 6 107 28q45 25 82 70q39 47 61 115 q27 78 41 168q6 45 14 121q6 61 7 102q0 27 -4 72q-2 25 -15 57q-9 25 -24 37q-14 12 -39 12q-27 0 -39 -6q-20 -10 -34.5 -30.5t-27.5 -57.5q-14 -41 -22 -96z" />
<glyph unicode="&#x3c7;" horiz-adv-x="950" d="M-236 -436l7 33l69 96l86 125l99 141l102 145l96 140l86 123l-127 419q-6 25 -22 41q-18 18 -30.5 24.5t-37.5 14.5q-10 2 -35 8l13 66h213q12 -8 20 -33l19 -53l92 -352q45 66 65 100q18 27 33.5 54.5l30.5 52.5l67 112l70 119h305l-6 -39l-72 -96l-82 -115l-86 -123 l-86 -125l-84 -118q-23 -31 -40 -58.5l-31 -48.5l149 -500q16 -51 37 -65q20 -16 57 -23l-12 -65h-184q-2 2 -10 16q-8 16 -13 27l-12 37q-2 6 -5 19t-5 20l-109 405q-59 -86 -170 -262l-153 -262h-304z" />
<glyph unicode="&#x3c8;" horiz-adv-x="1366" d="M84 874l12 66h359l-95 -549q-2 -4 -3 -14t-1 -15q-2 -10 -2 -32q0 -6 -2 -18.5t-2 -18.5v-31q0 -45 17 -82q16 -35 41 -57q29 -25 55 -33q35 -10 61 -10l203 1153h137l-202 -1153q68 0 112.5 24.5t75.5 63.5q33 43 47 88q14 47 25 102l102 582h356l-12 -66l-94 -24 l-90 -504q-16 -78 -51 -143q-35 -63 -102.5 -114.5t-160 -78t-227.5 -26.5l-74 -420h-137l74 418q-98 0 -172 20q-76 20 -131 61q-51 37 -84 99q-29 55 -29 133q0 16 4 70q4 47 8 69l70 416z" />
<glyph unicode="&#x3c9;" horiz-adv-x="1480" d="M43 354q0 92 23 176q20 76 63 146q39 63 94 112q57 51 117 84q70 39 129 58q68 20 133 31l10 -87q-57 -23 -100 -55q-49 -37 -84 -82q-41 -55 -66 -114q-31 -74 -47 -154q-8 -43 -10 -72q-4 -49 -4 -65q0 -117 35 -172q37 -57 92 -58q27 0 57 13q29 12 60 39q39 35 55 59 q18 29 41 84q0 6 1 23.5t1 31.5v76q0 25 4 74q0 10 1 21.5t2 18.5t1 13l17 92h206l-16 -92l-14 -57q-4 -10 -23 -70l-24 -72l-23 -59q0 -100 41 -143q43 -47 111 -48q61 0 104 43.5t68 106.5q25 66 37 139q10 63 10 144q0 71 -12 123q-14 59 -33 94q-25 45 -51 69 q-35 31 -66 49l31 87q83 -15 153 -50q72 -35 125 -90q49 -53 82 -133q31 -77 31 -178q0 -106 -29 -205q-29 -102 -86 -170q-57 -70 -143 -112.5t-203 -42.5q-47 0 -98 14q-35 10 -74 37q-27 18 -51 53q-20 29 -33 68h-4q-23 -37 -51.5 -68t-65.5 -53q-45 -27 -84 -37 q-53 -14 -108 -14q-86 0 -154 28q-61 27 -104 80q-35 43 -56 119q-18 67 -18 147z" />
<glyph unicode="&#x3ca;" horiz-adv-x="567" d="M47 0l150 850l-91 24l11 66h364l-149 -850l119 -24l-11 -66h-393zM78 1251.5q0 28.5 8 47t27 36.5q14 14 38.5 24.5t47.5 10.5q20 0 44.5 -10t39.5 -25t24 -37q10 -25 10 -47t-10 -47q-9 -22 -24 -37q-18 -18 -37 -26q-25 -10 -47.5 -10.5t-46.5 10.5q-20 10 -39 26 q-18 18 -26.5 37t-8.5 47.5zM432 1251.5q0 22.5 10 46.5q8 18 27 37q14 14 38.5 24.5t45.5 10.5q23 0 47.5 -10t38.5 -25q15 -15 25 -37q10 -25 10 -47t-10 -47q-9 -22 -25 -37q-16 -16 -39 -26q-25 -10 -47 -11q-20 0 -45 11q-20 10 -39 26q-18 18 -27 37q-10 25 -10 47.5z " />
<glyph unicode="&#x3cb;" horiz-adv-x="1001" d="M70 874l10 66h381q-20 -96 -34.5 -174t-27 -137.5t-20.5 -104.5l-14 -80q-4 -33 -9 -57q-4 -33 -6 -47q-4 -29 -4 -39v-39q0 -55 10 -84q10 -31 31 -53q18 -23 41 -31t49 -8q57 0 96 39q41 41 68 106q29 72 41 158q12 90 12 193q0 49 -6 98q-4 33 -16 90q-8 37 -27 74 q-18 35 -33 45l41 76q59 -12 117 -45q52 -31 92 -80q39 -49 62 -115q23 -68 22 -150q0 -150 -35 -253q-37 -113 -102.5 -187t-161.5 -115q-98 -41 -211 -40q-82 0 -151 26q-59 23 -107 70q-43 43 -65.5 104.5t-22.5 126.5q0 6 1 18.5t1 16.5t1 15.5t1 17.5q0 12 4 41 q0 2 2 20.5t4 28.5q2 14 6.5 30.5t6.5 34.5l16 82l23 105q6 31 14 64.5l16 68.5zM324 1251.5q0 28.5 8 47t27 36.5q14 14 38.5 24.5t47.5 10.5q20 0 44.5 -10t39.5 -25t24 -37q10 -25 10 -47t-10 -47q-9 -22 -24 -37q-18 -18 -37 -26q-25 -10 -47.5 -10.5t-46.5 10.5 q-20 10 -39 26q-18 18 -26.5 37t-8.5 47.5zM678 1251.5q0 22.5 10 46.5q8 18 27 37q14 14 38.5 24.5t45.5 10.5q23 0 47.5 -10t38.5 -25q15 -15 25 -37q10 -25 10 -47t-10 -47q-9 -22 -25 -37q-16 -16 -39 -26q-25 -10 -47 -11q-20 0 -45 11q-20 10 -39 26q-18 18 -27 37 q-10 25 -10 47.5z" />
<glyph unicode="&#x3cc;" d="M33 375q0 117 37 223q33 98 110 188q70 82 172 132q96 47 228 47q86 0 151 -27q74 -31 119 -78q51 -55 78 -125q27 -72 26 -164q0 -113 -39 -225q-35 -102 -108 -188q-66 -76 -174 -129q-101 -49 -227 -49q-86 0 -152 26q-72 29 -119 80q-49 53 -76 123q-26 72 -26 166z M297 319q0 -117 37 -178t94 -61q49 0 94 39q39 35 80 114q39 80 60 173q20 96 20 219q0 119 -30.5 180t-94.5 61q-46 0 -92 -43q-47 -43 -84 -118q-41 -84 -62 -175q-22 -102 -22 -211zM522 1108v33l123 370h287v-36l-324 -367h-86z" />
<glyph unicode="&#x3cd;" horiz-adv-x="1001" d="M70 874l10 66h381q-20 -96 -34.5 -174t-27 -137.5t-20.5 -104.5l-14 -80q-4 -33 -9 -57q-4 -33 -6 -47q-4 -29 -4 -39v-39q0 -55 10 -84q10 -31 31 -53q18 -23 41 -31t49 -8q57 0 96 39q41 41 68 106q29 72 41 158q12 90 12 193q0 49 -6 98q-4 33 -16 90q-8 37 -27 74 q-18 35 -33 45l41 76q59 -12 117 -45q52 -31 92 -80q39 -49 62 -115q23 -68 22 -150q0 -150 -35 -253q-37 -113 -102.5 -187t-161.5 -115q-98 -41 -211 -40q-82 0 -151 26q-59 23 -107 70q-43 43 -65.5 104.5t-22.5 126.5q0 6 1 18.5t1 16.5t1 15.5t1 17.5q0 12 4 41 q0 2 2 20.5t4 28.5q2 14 6.5 30.5t6.5 34.5l16 82l23 105q6 31 14 64.5l16 68.5zM501 1108v33l123 370h287v-36l-324 -367h-86z" />
<glyph unicode="&#x3ce;" horiz-adv-x="1480" d="M43 354q0 92 23 176q20 76 63 146q39 63 94 112q57 51 117 84q70 39 129 58q68 20 133 31l10 -87q-57 -23 -100 -55q-49 -37 -84 -82q-41 -55 -66 -114q-31 -74 -47 -154q-8 -43 -10 -72q-4 -49 -4 -65q0 -117 35 -172q37 -57 92 -58q27 0 57 13q29 12 60 39q39 35 55 59 q18 29 41 84q0 6 1 23.5t1 31.5v76q0 25 4 74q0 10 1 21.5t2 18.5t1 13l17 92h206l-16 -92l-14 -57q-4 -10 -23 -70l-24 -72l-23 -59q0 -100 41 -143q43 -47 111 -48q61 0 104 43.5t68 106.5q25 66 37 139q10 63 10 144q0 71 -12 123q-14 59 -33 94q-25 45 -51 69 q-35 31 -66 49l31 87q83 -15 153 -50q72 -35 125 -90q49 -53 82 -133q31 -77 31 -178q0 -106 -29 -205q-29 -102 -86 -170q-57 -70 -143 -112.5t-203 -42.5q-47 0 -98 14q-35 10 -74 37q-27 18 -51 53q-20 29 -33 68h-4q-23 -37 -51.5 -68t-65.5 -53q-45 -27 -84 -37 q-53 -14 -108 -14q-86 0 -154 28q-61 27 -104 80q-35 43 -56 119q-18 67 -18 147zM766 1108v33l123 370h287v-36l-324 -367h-86z" />
<glyph unicode="&#x401;" horiz-adv-x="1363" d="M-14 0l12 74l176 26l201 1141l-166 27l12 73h1053l-62 -342h-90l6 218q-6 0 -31.5 3l-41.5 5q-57 4 -86 4q-14 0 -43 1t-43 1h-76h-137l-88 -492h280l58 148h90l-74 -412h-88l-4 152h-283l-90 -516h182h117q41 0 98 4q49 4 76 6q33 4 47 6l105 248h90l-84 -375h-1116z M526 1585.5q0 28.5 8 47t27 36.5q14 14 38.5 24.5t47.5 10.5q20 0 44.5 -10t39.5 -25t24 -37q10 -25 10 -47t-10 -47q-9 -22 -24 -37q-18 -18 -37 -26q-25 -10 -47.5 -10.5t-46.5 10.5q-20 10 -39 26q-18 18 -26.5 37t-8.5 47.5zM880 1585.5q0 22.5 10 46.5q8 18 27 37 q14 14 38.5 24.5t45.5 10.5q23 0 47.5 -10t38.5 -25q15 -15 25 -37q10 -25 10 -47t-10 -47q-9 -22 -25 -37q-16 -16 -39 -26q-25 -10 -47 -11q-20 0 -45 11q-20 10 -39 26q-18 18 -27 37q-10 25 -10 47.5z" />
<glyph unicode="&#x402;" horiz-adv-x="1673" d="M129 967l66 374h1153l-62 -356h-88l8 229l-32 9q-8 2 -26 3t-28 1q-41 4 -65 4q-12 0 -37 1t-37 1h-98l-72 -404l68 23q25 8 77 20q6 2 82 13q43 6 84 6q98 0 178 -23q78 -23 130 -63q49 -41 75 -103q25 -59 25 -133v-34q0 -12 -4 -41l-4 -20.5t-2 -20.5q0 -6 -1 -19.5 t-3 -19.5l-68 -398q-14 -92 -47 -166q-31 -70 -72 -121t-88 -81q-49 -33 -98 -51.5t-101 -24.5q-70 -8 -100 -8q-49 0 -73.5 2t-69.5 6q-27 2 -62 10q-28 6 -49 12l51 285h84l6 -160q18 -27 45 -36q31 -12 68 -13q80 0 121 47t59 144l99 551q2 4 3 16t1 18l6 43q2 6 2 20.5 t2 22.5q2 14 2 33q0 88 -51 137q-49 47 -154 48q-76 0 -127 -9q-72 -10 -112 -20l-111 -621l170 -26l-12 -74h-643l12 74l178 26l201 1135h-72q-16 0 -44 -1t-40 -1q-25 0 -61 -4l-47 -6q-6 -2 -17.5 -5.5t-15.5 -3.5l-76 -247h-86z" />
<glyph unicode="&#x403;" horiz-adv-x="1236" d="M-20 0l14 74l176 24l201 1143l-168 27l14 73h1028l-53 -405h-84l-18 278q-15 3 -50 7q-6 0 -33.5 3l-45.5 5q-16 2 -50 3t-53 1q-37 2 -104 2h-90l-199 -1137l190 -24l-12 -74h-663zM672 1452l4 33l197 272h284l-4 -37l-395 -268h-86z" />
<glyph unicode="&#x404;" horiz-adv-x="1345" d="M70 530q0 193 61 347q59 150 174 260q113 109 264 163q154 55 338 56q51 0 137 -4q14 0 119 -13q41 -4 105 -16l49 -8t49 -10l-53 -338h-84v194q-51 39 -123 66q-68 25 -154 24q-96 0 -188 -34q-86 -33 -160 -101q-71 -65 -123 -160q-51 -92 -75 -211h493l-18 -110h-494 q-2 -18 -2 -55q0 -10 -1 -29t-1 -29q0 -100 20 -176q25 -88 62 -139q39 -53 108 -90q63 -33 156 -33q119 0 199 29q88 31 143 71l78 219h84l-66 -340l-106 -30q-45 -12 -123 -27q-63 -12 -133 -18q-90 -8 -139 -8q-145 0 -258 40q-119 43 -187 111q-78 78 -112 174 q-39 106 -39 225z" />
<glyph unicode="&#x405;" horiz-adv-x="1138" d="M37 51l63 361h88l2 -215q23 -29 46 -47q28 -22 61 -37q27 -12 72 -23q35 -8 80 -8q86 0 137 16q57 18 94 49q39 33 55 72q18 43 19 92q0 53 -25 95q-23 37 -63 71q-39 33 -91 62l-102 57q-49 29 -102 66q-55 39 -90 77q-39 43 -64 105q-23 53 -22 135q0 98 34 166 q39 76 103 119q72 49 166 69q102 23 219 23q86 0 174 -13q86 -12 162 -30l-56 -320h-90l-6 197q-39 29 -92 45q-55 16 -119 16q-68 0 -110 -14q-45 -14 -74 -41q-29 -25 -43 -57q-14 -31 -14 -70q0 -53 22 -86q23 -35 66 -67.5t90 -59.5l102 -57q70 -41 102 -64 q49 -35 93 -80q37 -39 63 -100q25 -55 25 -131q0 -115 -39 -195q-39 -82 -113 -137q-76 -57 -182 -84q-111 -29 -246 -28q-129 0 -231 22q-82 18 -164 49z" />
<glyph unicode="&#x406;" horiz-adv-x="796" d="M-20 0l14 74l176 26l201 1141l-168 27l12 73h639l-12 -73l-176 -27l-201 -1141l166 -26l-13 -74h-638z" />
</font>
</defs>
</svg>
