<?xml version="1.0" standalone="no"?>
<!DOCTYPE svg PUBLIC "-//W3C//DTD SVG 1.1//EN" "http://www.w3.org/Graphics/SVG/1.1/DTD/svg11.dtd" >
<svg xmlns="http://www.w3.org/2000/svg">
<metadata>
This is a custom SVG webfont generated by Font Squirrel.
Copyright   : Digitized data  2007 Ascender Corporation All rights reserved
Designer    : Steve Matteson
Foundry     : Ascender Corporation
Foundry URL : httpwwwascendercorpcom
</metadata>
<defs>
<font id="webfontxzRceP75" horiz-adv-x="1024" >
<font-face units-per-em="2048" ascent="1638" descent="-410" />
<missing-glyph horiz-adv-x="512" />
<glyph unicode=" "  horiz-adv-x="512" />
<glyph unicode="&#x09;" horiz-adv-x="512" />
<glyph unicode="&#xa0;" horiz-adv-x="512" />
<glyph unicode="!" horiz-adv-x="681" d="M219 92q0 23 10.5 47.5t24.5 39t38.5 24.5t47 10t47.5 -10t39 -24.5t24.5 -39t10.5 -47t-10.5 -47.5t-24.5 -39q-16 -18 -39 -26q-18 -8 -47 -8.5t-47 8.5q-23 8 -39 26q-14 14 -24.5 38.5t-10.5 47.5zM231 1341h218l-62 -952h-94z" />
<glyph unicode="&#x22;" horiz-adv-x="835" d="M127 1341h197l-62 -481h-74zM512 1341h197l-62 -481h-74z" />
<glyph unicode="#" d="M37 422v102h192l58 307h-250v103h268l76 407h104l-75 -407h309l76 407h104l-76 -407h164v-103h-182l-57 -307h239v-102h-260l-78 -422h-104l78 422h-310l-77 -422h-105l78 422h-172zM334 524h309l57 307h-309z" />
<glyph unicode="$" d="M88 51v320h66l34 -191q23 -27 50 -43q34 -22 73 -37q47 -18 86 -26q43 -8 84 -13v566l-92 32q-25 8 -86 39q-37 18 -78 50q-37 27 -63 63q-23 31 -41 88q-14 45 -15 115q0 78 27 133q29 61 76 102q51 45 118.5 72t153.5 33v129h82v-127q88 -4 162 -15q76 -10 145 -28 v-279h-65l-29 164q-12 12 -41 27q-33 16 -51 22q-33 10 -59 17q-20 4 -62 8v-477q47 -16 94 -35q72 -29 93 -39q29 -14 81 -51q37 -27 68 -70q31 -45 45 -92q16 -55 17 -121q0 -90 -27 -158q-29 -74 -78 -123q-55 -55 -125 -83q-80 -33 -168 -39v-140h-82v136q-37 0 -114 8 q-39 4 -109 16q-45 8 -96 22.5t-74 24.5zM274 1067q0 -53 16.5 -92t43.5 -66q29 -29 65 -47q25 -12 82 -37v443q-100 -12 -153.5 -65.5t-53.5 -135.5zM563 66q109 18 168.5 83.5t59.5 180.5q0 59 -19 102q-20 47 -47 74q-29 29 -74 51q-37 18 -88 39v-530z" />
<glyph unicode="%" horiz-adv-x="1705" d="M70 995q0 176 80 273q80 94 247 94q160 0 242 -92q82 -90 82 -275q0 -180 -80 -276t-250 -96q-162 0 -241 96q-80 95 -80 276zM225 995q0 -53 8 -127q6 -57 25 -94q16 -33 51 -57q29 -20 82 -21q49 0 82 21q31 20 53 57q18 31 29 94q10 61 10 127q0 63 -10 125 q-10 59 -29 92q-23 39 -53 56q-37 20 -82 20q-47 0 -82 -20q-33 -20 -51 -56q-18 -37 -25 -92q-8 -74 -8 -125zM330 -20l948 1382h111l-949 -1382h-110zM985 346q0 174 82 272q80 94 246 95q158 0 241 -92q82 -90 82 -275q0 -181 -80 -276q-80 -96 -249 -97q-162 0 -242 95 q-80 96 -80 278zM1141 346q0 -53 8 -127q6 -49 27 -92q18 -37 51 -59q29 -20 80 -21q49 0 81.5 20.5t55.5 59.5q18 33 29 92q8 49 8 127q0 76 -8 125q-10 59 -29 92q-22 37 -55 55q-37 20 -82 20.5t-80 -20.5q-33 -20 -51 -55q-20 -43 -27 -92q-8 -74 -8 -125z" />
<glyph unicode="&#x26;" horiz-adv-x="1591" d="M78 356q0 94 31 158q31 66 79 109q53 47 107 71q63 31 113 49q-37 37 -56 60q-23 27 -47 74q-23 43 -35 90q-14 57 -14 102q0 68 20 117q25 57 66 94q43 37 116.5 59.5t172.5 22.5q102 0 166 -21q70 -23 112.5 -59.5t61.5 -87.5q18 -52 18 -111q0 -74 -28 -127 q-25 -45 -76 -90q-43 -37 -107 -65q-98 -45 -121 -53l422 -383q41 86 72 186q27 92 31 176l-142 27v53h457v-53l-139 -27q-18 -68 -29 -94q-25 -70 -41 -109l-55 -118q-31 -63 -70 -119l228 -209l165 -25v-53h-344l-172 156q-66 -55 -84 -68q-46 -31 -104 -55 q-55 -23 -125 -39q-63 -14 -152 -14q-246 0 -372 96q-125 94 -125 280zM274 367q0 -74 22.5 -131.5t65.5 -94.5q47 -41 103 -57q61 -18 137 -18q63 0 119 12q53 12 98 33q49 23 84 49q41 31 70 59l-500 457q-35 -14 -71.5 -39t-63.5 -59q-31 -41 -47.5 -88t-16.5 -123z M434 1090q0 -55 15 -97q14 -39 38 -78q27 -41 50 -61q33 -29 51 -43q41 14 94 41q43 20 70 51q31 33 45 76q16 45 16 111q0 193 -182 192q-106 0 -151.5 -47t-45.5 -145z" />
<glyph unicode="'" horiz-adv-x="368" d="M86 1341h197l-62 -481h-74z" />
<glyph unicode="(" horiz-adv-x="681" d="M90 494q0 180 33 331q31 139 96.5 250t163.5 193q98 83 233 153v-84q-117 -66 -180 -157q-68 -98 -100 -203q-34 -111 -43 -234q-10 -137 -10 -249q0 -57 4 -168q2 -74 16 -162t33 -154q23 -76 59 -141q39 -68 92 -121q59 -59 129 -100v-84q-129 68 -233 155 q-102 86 -164 193q-66 113 -96 252q-33 152 -33 330z" />
<glyph unicode=")" horiz-adv-x="681" d="M66 -352q70 41 129 100q53 53 92 121q37 66 59 141q18 66 32.5 154t16.5 162q4 111 4 168q0 113 -10 249q-9 123 -43 234q-33 104 -100 203q-63 92 -180 157v84q141 -76 233 -153q98 -82 163.5 -192.5t96.5 -250.5q33 -152 33 -331q0 -178 -33 -330q-31 -139 -96 -252 q-61 -106 -164 -193q-100 -84 -233 -155v84z" />
<glyph unicode="*" d="M100 866l328 99l-328 100l64 143l315 -194l-43 327h156l-47 -327l317 190l64 -141l-332 -98l332 -97l-64 -141l-317 188l47 -325h-156l43 328l-315 -195z" />
<glyph unicode="+" horiz-adv-x="1153" d="M102 629v102h424v426h103v-426h426v-102h-426v-426h-103v426h-424z" />
<glyph unicode="," horiz-adv-x="512" d="M78 -238q90 27 133 70t43 98q0 16 -10 31q-8 10 -25 21q-20 12 -32.5 18t-32.5 23q-15 12 -25 30q-10 20 -10 47q0 53 34.5 82t86.5 29q29 0 55.5 -10.5t44.5 -30.5q18 -23 31 -51q12 -31 12 -70q0 -55 -16 -115q-14 -55 -54 -102q-43 -53 -94 -86q-58 -37 -141 -61v77z " />
<glyph unicode="-" horiz-adv-x="681" d="M76 406v153h532v-153h-532z" />
<glyph unicode="." horiz-adv-x="512" d="M135 92q0 23 10.5 47.5t24.5 39t38.5 24.5t47.5 10t47.5 -10t38.5 -24.5t24.5 -39t10.5 -47t-10.5 -47.5t-24.5 -39q-18 -18 -39 -26q-18 -8 -47 -8.5t-47 8.5q-20 8 -39 26q-14 14 -24.5 38.5t-10.5 47.5z" />
<glyph unicode="/" horiz-adv-x="567" d="M0 -20l471 1370h98l-469 -1370h-100z" />
<glyph unicode="0" d="M78 676q0 334 108.5 510t327.5 176q211 0 322 -174q111 -176 110 -512q0 -172 -26 -297q-29 -137 -80 -219q-55 -90 -137 -135t-197 -45q-212 0 -320 178q-108 180 -108 518zM262 676q0 -131 10 -258q10 -115 37 -195q27 -74 76 -121q45 -43 121 -43q74 0 123 43 q47 41 77.5 121t43.5 195q12 114 12 258t-12.5 258t-42.5 190q-31 80 -78 117q-51 41 -123 41q-74 0 -121 -41q-49 -43 -76 -117q-28 -77 -37 -190q-10 -127 -10 -258z" />
<glyph unicode="1" d="M180 0v53l275 27v1094l-271 -97v53l391 222h52v-1272l274 -27v-53h-721z" />
<glyph unicode="2" d="M90 0v147l186 168l152 140q68 65 117 123q51 61 84 122q37 70 51 140q16 78 16 166q0 129 -59 198q-59 68 -193 68q-18 0 -59 -4q-4 0 -57 -13q-18 -4 -52 -16l-40 -20l-35 -164h-66v258q80 18 150 30q74 12 159 13q219 0 330 -92.5t111 -257.5q0 -84 -21 -152 q-22 -71 -61 -135q-41 -68 -98 -127q-51 -53 -134 -129l-161 -144l-189 -165h690v-154h-821z" />
<glyph unicode="3" d="M98 305h66l45 -188q29 -14 47 -21q33 -10 63 -16q8 -2 21.5 -5t25 -5t21.5 -2q49 -4 66 -5q92 0 153.5 23t93.5 64q35 45 48 100q12 57 12 125q0 74 -22.5 129t-59.5 84q-39 31 -90 45q-52 15 -111 18l-143 8v82l143 9q111 6 166 69q55 66 55 195q0 57 -14 114 q-10 45 -43 80q-29 33 -74 47q-49 16 -114 17q-18 0 -60 -4q-8 0 -59 -13q-18 -4 -51 -16q-8 -2 -43 -20l-35 -164h-66v258q12 2 35 8t35 8q18 6 74 14q27 4 79 9q57 4 91 4q211 0 321 -80q109 -78 109 -250q0 -68 -17 -117q-20 -59 -53 -98q-35 -41 -92 -70 q-53 -27 -131 -39q182 -23 268 -104q86 -83 86 -233q0 -86 -33 -162q-31 -72 -92 -121q-66 -53 -149 -76q-96 -27 -201 -26q-100 0 -193 12q-96 12 -167 31z" />
<glyph unicode="4" d="M41 295v133l653 920h117v-910h180v-143h-180v-295h-172v295h-598zM154 438h485v674h-6z" />
<glyph unicode="5" d="M119 305h65l45 -188q29 -14 45 -21q31 -12 56 -16l61 -12q41 -4 62 -5q100 0 153 23q61 27 94 68q35 45 48 102q12 61 12 133q0 77 -12 135q-12 55 -52 99q-35 39 -98 57q-68 20 -160 20q-63 0 -104 -8q-61 -12 -74 -16h-96v665h680v-153h-590v-428q4 0 18.5 3t22.5 5 q4 0 21.5 3t27.5 5q28 3 62 6q23 2 79 2q106 0 197 -22q84 -20 145 -70q57 -45 88 -119q29 -70 29 -174q0 -92 -29 -172q-27 -76 -88 -133q-55 -51 -147 -84q-90 -31 -211 -30q-82 0 -178 10q-72 8 -162 33z" />
<glyph unicode="6" d="M88 662q0 188 41 313q45 137 111 217q70 86 161 125q90 39 189 39q66 0 151 -10q78 -10 140 -25v-231h-66l-35 137q-25 12 -41 18t-49 15q-14 4 -51 8q-33 4 -49 4q-70 0 -127 -35q-59 -37 -98 -102.5t-64 -171.5q-27 -109 -29 -246q70 37 158 61q86 25 170 25 q90 0 152 -23q72 -27 114 -71q49 -51 72 -121q25 -74 25 -172q0 -106 -27 -185q-31 -86 -78 -137q-57 -59 -129 -86q-80 -29 -176 -28q-111 0 -197 43q-88 43 -145 129q-63 94 -92 213q-31 129 -31 297zM272 657q0 -154 14.5 -256t51.5 -186q34 -77 86 -117q51 -39 125 -39 q68 0 108 21q43 20 70 63q27 41 39 107q12 65 12 147q0 166 -51 238t-164 72q-70 0 -143.5 -12.5t-147.5 -37.5z" />
<glyph unicode="7" d="M135 1024v317h830v-77l-598 -1264h-129l587 1188h-589l-35 -164h-66z" />
<glyph unicode="8" d="M78 362q0 135 63 220q68 90 174 129q-86 40 -141 116q-55 78 -55 187q0 80 24 143q25 65 74 111q47 45 123 69q74 25 174 25q94 0 168 -25q78 -27 123 -67q53 -49 76 -111q25 -66 24 -145q0 -109 -53 -187q-51 -76 -145 -116q59 -23 98 -52q45 -31 76 -75q31 -43 49 -99 q16 -49 16 -123q0 -193 -106 -286q-109 -96 -334 -96q-215 0 -321.5 93.5t-106.5 288.5zM258 362.5q0 -83.5 10 -131.5q14 -59 39 -94q27 -35 78 -57q47 -20 121 -21q76 0 123 21q51 23 80 57q33 39 45 94.5t12 130.5q0 74 -12 130q-12 53 -45 96q-27 33 -80 57 q-47 20 -123 21q-74 0 -121 -21q-55 -25 -78 -57q-27 -37 -39 -96q-10 -46 -10 -129.5zM299 1014q0 -53 10 -109q10 -49 33 -82q25 -33 64 -51q41 -18 102 -18t104 18q45 18 68 51q27 37 35 82q10 55 10 108.5t-10 108.5q-8 45 -35 84q-20 33 -68 56q-41 20 -104.5 20 t-101.5 -20q-41 -23 -64 -56q-25 -35 -33 -84q-10 -55 -10 -108z" />
<glyph unicode="9" d="M66 932q0 102 30 182q31 82 86 133q59 55 135 82q78 27 181 27q117 0 196.5 -39t136.5 -125q53 -82 82 -211q27 -125 27 -307q0 -117 -20 -230q-18 -100 -54 -180q-33 -72 -84 -131q-49 -55 -106 -88q-58 -34 -123 -49q-70 -16 -135 -16q-96 0 -160 8q-80 10 -139 26v232 h65l35 -144q23 -12 43 -16l49 -12q18 -4 51 -8q18 -2 52 -3q74 0 131 29q55 29 104 96q45 63 74 172q27 100 33 256q-61 -35 -144 -61q-70 -23 -166 -23q-83 0 -153 25t-121 76q-49 49 -78 127q-28 76 -28 172zM250 928q0 -78 16 -140q12 -49 49 -92q31 -37 76 -51 q49 -16 105 -16q74 0 133 14q74 18 127 39q0 156 -15 258q-16 125 -43 186q-33 76 -80 113q-49 37 -118 37q-127 0 -189 -90q-61 -89 -61 -258z" />
<glyph unicode=":" horiz-adv-x="567" d="M162 92q0 23 10 47.5t24.5 39t39 24.5t47 10t47 -10t39 -24.5t24.5 -39t10 -47t-10 -47.5t-24 -39q-16 -18 -39 -26q-18 -8 -47 -8.5t-47 8.5q-23 8 -39 26q-14 14 -24.5 38.5t-10.5 47.5zM162 839.5q0 22.5 10 47t25 39.5q16 16 39 26q18 8 46.5 8.5t47.5 -8.5 q23 -10 39 -26q14 -14 24 -39t10 -47.5t-10 -47t-24.5 -39t-39 -24.5t-47 -10t-47 10t-39 24.5t-24.5 39t-10 47z" />
<glyph unicode=";" horiz-adv-x="567" d="M106 -238q90 27 133.5 70t43.5 98q0 16 -11 31q-8 10 -24 21q-20 12 -32.5 18t-33.5 23q-15 12 -24 30q-10 20 -11 47q0 53 35 82t86 29q23 0 54 -10q29 -10 47 -31q18 -23 30 -51q12 -31 13 -70q0 -55 -17 -115q-14 -55 -53 -102q-43 -53 -94 -86q-58 -37 -142 -61v77z M162 839.5q0 22.5 10 47t25 39.5q16 16 39 26q18 8 46.5 8.5t47.5 -8.5q23 -10 39 -26q14 -14 24 -39t10 -47.5t-10 -47t-24.5 -39t-39 -24.5t-47 -10t-47 10t-39 24.5t-24.5 39t-10 47z" />
<glyph unicode="&#x37e;" horiz-adv-x="567" d="M106 -238q90 27 133.5 70t43.5 98q0 16 -11 31q-8 10 -24 21q-20 12 -32.5 18t-33.5 23q-15 12 -24 30q-10 20 -11 47q0 53 35 82t86 29q23 0 54 -10q29 -10 47 -31q18 -23 30 -51q12 -31 13 -70q0 -55 -17 -115q-14 -55 -53 -102q-43 -53 -94 -86q-58 -37 -142 -61v77z M162 839.5q0 22.5 10 47t25 39.5q16 16 39 26q18 8 46.5 8.5t47.5 -8.5q23 -10 39 -26q14 -14 24 -39t10 -47.5t-10 -47t-24.5 -39t-39 -24.5t-47 -10t-47 10t-39 24.5t-24.5 39t-10 47z" />
<glyph unicode="&#x3c;" horiz-adv-x="1153" d="M102 655v50l953 469v-103l-809 -391l809 -391v-103z" />
<glyph unicode="=" horiz-adv-x="1153" d="M102 424v102h953v-102h-953zM102 834v102h953v-102h-953z" />
<glyph unicode="&#x3e;" horiz-adv-x="1153" d="M104 186v103l809 391l-809 391v103l953 -469v-50z" />
<glyph unicode="?" horiz-adv-x="907" d="M106 1059v254q74 20 140 30q70 12 155 13q209 0 318 -86q106 -86 106 -254q0 -63 -16 -133q-12 -55 -55 -115q-39 -55 -97 -90q-61 -37 -147 -55l-57 -13l-13 -260h-80l-26 334l143 29q35 6 66 24q33 20 53 51t33 86q12 52 12 130q0 74 -12 124q-12 49 -41 82t-74 47 q-43 14 -113 15q-66 0 -110 -15q-57 -18 -84 -34l-35 -164h-66zM289 92q0 23 10 47.5t24.5 39t39 24.5t47 10t47 -10t39 -24.5t24.5 -39t10 -47t-10 -47.5t-24 -39q-16 -18 -39 -26q-18 -8 -47 -8.5t-48 8.5q-23 8 -38 26q-14 14 -24.5 38.5t-10.5 47.5z" />
<glyph unicode="@" horiz-adv-x="1884" d="M109 362q0 147 32 273q35 137 95 242q66 119 145 200q84 88 194 154q109 66 232 98q129 35 266 35q175 0 307 -43q125 -41 219 -125q92 -82 134 -192q45 -119 45 -252q0 -98 -29 -197q-29 -96 -76 -174q-53 -88 -117 -148q-72 -68 -145 -112q-80 -47 -164 -72 q-86 -25 -172 -24q-16 0 -24 2q-12 4 -21 8q-6 4 -14 16q-6 9 -6 25q0 41 2 63q3 34 6 62q-27 -27 -64 -58q-49 -41 -77 -57q-45 -27 -89 -43q-46 -18 -92 -18q-74 0 -112 55q-39 53 -39 145q0 86 14 164q12 70 45 156q23 61 74 137q41 61 100 109q61 45 92 63q43 25 91 37 q46 12 98 18q51 6 115 6h36h29q6 0 14.5 -1t12.5 -1q10 0 30 -4l-114 -530q-4 -16 -8 -45q-2 -8 -4.5 -24.5t-4.5 -24.5q0 -8 -1 -22.5t-3 -22.5q-2 -14 -2 -35q0 -14 2 -22.5t10 -20.5q6 -8 21 -15q10 -4 41 -4q65 0 123 25q55 23 102 68q43 41 84 104q33 51 60 125 q29 78 38 141q12 74 13 144q0 129 -41 229q-40 98 -117 166q-78 68 -186 102q-111 35 -242 35t-238 -33q-113 -35 -202 -94q-94 -61 -162 -145q-72 -88 -119 -185q-49 -100 -74 -219q-27 -127 -26 -241q0 -135 39 -252q41 -123 121 -215q82 -94 200 -148q123 -55 289 -55 q100 0 172 14q90 18 139 37q65 25 117 55q49 29 102 66l33 -51q-51 -39 -115 -78q-70 -41 -133 -66q-86 -33 -157 -45q-92 -16 -189 -16q-178 0 -321.5 59.5t-237.5 159.5q-96 102 -145 240q-51 142 -51 292zM680 309q0 -72 20.5 -110.5t59.5 -38.5q43 0 74 10q25 8 73 29 q33 12 66 37l51 38l115 533q-4 0 -10.5 1t-8.5 1t-8 1t-8 1h-14q-41 0 -64 -2q-33 -2 -70 -12q-35 -8 -69 -25q-41 -18 -64 -39q-31 -29 -55 -69q-29 -49 -45 -101q-18 -53 -31 -121q-12 -65 -12 -133z" />
<glyph unicode="A" horiz-adv-x="1478" d="M20 0v53l152 27l457 1272h190l475 -1272l170 -27v-53h-567v53l180 27l-133 387h-528l-135 -387l180 -27v-53h-441zM446 557h467l-237 651z" />
<glyph unicode="B" horiz-adv-x="1363" d="M59 0v53l172 27v1182l-172 26v53h613q135 0 235 -22q92 -20 152 -62q53 -37 80 -100q25 -59 24 -131q0 -66 -20 -115q-23 -53 -58 -92q-35 -37 -88 -65q-51 -27 -110 -39q84 -8 157 -35q70 -25 119 -68t76 -100q27 -55 27 -127q0 -88 -29 -158q-31 -76 -92 -125 q-63 -51 -164 -79q-102 -29 -238 -29q-76 0 -223 4q-74 2 -205 2h-256zM424 90q61 -4 96 -4q29 -2 94 -2h105q96 0 158 20q70 23 106 60q39 39 57.5 94t18.5 125q0 66 -23 121q-18 47 -69 84q-45 33 -123 49t-180 16h-240v-563zM424 743h219q86 0 154 21q59 18 96 55t51 84 q14 45 14 113q0 59 -18 102q-20 47 -55 74q-37 29 -103 45q-57 14 -151 14h-207v-508z" />
<glyph unicode="C" horiz-adv-x="1363" d="M84 655q0 176 47 312q47 133 135 219q90 86 217 129q123 41 295 41q47 0 129 -4q10 0 117 -13q47 -6 106 -16l97 -18l6 -293h-66l-30 174q-72 43 -162 67q-84 23 -189 23q-111 0 -208 -33q-88 -29 -154 -104.5t-98 -190.5q-33 -117 -33 -291q0 -154 33 -264 q33 -113 96 -188q61 -74 151 -111q89 -37 203 -37q70 0 119 9q84 14 104 20q53 16 88 33q41 18 64 39l37 200h65l-6 -315q-18 -6 -96 -23q-45 -10 -115 -20q-45 -6 -129 -14q-68 -6 -133 -6q-162 0 -293 47q-125 45 -217 133q-90 86 -135 211q-45 122 -45 284z" />
<glyph unicode="D" horiz-adv-x="1478" d="M59 0v53l172 27v1182l-172 26v53h609q162 0 301 -34q131 -33 229 -115q96 -80 148 -205q51 -123 51 -309q0 -170 -41 -291q-45 -133 -127 -215q-84 -84 -215 -131q-127 -45 -305 -45h-125q-23 0 -67 1t-64 1q-23 0 -65 1t-60 1h-97h-172zM424 94q41 -4 65 -4q10 0 35 -1 t37 -1t37 -1t37 -1h74q127 0 217 37t149 113q57 74 86 186q27 106 27 258q0 145 -41 256q-39 104 -117 176q-77 71 -184 105q-111 35 -242 34h-180v-1157z" />
<glyph unicode="E" horiz-adv-x="1249" d="M59 0v53l172 27v1182l-172 26v53h1006v-321h-66l-32 217q-29 2 -78 6q-10 0 -28.5 2t-34 3t-29.5 1q-16 0 -45 1t-43 1h-66h-219v-524h362l31 160h64v-412h-64l-31 162h-362v-547h264q20 0 59 1t58 1q70 0 98 2l76 6q33 4 47 6l57 248h66l-19 -354h-1071z" />
<glyph unicode="F" horiz-adv-x="1138" d="M59 1288v53h1006v-321h-66l-32 217q-29 2 -78 6q-10 0 -28.5 2t-34 3t-29.5 1q-16 0 -45 1t-43 1h-66h-219v-559h395l31 160h61v-412h-61l-31 162h-395v-522l223 -27v-53h-575v53l159 27v1182z" />
<glyph unicode="G" horiz-adv-x="1478" d="M84 655q0 350 176 527q174 174 518 174q123 0 248 -17q115 -14 223 -43v-288h-67l-27 166q-63 45 -166 75q-92 27 -203 27q-119 0 -208 -33q-92 -33 -154 -104q-66 -74 -98 -193q-33 -117 -33 -289q0 -174 39 -288q41 -119 106 -185q72 -72 154 -98q90 -29 184 -29 q49 0 98 6q33 4 91 17q33 8 75 22q39 14 52 23v381l-172 26v54h495v-54l-131 -26v-436q-135 -43 -242 -64q-137 -27 -268 -26q-158 0 -287 43q-127 43 -217 129t-139 213q-47 120 -47 290z" />
<glyph unicode="H" horiz-adv-x="1478" d="M59 0v53l172 27v1182l-172 26v53h537v-53l-172 -26v-527h631v527l-172 26v53h536v-53l-172 -26v-1182l172 -27v-53h-536v53l172 27v565h-631v-565l172 -27v-53h-537z" />
<glyph unicode="I" horiz-adv-x="681" d="M74 0v53l172 27v1182l-172 26v53h536v-53l-172 -26v-1182l172 -27v-53h-536z" />
<glyph unicode="J" horiz-adv-x="796" d="M43 10v244h66l30 -139q18 -23 54 -35q39 -14 77 -14q139 0 140 190v1006l-172 26v53h516v-53l-152 -26v-830q0 -100 -16 -160q-20 -76 -45 -118q-29 -49 -66 -84q-33 -31 -76 -54q-35 -18 -77 -28q-35 -8 -72 -8q-70 0 -117 8q-63 10 -90 22z" />
<glyph unicode="K" horiz-adv-x="1478" d="M59 0v53l172 27v1182l-172 26v53h537v-53l-172 -26v-631l643 631l-133 26v53h420v-53l-156 -26l-459 -449l574 -733l145 -27v-53h-328l-526 678l-180 -146v-452l192 -27v-53h-557z" />
<glyph unicode="L" horiz-adv-x="1249" d="M59 0v53l172 27v1182l-172 26v53h572v-53l-207 -26v-1176h264q125 0 205 6q59 4 108 14l62 279h65l-18 -385h-1051z" />
<glyph unicode="M" horiz-adv-x="1820" d="M59 0v53l172 27v1182l-172 26v53h406l436 -1019l475 1019h385v-53l-172 -26v-1182l172 -27v-53h-544v53l180 27v1073l-535 -1153h-35l-491 1153v-1073l180 -27v-53h-457z" />
<glyph unicode="N" horiz-adv-x="1478" d="M59 0v53l172 27v1182l-172 26v53h406l690 -993v914l-180 26v53h457v-53l-172 -26v-1262h-97l-827 1206v-1126l180 -27v-53h-457z" />
<glyph unicode="O" horiz-adv-x="1478" d="M84 672q0 178 43 307t127 213q86 86 205 125t280 39q156 0 275 -39q117 -39 207 -125q80 -78 129 -213q45 -127 45 -307q0 -182 -45 -310q-47 -133 -129 -215q-84 -84 -207 -127q-117 -41 -275 -40q-160 0 -274 40q-125 45 -207 127t-129 215q-45 128 -45 310zM293 672 q0 -143 20 -252q23 -119 72 -195q53 -80 137 -123q86 -43 217 -43q129 0 215 43q84 43 138 123q51 80 73 195q20 109 21 252q0 147 -21 252q-22 111 -73 190q-51 78 -138 121q-82 41 -215 41q-135 0 -217 -41q-86 -43 -137 -121q-49 -76 -72 -190q-20 -105 -20 -252z" />
<glyph unicode="P" horiz-adv-x="1138" d="M59 1288v53h506q139 0 236 -30q90 -29 151 -84q53 -47 80 -125q25 -70 25 -156q0 -88 -23 -158q-25 -77 -80 -135t-147 -92q-94 -35 -232 -35h-151v-446l213 -27v-53h-565v53l159 27v1182zM424 616h104q90 0 158 23q63 20 102 63q37 41 54 105q16 66 16 137q0 80 -18 137 q-20 63 -56 97q-40 37 -104 55q-66 18 -158 18h-98v-635z" />
<glyph unicode="Q" horiz-adv-x="1478" d="M84 670q0 178 43 307q45 133 127 215q84 84 205 123q127 41 280 41q147 0 275 -41q119 -39 207 -123q80 -78 129 -215q45 -127 45 -307q0 -137 -23 -230q-27 -106 -69.5 -182t-110.5 -133q-70 -59 -152 -92l50 -62q39 -49 79 -94q37 -39 70 -63q29 -20 64 -35 q31 -12 59 -12h18q6 0 12.5 1t12.5 1h22q4 0 9.5 1t7.5 1v-66q-4 -2 -33 -10q-22 -6 -49 -12q-37 -8 -57 -11q-41 -4 -58 -4q-59 0 -102 15q-51 16 -90 45q-35 25 -88 82q-8 8 -103 122l-41 52q-12 -2 -39 -2q-6 0 -21 -1t-24 -1q-152 0 -274 40q-121 41 -207 127 q-82 82 -129 215q-45 128 -45 308zM293 669.5q0 -143.5 20 -251.5q23 -117 72 -193q53 -80 137 -123q86 -43 217 -43q129 0 215 43q84 43 137.5 123t73.5 193q20 109 20.5 252t-20 251.5t-73.5 190.5q-51 78 -137.5 121t-215.5 43q-131 0 -217 -43t-137 -121 q-49 -76 -72 -190q-20 -109 -20 -252.5z" />
<glyph unicode="R" horiz-adv-x="1363" d="M59 1288v53h580q139 0 235 -24q88 -23 150 -72q55 -45 82 -112q25 -63 24 -150q0 -74 -22 -137q-18 -53 -61 -107q-37 -45 -89 -77q-47 -29 -104 -46l365 -536l145 -27v-53h-322l-376 588h-242v-508l203 -27v-53h-555v53l159 27v1182zM424 678h176q86 0 156 16 q59 14 102 54q37 33 55 90q18 55 19 131q0 74 -21 135q-16 49 -59 86q-37 31 -104 47q-59 14 -152 14h-172v-573z" />
<glyph unicode="S" horiz-adv-x="1138" d="M137 1014q0 77 31 141q33 68 88 109q59 45 141 67q86 25 193 25q98 0 188 -13q92 -12 164 -30v-279h-65l-35 164q-45 33 -109 53q-61 20 -143 21q-72 0 -127 -16.5t-88 -43.5q-35 -29 -53 -65q-16 -33 -17 -80q0 -66 31 -109t80 -73q47 -29 112 -51l131 -46 q74 -27 129 -53q66 -31 113 -76q49 -46 80 -110q31 -66 31 -162q0 -92 -29 -168q-29 -78 -86 -129q-63 -55 -143 -82q-90 -29 -203 -28q-61 0 -123 6q-45 4 -113 16q-41 8 -98 23q-16 4 -78 26v309h66l35 -180q16 -20 53 -45q45 -29 74 -39q57 -20 88 -26q41 -8 90 -9 q80 0 133 21q59 23 92 55.5t53 85.5q18 49 19 107q0 72 -31 119q-31 46 -80 79q-49 35 -113 56l-129 45q-37 12 -129 51q-59 27 -112 72q-49 43 -80 106.5t-31 155.5z" />
<glyph unicode="T" horiz-adv-x="1249" d="M37 1026v315h1180v-315h-68l-27 209q-20 4 -53 6t-84 6q-61 4 -102 4q-18 0 -55 1t-58 1h-49v-1173l213 -27v-53h-619v53l213 27v1175h-51q-132 0 -221 -6q-94 -6 -125 -14l-27 -209h-67z" />
<glyph unicode="U" horiz-adv-x="1478" d="M43 1288v53h537v-53l-172 -26v-805q0 -82 18 -150q16 -61 63 -114q43 -51 109 -74q74 -27 164 -27q100 0 180 27q72 25 123 71q49 47 72 115q23 72 22 148v809l-180 26v53h457v-53l-172 -26v-801q0 -88 -23 -178q-20 -82 -82 -154q-61 -70 -158 -109q-104 -41 -253 -40 q-266 0 -399.5 120.5t-133.5 341.5v820z" />
<glyph unicode="V" horiz-adv-x="1478" d="M23 1288v53h542v-53l-180 -26l406 -988l405 988l-176 26v53h436v-53l-147 -26l-539 -1293h-51l-545 1293z" />
<glyph unicode="W" horiz-adv-x="1931" d="M2 1288v53h512v-53l-197 -26l320 -945l360 930h45l349 -930l303 945l-209 26v53h444v-53l-117 -26l-438 -1293h-53l-348 924l-357 -924h-53l-444 1293z" />
<glyph unicode="X" horiz-adv-x="1478" d="M45 0v53l148 27l456 606l-389 576l-151 26v53h553v-53l-170 -26l278 -414l311 414l-166 26v53h439v-53l-148 -26l-377 -502l461 -680l152 -27v-53h-553v53l170 27l-352 520l-390 -520l166 -27v-53h-438z" />
<glyph unicode="Y" horiz-adv-x="1478" d="M23 1288v53h567v-53l-180 -26l385 -619l366 619l-170 26v53h436v-53l-147 -26l-442 -734v-448l213 -27v-53h-619v53l213 27v442l-471 740z" />
<glyph unicode="Z" horiz-adv-x="1249" d="M98 0v94l752 1161h-250q-131 0 -217 -6q-92 -6 -123 -14l-31 -211h-69v317h913v-86l-758 -1171h291q43 0 129 4q80 4 119 8q10 2 45 5t51.5 5.5t37 6.5t22.5 4l59 256h70l-27 -373h-1014z" />
<glyph unicode="[" horiz-adv-x="681" d="M152 -274v1695h456v-47l-297 -41v-1519l297 -41v-47h-456z" />
<glyph unicode="\" horiz-adv-x="567" d="M0 1350h98l471 -1370h-100z" />
<glyph unicode="]" horiz-adv-x="681" d="M74 -227l297 41v1519l-297 41v47h456v-1695h-456v47z" />
<glyph unicode="^" horiz-adv-x="960" d="M29 389l428 952h49l428 -952h-103l-350 809l-350 -809h-102z" />
<glyph unicode="_" d="M-16 -162h1056v-102h-1056v102z" />
<glyph unicode="`" horiz-adv-x="681" d="M119 1386v37h213l196 -272v-33h-55z" />
<glyph unicode="a" horiz-adv-x="907" d="M72 260q0 63 14 107q16 47 43 77q29 31 64 50q37 18 79 30q47 14 90 17q61 4 95 4l141 4v147q0 41 -6 76q-6 29 -25 59q-12 20 -45 39q-27 14 -69 15q-47 0 -97 -13q-45 -12 -86 -34l-34 -117h-56v205q65 15 135 24q78 10 150 11q63 0 118.5 -12.5t96.5 -41.5 q39 -27 61.5 -78t22.5 -124v-635l117 -25v-45h-258l-19 94q-6 -6 -20.5 -17t-20.5 -18q-23 -18 -61 -39q-27 -14 -84 -28q-46 -12 -105 -12q-72 0 -114 20q-45 20 -74 59t-41 90.5t-12 110.5zM238 266q0 -176 143 -176q63 0 117 16q59 18 100 39v334l-131 -4 q-59 -4 -102 -12q-39 -8 -70 -33q-28 -22 -43 -61q-14 -37 -14 -103z" />
<glyph unicode="b" d="M0 1376v45h303v-336v-43q0 -12 -1 -24t-1 -27q0 -8 -1 -26.5t-1 -26.5q0 -10 -1 -26.5t-1 -24.5q53 39 109 57q61 20 143 21q193 0 295 -117q102 -119 102 -352q0 -113 -26 -215q-25 -94 -80 -162q-55 -66 -135 -103q-83 -37 -197 -36q-49 0 -98 6q-59 8 -97 14 q-59 10 -94 20q-37 10 -82 29v1303zM303 82q43 -10 96 -12q74 -4 105 -4q139 0 200.5 108.5t61.5 321.5q0 101 -18 172q-18 68 -54 112q-35 43 -82 62q-49 18 -108 18q-33 0 -51 -2l-56 -6q-18 -2 -51 -10q-29 -6 -43 -15v-745z" />
<glyph unicode="c" horiz-adv-x="907" d="M78 477q0 131 33 221q35 94 94 152q66 61 143 88q80 27 180 27q88 0 156 -9q66 -8 139 -22v-262h-55l-43 166q-39 23 -90 34q-53 12 -109 13q-70 0 -114 -23q-51 -25 -84 -74q-33 -47 -52 -126q-18 -77 -18 -185q0 -92 14.5 -161.5t53.5 -125.5q35 -49 102.5 -77.5 t163.5 -28.5q45 0 70 2q12 2 35.5 5t33.5 3q18 2 62 10q35 6 53 13v-60q-27 -20 -62 -34q-25 -10 -77 -23q-23 -6 -86 -14q-43 -6 -86 -6q-121 0 -209 34.5t-142 96.5q-55 63 -80 157q-26 100 -26 209z" />
<glyph unicode="d" d="M74 461q0 111 26 211q25 94 78 159q51 63 133 98.5t193 35.5q49 0 108 -7q74 -8 111 -16q-2 8 -2 33q0 6 -1 21.5t-1 23.5q0 12 -1 24.5t-1 24.5v39v244l-158 24v45h324v-1351l116 -25v-45h-264l-12 70q-41 -33 -108.5 -61.5t-155.5 -28.5q-385 0 -385 481zM254 461 q0 -104 18 -176q18 -74 54 -117q37 -47 82 -64q55 -20 106 -20q59 0 113 12q59 14 90 27v743q-43 10 -96 13q-74 4 -107 4q-133 0 -196.5 -106.5t-63.5 -315.5z" />
<glyph unicode="e" horiz-adv-x="907" d="M80 477q0 250 102 367q104 121 295 121q80 0 141 -21q66 -23 113 -65q49 -47 78 -127q29 -82 29 -197v-82h-578v-18q0 -63 10 -140q8 -59 43 -118q31 -51 88.5 -82t149.5 -31q41 0 63 2l66 6q23 2 63 10q8 2 29 5.5t29 5.5v-56q-25 -18 -56 -28l-71 -25q-41 -12 -82 -18 q-43 -6 -90 -6q-111 0 -197 32q-84 33 -131 94q-51 68 -72 156q-22 96 -22 215zM262 553h402q0 82 -9 137q-9 61 -30 105q-23 45 -58 67.5t-90 22.5q-59 0 -96 -23q-40 -25 -68 -67q-27 -41 -39 -105q-12 -61 -12 -137z" />
<glyph unicode="f" horiz-adv-x="681" d="M63 856v49l162 39v66q0 111 20.5 186.5t63.5 134.5q39 53 99 82q61 29 131 29q46 0 79 -6q59 -10 64 -13v-204h-49l-45 122q-10 6 -35 15q-18 6 -47 6q-35 0 -57 -16q-25 -16 -35 -48q-12 -35 -19 -81q-4 -33 -4 -121v-156h250v-84h-250v-778l203 -33v-45h-508v45l139 33 v778h-162z" />
<glyph unicode="g" d="M88 -215q0 33 12 63q8 23 35 56q23 29 53 53q61 49 68 53q-12 4 -41 19q-20 10 -45 34q-16 16 -35 50q-14 27 -14 61l158 178q-158 74 -158 291q0 74 26 139q25 59 74 101q49 39 121 61q68 20 160 21q39 0 57 -2q6 0 17.5 -2.5t20.5 -3.5t17 -1l24.5 -5t18.5 -3 q8 -2 29 -8l221 111l35 -43l-139 -144q37 -39 51 -96q16 -61 16 -125q0 -163 -98 -246q-96 -82 -278 -82q-25 0 -82 4q-35 2 -70 11l-63 -131q2 -16 38 -31q39 -16 91 -16h278q150 0 225 -66q74 -66 74 -182q0 -68 -27 -127q-28 -61 -86 -111q-53 -45 -155 -78 q-94 -31 -236 -30q-109 0 -182 18q-84 20 -123 47q-43 29 -67 74q-21 39 -21 88zM229 -201q0 -41 11 -65q10 -29 41 -51q25 -20 77 -33q49 -12 123 -12q92 0 156 18q66 18 108 49q41 29 64 74q20 41 20 94q0 57 -34 88q-37 33 -107 33h-364q-23 -20 -39 -41q-12 -16 -29 -49 q-16 -31 -20 -54q-7 -26 -7 -51zM295 643q0 -72 10 -111q14 -51 37 -79q27 -33 61.5 -47.5t92.5 -14.5q111 0 155 62q45 59 45 190q0 57 -10 109q-8 45 -35 77q-23 29 -61 45q-35 14 -92 15q-55 0 -92 -15q-39 -14 -64 -44.5t-37 -77.5q-10 -39 -10 -109z" />
<glyph unicode="h" d="M20 1376v45h306v-407v-33q0 -10 -1 -21.5t-1 -21.5q0 -8 -1 -20.5t-1 -20.5q0 -25 -3 -33q16 10 68 33l84 35q43 15 86 24q39 8 80 9q55 0 98 -14.5t78 -49.5q33 -33 51.5 -86t18.5 -127v-618l114 -25v-45h-405v45l125 25v606q0 82 -41 127t-125 45q-39 0 -59 -2 q-10 -2 -32 -4t-32 -4q-37 -4 -57 -9q-6 -2 -22.5 -5t-22.5 -5v-749l127 -25v-45h-412v45l119 25v1282z" />
<glyph unicode="i" horiz-adv-x="567" d="M43 0v45l160 25v800l-133 25v45h299v-870l161 -25v-45h-487zM162 1247q0 23 8 41.5t25 34.5q14 14 34 25q16 8 41 8q23 0 41.5 -8.5t34.5 -24.5t24.5 -34.5t8.5 -41.5q0 -25 -8 -41q-10 -20 -25 -35q-16 -16 -34.5 -24t-41.5 -8q-25 0 -41 8q-20 10 -34.5 24.5 t-24.5 34.5q-8 16 -8 41z" />
<glyph unicode="j" horiz-adv-x="567" d="M-59 -219h47l26 -109q35 -29 84 -28q57 0 88 63.5t31 202.5v960l-141 25v45h307v-979q0 -109 -21 -182q-20 -72 -61 -123q-39 -49 -94 -70q-57 -23 -121 -22q-45 0 -76 6q-6 2 -30.5 5t-38.5 7v199zM176 1247q0 23 8.5 41.5t24.5 34.5t32.5 24.5t43.5 8.5q25 0 41 -8 q20 -10 34 -25q16 -16 24.5 -34.5t8.5 -41.5q0 -25 -8 -41q-10 -20 -24.5 -34.5t-34.5 -24.5q-16 -8 -41 -8q-27 0 -43.5 8t-32.5 24q-14 14 -25 35q-8 16 -8 41z" />
<glyph unicode="k" d="M39 1376v45h305v-968l385 415l-98 27v45h332v-45l-117 -23l-268 -274l344 -530l102 -23v-45h-385v45l86 25l-258 405l-123 -135v-270l100 -25v-45h-385v45l119 25v1282z" />
<glyph unicode="l" horiz-adv-x="567" d="M41 0v45l160 25v1282l-160 24v45h326v-1351l161 -25v-45h-487z" />
<glyph unicode="m" horiz-adv-x="1591" d="M43 0v45l119 25v800l-119 25v45h274l9 -76q16 10 67 33q63 29 78 35q39 14 84 24q39 8 78 9q63 0 127 -27q61 -27 88 -82q29 16 78 37l92 37q47 14 96 24q51 10 86 11q57 0 98 -15q45 -16 76 -49q31 -34 49 -86q16 -47 17 -127v-618l121 -25v-45h-426v45l139 25v600 q0 84 -37 127q-39 45 -123 45q-16 0 -61 -4t-68 -9q-8 -2 -22.5 -4t-25.5 -4t-19 -4l-52 -10q16 -49 17 -119v-618l141 -25v-45h-446v45l139 25v600q0 84 -43 127q-45 45 -127 45q-37 0 -58 -2q-10 0 -30.5 -4.5t-30.5 -4.5q-33 -4 -55 -8l-45 -10v-743l141 -25v-45h-426z " />
<glyph unicode="n" d="M47 0v45l113 25v800l-113 25v45h268l9 -76q16 10 67 33q59 29 80 35q45 16 84 24.5t78 8.5q55 0 98 -14.5t78 -49.5q33 -33 51.5 -86t18.5 -127v-618l114 -25v-45h-405v45l125 25v600q0 84 -41 131t-125 47q-39 0 -60 -2q-10 -2 -30.5 -4t-30.5 -4q-33 -4 -55 -9l-45 -10 v-749l127 -25v-45h-406z" />
<glyph unicode="o" d="M78 475q0 238 108 365q106 125 328 125q215 0 324 -123q109 -125 108 -367q0 -240 -106 -366q-106 -129 -334 -129q-211 0 -319.5 126.5t-108.5 368.5zM258 475q0 -113 10 -176q12 -80 39 -129q29 -55 78 -82q51 -29 121 -29q72 0 123 29q47 27 80 82q33 57 45 129 q12 78 12 176t-12 174q-12 72 -45 129q-31 52 -80 80q-47 27 -123 27q-74 0 -121 -27q-51 -29 -78 -80q-27 -49 -39 -129q-10 -63 -10 -174z" />
<glyph unicode="p" d="M33 -389l119 24v1235l-107 25v45h264l2 -55q18 16 49 33q28 15 62 24q45 12 70 16q37 6 75 7q88 0 158 -31t119 -92.5t74 -151.5q27 -96 26 -209q0 -106 -26 -207q-25 -94 -78 -159q-55 -68 -131 -101q-82 -35 -183 -34q-53 0 -108 6q-70 8 -107 16q0 -4 1 -12t1 -15 q0 -4 1 -16t1 -16t1 -14.5t1 -16.5v-23v-254l164 -24v-47h-448v47zM317 76q45 -10 93 -13q70 -4 102 -4q133 0 193 109q59 106 59 313q0 111 -16 174q-20 78 -50 117q-34 46 -80 68q-43 20 -106 20q-53 0 -102 -8q-55 -9 -93 -25v-751z" />
<glyph unicode="q" d="M74 467q0 106 26 207q25 92 78 157q51 63 133 98.5t189 35.5q52 0 110 -7q78 -8 113 -16l90 43h70v-1350l104 -24v-47h-399v47l129 24v261q0 53 2 81q4 57 8 86q-51 -39 -111 -59q-68 -25 -157 -24q-195 0 -291 126q-94 125 -94 361zM254 467q0 -100 18 -174 q20 -78 50 -119q35 -47 81 -68q51 -23 111 -22q33 0 51 2l56 6q23 2 53 10q29 8 43 15v749q-43 10 -96 13q-74 4 -107 4q-133 0 -196.5 -106.5t-63.5 -309.5z" />
<glyph unicode="r" horiz-adv-x="681" d="M41 0v45l119 25v800l-119 25v45h274l9 -117q16 14 63 43t86 47q41 18 94 37q43 14 82 15h15v-254h-43l-58 110q-18 0 -59 -4q-29 -2 -66 -10q-20 -4 -61 -16q-27 -8 -51 -19v-702l161 -25v-45h-446z" />
<glyph unicode="s" horiz-adv-x="796" d="M84 698q0 61 22 113q23 53 66 86t98 51q51 16 127 16.5t133 -8.5q43 -6 125 -22v-205h-47l-43 109q-27 23 -69 34q-45 12 -97 13q-82 0 -123 -39q-43 -39 -43 -109q0 -47 21 -75q18 -25 55 -50q33 -20 78 -37l90 -30q49 -16 90 -37q53 -27 80 -51q33 -31 55 -78 q20 -43 21 -115q0 -63 -18.5 -114.5t-63.5 -90.5q-47 -39 -109 -59q-63 -20 -159 -20q-46 0 -92 6q-31 4 -84 12q-39 6 -70 16q-8 2 -22.5 6.5t-18.5 6.5v231h45l49 -131q27 -25 80 -47q47 -20 115 -21q92 0 143 41t51 125q0 49 -20 82q-22 34 -55 55q-33 20 -78 37l-90 29 q-31 10 -88 35q-45 18 -78 49q-37 33 -56 74q-20 42 -20 112z" />
<glyph unicode="t" horiz-adv-x="567" d="M20 856v45l125 39l101 213h63v-213h215v-84h-215v-641q0 -68 29 -98q31 -33 78 -33q49 0 73 4q37 6 68 12v-65q-27 -16 -39 -21q-31 -12 -55 -16l-62 -12q-34 -6 -67 -6q-98 0 -144 57q-47 59 -47 160v659h-123z" />
<glyph unicode="u" d="M27 895v45h286v-672q0 -84 37 -127q39 -45 123 -45q35 0 117 8q53 6 115 23v743l-142 25v45h307v-870l119 -25v-45h-274l-8 76q-16 -10 -68 -33q-6 -4 -84 -31q-27 -8 -88 -22q-47 -10 -80 -10q-53 0 -98 16q-49 18 -76 47q-31 34 -49 86q-16 47 -17 127v614z" />
<glyph unicode="v" d="M0 895v45h438v-45l-149 -27l274 -649l262 651l-149 25v45h348v-45l-90 -21l-377 -894h-74l-387 890z" />
<glyph unicode="w" horiz-adv-x="1478" d="M2 895v45h447v-45l-156 -27l223 -635l227 613h84l226 -617l213 641l-154 25v45h358v-45l-104 -21l-315 -894h-78l-232 620l-229 -620h-74l-325 890z" />
<glyph unicode="x" d="M18 0v45l109 16l309 408l-272 401l-111 25v45h426v-45l-125 -27l181 -270l208 272l-129 25v45h338v-45l-108 -21l-264 -342l309 -466l110 -21v-45h-426v45l125 23l-217 333l-254 -335l129 -21v-45h-338z" />
<glyph unicode="y" d="M25 895v45h436v-45l-148 -27l254 -657l246 659l-147 25v45h350v-45l-98 -21l-367 -933q-29 -74 -66 -152q-31 -66 -73 -121q-35 -47 -93 -80q-53 -31 -120 -30q-8 0 -23.5 1t-21.5 1q-25 0 -37 2q-6 0 -16.5 2t-16.5 4q-25 4 -39 8v203h47l33 -96q33 -23 86 -23 q43 0 78 18.5t65 53.5q23 25 54 82q20 39 45 104l26 72l-358 880z" />
<glyph unicode="z" horiz-adv-x="907" d="M55 0v45l516 815h-221q-37 0 -55 -2q-10 -2 -27.5 -5t-25.5 -3q-20 -2 -43 -10.5t-29 -14.5l-31 -135h-47v250h694v-49l-516 -811h275q16 0 57 4t60 8q37 8 53 14q25 10 39 21l51 197h47l-25 -324h-772z" />
<glyph unicode="{" horiz-adv-x="980" d="M186 553v45q53 0 90 14q40 15 68 43q27 27 43 72q14 41 14 107v294q0 139 66 218q63 76 195 75h135v-47h-62q-88 0 -129 -55q-39 -53 -39 -160v-330q0 -51 -14 -92q-14 -39 -41 -75q-23 -31 -61 -54q-37 -23 -76 -30v-3q39 -8 78 -32q43 -27 61 -54q25 -35 39 -73 q14 -41 14 -94v-334q0 -106 39 -160q41 -55 129 -55h62v-47h-135q-66 0 -113 20q-51 23 -82 59q-35 41 -49 93q-16 59 -17 122v295q0 66 -14 107q-16 45 -43 72q-28 28 -68 43q-35 12 -90 16z" />
<glyph unicode="|" horiz-adv-x="409" d="M154 -442v1863h102v-1863h-102z" />
<glyph unicode="}" horiz-adv-x="980" d="M186 -227h62q88 0 129 55q39 53 39 160v334q0 53 14 94q14 39 39 73q18 27 61 54q39 25 78 32v3q-39 8 -76 30q-39 23 -61 54q-27 37 -41 75q-14 41 -14 92v330q0 106 -39 160q-41 55 -129 55h-62v47h136q131 0 194 -75q66 -78 66 -218v-294q0 -66 14 -107q16 -45 43 -72 q28 -28 68 -43q37 -14 90 -14v-45q-55 -4 -90 -16q-40 -15 -68 -43q-27 -27 -43 -72q-14 -41 -14 -107v-295q0 -63 -17 -122q-14 -51 -49 -93q-31 -37 -82 -59q-47 -20 -112 -20h-136v47z" />
<glyph unicode="~" horiz-adv-x="1107" d="M57 502q6 61 19 123q10 53 43 110q27 49 78 80q49 31 129 31q49 0 92 -19q45 -18 82 -45q41 -29 75 -57l72 -57q31 -25 68 -45q35 -18 65 -19q39 0 68 16.5t47 47t31 75.5q10 39 20 103h103q-12 -76 -23 -121q-18 -70 -43 -111q-35 -55 -78 -82q-49 -31 -125 -30 q-45 0 -88 18q-45 18 -82 45q-41 29 -75 58l-72 57q-27 20 -70 45q-34 18 -67 18q-43 0 -70 -14q-29 -16 -49 -45q-16 -25 -31 -76q-12 -47 -18 -106h-101z" />
<glyph unicode="&#xa1;" horiz-adv-x="681" d="M219 839.5q0 22.5 10.5 47t24.5 39.5q16 16 39 26q18 8 47 8.5t47 -8.5q23 -10 39 -26q14 -14 24.5 -39t10.5 -47.5t-10.5 -47t-24.5 -39t-39 -24.5t-47.5 -10t-47 10t-38.5 24.5t-24.5 39t-10.5 47zM231 -410l62 953h94l62 -953h-218z" />
<glyph unicode="&#xa2;" d="M127 684q0 123 31 211q33 92 84 147q57 59 129 91q74 31 166 36v172h81v-170q71 -3 136 -12q100 -14 118 -18v-262h-55l-43 165q-23 14 -72 29q-31 8 -84 17v-799h23q45 0 70 2q12 2 35.5 5t33.5 3q18 2 62 10q35 6 53 13v-60q-18 -16 -55 -30.5t-68 -22.5 q-49 -12 -76 -16q-29 -4 -78 -9v-186h-81v186q-111 6 -187 43q-80 39 -127 101q-53 70 -73 153q-23 95 -23 201zM307 684q0 -70 10 -141q8 -55 37 -113q23 -45 70 -82q39 -31 113 -47v789q-115 -16 -170 -111q-60 -100 -60 -295z" />
<glyph unicode="&#xa3;" d="M121 629v82h127q-31 72 -47 137q-20 82 -21 158q0 168 105 260q102 90 313 90q31 0 80 -4t72 -9q51 -10 69 -14q53 -12 72 -16v-258h-66l-34 164q-33 20 -84 36q-53 16 -109 17q-114 0 -172 -68q-57 -66 -57 -198q0 -86 10 -164q14 -113 18 -131h279v-82h-262l12 -82 q4 -29 4 -88q0 -53 -12 -97q-14 -51 -32.5 -81.5t-51.5 -67.5q-25 -29 -64 -59h691v-154h-838v117l72 63q49 45 69 70q31 37 53 82q20 41 21 98q0 43 -16 96q-4 12 -39 103h-162z" />
<glyph unicode="&#xa4;" d="M96 332l107 106q-39 51 -59.5 110.5t-20.5 127.5q0 70 20 129q18 55 60 108l-107 107l74 74l104 -109q51 39 111 59q63 23 126.5 23t127.5 -23q59 -20 111 -59l108 109l72 -72l-109 -109q41 -57 60 -110q23 -63 22.5 -127t-22.5 -127q-20 -59 -60 -111l109 -106l-72 -72 l-108 107q-45 -37 -111 -60q-59 -20 -127 -20t-127 20.5t-111 59.5l-106 -107zM219 676q0 -66 23 -113q27 -57 63.5 -94t93.5 -63q47 -23 113 -23q68 0 115 23q57 27 94 63.5t63 93.5q23 47 23 113q0 68 -23 115q-27 57 -63.5 94t-93.5 63q-47 23 -115 23q-66 0 -113 -23 q-57 -27 -94 -63.5t-63 -93.5q-23 -47 -23 -115z" />
<glyph unicode="&#xa5;" d="M2 1288v53h453v-53l-131 -26l239 -619l246 619l-123 26v53h336v-53l-104 -26l-265 -623h232v-82h-267l-12 -29v-135h279v-82h-279v-231l172 -27v-53h-536v53l172 27v231h-279v82h279v129l-15 35h-264v82h230l-263 623z" />
<glyph unicode="&#xa6;" horiz-adv-x="409" d="M154 180h102v-622h-102v622zM154 801v620h102v-620h-102z" />
<glyph unicode="&#xa7;" d="M162 582q0 51 18 94q14 33 51 74q31 34 74 55q49 25 94 33q-61 33 -80 47q-39 29 -65 61q-31 37 -45 78q-16 45 -16 98q0 63 22 115q23 49 66 84q43 33 98 51q51 16 127 17q68 0 131 -7q59 -6 127 -18v-211h-47l-33 109q-12 12 -33 20q-14 6 -43 14q-25 8 -49 11 q-16 2 -51 2q-82 0 -123 -39q-43 -41 -43 -109q0 -47 23 -82q16 -25 61 -59q35 -27 84 -49l96 -45q47 -20 99 -52q57 -35 83 -61q43 -43 62 -82q23 -49 22 -108q0 -57 -18 -103q-14 -39 -55 -82q-29 -31 -82 -59q-45 -25 -103 -37q27 -14 86 -55q41 -29 72 -66 q33 -39 51 -86q18 -45 19 -106q0 -66 -21 -115q-23 -53 -65.5 -90t-112.5 -60q-63 -20 -162 -20q-47 0 -94 6q-82 10 -88 12q-66 16 -72 17q-31 6 -43 12v232h45l39 -132q14 -14 39 -26q20 -10 51 -21q18 -6 60 -14q31 -6 65 -6q43 0 84 10q39 10 66 31q25 20 41 51 q14 29 14 74q0 49 -22 88q-20 35 -60 67q-41 35 -84 58l-51.5 27.5t-44.5 23.5l-98 57q-55 37 -84 68q-39 43 -60 88q-22 52 -22 115zM311 618q0 -51 17 -77q23 -37 47 -58q27 -20 67 -45l38 -21l42 -24q49 8 76 19q41 16 64 37q29 25 43 57q14 31 14 74t-17 69 q-20 35 -47 56q-29 23 -69 45q-43 23 -80 38q-39 -2 -74 -14q-33 -10 -63 -35q-27 -20 -43 -53q-15 -29 -15 -68z" />
<glyph unicode="&#xa8;" horiz-adv-x="681" d="M63 1194q0 23 9 39q12 25 20 31q20 16 33 22q16 8 39 8q41 0 69.5 -28.5t28.5 -71.5q0 -39 -29 -72q-27 -29 -69 -28q-23 0 -39 8q-25 12 -33 20t-20 33q-9 16 -9 39zM420 1194q0 43 28.5 71.5t71.5 28.5q41 0 69.5 -28.5t28.5 -71.5q0 -39 -28 -72q-27 -29 -70 -28 q-23 0 -39 8q-27 14 -32 20q-10 14 -21 33q-8 16 -8 39z" />
<glyph unicode="&#xa9;" horiz-adv-x="1554" d="M88 670q0 95 25 184q25 92 69.5 166t106.5 139q55 57 139 109q74 45 166 69q89 25 184 25t185 -25q92 -25 165 -69q76 -47 139.5 -108.5t108.5 -139.5q45 -74 70 -166q25 -89 24 -184q0 -95 -24 -185q-25 -88 -70 -163q-51 -84 -108 -140q-72 -68 -140 -108 q-74 -45 -165 -70q-89 -25 -185 -24q-144 0 -270 55q-127 55 -219 147t-148 219q-53 122 -53 269zM158 670q0 -129 49 -242q45 -106 133 -197q80 -82 197 -133q115 -49 241.5 -49t241.5 49t199 133t133 197t49 242q0 82 -23 166q-20 74 -63 147q-39 68 -96 127 q-53 57 -127 98t-148 62q-84 23 -166 22q-127 0 -241 -49q-113 -49 -197 -133t-133 -197q-49 -114 -49 -243zM379 664q0 106 29 188q27 78 79 131q49 49 131 76q84 27 179 26q76 0 147 -10q80 -12 121 -20l4 -187h-49l-19 105q-49 29 -92 39q-49 12 -108 12q-70 0 -117 -16 q-51 -18 -86 -60q-35 -39 -53 -110q-18 -68 -19 -172q0 -184 70 -266.5t199 -82.5q80 0 129 17q55 18 86 43l22 119h49l-4 -199q-47 -14 -127 -27q-78 -12 -155 -12q-96 0 -176 28.5t-132 80.5q-55 55 -81.5 127t-26.5 170z" />
<glyph unicode="&#xaa;" horiz-adv-x="563" d="M35 942q0 55 22 90q20 31 60 51q37 18 82 25q47 6 88 6l84 2v80q0 47 -23 80q-22 31 -74 31q-33 0 -59 -7q-29 -6 -51 -22l-21 -59h-43v122q29 6 86 15q47 6 95 6q51 0 86 -8q43 -10 67 -29q29 -23 43.5 -53.5t14.5 -81.5v-352l69 -15v-37h-174l-12 62q-14 -14 -27 -23 q-18 -12 -43 -24q-10 -4 -55 -19q-27 -8 -66 -8q-41 0 -69 12q-25 10 -45 35q-16 18 -27 53q-8 27 -8 68zM156 946q0 -55 20.5 -75.5t65.5 -20.5q39 0 69 12q41 16 60 27v174l-78 -2q-25 0 -57 -4q-23 -2 -43 -17q-16 -10 -26.5 -34.5t-10.5 -59.5z" />
<glyph unicode="&#xab;" d="M117 430v66l334 356h81l-227 -389l227 -389h-81zM526 430v66l334 356h82l-227 -389l227 -389h-82z" />
<glyph unicode="&#xac;" horiz-adv-x="1153" d="M102 629v102h953v-528h-103v426h-850z" />
<glyph unicode="&#xad;" horiz-adv-x="681" d="M76 406v153h532v-153h-532z" />
<glyph unicode="&#xae;" horiz-adv-x="1554" d="M88 670q0 95 25 184q25 92 69.5 166t106.5 139q55 57 139 109q74 45 166 69q89 25 184 25t185 -25q92 -25 165 -69q76 -47 139.5 -108.5t108.5 -139.5q45 -74 70 -166q25 -89 24 -184q0 -95 -24 -185q-25 -88 -70 -163q-51 -84 -108 -140q-72 -68 -140 -108 q-74 -45 -165 -70q-89 -25 -185 -24q-144 0 -270 55q-127 55 -219 147t-148 219q-53 122 -53 269zM158 670q0 -129 49 -242q45 -106 133 -197q80 -82 197 -133q115 -49 241.5 -49t241.5 49t199 133t133 197t49 242q0 82 -23 166q-20 74 -63 147q-39 68 -96 127 q-53 57 -127 98t-148 62q-84 23 -166 22q-127 0 -241 -49q-113 -49 -197 -133t-133 -197q-49 -114 -49 -243zM428 1040v41h330q82 0 143 -16q66 -16 98 -45q37 -31 56 -70q18 -41 18 -90q0 -80 -45 -133q-47 -57 -133 -84l213 -307l84 -17v-43h-205l-229 349h-90v-289 l114 -17v-43h-346v43l96 17v688zM668 688h67q51 0 92 10q43 10 62 29q25 25 33 53q10 37 10 78q0 49 -12 80q-12 33 -35 49q-25 18 -62 25q-49 8 -92 8h-63v-332z" />
<glyph unicode="&#xaf;" d="M-16 1452v94h1058v-94h-1058z" />
<glyph unicode="&#xb0;" horiz-adv-x="817" d="M98 1051q0 63 25 120q25 59 65 101q39 39 99 65q55 25 121 25q63 0 120 -25q59 -25 100.5 -65.5t65.5 -100.5q25 -57 25 -120q0 -66 -25 -121q-27 -59 -65 -99q-41 -41 -101 -65q-57 -25 -120 -25q-66 0 -121 25q-59 27 -98 65.5t-66 98.5q-25 55 -25 121zM201 1051 q0 -47 14 -82t45 -66t66 -45q39 -16 82 -16q41 0 84 16q33 12 65 45q27 27 43 66t16 82q0 39 -16 82q-15 40 -43 67q-33 33 -65 45q-43 16 -84 17q-43 0 -82 -17q-35 -14 -66 -45t-45 -67.5t-14 -81.5z" />
<glyph unicode="&#xb1;" horiz-adv-x="1122" d="M86 0v102h952v-102h-952zM86 629v102h424v426h102v-426h426v-102h-426v-426h-102v426h-424z" />
<glyph unicode="&#xb2;" horiz-adv-x="612" d="M68 535v96l110 100q33 29 86 82q39 39 66 72q16 18 43 73q16 33 26 80q8 39 9 101q0 76 -33 108q-35 35 -99 35q-33 0 -63 -10q-29 -10 -51 -23l-21 -98h-55v172l92 18q41 8 98 9q133 0 205 -56q70 -55 70 -155q0 -76 -24.5 -131.5t-71.5 -108.5t-115 -115l-160 -141h387 v-108h-499z" />
<glyph unicode="&#xb3;" horiz-adv-x="612" d="M43 735h55l27 -112q25 -14 57 -23q41 -10 74 -10q61 0 90 10q35 12 53 35q20 25 27 53q6 31 6 72q0 47 -12 78q-12 29 -33 47q-23 18 -51 24q-23 4 -66 9l-86 6v65l86 4q70 4 97 37q29 35 28 113q0 29 -8 65q-6 27 -22 43q-18 18 -43 25q-27 6 -66 6q-35 0 -61 -8 q-33 -10 -52 -21l-20 -102h-55v172l84 18q39 8 104 9q63 0 115 -13q53 -12 90 -37q35 -23 57 -61q20 -35 21 -88q0 -74 -49.5 -127t-139.5 -68q106 -12 168 -63q57 -49 57 -139q0 -53 -22 -99q-18 -39 -65.5 -71.5t-98.5 -46.5q-55 -14 -125 -15q-66 0 -114 8 q-84 14 -101 19z" />
<glyph unicode="&#xb4;" horiz-adv-x="681" d="M156 1118v33l196 272h213v-37l-354 -268h-55z" />
<glyph unicode="&#xb5;" horiz-adv-x="1179" d="M66 895v45h307v-651q0 -47 14 -82q14 -37 41 -60q31 -27 66 -38q37 -12 86 -13q35 0 61 8q49 14 64 21q33 14 57 27q28 15 49 30v688l-141 25v45h307v-870l135 -25v-45h-276l-21 121q-6 -6 -19.5 -18.5l-29.5 -26.5q-18 -16 -64 -45q-34 -22 -73 -37q-37 -14 -82 -14 q-61 0 -111 22q-41 18 -69 55q0 -147 -9 -262q-10 -135 -26 -231h-178v45q8 27 16 61q2 10 16 105q6 45 15 135q6 74 6 160v800z" />
<glyph unicode="&#xb6;" horiz-adv-x="927" d="M8 963q0 92 27 159q27 70 82 119t137 74q90 27 188 26h463v-53l-94 -22v-1524h-94v1524h-170v-1524h-94l2 823q-88 0 -172 23q-82 23 -144 71q-57 45 -96 125q-35 70 -35 179z" />
<glyph unicode="&#xb7;" horiz-adv-x="512" d="M135 677.5q0 22.5 10.5 47.5t24.5 39t38.5 24.5t47.5 10.5t47.5 -10.5t38.5 -24.5t24.5 -39t10.5 -47.5t-10.5 -47t-24.5 -38.5t-38.5 -24.5t-47.5 -10.5t-47.5 10.5t-38.5 24.5t-24.5 38.5t-10.5 47z" />
<glyph unicode="&#x2219;" horiz-adv-x="512" d="M135 677.5q0 22.5 10.5 47.5t24.5 39t38.5 24.5t47.5 10.5t47.5 -10.5t38.5 -24.5t24.5 -39t10.5 -47.5t-10.5 -47t-24.5 -38.5t-38.5 -24.5t-47.5 -10.5t-47.5 10.5t-38.5 24.5t-24.5 38.5t-10.5 47z" />
<glyph unicode="&#xb8;" horiz-adv-x="681" d="M143 -340q12 -4 23 -6q6 -2 16.5 -2t14.5 -2q20 -4 34 -4q6 0 16.5 -1t14.5 -1q61 0 88 30q27 29 27 74q0 33 -14.5 53.5t-38.5 34.5q-29 16 -47.5 20.5t-51.5 8.5l41 153h86l-18 -81q90 -8 143 -54q51 -43 51 -116q0 -47 -18 -84t-51 -64q-31 -25 -78 -41 q-43 -14 -100 -14q-33 0 -70 6q-45 8 -68 16v74z" />
<glyph unicode="&#xb9;" horiz-adv-x="612" d="M66 535v49l165 14v625l-161 -58v47l233 134h72v-748l166 -14v-49h-475z" />
<glyph unicode="&#xba;" horiz-adv-x="634" d="M37 1069q0 145 73.5 219t208.5 74q61 0 115 -19q51 -18 88 -55q33 -33 56 -92q20 -53 20 -127q0 -144 -74 -221q-74 -78 -211 -78q-63 0 -114 18q-47 16 -88 58q-37 35 -56 94q-18 55 -18 129zM166 1069q0 -58 6 -104q6 -43 25 -74q20 -33 45 -47q27 -14 71.5 -14.5 t73.5 14.5q31 14 49 47q18 31 25 74q8 61 8 104q0 45 -8 102q-6 43 -25 74q-18 29 -49 45q-29 14 -74 14.5t-71.5 -14t-45 -45.5t-24.5 -74t-6 -102z" />
<glyph unicode="&#xbb;" d="M82 74l227 389l-227 389h82l334 -356v-66l-334 -356h-82zM492 74l227 389l-227 389h81l334 -356v-66l-334 -356h-81z" />
<glyph unicode="&#xbc;" horiz-adv-x="1536" d="M234 0l964 1341h100l-962 -1341h-102zM66 535v49l165 14v625l-161 -58v47l233 134h72v-748l166 -14v-49h-475zM795 159v97l391 550h107v-544h100v-103h-100v-159h-137v159h-361zM877 262h279v389h-3z" />
<glyph unicode="&#xbd;" horiz-adv-x="1536" d="M234 0l964 1341h100l-962 -1341h-102zM66 535v49l165 14v625l-161 -58v47l233 134h72v-748l166 -14v-49h-475zM959 0v96l110 100q33 29 86 82q39 39 66 72q16 18 43 73q16 33 26 80q8 39 9 101q0 76 -33 108q-35 35 -99 35q-33 0 -63 -10q-29 -10 -51 -23l-21 -98h-55 v172l92 18q41 8 98 9q133 0 205 -56q70 -55 70 -155q0 -76 -24.5 -131.5t-71.5 -108.5t-115 -115l-160 -141h387v-108h-499z" />
<glyph unicode="&#xbe;" horiz-adv-x="1536" d="M234 0l964 1341h100l-962 -1341h-102zM74 735h55l27 -112q25 -14 57 -23q41 -10 74 -10q61 0 90 10q35 12 53 35q20 25 27 53q6 31 6 72q0 47 -12 78q-12 29 -33 47q-23 18 -51 24q-23 4 -66 9l-86 6v65l86 4q70 4 97 37q29 35 28 113q0 29 -8 65q-6 27 -22 43 q-18 18 -43 25q-27 6 -66 6q-35 0 -61 -8q-33 -10 -52 -21l-20 -102h-55v172l84 18q39 8 104 9q63 0 115 -13q53 -12 90 -37q35 -23 57 -61q20 -35 21 -88q0 -74 -49.5 -127t-139.5 -68q106 -12 168 -63q57 -49 57 -139q0 -53 -22 -99q-18 -39 -65.5 -71.5t-98.5 -46.5 q-55 -14 -125 -15q-66 0 -114 8q-84 14 -101 19zM766 159v97l391 550h107v-544h100v-103h-100v-159h-137v159h-361zM848 262h279v389h-3z" />
<glyph unicode="&#xbf;" horiz-adv-x="907" d="M84 -84q0 63 16 133q14 59 54 115q39 53 98 90q61 37 147 55l58 13l12 260h80l26 -334l-143 -29q-35 -6 -65 -24q-33 -20 -53.5 -51t-32.5 -87q-12 -52 -13 -129q0 -72 13 -125q12 -49 40.5 -81.5t73.5 -47.5q43 -14 113 -14q66 0 110 14q57 18 84 35l35 164h66v-254 q-45 -14 -139 -31q-70 -12 -156 -12q-209 0 -318 86q-106 86 -106 254zM379 839.5q0 22.5 10 47t25 39.5q16 16 39 26q18 8 46.5 8.5t47.5 -8.5q23 -10 39 -26.5t26 -38.5q8 -18 8.5 -47t-8.5 -47q-10 -23 -26 -39q-14 -14 -39 -24.5t-47.5 -10.5t-47 10t-39 24.5t-24.5 39 t-10 47z" />
<glyph unicode="&#xc0;" horiz-adv-x="1478" d="M20 0v53l152 27l457 1272h190l475 -1272l170 -27v-53h-567v53l180 27l-133 387h-528l-135 -387l180 -27v-53h-441zM446 557h467l-237 651zM443 1720v37h213l196 -272v-33h-55z" />
<glyph unicode="&#xc1;" horiz-adv-x="1478" d="M20 0v53l152 27l457 1272h190l475 -1272l170 -27v-53h-567v53l180 27l-133 387h-528l-135 -387l180 -27v-53h-441zM446 557h467l-237 651zM611 1452v33l196 272h213v-37l-354 -268h-55z" />
<glyph unicode="&#xc2;" horiz-adv-x="1478" d="M20 0v53l152 27l457 1272h190l475 -1272l170 -27v-53h-567v53l180 27l-133 387h-528l-135 -387l180 -27v-53h-441zM446 557h467l-237 651zM395 1452v33l218 274h213l217 -274v-33h-56l-268 185l-268 -185h-56z" />
<glyph unicode="&#xc3;" horiz-adv-x="1478" d="M20 0v53l152 27l457 1272h190l475 -1272l170 -27v-53h-567v53l180 27l-133 387h-528l-135 -387l180 -27v-53h-441zM446 557h467l-237 651zM393 1473q4 47 13 90q8 39 32 78q18 29 60 53q35 20 90 20q47 0 88 -22q53 -29 78 -47q43 -33 70 -49q33 -20 65 -21q27 0 47 10 q18 10 29 29q14 27 16 37q4 14 8 43h52q-4 -47 -13 -90q-8 -35 -35 -78q-20 -31 -57 -53q-35 -20 -90 -21q-49 0 -88 21q-43 23 -78 49q-25 18 -69 47q-35 23 -66 22q-29 0 -49 -10q-18 -10 -29 -28q-12 -25 -14 -39q0 -8 -4 -20.5t-4 -20.5h-52z" />
<glyph unicode="&#xc4;" horiz-adv-x="1478" d="M20 0v53l152 27l457 1272h190l475 -1272l170 -27v-53h-567v53l180 27l-133 387h-528l-135 -387l180 -27v-53h-441zM446 557h467l-237 651zM448 1559q0 23 9 39q12 25 20 31q20 16 33 22q16 8 39 8q41 0 69.5 -28.5t28.5 -71.5q0 -39 -29 -72q-27 -29 -69 -28q-23 0 -39 8 q-25 12 -33 20t-20 33q-9 16 -9 39zM805 1559q0 43 28.5 71.5t71.5 28.5q41 0 69.5 -28.5t28.5 -71.5q0 -39 -28 -72q-27 -29 -70 -28q-23 0 -39 8q-27 14 -32 20q-10 14 -21 33q-8 16 -8 39z" />
<glyph unicode="&#xc5;" horiz-adv-x="1478" d="M20 0v53l152 27l457 1272h190l475 -1272l170 -27v-53h-567v53l180 27l-133 387h-528l-135 -387l180 -27v-53h-441zM446 557h467l-237 651zM520 1477q0 41 17 80q14 35 42.5 63.5t63.5 42.5q39 16 80 16.5t80 -16.5q35 -14 63.5 -42.5t42.5 -63.5q16 -39 16.5 -80 t-16.5 -80q-14 -35 -42.5 -63.5t-63.5 -42.5q-39 -16 -80 -16.5t-80 16.5q-35 14 -63.5 42.5t-42.5 63.5q-17 39 -17 80zM600 1477q0 -23 10 -47q10 -27 27 -39q25 -20 39 -27q25 -10 47 -10t47 10q14 6 39 27q16 12 27 39q10 25 10 47.5t-10 46.5q-10 20 -26.5 38.5 t-39.5 27.5q-25 10 -47.5 10t-46.5 -10q-23 -8 -39 -26.5t-27 -39.5q-10 -24 -10 -47z" />
<glyph unicode="&#xc6;" horiz-adv-x="1820" d="M20 0v53l136 27l647 1190l-164 18v53h995v-321h-65l-33 217q-29 2 -78 6q-10 0 -28.5 2t-34 3t-29.5 1q-16 0 -45 1t-43 1h-66h-137v-524h281l30 160h64v-412h-64l-30 162h-281v-547h182q20 0 59.5 1t57.5 1q70 0 99 2l75 6q33 4 47 6l58 248h65l-18 -354h-969v53l152 27 v387h-412l-207 -387l158 -27v-53h-402zM520 557h363v674z" />
<glyph unicode="&#xc7;" horiz-adv-x="1363" d="M84 655q0 176 47 312q47 133 135 219q90 86 217 129q123 41 295 41q47 0 129 -4q10 0 117 -13q47 -6 106 -16l97 -18l6 -293h-66l-30 174q-72 43 -162 67q-84 23 -189 23q-111 0 -208 -33q-88 -29 -154 -104.5t-98 -190.5q-33 -117 -33 -291q0 -154 33 -264 q33 -113 96 -188q61 -74 151 -111q89 -37 203 -37q70 0 119 9q84 14 104 20q53 16 88 33q41 18 64 39l37 200h65l-6 -315q-18 -6 -96 -23q-45 -10 -115 -20q-45 -6 -129 -14q-68 -6 -133 -6q-162 0 -293 47q-125 45 -217 133q-90 86 -135 211q-45 122 -45 284zM571 -340 q12 -4 23 -6q6 -2 16.5 -2t14.5 -2q20 -4 34 -4q6 0 16.5 -1t14.5 -1q61 0 88 30q27 29 27 74q0 33 -14.5 53.5t-38.5 34.5q-29 16 -47.5 20.5t-51.5 8.5l41 153h86l-18 -81q90 -8 143 -54q51 -43 51 -116q0 -47 -18 -84t-51 -64q-31 -25 -78 -41q-43 -14 -100 -14 q-33 0 -70 6q-45 8 -68 16v74z" />
<glyph unicode="&#xc8;" horiz-adv-x="1249" d="M59 0v53l172 27v1182l-172 26v53h1006v-321h-66l-32 217q-29 2 -78 6q-10 0 -28.5 2t-34 3t-29.5 1q-16 0 -45 1t-43 1h-66h-219v-524h362l31 160h64v-412h-64l-31 162h-362v-547h264q20 0 59 1t58 1q70 0 98 2l76 6q33 4 47 6l57 248h66l-19 -354h-1071zM404 1720v37 h213l196 -272v-33h-55z" />
<glyph unicode="&#xc9;" horiz-adv-x="1249" d="M59 0v53l172 27v1182l-172 26v53h1006v-321h-66l-32 217q-29 2 -78 6q-10 0 -28.5 2t-34 3t-29.5 1q-16 0 -45 1t-43 1h-66h-219v-524h362l31 160h64v-412h-64l-31 162h-362v-547h264q20 0 59 1t58 1q70 0 98 2l76 6q33 4 47 6l57 248h66l-19 -354h-1071zM469 1452v33 l196 272h213v-37l-354 -268h-55z" />
<glyph unicode="&#xca;" horiz-adv-x="1249" d="M59 0v53l172 27v1182l-172 26v53h1006v-321h-66l-32 217q-29 2 -78 6q-10 0 -28.5 2t-34 3t-29.5 1q-16 0 -45 1t-43 1h-66h-219v-524h362l31 160h64v-412h-64l-31 162h-362v-547h264q20 0 59 1t58 1q70 0 98 2l76 6q33 4 47 6l57 248h66l-19 -354h-1071zM303 1452v33 l218 274h213l217 -274v-33h-56l-268 185l-268 -185h-56z" />
<glyph unicode="&#xcb;" horiz-adv-x="1249" d="M59 0v53l172 27v1182l-172 26v53h1006v-321h-66l-32 217q-29 2 -78 6q-10 0 -28.5 2t-34 3t-29.5 1q-16 0 -45 1t-43 1h-66h-219v-524h362l31 160h64v-412h-64l-31 162h-362v-547h264q20 0 59 1t58 1q70 0 98 2l76 6q33 4 47 6l57 248h66l-19 -354h-1071zM358 1559 q0 23 9 39q12 25 20 31q20 16 33 22q16 8 39 8q41 0 69.5 -28.5t28.5 -71.5q0 -39 -29 -72q-27 -29 -69 -28q-23 0 -39 8q-25 12 -33 20t-20 33q-9 16 -9 39zM715 1559q0 43 28.5 71.5t71.5 28.5q41 0 69.5 -28.5t28.5 -71.5q0 -39 -28 -72q-27 -29 -70 -28q-23 0 -39 8 q-27 14 -32 20q-10 14 -21 33q-8 16 -8 39z" />
<glyph unicode="&#xcc;" horiz-adv-x="681" d="M74 0v53l172 27v1182l-172 26v53h536v-53l-172 -26v-1182l172 -27v-53h-536zM53 1720v37h213l196 -272v-33h-55z" />
<glyph unicode="&#xcd;" horiz-adv-x="681" d="M74 0v53l172 27v1182l-172 26v53h536v-53l-172 -26v-1182l172 -27v-53h-536zM209 1452v33l196 272h213v-37l-354 -268h-55z" />
<glyph unicode="&#xce;" horiz-adv-x="681" d="M74 0v53l172 27v1182l-172 26v53h536v-53l-172 -26v-1182l172 -27v-53h-536zM18 1452v33l218 274h213l217 -274v-33h-56l-268 185l-268 -185h-56z" />
<glyph unicode="&#xcf;" horiz-adv-x="681" d="M74 0v53l172 27v1182l-172 26v53h536v-53l-172 -26v-1182l172 -27v-53h-536zM63 1559q0 23 9 39q12 25 20 31q20 16 33 22q16 8 39 8q41 0 69.5 -28.5t28.5 -71.5q0 -39 -29 -72q-27 -29 -69 -28q-23 0 -39 8q-25 12 -33 20t-20 33q-9 16 -9 39zM420 1559q0 43 28.5 71.5 t71.5 28.5q41 0 69.5 -28.5t28.5 -71.5q0 -39 -28 -72q-27 -29 -70 -28q-23 0 -39 8q-27 14 -32 20q-10 14 -21 33q-8 16 -8 39z" />
<glyph unicode="&#xd0;" horiz-adv-x="1478" d="M53 629v82h178v551l-172 26v53h572q158 0 303 -34q131 -31 242 -113q102 -74 161 -205q59 -129 60 -311q0 -166 -37 -291t-121 -215q-80 -86 -205 -131q-123 -45 -301 -45h-129q-23 0 -70 1t-69 1q-25 0 -69 1t-64 1h-101h-172v53l172 27v549h-178zM424 94q41 -4 65 -4 q10 0 35 -1t37 -1t37 -1t37 -1h74q127 0 217 37q94 39 149 108q59 76 86 181q27 106 27 258q0 164 -41 268q-41 109 -121 180q-74 68 -190 101q-119 33 -250 32h-162v-540h377v-82h-377v-535z" />
<glyph unicode="&#xd1;" horiz-adv-x="1478" d="M59 0v53l172 27v1182l-172 26v53h406l690 -993v914l-180 26v53h457v-53l-172 -26v-1262h-97l-827 1206v-1126l180 -27v-53h-457zM426 1473q4 47 13 90q8 39 32 78q18 29 60 53q35 20 90 20q47 0 88 -22q53 -29 78 -47q43 -33 70 -49q33 -20 65 -21q27 0 47 10 q18 10 29 29q14 27 16 37q4 14 8 43h52q-4 -47 -13 -90q-8 -35 -35 -78q-20 -31 -57 -53q-35 -20 -90 -21q-49 0 -88 21q-43 23 -78 49q-25 18 -69 47q-35 23 -66 22q-29 0 -49 -10q-18 -10 -29 -28q-12 -25 -14 -39q0 -8 -4 -20.5t-4 -20.5h-52z" />
<glyph unicode="&#xd2;" horiz-adv-x="1478" d="M84 672q0 178 43 307t127 213q86 86 205 125t280 39q156 0 275 -39q117 -39 207 -125q80 -78 129 -213q45 -127 45 -307q0 -182 -45 -310q-47 -133 -129 -215q-84 -84 -207 -127q-117 -41 -275 -40q-160 0 -274 40q-125 45 -207 127t-129 215q-45 128 -45 310zM293 672 q0 -143 20 -252q23 -119 72 -195q53 -80 137 -123q86 -43 217 -43q129 0 215 43q84 43 138 123q51 80 73 195q20 109 21 252q0 147 -21 252q-22 111 -73 190q-51 78 -138 121q-82 41 -215 41q-135 0 -217 -41q-86 -43 -137 -121q-49 -76 -72 -190q-20 -105 -20 -252z M486 1720v37h213l196 -272v-33h-55z" />
<glyph unicode="&#xd3;" horiz-adv-x="1478" d="M84 672q0 178 43 307t127 213q86 86 205 125t280 39q156 0 275 -39q117 -39 207 -125q80 -78 129 -213q45 -127 45 -307q0 -182 -45 -310q-47 -133 -129 -215q-84 -84 -207 -127q-117 -41 -275 -40q-160 0 -274 40q-125 45 -207 127t-129 215q-45 128 -45 310zM293 672 q0 -143 20 -252q23 -119 72 -195q53 -80 137 -123q86 -43 217 -43q129 0 215 43q84 43 138 123q51 80 73 195q20 109 21 252q0 147 -21 252q-22 111 -73 190q-51 78 -138 121q-82 41 -215 41q-135 0 -217 -41q-86 -43 -137 -121q-49 -76 -72 -190q-20 -105 -20 -252z M627 1452v33l196 272h213v-37l-354 -268h-55z" />
<glyph unicode="&#xd4;" horiz-adv-x="1478" d="M84 672q0 178 43 307t127 213q86 86 205 125t280 39q156 0 275 -39q117 -39 207 -125q80 -78 129 -213q45 -127 45 -307q0 -182 -45 -310q-47 -133 -129 -215q-84 -84 -207 -127q-117 -41 -275 -40q-160 0 -274 40q-125 45 -207 127t-129 215q-45 128 -45 310zM293 672 q0 -143 20 -252q23 -119 72 -195q53 -80 137 -123q86 -43 217 -43q129 0 215 43q84 43 138 123q51 80 73 195q20 109 21 252q0 147 -21 252q-22 111 -73 190q-51 78 -138 121q-82 41 -215 41q-135 0 -217 -41q-86 -43 -137 -121q-49 -76 -72 -190q-20 -105 -20 -252z M417 1452v33l218 274h213l217 -274v-33h-56l-268 185l-268 -185h-56z" />
<glyph unicode="&#xd5;" horiz-adv-x="1478" d="M84 672q0 178 43 307t127 213q86 86 205 125t280 39q156 0 275 -39q117 -39 207 -125q80 -78 129 -213q45 -127 45 -307q0 -182 -45 -310q-47 -133 -129 -215q-84 -84 -207 -127q-117 -41 -275 -40q-160 0 -274 40q-125 45 -207 127t-129 215q-45 128 -45 310zM293 672 q0 -143 20 -252q23 -119 72 -195q53 -80 137 -123q86 -43 217 -43q129 0 215 43q84 43 138 123q51 80 73 195q20 109 21 252q0 147 -21 252q-22 111 -73 190q-51 78 -138 121q-82 41 -215 41q-135 0 -217 -41q-86 -43 -137 -121q-49 -76 -72 -190q-20 -105 -20 -252z M413 1473q4 47 13 90q8 39 32 78q18 29 60 53q35 20 90 20q47 0 88 -22q53 -29 78 -47q43 -33 70 -49q33 -20 65 -21q27 0 47 10q18 10 29 29q14 27 16 37q4 14 8 43h52q-4 -47 -13 -90q-8 -35 -35 -78q-20 -31 -57 -53q-35 -20 -90 -21q-49 0 -88 21q-43 23 -78 49 q-25 18 -69 47q-35 23 -66 22q-29 0 -49 -10q-18 -10 -29 -28q-12 -25 -14 -39q0 -8 -4 -20.5t-4 -20.5h-52z" />
<glyph unicode="&#xd6;" horiz-adv-x="1478" d="M84 672q0 178 43 307t127 213q86 86 205 125t280 39q156 0 275 -39q117 -39 207 -125q80 -78 129 -213q45 -127 45 -307q0 -182 -45 -310q-47 -133 -129 -215q-84 -84 -207 -127q-117 -41 -275 -40q-160 0 -274 40q-125 45 -207 127t-129 215q-45 128 -45 310zM293 672 q0 -143 20 -252q23 -119 72 -195q53 -80 137 -123q86 -43 217 -43q129 0 215 43q84 43 138 123q51 80 73 195q20 109 21 252q0 147 -21 252q-22 111 -73 190q-51 78 -138 121q-82 41 -215 41q-135 0 -217 -41q-86 -43 -137 -121q-49 -76 -72 -190q-20 -105 -20 -252z M458 1559q0 23 9 39q12 25 20 31q20 16 33 22q16 8 39 8q41 0 69.5 -28.5t28.5 -71.5q0 -39 -29 -72q-27 -29 -69 -28q-23 0 -39 8q-25 12 -33 20t-20 33q-9 16 -9 39zM815 1559q0 43 28.5 71.5t71.5 28.5q41 0 69.5 -28.5t28.5 -71.5q0 -39 -28 -72q-27 -29 -70 -28 q-23 0 -39 8q-27 14 -32 20q-10 14 -21 33q-8 16 -8 39z" />
<glyph unicode="&#xd7;" horiz-adv-x="1153" d="M162 336l344 346l-344 342l74 74l342 -344l346 344l71 -72l-344 -344l344 -346l-71 -72l-346 344l-345 -344z" />
<glyph unicode="&#xd8;" horiz-adv-x="1478" d="M84 672q0 178 43 307t127 213q86 86 205 125t280 39q123 0 232 -29q113 -29 186 -84l123 148h115l-170 -205q84 -90 125 -211q45 -131 45 -303q0 -182 -45 -310q-47 -133 -129 -215q-84 -84 -207 -127q-117 -41 -275 -40q-129 0 -229 26q-109 29 -184 84l-121 -145h-119 l170 205q-88 90 -129 215q-43 129 -43 307zM293 672q0 -129 14.5 -221.5t50.5 -176.5l715 865q-55 68 -133 102.5t-201 34.5q-135 0 -217 -41q-86 -43 -137 -121q-49 -76 -72 -190q-20 -105 -20 -252zM410 193q53 -68 133 -101q78 -33 196 -33q129 0 215 43q84 43 138 123 q51 80 73 195q20 109 21 252q0 123 -15 215q-14 94 -49 172z" />
<glyph unicode="&#xd9;" horiz-adv-x="1478" d="M43 1288v53h537v-53l-172 -26v-805q0 -82 18 -150q16 -61 63 -114q43 -51 109 -74q74 -27 164 -27q100 0 180 27q72 25 123 71q49 47 72 115q23 72 22 148v809l-180 26v53h457v-53l-172 -26v-801q0 -88 -23 -178q-20 -82 -82 -154q-61 -70 -158 -109q-104 -41 -253 -40 q-266 0 -399.5 120.5t-133.5 341.5v820zM490 1720v37h213l196 -272v-33h-55z" />
<glyph unicode="&#xda;" horiz-adv-x="1478" d="M43 1288v53h537v-53l-172 -26v-805q0 -82 18 -150q16 -61 63 -114q43 -51 109 -74q74 -27 164 -27q100 0 180 27q72 25 123 71q49 47 72 115q23 72 22 148v809l-180 26v53h457v-53l-172 -26v-801q0 -88 -23 -178q-20 -82 -82 -154q-61 -70 -158 -109q-104 -41 -253 -40 q-266 0 -399.5 120.5t-133.5 341.5v820zM652 1452v33l196 272h213v-37l-354 -268h-55z" />
<glyph unicode="&#xdb;" horiz-adv-x="1478" d="M43 1288v53h537v-53l-172 -26v-805q0 -82 18 -150q16 -61 63 -114q43 -51 109 -74q74 -27 164 -27q100 0 180 27q72 25 123 71q49 47 72 115q23 72 22 148v809l-180 26v53h457v-53l-172 -26v-801q0 -88 -23 -178q-20 -82 -82 -154q-61 -70 -158 -109q-104 -41 -253 -40 q-266 0 -399.5 120.5t-133.5 341.5v820zM444 1452v33l218 274h213l217 -274v-33h-56l-268 185l-268 -185h-56z" />
<glyph unicode="&#xdc;" horiz-adv-x="1478" d="M43 1288v53h537v-53l-172 -26v-805q0 -82 18 -150q16 -61 63 -114q43 -51 109 -74q74 -27 164 -27q100 0 180 27q72 25 123 71q49 47 72 115q23 72 22 148v809l-180 26v53h457v-53l-172 -26v-801q0 -88 -23 -178q-20 -82 -82 -154q-61 -70 -158 -109q-104 -41 -253 -40 q-266 0 -399.5 120.5t-133.5 341.5v820zM462 1559q0 23 9 39q12 25 20 31q20 16 33 22q16 8 39 8q41 0 69.5 -28.5t28.5 -71.5q0 -39 -29 -72q-27 -29 -69 -28q-23 0 -39 8q-25 12 -33 20t-20 33q-9 16 -9 39zM819 1559q0 43 28.5 71.5t71.5 28.5q41 0 69.5 -28.5 t28.5 -71.5q0 -39 -28 -72q-27 -29 -70 -28q-23 0 -39 8q-27 14 -32 20q-10 14 -21 33q-8 16 -8 39z" />
<glyph unicode="&#xdd;" horiz-adv-x="1478" d="M23 1288v53h567v-53l-180 -26l385 -619l366 619l-170 26v53h436v-53l-147 -26l-442 -734v-448l213 -27v-53h-619v53l213 27v442l-471 740zM641 1452v33l196 272h213v-37l-354 -268h-55z" />
<glyph unicode="&#xde;" horiz-adv-x="1138" d="M72 0v53l159 27v1182l-159 26v53h524v-53l-172 -26v-179h141q139 0 236 -30q90 -29 151 -84q53 -47 80 -125q25 -70 25 -156q0 -88 -23 -158q-25 -77 -80 -135t-147 -92q-94 -35 -232 -35h-151v-188l172 -27v-53h-524zM424 346h104q94 0 158 25q59 23 102 69 q37 39 54 107q16 66 16 139q0 78 -18 139q-18 63 -55 100.5t-105 59.5q-61 20 -158 21h-98v-660z" />
<glyph unicode="&#xdf;" d="M20 0v45l140 25v991q0 106 26 178q27 74 76 119q41 39 115 63q61 20 143 20.5t154 -22.5q63 -20 112 -76q47 -53 68 -137q23 -90 23 -209l-93 -12q-51 -6 -86 -24q-39 -18 -61 -52q-25 -33 -25 -90q0 -63 25 -106q20 -37 63 -76q35 -33 82 -65.5t82 -71.5q39 -43 64 -101 q25 -59 24 -143q0 -68 -16 -115t-55 -86t-93 -55q-66 -20 -137 -20q-20 0 -65 4q-27 2 -66 10q-37 6 -57 14q-35 12 -45 19v192h45l33 -94q23 -29 63 -47q39 -18 90 -19q70 0 111 41q39 39 39 125q0 70 -25 115q-25 46 -61 80q-35 33 -82 65q-45 33 -80 70q-43 47 -64 92 q-25 55 -24 137q0 55 20 107q20 49 52 78q37 35 79 51q41 16 99 27q0 98 -11 149q-12 61 -36.5 98t-59.5 52q-39 16 -86 16q-41 0 -77.5 -12.5t-61.5 -42.5q-27 -35 -41 -78q-14 -45 -14 -119v-1110h-306z" />
<glyph unicode="&#xe0;" horiz-adv-x="907" d="M72 260q0 63 14 107q16 47 43 77q29 31 64 50q37 18 79 30q47 14 90 17q61 4 95 4l141 4v147q0 41 -6 76q-6 29 -25 59q-12 20 -45 39q-27 14 -69 15q-47 0 -97 -13q-45 -12 -86 -34l-34 -117h-56v205q65 15 135 24q78 10 150 11q63 0 118.5 -12.5t96.5 -41.5 q39 -27 61.5 -78t22.5 -124v-635l117 -25v-45h-258l-19 94q-6 -6 -20.5 -17t-20.5 -18q-23 -18 -61 -39q-27 -14 -84 -28q-46 -12 -105 -12q-72 0 -114 20q-45 20 -74 59t-41 90.5t-12 110.5zM238 266q0 -176 143 -176q63 0 117 16q59 18 100 39v334l-131 -4 q-59 -4 -102 -12q-39 -8 -70 -33q-28 -22 -43 -61q-14 -37 -14 -103zM191 1386v37h213l196 -272v-33h-55z" />
<glyph unicode="&#xe1;" horiz-adv-x="907" d="M72 260q0 63 14 107q16 47 43 77q29 31 64 50q37 18 79 30q47 14 90 17q61 4 95 4l141 4v147q0 41 -6 76q-6 29 -25 59q-12 20 -45 39q-27 14 -69 15q-47 0 -97 -13q-45 -12 -86 -34l-34 -117h-56v205q65 15 135 24q78 10 150 11q63 0 118.5 -12.5t96.5 -41.5 q39 -27 61.5 -78t22.5 -124v-635l117 -25v-45h-258l-19 94q-6 -6 -20.5 -17t-20.5 -18q-23 -18 -61 -39q-27 -14 -84 -28q-46 -12 -105 -12q-72 0 -114 20q-45 20 -74 59t-41 90.5t-12 110.5zM238 266q0 -176 143 -176q63 0 117 16q59 18 100 39v334l-131 -4 q-59 -4 -102 -12q-39 -8 -70 -33q-28 -22 -43 -61q-14 -37 -14 -103zM342 1118v33l196 272h213v-37l-354 -268h-55z" />
<glyph unicode="&#xe2;" horiz-adv-x="907" d="M72 260q0 63 14 107q16 47 43 77q29 31 64 50q37 18 79 30q47 14 90 17q61 4 95 4l141 4v147q0 41 -6 76q-6 29 -25 59q-12 20 -45 39q-27 14 -69 15q-47 0 -97 -13q-45 -12 -86 -34l-34 -117h-56v205q65 15 135 24q78 10 150 11q63 0 118.5 -12.5t96.5 -41.5 q39 -27 61.5 -78t22.5 -124v-635l117 -25v-45h-258l-19 94q-6 -6 -20.5 -17t-20.5 -18q-23 -18 -61 -39q-27 -14 -84 -28q-46 -12 -105 -12q-72 0 -114 20q-45 20 -74 59t-41 90.5t-12 110.5zM238 266q0 -176 143 -176q63 0 117 16q59 18 100 39v334l-131 -4 q-59 -4 -102 -12q-39 -8 -70 -33q-28 -22 -43 -61q-14 -37 -14 -103zM143 1118v33l218 274h213l217 -274v-33h-56l-268 185l-268 -185h-56z" />
<glyph unicode="&#xe3;" horiz-adv-x="907" d="M72 260q0 63 14 107q16 47 43 77q29 31 64 50q37 18 79 30q47 14 90 17q61 4 95 4l141 4v147q0 41 -6 76q-6 29 -25 59q-12 20 -45 39q-27 14 -69 15q-47 0 -97 -13q-45 -12 -86 -34l-34 -117h-56v205q65 15 135 24q78 10 150 11q63 0 118.5 -12.5t96.5 -41.5 q39 -27 61.5 -78t22.5 -124v-635l117 -25v-45h-258l-19 94q-6 -6 -20.5 -17t-20.5 -18q-23 -18 -61 -39q-27 -14 -84 -28q-46 -12 -105 -12q-72 0 -114 20q-45 20 -74 59t-41 90.5t-12 110.5zM238 266q0 -176 143 -176q63 0 117 16q59 18 100 39v334l-131 -4 q-59 -4 -102 -12q-39 -8 -70 -33q-28 -22 -43 -61q-14 -37 -14 -103zM133 1139q4 47 13 90q8 39 32 78q18 29 60 53q35 20 90 20q47 0 88 -22q53 -29 78 -47q43 -33 70 -49q33 -20 65 -21q27 0 47 10q18 10 29 29q14 27 16 37q4 14 8 43h52q-4 -47 -13 -90q-8 -35 -35 -78 q-20 -31 -57 -53q-35 -20 -90 -21q-49 0 -88 21q-43 23 -78 49q-25 18 -69 47q-35 23 -66 22q-29 0 -49 -10q-18 -10 -29 -28q-12 -25 -14 -39q0 -8 -4 -20.5t-4 -20.5h-52z" />
<glyph unicode="&#xe4;" horiz-adv-x="907" d="M72 260q0 63 14 107q16 47 43 77q29 31 64 50q37 18 79 30q47 14 90 17q61 4 95 4l141 4v147q0 41 -6 76q-6 29 -25 59q-12 20 -45 39q-27 14 -69 15q-47 0 -97 -13q-45 -12 -86 -34l-34 -117h-56v205q65 15 135 24q78 10 150 11q63 0 118.5 -12.5t96.5 -41.5 q39 -27 61.5 -78t22.5 -124v-635l117 -25v-45h-258l-19 94q-6 -6 -20.5 -17t-20.5 -18q-23 -18 -61 -39q-27 -14 -84 -28q-46 -12 -105 -12q-72 0 -114 20q-45 20 -74 59t-41 90.5t-12 110.5zM238 266q0 -176 143 -176q63 0 117 16q59 18 100 39v334l-131 -4 q-59 -4 -102 -12q-39 -8 -70 -33q-28 -22 -43 -61q-14 -37 -14 -103zM178 1194q0 23 9 39q12 25 20 31q20 16 33 22q16 8 39 8q41 0 69.5 -28.5t28.5 -71.5q0 -39 -29 -72q-27 -29 -69 -28q-23 0 -39 8q-25 12 -33 20t-20 33q-9 16 -9 39zM535 1194q0 43 28.5 71.5 t71.5 28.5q41 0 69.5 -28.5t28.5 -71.5q0 -39 -28 -72q-27 -29 -70 -28q-23 0 -39 8q-27 14 -32 20q-10 14 -21 33q-8 16 -8 39z" />
<glyph unicode="&#xe5;" horiz-adv-x="907" d="M72 260q0 63 14 107q16 47 43 77q29 31 64 50q37 18 79 30q47 14 90 17q61 4 95 4l141 4v147q0 41 -6 76q-6 29 -25 59q-12 20 -45 39q-27 14 -69 15q-47 0 -97 -13q-45 -12 -86 -34l-34 -117h-56v205q65 15 135 24q78 10 150 11q63 0 118.5 -12.5t96.5 -41.5 q39 -27 61.5 -78t22.5 -124v-635l117 -25v-45h-258l-19 94q-6 -6 -20.5 -17t-20.5 -18q-23 -18 -61 -39q-27 -14 -84 -28q-46 -12 -105 -12q-72 0 -114 20q-45 20 -74 59t-41 90.5t-12 110.5zM238 266q0 -176 143 -176q63 0 117 16q59 18 100 39v334l-131 -4 q-59 -4 -102 -12q-39 -8 -70 -33q-28 -22 -43 -61q-14 -37 -14 -103zM268 1280q0 41 17 80q14 35 42.5 63.5t63.5 42.5q39 16 80 16.5t80 -16.5q35 -14 63.5 -42.5t42.5 -63.5q16 -39 16.5 -80t-16.5 -80q-14 -35 -42.5 -63.5t-63.5 -42.5q-39 -16 -80 -16.5t-80 16.5 q-35 14 -63.5 42.5t-42.5 63.5q-17 39 -17 80zM348 1280q0 -23 10 -47q10 -27 27 -39q25 -20 39 -27q25 -10 47 -10t47 10q14 6 39 27q16 12 27 39q10 25 10 47.5t-10 46.5q-10 20 -26.5 38.5t-39.5 27.5q-25 10 -47.5 10t-46.5 -10q-23 -8 -39 -26.5t-27 -39.5 q-10 -24 -10 -47z" />
<glyph unicode="&#xe6;" horiz-adv-x="1363" d="M72 260q0 63 14 107q16 47 43 77q29 31 64 50q37 18 79 30q47 14 90 17q61 4 95 4l141 4v147q0 41 -6 76q-6 29 -25 59q-12 20 -45 39q-27 14 -69 15q-47 0 -97 -13q-45 -12 -86 -34l-34 -117h-56v205q65 15 135 24q78 10 150 11q70 0 135 -17q63 -16 102 -57 q49 41 107 59q61 18 137 19q74 0 135 -21q66 -23 113 -65q47 -45 75.5 -127t28.5 -197v-82h-534v-90q0 -68 8 -117q8 -51 35 -94q25 -41 76 -66q45 -23 129 -22q41 0 63 2l66 6q23 2 63 10q8 2 28.5 5.5t29.5 5.5v-56q-23 -16 -53.5 -28.5t-67.5 -24.5t-80 -18t-88 -6 q-119 0 -197 32q-80 35 -125 97q-31 -29 -61 -48q-37 -23 -78 -41q-35 -14 -90 -28q-49 -12 -109 -12q-72 0 -114 20q-45 20 -74 59t-41 90.5t-12 110.5zM238 266q0 -176 143 -176q70 0 129 21q76 27 115 47q-8 16 -11 28q0 6 -3 19.5t-5 21.5q-4 29 -6 45.5t-2 46.5v160 l-131 -4q-59 -4 -102 -12q-39 -8 -70 -33q-28 -22 -43 -61q-14 -37 -14 -103zM764 553h360q0 70 -10 137.5t-29 104.5q-22 43 -55 67q-31 23 -84 23q-57 0 -92 -23q-33 -23 -55 -67q-20 -41 -27 -105q-8 -82 -8 -137z" />
<glyph unicode="&#xe7;" horiz-adv-x="907" d="M78 477q0 131 33 221q35 94 94 152q66 61 143 88q80 27 180 27q88 0 156 -9q66 -8 139 -22v-262h-55l-43 166q-39 23 -90 34q-53 12 -109 13q-70 0 -114 -23q-51 -25 -84 -74q-33 -47 -52 -126q-18 -77 -18 -185q0 -92 14.5 -161.5t53.5 -125.5q35 -49 102.5 -77.5 t163.5 -28.5q45 0 70 2q12 2 35.5 5t33.5 3q18 2 62 10q35 6 53 13v-60q-27 -20 -62 -34q-25 -10 -77 -23q-23 -6 -86 -14q-43 -6 -86 -6q-121 0 -209 34.5t-142 96.5q-55 63 -80 157q-26 100 -26 209zM321 -340q12 -4 23 -6q6 -2 16.5 -2t14.5 -2q20 -4 34 -4q6 0 16.5 -1 t14.5 -1q61 0 88 30q27 29 27 74q0 33 -14.5 53.5t-38.5 34.5q-29 16 -47.5 20.5t-51.5 8.5l41 153h86l-18 -81q90 -8 143 -54q51 -43 51 -116q0 -47 -18 -84t-51 -64q-31 -25 -78 -41q-43 -14 -100 -14q-33 0 -70 6q-45 8 -68 16v74z" />
<glyph unicode="&#xe8;" horiz-adv-x="907" d="M80 477q0 250 102 367q104 121 295 121q80 0 141 -21q66 -23 113 -65q49 -47 78 -127q29 -82 29 -197v-82h-578v-18q0 -63 10 -140q8 -59 43 -118q31 -51 88.5 -82t149.5 -31q41 0 63 2l66 6q23 2 63 10q8 2 29 5.5t29 5.5v-56q-25 -18 -56 -28l-71 -25q-41 -12 -82 -18 q-43 -6 -90 -6q-111 0 -197 32q-84 33 -131 94q-51 68 -72 156q-22 96 -22 215zM262 553h402q0 82 -9 137q-9 61 -30 105q-23 45 -58 67.5t-90 22.5q-59 0 -96 -23q-40 -25 -68 -67q-27 -41 -39 -105q-12 -61 -12 -137zM240 1386v37h213l196 -272v-33h-55z" />
<glyph unicode="&#xe9;" horiz-adv-x="907" d="M80 477q0 250 102 367q104 121 295 121q80 0 141 -21q66 -23 113 -65q49 -47 78 -127q29 -82 29 -197v-82h-578v-18q0 -63 10 -140q8 -59 43 -118q31 -51 88.5 -82t149.5 -31q41 0 63 2l66 6q23 2 63 10q8 2 29 5.5t29 5.5v-56q-25 -18 -56 -28l-71 -25q-41 -12 -82 -18 q-43 -6 -90 -6q-111 0 -197 32q-84 33 -131 94q-51 68 -72 156q-22 96 -22 215zM262 553h402q0 82 -9 137q-9 61 -30 105q-23 45 -58 67.5t-90 22.5q-59 0 -96 -23q-40 -25 -68 -67q-27 -41 -39 -105q-12 -61 -12 -137zM381 1118v33l196 272h213v-37l-354 -268h-55z" />
<glyph unicode="&#xea;" horiz-adv-x="907" d="M80 477q0 250 102 367q104 121 295 121q80 0 141 -21q66 -23 113 -65q49 -47 78 -127q29 -82 29 -197v-82h-578v-18q0 -63 10 -140q8 -59 43 -118q31 -51 88.5 -82t149.5 -31q41 0 63 2l66 6q23 2 63 10q8 2 29 5.5t29 5.5v-56q-25 -18 -56 -28l-71 -25q-41 -12 -82 -18 q-43 -6 -90 -6q-111 0 -197 32q-84 33 -131 94q-51 68 -72 156q-22 96 -22 215zM262 553h402q0 82 -9 137q-9 61 -30 105q-23 45 -58 67.5t-90 22.5q-59 0 -96 -23q-40 -25 -68 -67q-27 -41 -39 -105q-12 -61 -12 -137zM151 1118v33l218 274h213l217 -274v-33h-56l-268 185 l-268 -185h-56z" />
<glyph unicode="&#xeb;" horiz-adv-x="907" d="M80 477q0 250 102 367q104 121 295 121q80 0 141 -21q66 -23 113 -65q49 -47 78 -127q29 -82 29 -197v-82h-578v-18q0 -63 10 -140q8 -59 43 -118q31 -51 88.5 -82t149.5 -31q41 0 63 2l66 6q23 2 63 10q8 2 29 5.5t29 5.5v-56q-25 -18 -56 -28l-71 -25q-41 -12 -82 -18 q-43 -6 -90 -6q-111 0 -197 32q-84 33 -131 94q-51 68 -72 156q-22 96 -22 215zM262 553h402q0 82 -9 137q-9 61 -30 105q-23 45 -58 67.5t-90 22.5q-59 0 -96 -23q-40 -25 -68 -67q-27 -41 -39 -105q-12 -61 -12 -137zM188 1194q0 23 9 39q12 25 20 31q20 16 33 22 q16 8 39 8q41 0 69.5 -28.5t28.5 -71.5q0 -39 -29 -72q-27 -29 -69 -28q-23 0 -39 8q-25 12 -33 20t-20 33q-9 16 -9 39zM545 1194q0 43 28.5 71.5t71.5 28.5q41 0 69.5 -28.5t28.5 -71.5q0 -39 -28 -72q-27 -29 -70 -28q-23 0 -39 8q-27 14 -32 20q-10 14 -21 33 q-8 16 -8 39z" />
<glyph unicode="&#xec;" horiz-adv-x="567" d="M43 0v45l160 25v800l-133 25v45h299v-870l161 -25v-45h-487zM23 1386v37h213l196 -272v-33h-55z" />
<glyph unicode="&#xed;" horiz-adv-x="567" d="M43 0v45l160 25v800l-133 25v45h299v-870l161 -25v-45h-487zM138 1118v33l196 272h213v-37l-354 -268h-55z" />
<glyph unicode="&#xee;" horiz-adv-x="567" d="M43 0v45l160 25v800l-133 25v45h299v-870l161 -25v-45h-487zM-39 1118v33l218 274h213l217 -274v-33h-56l-268 185l-268 -185h-56z" />
<glyph unicode="&#xef;" horiz-adv-x="567" d="M43 0v45l160 25v800l-133 25v45h299v-870l161 -25v-45h-487zM-7 1194q0 23 9 39q12 25 20 31q20 16 33 22q16 8 39 8q41 0 69.5 -28.5t28.5 -71.5q0 -39 -29 -72q-27 -29 -69 -28q-23 0 -39 8q-25 12 -33 20t-20 33q-9 16 -9 39zM350 1194q0 43 28.5 71.5t71.5 28.5 q41 0 69.5 -28.5t28.5 -71.5q0 -39 -28 -72q-27 -29 -70 -28q-23 0 -39 8q-27 14 -32 20q-10 14 -21 33q-8 16 -8 39z" />
<glyph unicode="&#xf0;" d="M78 444q0 221 108.5 340t327.5 119q104 0 197 -35q-23 80 -66 156q-45 80 -121 154l-295 -172v96l228 131q-41 31 -101 61q-49 27 -118 49v78q98 -25 165 -53q78 -33 150 -80l266 156v-94l-194 -115q72 -57 131 -135q57 -76 100 -170q41 -92 63.5 -207t24.5 -244v-16 q0 -4 1 -10.5t1 -8.5q0 -225 -106 -344q-109 -121 -334 -120q-213 0 -320 118q-108 121 -108 346zM258 444q0 -102 10 -161q12 -76 39 -121q27 -47 78 -76q47 -27 121 -27q76 0 123 27q49 29 80 76q33 53 45 121q12 70 12 161q0 89 -12 160q-10 66 -45 119q-31 49 -80 74 q-53 27 -123 26q-68 0 -121 -26q-51 -25 -78 -74q-27 -47 -39 -119q-10 -60 -10 -160z" />
<glyph unicode="&#xf1;" d="M47 0v45l113 25v800l-113 25v45h268l9 -76q16 10 67 33q59 29 80 35q45 16 84 24.5t78 8.5q55 0 98 -14.5t78 -49.5q33 -33 51.5 -86t18.5 -127v-618l114 -25v-45h-405v45l125 25v600q0 84 -41 131t-125 47q-39 0 -60 -2q-10 -2 -30.5 -4t-30.5 -4q-33 -4 -55 -9l-45 -10 v-749l127 -25v-45h-406zM192 1139q4 47 13 90q8 39 32 78q18 29 60 53q35 20 90 20q47 0 88 -22q53 -29 78 -47q43 -33 70 -49q33 -20 65 -21q27 0 47 10q18 10 29 29q14 27 16 37q4 14 8 43h52q-4 -47 -13 -90q-8 -35 -35 -78q-20 -31 -57 -53q-35 -20 -90 -21 q-49 0 -88 21q-43 23 -78 49q-25 18 -69 47q-35 23 -66 22q-29 0 -49 -10q-18 -10 -29 -28q-12 -25 -14 -39q0 -8 -4 -20.5t-4 -20.5h-52z" />
<glyph unicode="&#xf2;" d="M78 475q0 238 108 365q106 125 328 125q215 0 324 -123q109 -125 108 -367q0 -240 -106 -366q-106 -129 -334 -129q-211 0 -319.5 126.5t-108.5 368.5zM258 475q0 -113 10 -176q12 -80 39 -129q29 -55 78 -82q51 -29 121 -29q72 0 123 29q47 27 80 82q33 57 45 129 q12 78 12 176t-12 174q-12 72 -45 129q-31 52 -80 80q-47 27 -123 27q-74 0 -121 -27q-51 -29 -78 -80q-27 -49 -39 -129q-10 -63 -10 -174zM248 1386v37h213l196 -272v-33h-55z" />
<glyph unicode="&#xf3;" d="M78 475q0 238 108 365q106 125 328 125q215 0 324 -123q109 -125 108 -367q0 -240 -106 -366q-106 -129 -334 -129q-211 0 -319.5 126.5t-108.5 368.5zM258 475q0 -113 10 -176q12 -80 39 -129q29 -55 78 -82q51 -29 121 -29q72 0 123 29q47 27 80 82q33 57 45 129 q12 78 12 176t-12 174q-12 72 -45 129q-31 52 -80 80q-47 27 -123 27q-74 0 -121 -27q-51 -29 -78 -80q-27 -49 -39 -129q-10 -63 -10 -174zM404 1118v33l196 272h213v-37l-354 -268h-55z" />
<glyph unicode="&#xf4;" d="M78 475q0 238 108 365q106 125 328 125q215 0 324 -123q109 -125 108 -367q0 -240 -106 -366q-106 -129 -334 -129q-211 0 -319.5 126.5t-108.5 368.5zM258 475q0 -113 10 -176q12 -80 39 -129q29 -55 78 -82q51 -29 121 -29q72 0 123 29q47 27 80 82q33 57 45 129 q12 78 12 176t-12 174q-12 72 -45 129q-31 52 -80 80q-47 27 -123 27q-74 0 -121 -27q-51 -29 -78 -80q-27 -49 -39 -129q-10 -63 -10 -174zM188 1118v33l218 274h213l217 -274v-33h-56l-268 185l-268 -185h-56z" />
<glyph unicode="&#xf5;" d="M78 475q0 238 108 365q106 125 328 125q215 0 324 -123q109 -125 108 -367q0 -240 -106 -366q-106 -129 -334 -129q-211 0 -319.5 126.5t-108.5 368.5zM258 475q0 -113 10 -176q12 -80 39 -129q29 -55 78 -82q51 -29 121 -29q72 0 123 29q47 27 80 82q33 57 45 129 q12 78 12 176t-12 174q-12 72 -45 129q-31 52 -80 80q-47 27 -123 27q-74 0 -121 -27q-51 -29 -78 -80q-27 -49 -39 -129q-10 -63 -10 -174zM180 1139q4 47 13 90q8 39 32 78q18 29 60 53q35 20 90 20q47 0 88 -22q53 -29 78 -47q43 -33 70 -49q33 -20 65 -21q27 0 47 10 q18 10 29 29q14 27 16 37q4 14 8 43h52q-4 -47 -13 -90q-8 -35 -35 -78q-20 -31 -57 -53q-35 -20 -90 -21q-49 0 -88 21q-43 23 -78 49q-25 18 -69 47q-35 23 -66 22q-29 0 -49 -10q-18 -10 -29 -28q-12 -25 -14 -39q0 -8 -4 -20.5t-4 -20.5h-52z" />
<glyph unicode="&#xf6;" d="M78 475q0 238 108 365q106 125 328 125q215 0 324 -123q109 -125 108 -367q0 -240 -106 -366q-106 -129 -334 -129q-211 0 -319.5 126.5t-108.5 368.5zM258 475q0 -113 10 -176q12 -80 39 -129q29 -55 78 -82q51 -29 121 -29q72 0 123 29q47 27 80 82q33 57 45 129 q12 78 12 176t-12 174q-12 72 -45 129q-31 52 -80 80q-47 27 -123 27q-74 0 -121 -27q-51 -29 -78 -80q-27 -49 -39 -129q-10 -63 -10 -174zM231 1194q0 23 9 39q12 25 20 31q20 16 33 22q16 8 39 8q41 0 69.5 -28.5t28.5 -71.5q0 -39 -29 -72q-27 -29 -69 -28q-23 0 -39 8 q-25 12 -33 20t-20 33q-9 16 -9 39zM588 1194q0 43 28.5 71.5t71.5 28.5q41 0 69.5 -28.5t28.5 -71.5q0 -39 -28 -72q-27 -29 -70 -28q-23 0 -39 8q-27 14 -32 20q-10 14 -21 33q-8 16 -8 39z" />
<glyph unicode="&#xf7;" horiz-adv-x="1122" d="M86 629v102h952v-102h-952zM465 297q0 41 27 68q29 29 69 28q39 0 67.5 -28.5t28.5 -67.5t-28.5 -67.5t-67.5 -28.5q-41 0 -69 28q-27 27 -27 68zM465 1063q0 41 27 67q29 29 69 29q39 0 67.5 -28.5t28.5 -67.5t-28.5 -67.5t-67.5 -28.5q-41 0 -69 28q-27 27 -27 68z" />
<glyph unicode="&#xf8;" d="M70 -84l127 178q-59 61 -91 158q-29 88 -28 223q0 238 108 365q106 125 328 125q150 0 250 -64l84 121h104l-123 -174q53 -55 86 -156q31 -92 31 -217q0 -240 -106 -366q-106 -129 -334 -129q-141 0 -242 59l-86 -123h-108zM258 475q0 -74 6 -139q6 -57 23 -113l405 578 q-31 43 -76 63q-43 20 -110 21q-74 0 -121 -27q-51 -29 -78 -80q-27 -49 -39 -129q-10 -63 -10 -174zM330 135q29 -39 71.5 -57.5t104.5 -18.5q72 0 123 29q47 27 80 82q33 57 45 129q12 78 12 176q0 49 -8 131q-6 53 -23 109z" />
<glyph unicode="&#xf9;" d="M27 895v45h286v-672q0 -84 37 -127q39 -45 123 -45q35 0 117 8q53 6 115 23v743l-142 25v45h307v-870l119 -25v-45h-274l-8 76q-16 -10 -68 -33q-6 -4 -84 -31q-27 -8 -88 -22q-47 -10 -80 -10q-53 0 -98 16q-49 18 -76 47q-31 34 -49 86q-16 47 -17 127v614zM205 1386 v37h213l196 -272v-33h-55z" />
<glyph unicode="&#xfa;" d="M27 895v45h286v-672q0 -84 37 -127q39 -45 123 -45q35 0 117 8q53 6 115 23v743l-142 25v45h307v-870l119 -25v-45h-274l-8 76q-16 -10 -68 -33q-6 -4 -84 -31q-27 -8 -88 -22q-47 -10 -80 -10q-53 0 -98 16q-49 18 -76 47q-31 34 -49 86q-16 47 -17 127v614zM420 1118 v33l196 272h213v-37l-354 -268h-55z" />
<glyph unicode="&#xfb;" d="M27 895v45h286v-672q0 -84 37 -127q39 -45 123 -45q35 0 117 8q53 6 115 23v743l-142 25v45h307v-870l119 -25v-45h-274l-8 76q-16 -10 -68 -33q-6 -4 -84 -31q-27 -8 -88 -22q-47 -10 -80 -10q-53 0 -98 16q-49 18 -76 47q-31 34 -49 86q-16 47 -17 127v614zM186 1118 v33l218 274h213l217 -274v-33h-56l-268 185l-268 -185h-56z" />
<glyph unicode="&#xfc;" d="M27 895v45h286v-672q0 -84 37 -127q39 -45 123 -45q35 0 117 8q53 6 115 23v743l-142 25v45h307v-870l119 -25v-45h-274l-8 76q-16 -10 -68 -33q-6 -4 -84 -31q-27 -8 -88 -22q-47 -10 -80 -10q-53 0 -98 16q-49 18 -76 47q-31 34 -49 86q-16 47 -17 127v614zM235 1194 q0 23 9 39q12 25 20 31q20 16 33 22q16 8 39 8q41 0 69.5 -28.5t28.5 -71.5q0 -39 -29 -72q-27 -29 -69 -28q-23 0 -39 8q-25 12 -33 20t-20 33q-9 16 -9 39zM592 1194q0 43 28.5 71.5t71.5 28.5q41 0 69.5 -28.5t28.5 -71.5q0 -39 -28 -72q-27 -29 -70 -28q-23 0 -39 8 q-27 14 -32 20q-10 14 -21 33q-8 16 -8 39z" />
<glyph unicode="&#xfd;" d="M25 895v45h436v-45l-148 -27l254 -657l246 659l-147 25v45h350v-45l-98 -21l-367 -933q-29 -74 -66 -152q-31 -66 -73 -121q-35 -47 -93 -80q-53 -31 -120 -30q-8 0 -23.5 1t-21.5 1q-25 0 -37 2q-6 0 -16.5 2t-16.5 4q-25 4 -39 8v203h47l33 -96q33 -23 86 -23 q43 0 78 18.5t65 53.5q23 25 54 82q20 39 45 104l26 72l-358 880zM404 1118v33l196 272h213v-37l-354 -268h-55z" />
<glyph unicode="&#xfe;" d="M14 1376v45h303v-336v-45q0 -12 -1 -24t-1 -27q0 -10 -1 -26.5t-1 -26.5t-1 -26.5t-1 -24.5q18 16 49 33q28 15 62 24q45 12 70 16q37 6 75 7q88 0 158 -31t119 -92.5t74 -151.5q27 -96 26 -209q0 -106 -26 -207q-25 -94 -78 -159q-55 -68 -131 -101q-82 -35 -183 -34 q-53 0 -108 6q-70 8 -107 16q0 -4 1 -12t1 -15q0 -4 1 -16t1 -16t1 -14.5t1 -16.5v-23v-254l164 -24v-47h-448v47l119 24v1717zM317 76q45 -10 93 -13q70 -4 102 -4q68 0 113 27q43 27 75 84q35 61 45 131q12 80 13 180q0 98 -17 174q-14 68 -47 117q-31 45 -78 68 q-43 20 -104 20q-53 0 -102 -8q-55 -9 -93 -25v-751z" />
<glyph unicode="&#xff;" d="M25 895v45h436v-45l-148 -27l254 -657l246 659l-147 25v45h350v-45l-98 -21l-367 -933q-29 -74 -66 -152q-31 -66 -73 -121q-35 -47 -93 -80q-53 -31 -120 -30q-8 0 -23.5 1t-21.5 1q-25 0 -37 2q-6 0 -16.5 2t-16.5 4q-25 4 -39 8v203h47l33 -96q33 -23 86 -23 q43 0 78 18.5t65 53.5q23 25 54 82q20 39 45 104l26 72l-358 880zM258 1194q0 23 9 39q12 25 20 31q20 16 33 22q16 8 39 8q41 0 69.5 -28.5t28.5 -71.5q0 -39 -29 -72q-27 -29 -69 -28q-23 0 -39 8q-25 12 -33 20t-20 33q-9 16 -9 39zM615 1194q0 43 28.5 71.5t71.5 28.5 q41 0 69.5 -28.5t28.5 -71.5q0 -39 -28 -72q-27 -29 -70 -28q-23 0 -39 8q-27 14 -32 20q-10 14 -21 33q-8 16 -8 39z" />
<glyph unicode="&#x100;" horiz-adv-x="1478" d="M20 0v53l152 27l457 1272h190l475 -1272l170 -27v-53h-567v53l180 27l-133 387h-528l-135 -387l180 -27v-53h-441zM446 557h467l-237 651zM424 1475v108h628v-108h-628z" />
<glyph unicode="&#x101;" horiz-adv-x="907" d="M72 260q0 63 14 107q16 47 43 77q29 31 64 50q37 18 79 30q47 14 90 17q61 4 95 4l141 4v147q0 41 -6 76q-6 29 -25 59q-12 20 -45 39q-27 14 -69 15q-47 0 -97 -13q-45 -12 -86 -34l-34 -117h-56v205q65 15 135 24q78 10 150 11q63 0 118.5 -12.5t96.5 -41.5 q39 -27 61.5 -78t22.5 -124v-635l117 -25v-45h-258l-19 94q-6 -6 -20.5 -17t-20.5 -18q-23 -18 -61 -39q-27 -14 -84 -28q-46 -12 -105 -12q-72 0 -114 20q-45 20 -74 59t-41 90.5t-12 110.5zM238 266q0 -176 143 -176q63 0 117 16q59 18 100 39v334l-131 -4 q-59 -4 -102 -12q-39 -8 -70 -33q-28 -22 -43 -61q-14 -37 -14 -103zM152 1141v108h628v-108h-628z" />
<glyph unicode="&#x102;" horiz-adv-x="1478" d="M20 0v53l152 27l457 1272h190l475 -1272l170 -27v-53h-567v53l180 27l-133 387h-528l-135 -387l180 -27v-53h-441zM446 557h467l-237 651zM432 1733h74q10 -43 29 -64q22 -25 49 -43q18 -12 63 -24q31 -8 72 -8t72 8q45 12 63 24q28 18 49 43q18 20 29 64h74 q-4 -66 -18.5 -109t-53.5 -88q-33 -39 -88 -61.5t-127 -22.5t-127 22.5t-88 61.5q-39 45 -53 88q-19 54 -19 109z" />
<glyph unicode="&#x103;" horiz-adv-x="907" d="M72 260q0 63 14 107q16 47 43 77q29 31 64 50q37 18 79 30q47 14 90 17q61 4 95 4l141 4v147q0 41 -6 76q-6 29 -25 59q-12 20 -45 39q-27 14 -69 15q-47 0 -97 -13q-45 -12 -86 -34l-34 -117h-56v205q65 15 135 24q78 10 150 11q63 0 118.5 -12.5t96.5 -41.5 q39 -27 61.5 -78t22.5 -124v-635l117 -25v-45h-258l-19 94q-6 -6 -20.5 -17t-20.5 -18q-23 -18 -61 -39q-27 -14 -84 -28q-46 -12 -105 -12q-72 0 -114 20q-45 20 -74 59t-41 90.5t-12 110.5zM238 266q0 -176 143 -176q63 0 117 16q59 18 100 39v334l-131 -4 q-59 -4 -102 -12q-39 -8 -70 -33q-28 -22 -43 -61q-14 -37 -14 -103zM168 1399h74q10 -43 29 -64q22 -25 49 -43q18 -12 63 -24q31 -8 72 -8t72 8q45 12 63 24q28 18 49 43q18 20 29 64h74q-4 -66 -18.5 -109t-53.5 -88q-33 -39 -88 -61.5t-127 -22.5t-127 22.5t-88 61.5 q-39 45 -53 88q-19 54 -19 109z" />
<glyph unicode="&#x104;" horiz-adv-x="1478" d="M20 0v53l152 27l457 1272h190l475 -1272l170 -27v-53h-567v53l180 27l-133 387h-528l-135 -387l180 -27v-53h-441zM446 557h467l-237 651zM967 -186q0 37 8 63q10 31 23 57q8 16 28 46q15 22 31 36h109q-8 -12 -17 -28q0 -2 -16 -43q-8 -18 -15 -51q-6 -28 -6 -56 q0 -78 35 -114q37 -39 103 -39q33 0 63 6q29 6 53 16v-63q-33 -20 -71 -33q-51 -14 -97 -14q-63 0 -106 18q-47 20 -72 47q-29 33 -41 70q-12 39 -12 82z" />
<glyph unicode="&#x105;" horiz-adv-x="907" d="M72 260q0 63 14 107q16 47 43 77q29 31 64 50q37 18 79 30q47 14 90 17q61 4 95 4l141 4v147q0 41 -6 76q-6 29 -25 59q-12 20 -45 39q-27 14 -69 15q-47 0 -97 -13q-45 -12 -86 -34l-34 -117h-56v205q65 15 135 24q78 10 150 11q63 0 118.5 -12.5t96.5 -41.5 q39 -27 61.5 -78t22.5 -124v-635l117 -25v-45h-258l-19 94q-6 -6 -20.5 -17t-20.5 -18q-23 -18 -61 -39q-27 -14 -84 -28q-46 -12 -105 -12q-72 0 -114 20q-45 20 -74 59t-41 90.5t-12 110.5zM238 266q0 -176 143 -176q63 0 117 16q59 18 100 39v334l-131 -4 q-59 -4 -102 -12q-39 -8 -70 -33q-28 -22 -43 -61q-14 -37 -14 -103zM531 -186q0 37 8 63q10 31 23 57q8 16 28 46q15 22 31 36h109q-8 -12 -17 -28q0 -2 -16 -43q-8 -18 -15 -51q-6 -28 -6 -56q0 -78 35 -114q37 -39 103 -39q33 0 63 6q29 6 53 16v-63q-33 -20 -71 -33 q-51 -14 -97 -14q-63 0 -106 18q-47 20 -72 47q-29 33 -41 70q-12 39 -12 82z" />
<glyph unicode="&#x106;" horiz-adv-x="1363" d="M84 655q0 176 47 312q47 133 135 219q90 86 217 129q123 41 295 41q47 0 129 -4q10 0 117 -13q47 -6 106 -16l97 -18l6 -293h-66l-30 174q-72 43 -162 67q-84 23 -189 23q-111 0 -208 -33q-88 -29 -154 -104.5t-98 -190.5q-33 -117 -33 -291q0 -154 33 -264 q33 -113 96 -188q61 -74 151 -111q89 -37 203 -37q70 0 119 9q84 14 104 20q53 16 88 33q41 18 64 39l37 200h65l-6 -315q-18 -6 -96 -23q-45 -10 -115 -20q-45 -6 -129 -14q-68 -6 -133 -6q-162 0 -293 47q-125 45 -217 133q-90 86 -135 211q-45 122 -45 284zM613 1452v33 l196 272h213v-37l-354 -268h-55z" />
<glyph unicode="&#x107;" horiz-adv-x="907" d="M78 477q0 131 33 221q35 94 94 152q66 61 143 88q80 27 180 27q88 0 156 -9q66 -8 139 -22v-262h-55l-43 166q-39 23 -90 34q-53 12 -109 13q-70 0 -114 -23q-51 -25 -84 -74q-33 -47 -52 -126q-18 -77 -18 -185q0 -92 14.5 -161.5t53.5 -125.5q35 -49 102.5 -77.5 t163.5 -28.5q45 0 70 2q12 2 35.5 5t33.5 3q18 2 62 10q35 6 53 13v-60q-27 -20 -62 -34q-25 -10 -77 -23q-23 -6 -86 -14q-43 -6 -86 -6q-121 0 -209 34.5t-142 96.5q-55 63 -80 157q-26 100 -26 209zM367 1118v33l196 272h213v-37l-354 -268h-55z" />
<glyph unicode="&#x108;" horiz-adv-x="1363" d="M84 655q0 176 47 312q47 133 135 219q90 86 217 129q123 41 295 41q47 0 129 -4q10 0 117 -13q47 -6 106 -16l97 -18l6 -293h-66l-30 174q-72 43 -162 67q-84 23 -189 23q-111 0 -208 -33q-88 -29 -154 -104.5t-98 -190.5q-33 -117 -33 -291q0 -154 33 -264 q33 -113 96 -188q61 -74 151 -111q89 -37 203 -37q70 0 119 9q84 14 104 20q53 16 88 33q41 18 64 39l37 200h65l-6 -315q-18 -6 -96 -23q-45 -10 -115 -20q-45 -6 -129 -14q-68 -6 -133 -6q-162 0 -293 47q-125 45 -217 133q-90 86 -135 211q-45 122 -45 284zM452 1452v33 l218 274h213l217 -274v-33h-56l-268 185l-268 -185h-56z" />
<glyph unicode="&#x109;" horiz-adv-x="907" d="M78 477q0 131 33 221q35 94 94 152q66 61 143 88q80 27 180 27q88 0 156 -9q66 -8 139 -22v-262h-55l-43 166q-39 23 -90 34q-53 12 -109 13q-70 0 -114 -23q-51 -25 -84 -74q-33 -47 -52 -126q-18 -77 -18 -185q0 -92 14.5 -161.5t53.5 -125.5q35 -49 102.5 -77.5 t163.5 -28.5q45 0 70 2q12 2 35.5 5t33.5 3q18 2 62 10q35 6 53 13v-60q-27 -20 -62 -34q-25 -10 -77 -23q-23 -6 -86 -14q-43 -6 -86 -6q-121 0 -209 34.5t-142 96.5q-55 63 -80 157q-26 100 -26 209zM188 1118v33l218 274h213l217 -274v-33h-56l-268 185l-268 -185h-56z " />
<glyph unicode="&#x10a;" horiz-adv-x="1363" d="M84 655q0 176 47 312q47 133 135 219q90 86 217 129q123 41 295 41q47 0 129 -4q10 0 117 -13q47 -6 106 -16l97 -18l6 -293h-66l-30 174q-72 43 -162 67q-84 23 -189 23q-111 0 -208 -33q-88 -29 -154 -104.5t-98 -190.5q-33 -117 -33 -291q0 -154 33 -264 q33 -113 96 -188q61 -74 151 -111q89 -37 203 -37q70 0 119 9q84 14 104 20q53 16 88 33q41 18 64 39l37 200h65l-6 -315q-18 -6 -96 -23q-45 -10 -115 -20q-45 -6 -129 -14q-68 -6 -133 -6q-162 0 -293 47q-125 45 -217 133q-90 86 -135 211q-45 122 -45 284zM662 1581 q0 23 8 41q10 23 22 35q14 14 35 25q16 8 41 8t43 -8.5t34.5 -24.5t25 -34.5t8.5 -41.5q0 -25 -9 -41q-10 -20 -24 -35q-16 -16 -34.5 -24t-43.5 -8t-41 8q-20 10 -35 24q-10 10 -22 35q-8 16 -8 41z" />
<glyph unicode="&#x10b;" horiz-adv-x="907" d="M78 477q0 131 33 221q35 94 94 152q66 61 143 88q80 27 180 27q88 0 156 -9q66 -8 139 -22v-262h-55l-43 166q-39 23 -90 34q-53 12 -109 13q-70 0 -114 -23q-51 -25 -84 -74q-33 -47 -52 -126q-18 -77 -18 -185q0 -92 14.5 -161.5t53.5 -125.5q35 -49 102.5 -77.5 t163.5 -28.5q45 0 70 2q12 2 35.5 5t33.5 3q18 2 62 10q35 6 53 13v-60q-27 -20 -62 -34q-25 -10 -77 -23q-23 -6 -86 -14q-43 -6 -86 -6q-121 0 -209 34.5t-142 96.5q-55 63 -80 157q-26 100 -26 209zM422 1247q0 23 8 41q10 23 22 35q14 14 35 25q16 8 41 8t43 -8.5 t34.5 -24.5t25 -34.5t8.5 -41.5q0 -25 -9 -41q-10 -20 -24 -35q-16 -16 -34.5 -24t-43.5 -8t-41 8q-20 10 -35 24q-10 10 -22 35q-8 16 -8 41z" />
<glyph unicode="&#x10c;" horiz-adv-x="1363" d="M84 655q0 176 47 312q47 133 135 219q90 86 217 129q123 41 295 41q47 0 129 -4q10 0 117 -13q47 -6 106 -16l97 -18l6 -293h-66l-30 174q-72 43 -162 67q-84 23 -189 23q-111 0 -208 -33q-88 -29 -154 -104.5t-98 -190.5q-33 -117 -33 -291q0 -154 33 -264 q33 -113 96 -188q61 -74 151 -111q89 -37 203 -37q70 0 119 9q84 14 104 20q53 16 88 33q41 18 64 39l37 200h65l-6 -315q-18 -6 -96 -23q-45 -10 -115 -20q-45 -6 -129 -14q-68 -6 -133 -6q-162 0 -293 47q-125 45 -217 133q-90 86 -135 211q-45 122 -45 284zM448 1727v32 h56l268 -184l268 184h56v-32l-217 -275h-213z" />
<glyph unicode="&#x10d;" horiz-adv-x="907" d="M78 477q0 131 33 221q35 94 94 152q66 61 143 88q80 27 180 27q88 0 156 -9q66 -8 139 -22v-262h-55l-43 166q-39 23 -90 34q-53 12 -109 13q-70 0 -114 -23q-51 -25 -84 -74q-33 -47 -52 -126q-18 -77 -18 -185q0 -92 14.5 -161.5t53.5 -125.5q35 -49 102.5 -77.5 t163.5 -28.5q45 0 70 2q12 2 35.5 5t33.5 3q18 2 62 10q35 6 53 13v-60q-27 -20 -62 -34q-25 -10 -77 -23q-23 -6 -86 -14q-43 -6 -86 -6q-121 0 -209 34.5t-142 96.5q-55 63 -80 157q-26 100 -26 209zM194 1393v32h56l268 -184l268 184h56v-32l-217 -275h-213z" />
<glyph unicode="&#x10e;" horiz-adv-x="1478" d="M59 0v53l172 27v1182l-172 26v53h609q162 0 301 -34q131 -33 229 -115q96 -80 148 -205q51 -123 51 -309q0 -170 -41 -291q-45 -133 -127 -215q-84 -84 -215 -131q-127 -45 -305 -45h-125q-23 0 -67 1t-64 1q-23 0 -65 1t-60 1h-97h-172zM424 94q41 -4 65 -4q10 0 35 -1 t37 -1t37 -1t37 -1h74q127 0 217 37t149 113q57 74 86 186q27 106 27 258q0 145 -41 256q-39 104 -117 176q-77 71 -184 105q-111 35 -242 34h-180v-1157zM405 1727v32h56l268 -184l268 184h56v-32l-217 -275h-213z" />
<glyph unicode="&#x10f;" horiz-adv-x="1323" d="M74 461q0 111 26 211q25 94 78 159q51 63 133 98.5t193 35.5q49 0 108 -7q74 -8 111 -16q-2 8 -2 33q0 6 -1 21.5t-1 23.5q0 12 -1 24.5t-1 24.5v39v244l-158 24v45h324v-1351l116 -25v-45h-264l-12 70q-41 -33 -108.5 -61.5t-155.5 -28.5q-385 0 -385 481zM254 461 q0 -104 18 -176q18 -74 54 -117q37 -47 82 -64q55 -20 106 -20q59 0 113 12q59 14 90 27v743q-43 10 -96 13q-74 4 -107 4q-133 0 -196.5 -106.5t-63.5 -315.5zM981 997v64q78 18 103 31q33 16 55 38.5t24 38.5q4 25 5 35q0 16 -14.5 28.5t-33.5 27.5q-12 10 -32 34 q-14 16 -15 50q0 37 29 59q27 20 70 20q20 0 45 -10q23 -10 37 -26q16 -18 24 -45q10 -31 10 -62q0 -51 -16 -96q-14 -41 -53 -80q-33 -33 -94 -61q-54 -26 -144 -46z" />
<glyph unicode="&#x110;" horiz-adv-x="1478" d="M53 629v82h178v551l-172 26v53h572q158 0 303 -34q131 -31 242 -113q102 -74 161 -205q59 -129 60 -311q0 -166 -37 -291t-121 -215q-80 -86 -205 -131q-123 -45 -301 -45h-129q-23 0 -70 1t-69 1q-25 0 -69 1t-64 1h-101h-172v53l172 27v549h-178zM424 94q41 -4 65 -4 q10 0 35 -1t37 -1t37 -1t37 -1h74q127 0 217 37q94 39 149 108q59 76 86 181q27 106 27 258q0 164 -41 268q-41 109 -121 180q-74 68 -190 101q-119 33 -250 32h-162v-540h377v-82h-377v-535z" />
<glyph unicode="&#x111;" d="M74 461q0 111 26 211q25 94 78 159q51 63 133 98.5t193 35.5q49 0 108 -7q74 -8 111 -16q-2 8 -2 29q0 6 -1 18t-1 21q0 10 -1 21t-1 22v34v25h-275v84h275v156l-158 24v45h324v-225h137v-84h-137v-1042l116 -25v-45h-264l-12 70q-41 -33 -108.5 -61.5t-155.5 -28.5 q-385 0 -385 481zM254 461q0 -104 18 -176q18 -74 54 -117q37 -47 82 -64q55 -20 106 -20q59 0 113 12q59 14 90 27v743q-43 10 -96 13q-74 4 -107 4q-133 0 -196.5 -106.5t-63.5 -315.5z" />
<glyph unicode="&#x112;" horiz-adv-x="1249" d="M59 0v53l172 27v1182l-172 26v53h1006v-321h-66l-32 217q-29 2 -78 6q-10 0 -28.5 2t-34 3t-29.5 1q-16 0 -45 1t-43 1h-66h-219v-524h362l31 160h64v-412h-64l-31 162h-362v-547h264q20 0 59 1t58 1q70 0 98 2l76 6q33 4 47 6l57 248h66l-19 -354h-1071zM312 1475v108 h628v-108h-628z" />
<glyph unicode="&#x113;" horiz-adv-x="907" d="M80 477q0 250 102 367q104 121 295 121q80 0 141 -21q66 -23 113 -65q49 -47 78 -127q29 -82 29 -197v-82h-578v-18q0 -63 10 -140q8 -59 43 -118q31 -51 88.5 -82t149.5 -31q41 0 63 2l66 6q23 2 63 10q8 2 29 5.5t29 5.5v-56q-25 -18 -56 -28l-71 -25q-41 -12 -82 -18 q-43 -6 -90 -6q-111 0 -197 32q-84 33 -131 94q-51 68 -72 156q-22 96 -22 215zM262 553h402q0 82 -9 137q-9 61 -30 105q-23 45 -58 67.5t-90 22.5q-59 0 -96 -23q-40 -25 -68 -67q-27 -41 -39 -105q-12 -61 -12 -137zM162 1141v108h628v-108h-628z" />
<glyph unicode="&#x114;" horiz-adv-x="1249" d="M59 0v53l172 27v1182l-172 26v53h1006v-321h-66l-32 217q-29 2 -78 6q-10 0 -28.5 2t-34 3t-29.5 1q-16 0 -45 1t-43 1h-66h-219v-524h362l31 160h64v-412h-64l-31 162h-362v-547h264q20 0 59 1t58 1q70 0 98 2l76 6q33 4 47 6l57 248h66l-19 -354h-1071zM338 1733h74 q10 -43 29 -64q22 -25 49 -43q18 -12 63 -24q31 -8 72 -8t72 8q45 12 63 24q28 18 49 43q18 20 29 64h74q-4 -66 -18.5 -109t-53.5 -88q-33 -39 -88 -61.5t-127 -22.5t-127 22.5t-88 61.5q-39 45 -53 88q-19 54 -19 109z" />
<glyph unicode="&#x115;" horiz-adv-x="907" d="M80 477q0 250 102 367q104 121 295 121q80 0 141 -21q66 -23 113 -65q49 -47 78 -127q29 -82 29 -197v-82h-578v-18q0 -63 10 -140q8 -59 43 -118q31 -51 88.5 -82t149.5 -31q41 0 63 2l66 6q23 2 63 10q8 2 29 5.5t29 5.5v-56q-25 -18 -56 -28l-71 -25q-41 -12 -82 -18 q-43 -6 -90 -6q-111 0 -197 32q-84 33 -131 94q-51 68 -72 156q-22 96 -22 215zM262 553h402q0 82 -9 137q-9 61 -30 105q-23 45 -58 67.5t-90 22.5q-59 0 -96 -23q-40 -25 -68 -67q-27 -41 -39 -105q-12 -61 -12 -137zM180 1399h74q10 -43 29 -64q22 -25 49 -43 q18 -12 63 -24q31 -8 72 -8t72 8q45 12 63 24q28 18 49 43q18 20 29 64h74q-4 -66 -18.5 -109t-53.5 -88q-33 -39 -88 -61.5t-127 -22.5t-127 22.5t-88 61.5q-39 45 -53 88q-19 54 -19 109z" />
<glyph unicode="&#x116;" horiz-adv-x="1249" d="M59 0v53l172 27v1182l-172 26v53h1006v-321h-66l-32 217q-29 2 -78 6q-10 0 -28.5 2t-34 3t-29.5 1q-16 0 -45 1t-43 1h-66h-219v-524h362l31 160h64v-412h-64l-31 162h-362v-547h264q20 0 59 1t58 1q70 0 98 2l76 6q33 4 47 6l57 248h66l-19 -354h-1071zM529 1581 q0 23 8 41q10 23 22 35q14 14 35 25q16 8 41 8t43 -8.5t34.5 -24.5t25 -34.5t8.5 -41.5q0 -25 -9 -41q-10 -20 -24 -35q-16 -16 -34.5 -24t-43.5 -8t-41 8q-20 10 -35 24q-10 10 -22 35q-8 16 -8 41z" />
<glyph unicode="&#x117;" horiz-adv-x="907" d="M80 477q0 250 102 367q104 121 295 121q80 0 141 -21q66 -23 113 -65q49 -47 78 -127q29 -82 29 -197v-82h-578v-18q0 -63 10 -140q8 -59 43 -118q31 -51 88.5 -82t149.5 -31q41 0 63 2l66 6q23 2 63 10q8 2 29 5.5t29 5.5v-56q-25 -18 -56 -28l-71 -25q-41 -12 -82 -18 q-43 -6 -90 -6q-111 0 -197 32q-84 33 -131 94q-51 68 -72 156q-22 96 -22 215zM262 553h402q0 82 -9 137q-9 61 -30 105q-23 45 -58 67.5t-90 22.5q-59 0 -96 -23q-40 -25 -68 -67q-27 -41 -39 -105q-12 -61 -12 -137zM365 1247q0 23 8 41q10 23 22 35q14 14 35 25 q16 8 41 8t43 -8.5t34.5 -24.5t25 -34.5t8.5 -41.5q0 -25 -9 -41q-10 -20 -24 -35q-16 -16 -34.5 -24t-43.5 -8t-41 8q-20 10 -35 24q-10 10 -22 35q-8 16 -8 41z" />
<glyph unicode="&#x118;" horiz-adv-x="1249" d="M59 0v53l172 27v1182l-172 26v53h1006v-321h-66l-32 217q-29 2 -78 6q-10 0 -28.5 2t-34 3t-29.5 1q-16 0 -45 1t-43 1h-66h-219v-524h362l31 160h64v-412h-64l-31 162h-362v-547h264q20 0 59 1t58 1q70 0 98 2l76 6q33 4 47 6l57 248h66l-19 -354h-1071zM725 -186 q0 37 8 63q10 31 23 57q8 16 28 46q15 22 31 36h109q-8 -12 -17 -28q0 -2 -16 -43q-8 -18 -15 -51q-6 -28 -6 -56q0 -78 35 -114q37 -39 103 -39q33 0 63 6q29 6 53 16v-63q-33 -20 -71 -33q-51 -14 -97 -14q-63 0 -106 18q-47 20 -72 47q-29 33 -41 70q-12 39 -12 82z" />
<glyph unicode="&#x119;" horiz-adv-x="907" d="M80 477q0 250 102 367q104 121 295 121q80 0 141 -21q66 -23 113 -65q49 -47 78 -127q29 -82 29 -197v-82h-578v-18q0 -63 10 -140q8 -59 43 -118q31 -51 88.5 -82t149.5 -31q41 0 63 2l66 6q23 2 63 10q8 2 29 5.5t29 5.5v-56q-25 -18 -56 -28l-71 -25q-41 -12 -82 -18 q-43 -6 -90 -6q-111 0 -197 32q-84 33 -131 94q-51 68 -72 156q-22 96 -22 215zM262 553h402q0 82 -9 137q-9 61 -30 105q-23 45 -58 67.5t-90 22.5q-59 0 -96 -23q-40 -25 -68 -67q-27 -41 -39 -105q-12 -61 -12 -137zM420 -186q0 37 8 63q10 31 23 57q8 16 28 46 q15 22 31 36h109q-8 -12 -17 -28q0 -2 -16 -43q-8 -18 -15 -51q-6 -28 -6 -56q0 -78 35 -114q37 -39 103 -39q33 0 63 6q29 6 53 16v-63q-33 -20 -71 -33q-51 -14 -97 -14q-63 0 -106 18q-47 20 -72 47q-29 33 -41 70q-12 39 -12 82z" />
<glyph unicode="&#x11a;" horiz-adv-x="1249" d="M59 0v53l172 27v1182l-172 26v53h1006v-321h-66l-32 217q-29 2 -78 6q-10 0 -28.5 2t-34 3t-29.5 1q-16 0 -45 1t-43 1h-66h-219v-524h362l31 160h64v-412h-64l-31 162h-362v-547h264q20 0 59 1t58 1q70 0 98 2l76 6q33 4 47 6l57 248h66l-19 -354h-1071zM311 1727v32h56 l268 -184l268 184h56v-32l-217 -275h-213z" />
<glyph unicode="&#x11b;" horiz-adv-x="907" d="M80 477q0 250 102 367q104 121 295 121q80 0 141 -21q66 -23 113 -65q49 -47 78 -127q29 -82 29 -197v-82h-578v-18q0 -63 10 -140q8 -59 43 -118q31 -51 88.5 -82t149.5 -31q41 0 63 2l66 6q23 2 63 10q8 2 29 5.5t29 5.5v-56q-25 -18 -56 -28l-71 -25q-41 -12 -82 -18 q-43 -6 -90 -6q-111 0 -197 32q-84 33 -131 94q-51 68 -72 156q-22 96 -22 215zM262 553h402q0 82 -9 137q-9 61 -30 105q-23 45 -58 67.5t-90 22.5q-59 0 -96 -23q-40 -25 -68 -67q-27 -41 -39 -105q-12 -61 -12 -137zM155 1393v32h56l268 -184l268 184h56v-32l-217 -275 h-213z" />
<glyph unicode="&#x11c;" horiz-adv-x="1478" d="M84 655q0 350 176 527q174 174 518 174q123 0 248 -17q115 -14 223 -43v-288h-67l-27 166q-63 45 -166 75q-92 27 -203 27q-119 0 -208 -33q-92 -33 -154 -104q-66 -74 -98 -193q-33 -117 -33 -289q0 -174 39 -288q41 -119 106 -185q72 -72 154 -98q90 -29 184 -29 q49 0 98 6q33 4 91 17q33 8 75 22q39 14 52 23v381l-172 26v54h495v-54l-131 -26v-436q-135 -43 -242 -64q-137 -27 -268 -26q-158 0 -287 43q-127 43 -217 129t-139 213q-47 120 -47 290zM450 1452v33l218 274h213l217 -274v-33h-56l-268 185l-268 -185h-56z" />
<glyph unicode="&#x11d;" d="M88 -215q0 33 12 63q8 23 35 56q23 29 53 53q61 49 68 53q-12 4 -41 19q-20 10 -45 34q-16 16 -35 50q-14 27 -14 61l158 178q-158 74 -158 291q0 74 26 139q25 59 74 101q49 39 121 61q68 20 160 21q39 0 57 -2q6 0 17.5 -2.5t20.5 -3.5t17 -1l24.5 -5t18.5 -3 q8 -2 29 -8l221 111l35 -43l-139 -144q37 -39 51 -96q16 -61 16 -125q0 -163 -98 -246q-96 -82 -278 -82q-25 0 -82 4q-35 2 -70 11l-63 -131q2 -16 38 -31q39 -16 91 -16h278q150 0 225 -66q74 -66 74 -182q0 -68 -27 -127q-28 -61 -86 -111q-53 -45 -155 -78 q-94 -31 -236 -30q-109 0 -182 18q-84 20 -123 47q-43 29 -67 74q-21 39 -21 88zM229 -201q0 -41 11 -65q10 -29 41 -51q25 -20 77 -33q49 -12 123 -12q92 0 156 18q66 18 108 49q41 29 64 74q20 41 20 94q0 57 -34 88q-37 33 -107 33h-364q-23 -20 -39 -41q-12 -16 -29 -49 q-16 -31 -20 -54q-7 -26 -7 -51zM295 643q0 -72 10 -111q14 -51 37 -79q27 -33 61.5 -47.5t92.5 -14.5q111 0 155 62q45 59 45 190q0 57 -10 109q-8 45 -35 77q-23 29 -61 45q-35 14 -92 15q-55 0 -92 -15q-39 -14 -64 -44.5t-37 -77.5q-10 -39 -10 -109zM188 1118v33 l218 274h213l217 -274v-33h-56l-268 185l-268 -185h-56z" />
<glyph unicode="&#x11e;" horiz-adv-x="1478" d="M84 655q0 350 176 527q174 174 518 174q123 0 248 -17q115 -14 223 -43v-288h-67l-27 166q-63 45 -166 75q-92 27 -203 27q-119 0 -208 -33q-92 -33 -154 -104q-66 -74 -98 -193q-33 -117 -33 -289q0 -174 39 -288q41 -119 106 -185q72 -72 154 -98q90 -29 184 -29 q49 0 98 6q33 4 91 17q33 8 75 22q39 14 52 23v381l-172 26v54h495v-54l-131 -26v-436q-135 -43 -242 -64q-137 -27 -268 -26q-158 0 -287 43q-127 43 -217 129t-139 213q-47 120 -47 290zM481 1733h74q10 -43 29 -64q22 -25 49 -43q18 -12 63 -24q31 -8 72 -8t72 8 q45 12 63 24q28 18 49 43q18 20 29 64h74q-4 -66 -18.5 -109t-53.5 -88q-33 -39 -88 -61.5t-127 -22.5t-127 22.5t-88 61.5q-39 45 -53 88q-19 54 -19 109z" />
<glyph unicode="&#x11f;" d="M88 -215q0 33 12 63q8 23 35 56q23 29 53 53q61 49 68 53q-12 4 -41 19q-20 10 -45 34q-16 16 -35 50q-14 27 -14 61l158 178q-158 74 -158 291q0 74 26 139q25 59 74 101q49 39 121 61q68 20 160 21q39 0 57 -2q6 0 17.5 -2.5t20.5 -3.5t17 -1l24.5 -5t18.5 -3 q8 -2 29 -8l221 111l35 -43l-139 -144q37 -39 51 -96q16 -61 16 -125q0 -163 -98 -246q-96 -82 -278 -82q-25 0 -82 4q-35 2 -70 11l-63 -131q2 -16 38 -31q39 -16 91 -16h278q150 0 225 -66q74 -66 74 -182q0 -68 -27 -127q-28 -61 -86 -111q-53 -45 -155 -78 q-94 -31 -236 -30q-109 0 -182 18q-84 20 -123 47q-43 29 -67 74q-21 39 -21 88zM229 -201q0 -41 11 -65q10 -29 41 -51q25 -20 77 -33q49 -12 123 -12q92 0 156 18q66 18 108 49q41 29 64 74q20 41 20 94q0 57 -34 88q-37 33 -107 33h-364q-23 -20 -39 -41q-12 -16 -29 -49 q-16 -31 -20 -54q-7 -26 -7 -51zM295 643q0 -72 10 -111q14 -51 37 -79q27 -33 61.5 -47.5t92.5 -14.5q111 0 155 62q45 59 45 190q0 57 -10 109q-8 45 -35 77q-23 29 -61 45q-35 14 -92 15q-55 0 -92 -15q-39 -14 -64 -44.5t-37 -77.5q-10 -39 -10 -109zM196 1399h74 q10 -43 29 -64q22 -25 49 -43q18 -12 63 -24q31 -8 72 -8t72 8q45 12 63 24q28 18 49 43q18 20 29 64h74q-4 -66 -18.5 -109t-53.5 -88q-33 -39 -88 -61.5t-127 -22.5t-127 22.5t-88 61.5q-39 45 -53 88q-19 54 -19 109z" />
<glyph unicode="&#x120;" horiz-adv-x="1478" d="M84 655q0 350 176 527q174 174 518 174q123 0 248 -17q115 -14 223 -43v-288h-67l-27 166q-63 45 -166 75q-92 27 -203 27q-119 0 -208 -33q-92 -33 -154 -104q-66 -74 -98 -193q-33 -117 -33 -289q0 -174 39 -288q41 -119 106 -185q72 -72 154 -98q90 -29 184 -29 q49 0 98 6q33 4 91 17q33 8 75 22q39 14 52 23v381l-172 26v54h495v-54l-131 -26v-436q-135 -43 -242 -64q-137 -27 -268 -26q-158 0 -287 43q-127 43 -217 129t-139 213q-47 120 -47 290zM668 1581q0 23 8 41q10 23 22 35q14 14 35 25q16 8 41 8t43 -8.5t34.5 -24.5 t25 -34.5t8.5 -41.5q0 -25 -9 -41q-10 -20 -24 -35q-16 -16 -34.5 -24t-43.5 -8t-41 8q-20 10 -35 24q-10 10 -22 35q-8 16 -8 41z" />
<glyph unicode="&#x121;" d="M88 -215q0 33 12 63q8 23 35 56q23 29 53 53q61 49 68 53q-12 4 -41 19q-20 10 -45 34q-16 16 -35 50q-14 27 -14 61l158 178q-158 74 -158 291q0 74 26 139q25 59 74 101q49 39 121 61q68 20 160 21q39 0 57 -2q6 0 17.5 -2.5t20.5 -3.5t17 -1l24.5 -5t18.5 -3 q8 -2 29 -8l221 111l35 -43l-139 -144q37 -39 51 -96q16 -61 16 -125q0 -163 -98 -246q-96 -82 -278 -82q-25 0 -82 4q-35 2 -70 11l-63 -131q2 -16 38 -31q39 -16 91 -16h278q150 0 225 -66q74 -66 74 -182q0 -68 -27 -127q-28 -61 -86 -111q-53 -45 -155 -78 q-94 -31 -236 -30q-109 0 -182 18q-84 20 -123 47q-43 29 -67 74q-21 39 -21 88zM229 -201q0 -41 11 -65q10 -29 41 -51q25 -20 77 -33q49 -12 123 -12q92 0 156 18q66 18 108 49q41 29 64 74q20 41 20 94q0 57 -34 88q-37 33 -107 33h-364q-23 -20 -39 -41q-12 -16 -29 -49 q-16 -31 -20 -54q-7 -26 -7 -51zM295 643q0 -72 10 -111q14 -51 37 -79q27 -33 61.5 -47.5t92.5 -14.5q111 0 155 62q45 59 45 190q0 57 -10 109q-8 45 -35 77q-23 29 -61 45q-35 14 -92 15q-55 0 -92 -15q-39 -14 -64 -44.5t-37 -77.5q-10 -39 -10 -109zM388 1247 q0 23 8 41q10 23 22 35q14 14 35 25q16 8 41 8t43 -8.5t34.5 -24.5t25 -34.5t8.5 -41.5q0 -25 -9 -41q-10 -20 -24 -35q-16 -16 -34.5 -24t-43.5 -8t-41 8q-20 10 -35 24q-10 10 -22 35q-8 16 -8 41z" />
<glyph unicode="&#x122;" horiz-adv-x="1478" d="M84 655q0 350 176 527q174 174 518 174q123 0 248 -17q115 -14 223 -43v-288h-67l-27 166q-63 45 -166 75q-92 27 -203 27q-119 0 -208 -33q-92 -33 -154 -104q-66 -74 -98 -193q-33 -117 -33 -289q0 -174 39 -288q41 -119 106 -185q72 -72 154 -98q90 -29 184 -29 q49 0 98 6q33 4 91 17q33 8 75 22q39 14 52 23v381l-172 26v54h495v-54l-131 -26v-436q-135 -43 -242 -64q-137 -27 -268 -26q-158 0 -287 43q-127 43 -217 129t-139 213q-47 120 -47 290zM647 -373q61 20 88 39q33 23 33 49q0 25 -16.5 35t-38.5 21q-4 2 -37 28 q-18 15 -19 49q0 39 29 62q27 20 70 20q27 0 45 -8q23 -10 37 -26q15 -18 24 -43q10 -27 10 -58q0 -49 -14 -84t-41 -61q-29 -29 -69 -49q-29 -14 -101 -37v63z" />
<glyph unicode="&#x123;" d="M88 -215q0 33 12 63q8 23 35 56q23 29 53 53q61 49 68 53q-12 4 -41 19q-20 10 -45 34q-16 16 -35 50q-14 27 -14 61l158 178q-158 74 -158 291q0 74 26 139q25 59 74 101q49 39 121 61q68 20 160 21q39 0 57 -2q6 0 17.5 -2.5t20.5 -3.5t17 -1l24.5 -5t18.5 -3 q8 -2 29 -8l221 111l35 -43l-139 -144q37 -39 51 -96q16 -61 16 -125q0 -163 -98 -246q-96 -82 -278 -82q-25 0 -82 4q-35 2 -70 11l-63 -131q2 -16 38 -31q39 -16 91 -16h278q150 0 225 -66q74 -66 74 -182q0 -68 -27 -127q-28 -61 -86 -111q-53 -45 -155 -78 q-94 -31 -236 -30q-109 0 -182 18q-84 20 -123 47q-43 29 -67 74q-21 39 -21 88zM229 -201q0 -41 11 -65q10 -29 41 -51q25 -20 77 -33q49 -12 123 -12q92 0 156 18q66 18 108 49q41 29 64 74q20 41 20 94q0 57 -34 88q-37 33 -107 33h-364q-23 -20 -39 -41q-12 -16 -29 -49 q-16 -31 -20 -54q-7 -26 -7 -51zM295 643q0 -72 10 -111q14 -51 37 -79q27 -33 61.5 -47.5t92.5 -14.5q111 0 155 62q45 59 45 190q0 57 -10 109q-8 45 -35 77q-23 29 -61 45q-35 14 -92 15q-55 0 -92 -15q-39 -14 -64 -44.5t-37 -77.5q-10 -39 -10 -109zM387 1255 q0 49 14.5 84t42.5 64q27 27 68 47q29 14 100 37v-64q-61 -20 -88 -39q-33 -23 -32 -49q0 -25 16 -35t39 -20q14 -6 39 -27q16 -14 16 -51t-28.5 -59.5t-69.5 -22.5q-25 0 -43 8q-23 10 -37 27q-18 23 -27 43q-10 26 -10 57z" />
<glyph unicode="&#x124;" horiz-adv-x="1478" d="M59 0v53l172 27v1182l-172 26v53h537v-53l-172 -26v-527h631v527l-172 26v53h536v-53l-172 -26v-1182l172 -27v-53h-536v53l172 27v565h-631v-565l172 -27v-53h-537zM415 1452v33l218 274h213l217 -274v-33h-56l-268 185l-268 -185h-56z" />
<glyph unicode="&#x125;" d="M20 1376v45h306v-407v-33q0 -10 -1 -21.5t-1 -21.5q0 -8 -1 -20.5t-1 -20.5q0 -25 -3 -33q16 10 68 33l84 35q43 15 86 24q39 8 80 9q55 0 98 -14.5t78 -49.5q33 -33 51.5 -86t18.5 -127v-618l114 -25v-45h-405v45l125 25v606q0 82 -41 127t-125 45q-39 0 -59 -2 q-10 -2 -32 -4t-32 -4q-37 -4 -57 -9q-6 -2 -22.5 -5t-22.5 -5v-749l127 -25v-45h-412v45l119 25v1282zM186 1493v33l218 274h213l217 -274v-33h-56l-268 185l-268 -185h-56z" />
<glyph unicode="&#x126;" horiz-adv-x="1478" d="M59 0v53l172 27v876h-172v82h172v224l-172 26v53h537v-53l-172 -26v-224h631v224l-172 26v53h536v-53l-172 -26v-224h172v-82h-172v-876l172 -27v-53h-536v53l172 27v565h-631v-565l172 -27v-53h-537zM424 735h631v221h-631v-221z" />
<glyph unicode="&#x127;" d="M20 1376v45h306v-225h274v-84h-274v-98v-33q0 -10 -1 -21.5t-1 -21.5q0 -8 -1 -20.5t-1 -20.5q0 -25 -3 -33q16 10 68 33l84 35q43 15 86 24q39 8 80 9q55 0 98 -14.5t78 -49.5q33 -33 51.5 -86t18.5 -127v-618l114 -25v-45h-405v45l125 25v606q0 82 -41 127t-125 45 q-39 0 -59 -2q-10 -2 -32 -4t-32 -4q-37 -4 -57 -9q-6 -2 -22.5 -5t-22.5 -5v-749l127 -25v-45h-412v45l119 25v1042h-137v84h137v156z" />
<glyph unicode="&#x128;" horiz-adv-x="681" d="M74 0v53l172 27v1182l-172 26v53h536v-53l-172 -26v-1182l172 -27v-53h-536zM18 1473q4 47 13 90q8 39 32 78q18 29 60 53q35 20 90 20q47 0 88 -22q53 -29 78 -47q43 -33 70 -49q33 -20 65 -21q27 0 47 10q18 10 29 29q14 27 16 37q4 14 8 43h52q-4 -47 -13 -90 q-8 -35 -35 -78q-20 -31 -57 -53q-35 -20 -90 -21q-49 0 -88 21q-43 23 -78 49q-25 18 -69 47q-35 23 -66 22q-29 0 -49 -10q-18 -10 -29 -28q-12 -25 -14 -39q0 -8 -4 -20.5t-4 -20.5h-52z" />
<glyph unicode="&#x129;" horiz-adv-x="567" d="M43 0v45l160 25v800l-133 25v45h299v-870l161 -25v-45h-487zM-37 1139q4 47 13 90q8 39 32 78q18 29 60 53q35 20 90 20q47 0 88 -22q53 -29 78 -47q43 -33 70 -49q33 -20 65 -21q27 0 47 10q18 10 29 29q14 27 16 37q4 14 8 43h52q-4 -47 -13 -90q-8 -35 -35 -78 q-20 -31 -57 -53q-35 -20 -90 -21q-49 0 -88 21q-43 23 -78 49q-25 18 -69 47q-35 23 -66 22q-29 0 -49 -10q-18 -10 -29 -28q-12 -25 -14 -39q0 -8 -4 -20.5t-4 -20.5h-52z" />
<glyph unicode="&#x12a;" horiz-adv-x="681" d="M74 0v53l172 27v1182l-172 26v53h536v-53l-172 -26v-1182l172 -27v-53h-536zM27 1475v108h628v-108h-628z" />
<glyph unicode="&#x12b;" horiz-adv-x="567" d="M43 0v45l160 25v800l-133 25v45h299v-870l161 -25v-45h-487zM-28 1141v108h628v-108h-628z" />
<glyph unicode="&#x12c;" horiz-adv-x="681" d="M74 0v53l172 27v1182l-172 26v53h536v-53l-172 -26v-1182l172 -27v-53h-536zM53 1733h74q10 -43 29 -64q22 -25 49 -43q18 -12 63 -24q31 -8 72 -8t72 8q45 12 63 24q28 18 49 43q18 20 29 64h74q-4 -66 -18.5 -109t-53.5 -88q-33 -39 -88 -61.5t-127 -22.5t-127 22.5 t-88 61.5q-39 45 -53 88q-19 54 -19 109z" />
<glyph unicode="&#x12d;" horiz-adv-x="567" d="M43 0v45l160 25v800l-133 25v45h299v-870l161 -25v-45h-487zM0 1399h74q10 -43 29 -64q22 -25 49 -43q18 -12 63 -24q31 -8 72 -8t72 8q45 12 63 24q28 18 49 43q18 20 29 64h74q-4 -66 -18.5 -109t-53.5 -88q-33 -39 -88 -61.5t-127 -22.5t-127 22.5t-88 61.5 q-39 45 -53 88q-19 54 -19 109z" />
<glyph unicode="&#x12e;" horiz-adv-x="681" d="M74 0v53l172 27v1182l-172 26v53h536v-53l-172 -26v-1182l172 -27v-53h-536zM201 -186q0 37 8 63q10 31 23 57q8 16 28 46q15 22 31 36h109q-8 -12 -17 -28q0 -2 -16 -43q-8 -18 -15 -51q-6 -28 -6 -56q0 -78 35 -114q37 -39 103 -39q33 0 63 6q29 6 53 16v-63 q-33 -20 -71 -33q-51 -14 -97 -14q-63 0 -106 18q-47 20 -72 47q-29 33 -41 70q-12 39 -12 82z" />
<glyph unicode="&#x12f;" horiz-adv-x="567" d="M43 0v45l160 25v800l-133 25v45h299v-870l161 -25v-45h-487zM162 1247q0 23 8 41.5t25 34.5q14 14 34 25q16 8 41 8q23 0 41.5 -8.5t34.5 -24.5t24.5 -34.5t8.5 -41.5q0 -25 -8 -41q-10 -20 -25 -35q-16 -16 -34.5 -24t-41.5 -8q-25 0 -41 8q-20 10 -34.5 24.5 t-24.5 34.5q-8 16 -8 41zM133 -186q0 37 8 63q10 31 23 57q8 16 28 46q15 22 31 36h109q-8 -12 -17 -28q0 -2 -16 -43q-8 -18 -15 -51q-6 -28 -6 -56q0 -78 35 -114q37 -39 103 -39q33 0 63 6q29 6 53 16v-63q-33 -20 -71 -33q-51 -14 -97 -14q-63 0 -106 18q-47 20 -72 47 q-29 33 -41 70q-12 39 -12 82z" />
<glyph unicode="&#x130;" horiz-adv-x="681" d="M74 0v53l172 27v1182l-172 26v53h536v-53l-172 -26v-1182l172 -27v-53h-536zM236 1581q0 23 8 41q10 23 22 35q14 14 35 25q16 8 41 8t43 -8.5t34.5 -24.5t25 -34.5t8.5 -41.5q0 -25 -9 -41q-10 -20 -24 -35q-16 -16 -34.5 -24t-43.5 -8t-41 8q-20 10 -35 24 q-10 10 -22 35q-8 16 -8 41z" />
<glyph unicode="&#x131;" horiz-adv-x="567" d="M43 0v45l160 25v800l-133 25v45h299v-870l161 -25v-45h-487z" />
<glyph unicode="&#x132;" horiz-adv-x="1449" d="M74 0v53l172 27v1182l-172 26v53h536v-53l-172 -26v-1182l172 -27v-53h-536zM696 10v244h66l30 -139q18 -23 54 -35q39 -14 77 -14q139 0 140 190v1006l-172 26v53h516v-53l-152 -26v-830q0 -100 -16 -160q-20 -76 -45 -118q-29 -49 -66 -84q-33 -31 -76 -54 q-35 -18 -77 -28q-35 -8 -72 -8q-70 0 -117 8q-63 10 -90 22z" />
<glyph unicode="&#x133;" horiz-adv-x="1130" d="M43 0v45l160 25v800l-133 25v45h299v-870l161 -25v-45h-487zM162 1247q0 23 8 41.5t25 34.5q14 14 34 25q16 8 41 8q23 0 41.5 -8.5t34.5 -24.5t24.5 -34.5t8.5 -41.5q0 -25 -8 -41q-10 -20 -25 -35q-16 -16 -34.5 -24t-41.5 -8q-25 0 -41 8q-20 10 -34.5 24.5 t-24.5 34.5q-8 16 -8 41zM502 -219h47l26 -109q35 -29 84 -28q57 0 88 63.5t31 202.5v960l-141 25v45h307v-979q0 -109 -21 -182q-20 -72 -61 -123q-39 -49 -94 -70q-57 -23 -121 -22q-45 0 -76 6q-6 2 -30.5 5t-38.5 7v199zM737 1247q0 23 8.5 41.5t24.5 34.5t32.5 24.5 t43.5 8.5q25 0 41 -8q20 -10 34 -25q16 -16 24.5 -34.5t8.5 -41.5q0 -25 -8 -41q-10 -20 -24.5 -34.5t-34.5 -24.5q-16 -8 -41 -8q-27 0 -43.5 8t-32.5 24q-14 14 -25 35q-8 16 -8 41z" />
<glyph unicode="&#x134;" horiz-adv-x="796" d="M43 10v244h66l30 -139q18 -23 54 -35q39 -14 77 -14q139 0 140 190v1006l-172 26v53h516v-53l-152 -26v-830q0 -100 -16 -160q-20 -76 -45 -118q-29 -49 -66 -84q-33 -31 -76 -54q-35 -18 -77 -28q-35 -8 -72 -8q-70 0 -117 8q-63 10 -90 22zM180 1452v33l218 274h213 l217 -274v-33h-56l-268 185l-268 -185h-56z" />
<glyph unicode="&#x135;" horiz-adv-x="567" d="M-59 -219h47l26 -109q35 -29 84 -28q57 0 88 63.5t31 202.5v960l-141 25v45h307v-979q0 -109 -21 -182q-20 -72 -61 -123q-39 -49 -94 -70q-57 -23 -121 -22q-45 0 -76 6q-6 2 -30.5 5t-38.5 7v199zM-39 1118v33l217 274h213l217 -274v-33h-55l-268 185l-269 -185h-55z " />
<glyph unicode="&#x136;" horiz-adv-x="1478" d="M59 0v53l172 27v1182l-172 26v53h537v-53l-172 -26v-631l643 631l-133 26v53h420v-53l-156 -26l-459 -449l574 -733l145 -27v-53h-328l-526 678l-180 -146v-452l192 -27v-53h-557zM653 -373q61 20 88 39q33 23 33 49q0 25 -16.5 35t-38.5 21q-4 2 -37 28q-18 15 -19 49 q0 39 29 62q27 20 70 20q27 0 45 -8q23 -10 37 -26q15 -18 24 -43q10 -27 10 -58q0 -49 -14 -84t-41 -61q-29 -29 -69 -49q-29 -14 -101 -37v63z" />
<glyph unicode="&#x137;" d="M39 1376v45h305v-968l385 415l-98 27v45h332v-45l-117 -23l-268 -274l344 -530l102 -23v-45h-385v45l86 25l-258 405l-123 -135v-270l100 -25v-45h-385v45l119 25v1282zM399 -373q61 20 88 39q33 23 33 49q0 25 -16.5 35t-38.5 21q-4 2 -37 28q-18 15 -19 49q0 39 29 62 q27 20 70 20q27 0 45 -8q23 -10 37 -26q15 -18 24 -43q10 -27 10 -58q0 -49 -14 -84t-41 -61q-29 -29 -69 -49q-29 -14 -101 -37v63z" />
<glyph unicode="&#x138;" d="M39 895v45h305v-487l385 415l-98 27v45h332v-45l-117 -23l-268 -274l344 -530l102 -23v-45h-385v45l86 25l-258 405l-123 -135v-270l100 -25v-45h-385v45l119 25v800z" />
<glyph unicode="&#x139;" horiz-adv-x="1249" d="M59 0v53l172 27v1182l-172 26v53h572v-53l-207 -26v-1176h264q125 0 205 6q59 4 108 14l62 279h65l-18 -385h-1051zM293 1452v33l196 272h213v-37l-354 -268h-55z" />
<glyph unicode="&#x13a;" horiz-adv-x="567" d="M41 0v45l160 25v1282l-160 24v45h326v-1351l161 -25v-45h-487zM152 1493v33l196 272h213v-37l-354 -268h-55z" />
<glyph unicode="&#x13b;" horiz-adv-x="1249" d="M59 0v53l172 27v1182l-172 26v53h572v-53l-207 -26v-1176h264q125 0 205 6q59 4 108 14l62 279h65l-18 -385h-1051zM510 -373q61 20 88 39q33 23 33 49q0 25 -16.5 35t-38.5 21q-4 2 -37 28q-18 15 -19 49q0 39 29 62q27 20 70 20q27 0 45 -8q23 -10 37 -26 q15 -18 24 -43q10 -27 10 -58q0 -49 -14 -84t-41 -61q-29 -29 -69 -49q-29 -14 -101 -37v63z" />
<glyph unicode="&#x13c;" horiz-adv-x="567" d="M41 0v45l160 25v1282l-160 24v45h326v-1351l161 -25v-45h-487zM166 -373q61 20 88 39q33 23 33 49q0 25 -16.5 35t-38.5 21q-4 2 -37 28q-18 15 -19 49q0 39 29 62q27 20 70 20q27 0 45 -8q23 -10 37 -26q15 -18 24 -43q10 -27 10 -58q0 -49 -14 -84t-41 -61 q-29 -29 -69 -49q-29 -14 -101 -37v63z" />
<glyph unicode="&#x13d;" horiz-adv-x="1249" d="M59 0v53l172 27v1182l-172 26v53h572v-53l-207 -26v-1176h264q125 0 205 6q59 4 108 14l62 279h65l-18 -385h-1051zM778 915v64q78 18 103 31q33 16 55 38.5t24 38.5q4 25 5 35q0 16 -14.5 28.5t-33.5 27.5q-12 10 -32 34q-14 16 -15 50q0 37 29 59q27 20 70 20 q20 0 45 -10q23 -10 37 -26q16 -18 24 -45q10 -31 10 -62q0 -51 -16 -96q-14 -41 -53 -80q-33 -33 -94 -61q-54 -26 -144 -46z" />
<glyph unicode="&#x13e;" horiz-adv-x="831" d="M72 0v45l160 25v1282l-160 24v45h326v-1351l161 -25v-45h-487zM489 997v64q78 18 103 31q33 16 55 38.5t24 38.5q4 25 5 35q0 16 -14.5 28.5t-33.5 27.5q-12 10 -32 34q-14 16 -15 50q0 37 29 59q27 20 70 20q20 0 45 -10q23 -10 37 -26q16 -18 24 -45q10 -31 10 -62 q0 -51 -16 -96q-14 -41 -53 -80q-33 -33 -94 -61q-54 -26 -144 -46z" />
<glyph unicode="&#x13f;" horiz-adv-x="1249" d="M59 0v53l172 27v1182l-172 26v53h572v-53l-207 -26v-1176h264q125 0 205 6q59 4 108 14l62 279h65l-18 -385h-1051zM703 733q0 23 8 41q10 23 22 35q14 14 35 25q16 8 41 8t43 -8.5t34.5 -24.5t25 -34.5t8.5 -41.5q0 -25 -9 -41q-10 -20 -24 -35q-16 -16 -34.5 -24 t-43.5 -8t-41 8q-20 10 -35 24q-10 10 -22 35q-8 16 -8 41z" />
<glyph unicode="&#x140;" horiz-adv-x="702" d="M41 0v45l160 25v1282l-160 24v45h326v-1351l161 -25v-45h-487zM480 733q0 23 8 41q10 23 22 35q14 14 35 25q16 8 41 8t43 -8.5t34.5 -24.5t25 -34.5t8.5 -41.5q0 -25 -9 -41q-10 -20 -24 -35q-16 -16 -34.5 -24t-43.5 -8t-41 8q-20 10 -35 24q-10 10 -22 35q-8 16 -8 41 z" />
<glyph unicode="&#x141;" horiz-adv-x="1249" d="M43 422v96l188 109v635l-172 26v53h572v-53l-207 -26v-525l307 178v-94l-307 -178v-557h264q125 0 205 6q59 4 108 14l62 279h65l-18 -385h-1051v53l172 27v452z" />
<glyph unicode="&#x142;" horiz-adv-x="567" d="M20 422v96l181 103v731l-160 24v45h326v-704l192 112v-94l-192 -112v-553l161 -25v-45h-487v45l160 25v456z" />
<glyph unicode="&#x143;" horiz-adv-x="1478" d="M59 0v53l172 27v1182l-172 26v53h406l690 -993v914l-180 26v53h457v-53l-172 -26v-1262h-97l-827 1206v-1126l180 -27v-53h-457zM660 1452v33l196 272h213v-37l-354 -268h-55z" />
<glyph unicode="&#x144;" d="M47 0v45l113 25v800l-113 25v45h268l9 -76q16 10 67 33q59 29 80 35q45 16 84 24.5t78 8.5q55 0 98 -14.5t78 -49.5q33 -33 51.5 -86t18.5 -127v-618l114 -25v-45h-405v45l125 25v600q0 84 -41 131t-125 47q-39 0 -60 -2q-10 -2 -30.5 -4t-30.5 -4q-33 -4 -55 -9l-45 -10 v-749l127 -25v-45h-406zM412 1118v33l196 272h213v-37l-354 -268h-55z" />
<glyph unicode="&#x145;" horiz-adv-x="1478" d="M59 0v53l172 27v1182l-172 26v53h406l690 -993v914l-180 26v53h457v-53l-172 -26v-1262h-97l-827 1206v-1126l180 -27v-53h-457zM606 -373q61 20 88 39q33 23 33 49q0 25 -16.5 35t-38.5 21q-4 2 -37 28q-18 15 -19 49q0 39 29 62q27 20 70 20q27 0 45 -8q23 -10 37 -26 q15 -18 24 -43q10 -27 10 -58q0 -49 -14 -84t-41 -61q-29 -29 -69 -49q-29 -14 -101 -37v63z" />
<glyph unicode="&#x146;" d="M47 0v45l113 25v800l-113 25v45h268l9 -76q16 10 67 33q59 29 80 35q45 16 84 24.5t78 8.5q55 0 98 -14.5t78 -49.5q33 -33 51.5 -86t18.5 -127v-618l114 -25v-45h-405v45l125 25v600q0 84 -41 131t-125 47q-39 0 -60 -2q-10 -2 -30.5 -4t-30.5 -4q-33 -4 -55 -9l-45 -10 v-749l127 -25v-45h-406zM389 -373q61 20 88 39q33 23 33 49q0 25 -16.5 35t-38.5 21q-4 2 -37 28q-18 15 -19 49q0 39 29 62q27 20 70 20q27 0 45 -8q23 -10 37 -26q15 -18 24 -43q10 -27 10 -58q0 -49 -14 -84t-41 -61q-29 -29 -69 -49q-29 -14 -101 -37v63z" />
<glyph unicode="&#x147;" horiz-adv-x="1478" d="M59 0v53l172 27v1182l-172 26v53h406l690 -993v914l-180 26v53h457v-53l-172 -26v-1262h-97l-827 1206v-1126l180 -27v-53h-457zM415 1727v32h56l268 -184l268 184h56v-32l-217 -275h-213z" />
<glyph unicode="&#x148;" d="M47 0v45l113 25v800l-113 25v45h268l9 -76q16 10 67 33q59 29 80 35q45 16 84 24.5t78 8.5q55 0 98 -14.5t78 -49.5q33 -33 51.5 -86t18.5 -127v-618l114 -25v-45h-405v45l125 25v600q0 84 -41 131t-125 47q-39 0 -60 -2q-10 -2 -30.5 -4t-30.5 -4q-33 -4 -55 -9l-45 -10 v-749l127 -25v-45h-406zM190 1393v32h56l268 -184l268 184h56v-32l-217 -275h-213z" />
<glyph unicode="&#x149;" horiz-adv-x="1236" d="M256 0v45l113 25v800l-113 25v45h268l9 -76q16 10 67 33q59 29 80 35q45 16 84 24.5t78 8.5q55 0 98 -14.5t78 -49.5q33 -33 51.5 -86t18.5 -127v-618l114 -25v-45h-405v45l125 25v600q0 84 -41 131t-125 47q-39 0 -60 -2q-10 -2 -30.5 -4t-30.5 -4q-33 -4 -55 -9 l-45 -10v-749l127 -25v-45h-406zM2 895v77q90 27 133 70t43 98q0 16 -10 31q-8 10 -24 21q-20 12 -33 18t-33 23q-15 12 -25 30q-10 20 -10 47q0 53 35 82t86 29q27 0 53.5 -10.5t46.5 -30.5q16 -16 31 -51q12 -31 12 -70q0 -55 -16 -115q-14 -55 -53 -102q-43 -53 -94 -86 q-59 -36 -142 -61z" />
<glyph unicode="&#x14a;" horiz-adv-x="1435" d="M59 0v53l172 27v1182l-172 26v53h363l2 -141q66 35 98 49q94 39 123 49q61 20 133 37t135 17q101 0 172 -25q70 -25 113 -74q45 -53 64 -123q18 -74 18 -172v-526q0 -100 -16 -160q-20 -76 -45 -118q-31 -53 -64 -84t-76 -54q-35 -18 -78 -28q-35 -8 -71 -8q-72 0 -119 8 q-59 10 -88 22v244h65l29 -139q18 -20 55 -35q39 -14 76 -14q70 0 107 49q35 47 35 141v694q0 88 -21 142q-22 55 -55 86q-31 29 -80 41q-45 12 -96 12q-43 0 -105 -10q-57 -10 -108 -25q-52 -15 -105 -37q-16 -6 -32.5 -14l-35 -17.5t-28.5 -13.5v-1034l172 -27v-53h-537z " />
<glyph unicode="&#x14b;" horiz-adv-x="1011" d="M47 0v45l113 25v800l-113 25v45h268l9 -76q16 10 61 33q55 29 74 35q43 16 77.5 24.5t71.5 8.5q53 0 90 -15q41 -16 72 -49q33 -35 47 -86q16 -55 17 -127v-727q0 -102 -23 -182q-20 -72 -61 -123q-41 -49 -93 -70q-57 -23 -120 -22q-45 0 -76 6q-6 2 -30.5 5t-39.5 7 v199h47l27 -109q35 -29 84 -28q57 0 88 63.5t31 202.5v760q0 84 -35 131t-111 47q-33 0 -51 -2q-8 -2 -26.5 -4t-28.5 -4q-33 -4 -51 -9l-39 -10v-749l127 -25v-45h-406z" />
<glyph unicode="&#x14c;" horiz-adv-x="1478" d="M84 672q0 178 43 307t127 213q86 86 205 125t280 39q156 0 275 -39q117 -39 207 -125q80 -78 129 -213q45 -127 45 -307q0 -182 -45 -310q-47 -133 -129 -215q-84 -84 -207 -127q-117 -41 -275 -40q-160 0 -274 40q-125 45 -207 127t-129 215q-45 128 -45 310zM293 672 q0 -143 20 -252q23 -119 72 -195q53 -80 137 -123q86 -43 217 -43q129 0 215 43q84 43 138 123q51 80 73 195q20 109 21 252q0 147 -21 252q-22 111 -73 190q-51 78 -138 121q-82 41 -215 41q-135 0 -217 -41q-86 -43 -137 -121q-49 -76 -72 -190q-20 -105 -20 -252z M424 1475v108h628v-108h-628z" />
<glyph unicode="&#x14d;" d="M78 475q0 238 108 365q106 125 328 125q215 0 324 -123q109 -125 108 -367q0 -240 -106 -366q-106 -129 -334 -129q-211 0 -319.5 126.5t-108.5 368.5zM258 475q0 -113 10 -176q12 -80 39 -129q29 -55 78 -82q51 -29 121 -29q72 0 123 29q47 27 80 82q33 57 45 129 q12 78 12 176t-12 174q-12 72 -45 129q-31 52 -80 80q-47 27 -123 27q-74 0 -121 -27q-51 -29 -78 -80q-27 -49 -39 -129q-10 -63 -10 -174zM197 1141v108h628v-108h-628z" />
<glyph unicode="&#x14e;" horiz-adv-x="1478" d="M84 672q0 178 43 307t127 213q86 86 205 125t280 39q156 0 275 -39q117 -39 207 -125q80 -78 129 -213q45 -127 45 -307q0 -182 -45 -310q-47 -133 -129 -215q-84 -84 -207 -127q-117 -41 -275 -40q-160 0 -274 40q-125 45 -207 127t-129 215q-45 128 -45 310zM293 672 q0 -143 20 -252q23 -119 72 -195q53 -80 137 -123q86 -43 217 -43q129 0 215 43q84 43 138 123q51 80 73 195q20 109 21 252q0 147 -21 252q-22 111 -73 190q-51 78 -138 121q-82 41 -215 41q-135 0 -217 -41q-86 -43 -137 -121q-49 -76 -72 -190q-20 -105 -20 -252z M452 1733h74q10 -43 29 -64q22 -25 49 -43q18 -12 63 -24q31 -8 72 -8t72 8q45 12 63 24q28 18 49 43q18 20 29 64h74q-4 -66 -18.5 -109t-53.5 -88q-33 -39 -88 -61.5t-127 -22.5t-127 22.5t-88 61.5q-39 45 -53 88q-19 54 -19 109z" />
<glyph unicode="&#x14f;" d="M78 475q0 238 108 365q106 125 328 125q215 0 324 -123q109 -125 108 -367q0 -240 -106 -366q-106 -129 -334 -129q-211 0 -319.5 126.5t-108.5 368.5zM258 475q0 -113 10 -176q12 -80 39 -129q29 -55 78 -82q51 -29 121 -29q72 0 123 29q47 27 80 82q33 57 45 129 q12 78 12 176t-12 174q-12 72 -45 129q-31 52 -80 80q-47 27 -123 27q-74 0 -121 -27q-51 -29 -78 -80q-27 -49 -39 -129q-10 -63 -10 -174zM225 1399h74q10 -43 29 -64q22 -25 49 -43q18 -12 63 -24q31 -8 72 -8t72 8q45 12 63 24q28 18 49 43q18 20 29 64h74 q-4 -66 -18.5 -109t-53.5 -88q-33 -39 -88 -61.5t-127 -22.5t-127 22.5t-88 61.5q-39 45 -53 88q-19 54 -19 109z" />
<glyph unicode="&#x150;" horiz-adv-x="1478" d="M84 672q0 178 43 307t127 213q86 86 205 125t280 39q156 0 275 -39q117 -39 207 -125q80 -78 129 -213q45 -127 45 -307q0 -182 -45 -310q-47 -133 -129 -215q-84 -84 -207 -127q-117 -41 -275 -40q-160 0 -274 40q-125 45 -207 127t-129 215q-45 128 -45 310zM293 672 q0 -143 20 -252q23 -119 72 -195q53 -80 137 -123q86 -43 217 -43q129 0 215 43q84 43 138 123q51 80 73 195q20 109 21 252q0 147 -21 252q-22 111 -73 190q-51 78 -138 121q-82 41 -215 41q-135 0 -217 -41q-86 -43 -137 -121q-49 -76 -72 -190q-20 -105 -20 -252z M465 1452v33l155 272h193v-37l-293 -268h-55zM815 1452v33l156 272h192v-37l-293 -268h-55z" />
<glyph unicode="&#x151;" d="M78 475q0 238 108 365q106 125 328 125q215 0 324 -123q109 -125 108 -367q0 -240 -106 -366q-106 -129 -334 -129q-211 0 -319.5 126.5t-108.5 368.5zM258 475q0 -113 10 -176q12 -80 39 -129q29 -55 78 -82q51 -29 121 -29q72 0 123 29q47 27 80 82q33 57 45 129 q12 78 12 176t-12 174q-12 72 -45 129q-31 52 -80 80q-47 27 -123 27q-74 0 -121 -27q-51 -29 -78 -80q-27 -49 -39 -129q-10 -63 -10 -174zM236 1118v33l155 272h193v-37l-293 -268h-55zM586 1118v33l156 272h192v-37l-293 -268h-55z" />
<glyph unicode="&#x152;" horiz-adv-x="1820" d="M84 672q0 178 43 307q41 123 127 209q80 80 205 121q119 39 280 39h74q10 0 34.5 -2.5t35.5 -2.5q12 0 32.5 -1t30.5 -1h66h622v-321h-65l-33 217q-29 2 -78 6q-10 0 -28.5 2t-34 3t-29.5 1q-16 0 -45 1t-43 1h-66h-137v-524h281l30 160h64v-412h-64l-30 162h-281v-547 h182q20 0 59.5 1t57.5 1q70 0 99 2l75 6q33 4 47 6l58 248h65l-18 -354h-684h-88q-14 0 -38 -1t-34 -1q-12 0 -32.5 -1t-29 -1t-26.5 -1t-29 -1q-158 0 -274 39q-125 41 -207 120.5t-129 211.5q-45 127 -45 307zM293 671.5q0 -145.5 20 -249.5q23 -117 72 -189 q55 -80 137 -118q88 -41 217 -41q43 0 70 2q49 4 72 8v1173q-20 4 -66 9q-23 2 -76 2q-129 0 -217 -41q-84 -39 -137 -117q-49 -72 -72 -188q-20 -105 -20 -250.5z" />
<glyph unicode="&#x153;" horiz-adv-x="1478" d="M78 475q0 238 98 365q98 125 297 125q98 0 174 -35q78 -35 125 -101q51 70 121 103q72 33 170 33q72 0 133 -21q68 -23 111 -65q45 -45 73 -127q27 -78 27 -197v-82h-543v-18q0 -63 10 -140q10 -68 39 -118q29 -49 84 -82q51 -31 140 -31q37 0 57 2l63 6q16 2 60 10 q6 2 24.5 5.5l28.5 5.5v-56q-23 -16 -53.5 -28.5t-67.5 -24.5t-80 -18t-84 -6q-117 0 -190 32q-76 33 -125 99q-98 -131 -305 -131q-193 0 -291 126q-96 123 -96 369zM258 475q0 -90 10 -176q9 -77 31 -129q23 -53 63.5 -82t102.5 -29q59 0 104 29q41 27 68 82q25 52 37 129 q10 63 10 176v27q-4 98 -14 162q-12 72 -37 121t-68 75q-41 25 -100 25q-63 0 -103 -27q-43 -29 -63 -80q-22 -52 -31 -129q-10 -86 -10 -174zM866 553h367q0 82 -8 137q-10 66 -27 105q-18 41 -53 67q-31 23 -82 23q-55 0 -88 -23q-37 -25 -61.5 -67.5t-36.5 -104.5 q-11 -51 -11 -137z" />
<glyph unicode="&#x154;" horiz-adv-x="1363" d="M59 1288v53h580q139 0 235 -24q88 -23 150 -72q55 -45 82 -112q25 -63 24 -150q0 -74 -22 -137q-18 -53 -61 -107q-37 -45 -89 -77q-47 -29 -104 -46l365 -536l145 -27v-53h-322l-376 588h-242v-508l203 -27v-53h-555v53l159 27v1182zM424 678h176q86 0 156 16 q59 14 102 54q37 33 55 90q18 55 19 131q0 74 -21 135q-16 49 -59 86q-37 31 -104 47q-59 14 -152 14h-172v-573zM537 1452v33l196 272h213v-37l-354 -268h-55z" />
<glyph unicode="&#x155;" horiz-adv-x="681" d="M41 0v45l119 25v800l-119 25v45h274l9 -117q16 14 63 43t86 47q41 18 94 37q43 14 82 15h15v-254h-43l-58 110q-18 0 -59 -4q-29 -2 -66 -10q-20 -4 -61 -16q-27 -8 -51 -19v-702l161 -25v-45h-446zM269 1118v33l196 272h213v-37l-354 -268h-55z" />
<glyph unicode="&#x156;" horiz-adv-x="1363" d="M59 1288v53h580q139 0 235 -24q88 -23 150 -72q55 -45 82 -112q25 -63 24 -150q0 -74 -22 -137q-18 -53 -61 -107q-37 -45 -89 -77q-47 -29 -104 -46l365 -536l145 -27v-53h-322l-376 588h-242v-508l203 -27v-53h-555v53l159 27v1182zM424 678h176q86 0 156 16 q59 14 102 54q37 33 55 90q18 55 19 131q0 74 -21 135q-16 49 -59 86q-37 31 -104 47q-59 14 -152 14h-172v-573zM600 -373q61 20 88 39q33 23 33 49q0 25 -16.5 35t-38.5 21q-4 2 -37 28q-18 15 -19 49q0 39 29 62q27 20 70 20q27 0 45 -8q23 -10 37 -26q15 -18 24 -43 q10 -27 10 -58q0 -49 -14 -84t-41 -61q-29 -29 -69 -49q-29 -14 -101 -37v63z" />
<glyph unicode="&#x157;" horiz-adv-x="681" d="M41 0v45l119 25v800l-119 25v45h274l9 -117q16 14 63 43t86 47q41 18 94 37q43 14 82 15h15v-254h-43l-58 110q-18 0 -59 -4q-29 -2 -66 -10q-20 -4 -61 -16q-27 -8 -51 -19v-702l161 -25v-45h-446zM127 -373q61 20 88 39q33 23 33 49q0 25 -16.5 35t-38.5 21 q-4 2 -37 28q-18 15 -19 49q0 39 29 62q27 20 70 20q27 0 45 -8q23 -10 37 -26q15 -18 24 -43q10 -27 10 -58q0 -49 -14 -84t-41 -61q-29 -29 -69 -49q-29 -14 -101 -37v63z" />
<glyph unicode="&#x158;" horiz-adv-x="1363" d="M59 1288v53h580q139 0 235 -24q88 -23 150 -72q55 -45 82 -112q25 -63 24 -150q0 -74 -22 -137q-18 -53 -61 -107q-37 -45 -89 -77q-47 -29 -104 -46l365 -536l145 -27v-53h-322l-376 588h-242v-508l203 -27v-53h-555v53l159 27v1182zM424 678h176q86 0 156 16 q59 14 102 54q37 33 55 90q18 55 19 131q0 74 -21 135q-16 49 -59 86q-37 31 -104 47q-59 14 -152 14h-172v-573zM309 1727v32h56l268 -184l268 184h56v-32l-217 -275h-213z" />
<glyph unicode="&#x159;" horiz-adv-x="681" d="M41 0v45l119 25v800l-119 25v45h274l9 -117q16 14 63 43t86 47q41 18 94 37q43 14 82 15h15v-254h-43l-58 110q-18 0 -59 -4q-29 -2 -66 -10q-20 -4 -61 -16q-27 -8 -51 -19v-702l161 -25v-45h-446zM18 1393v32h56l268 -184l268 184h56v-32l-217 -275h-213z" />
<glyph unicode="&#x15a;" horiz-adv-x="1138" d="M137 1014q0 77 31 141q33 68 88 109q59 45 141 67q86 25 193 25q98 0 188 -13q92 -12 164 -30v-279h-65l-35 164q-45 33 -109 53q-61 20 -143 21q-72 0 -127 -16.5t-88 -43.5q-35 -29 -53 -65q-16 -33 -17 -80q0 -66 31 -109t80 -73q47 -29 112 -51l131 -46 q74 -27 129 -53q66 -31 113 -76q49 -46 80 -110q31 -66 31 -162q0 -92 -29 -168q-29 -78 -86 -129q-63 -55 -143 -82q-90 -29 -203 -28q-61 0 -123 6q-45 4 -113 16q-41 8 -98 23q-16 4 -78 26v309h66l35 -180q16 -20 53 -45q45 -29 74 -39q57 -20 88 -26q41 -8 90 -9 q80 0 133 21q59 23 92 55.5t53 85.5q18 49 19 107q0 72 -31 119q-31 46 -80 79q-49 35 -113 56l-129 45q-37 12 -129 51q-59 27 -112 72q-49 43 -80 106.5t-31 155.5zM486 1452v33l196 272h213v-37l-354 -268h-55z" />
<glyph unicode="&#x15b;" horiz-adv-x="796" d="M84 698q0 61 22 113q23 53 66 86t98 51q51 16 127 16.5t133 -8.5q43 -6 125 -22v-205h-47l-43 109q-27 23 -69 34q-45 12 -97 13q-82 0 -123 -39q-43 -39 -43 -109q0 -47 21 -75q18 -25 55 -50q33 -20 78 -37l90 -30q49 -16 90 -37q53 -27 80 -51q33 -31 55 -78 q20 -43 21 -115q0 -63 -18.5 -114.5t-63.5 -90.5q-47 -39 -109 -59q-63 -20 -159 -20q-46 0 -92 6q-31 4 -84 12q-39 6 -70 16q-8 2 -22.5 6.5t-18.5 6.5v231h45l49 -131q27 -25 80 -47q47 -20 115 -21q92 0 143 41t51 125q0 49 -20 82q-22 34 -55 55q-33 20 -78 37l-90 29 q-31 10 -88 35q-45 18 -78 49q-37 33 -56 74q-20 42 -20 112zM301 1118v33l196 272h213v-37l-354 -268h-55z" />
<glyph unicode="&#x15c;" horiz-adv-x="1138" d="M137 1014q0 77 31 141q33 68 88 109q59 45 141 67q86 25 193 25q98 0 188 -13q92 -12 164 -30v-279h-65l-35 164q-45 33 -109 53q-61 20 -143 21q-72 0 -127 -16.5t-88 -43.5q-35 -29 -53 -65q-16 -33 -17 -80q0 -66 31 -109t80 -73q47 -29 112 -51l131 -46 q74 -27 129 -53q66 -31 113 -76q49 -46 80 -110q31 -66 31 -162q0 -92 -29 -168q-29 -78 -86 -129q-63 -55 -143 -82q-90 -29 -203 -28q-61 0 -123 6q-45 4 -113 16q-41 8 -98 23q-16 4 -78 26v309h66l35 -180q16 -20 53 -45q45 -29 74 -39q57 -20 88 -26q41 -8 90 -9 q80 0 133 21q59 23 92 55.5t53 85.5q18 49 19 107q0 72 -31 119q-31 46 -80 79q-49 35 -113 56l-129 45q-37 12 -129 51q-59 27 -112 72q-49 43 -80 106.5t-31 155.5zM245 1452v33l218 274h213l217 -274v-33h-56l-268 185l-268 -185h-56z" />
<glyph unicode="&#x15d;" horiz-adv-x="796" d="M84 698q0 61 22 113q23 53 66 86t98 51q51 16 127 16.5t133 -8.5q43 -6 125 -22v-205h-47l-43 109q-27 23 -69 34q-45 12 -97 13q-82 0 -123 -39q-43 -39 -43 -109q0 -47 21 -75q18 -25 55 -50q33 -20 78 -37l90 -30q49 -16 90 -37q53 -27 80 -51q33 -31 55 -78 q20 -43 21 -115q0 -63 -18.5 -114.5t-63.5 -90.5q-47 -39 -109 -59q-63 -20 -159 -20q-46 0 -92 6q-31 4 -84 12q-39 6 -70 16q-8 2 -22.5 6.5t-18.5 6.5v231h45l49 -131q27 -25 80 -47q47 -20 115 -21q92 0 143 41t51 125q0 49 -20 82q-22 34 -55 55q-33 20 -78 37l-90 29 q-31 10 -88 35q-45 18 -78 49q-37 33 -56 74q-20 42 -20 112zM73 1118v33l218 274h213l217 -274v-33h-56l-268 185l-268 -185h-56z" />
<glyph unicode="&#x15e;" horiz-adv-x="1138" d="M137 1014q0 77 31 141q33 68 88 109q59 45 141 67q86 25 193 25q98 0 188 -13q92 -12 164 -30v-279h-65l-35 164q-45 33 -109 53q-61 20 -143 21q-72 0 -127 -16.5t-88 -43.5q-35 -29 -53 -65q-16 -33 -17 -80q0 -66 31 -109t80 -73q47 -29 112 -51l131 -46 q74 -27 129 -53q66 -31 113 -76q49 -46 80 -110q31 -66 31 -162q0 -92 -29 -168q-29 -78 -86 -129q-63 -55 -143 -82q-90 -29 -203 -28q-61 0 -123 6q-45 4 -113 16q-41 8 -98 23q-16 4 -78 26v309h66l35 -180q16 -20 53 -45q45 -29 74 -39q57 -20 88 -26q41 -8 90 -9 q80 0 133 21q59 23 92 55.5t53 85.5q18 49 19 107q0 72 -31 119q-31 46 -80 79q-49 35 -113 56l-129 45q-37 12 -129 51q-59 27 -112 72q-49 43 -80 106.5t-31 155.5zM362 -340q12 -4 23 -6q6 -2 16.5 -2t14.5 -2q20 -4 34 -4q6 0 16.5 -1t14.5 -1q61 0 88 30q27 29 27 74 q0 33 -14.5 53.5t-38.5 34.5q-29 16 -47.5 20.5t-51.5 8.5l41 153h86l-18 -81q90 -8 143 -54q51 -43 51 -116q0 -47 -18 -84t-51 -64q-31 -25 -78 -41q-43 -14 -100 -14q-33 0 -70 6q-45 8 -68 16v74z" />
<glyph unicode="&#x15f;" horiz-adv-x="796" d="M84 698q0 61 22 113q23 53 66 86t98 51q51 16 127 16.5t133 -8.5q43 -6 125 -22v-205h-47l-43 109q-27 23 -69 34q-45 12 -97 13q-82 0 -123 -39q-43 -39 -43 -109q0 -47 21 -75q18 -25 55 -50q33 -20 78 -37l90 -30q49 -16 90 -37q53 -27 80 -51q33 -31 55 -78 q20 -43 21 -115q0 -63 -18.5 -114.5t-63.5 -90.5q-47 -39 -109 -59q-63 -20 -159 -20q-46 0 -92 6q-31 4 -84 12q-39 6 -70 16q-8 2 -22.5 6.5t-18.5 6.5v231h45l49 -131q27 -25 80 -47q47 -20 115 -21q92 0 143 41t51 125q0 49 -20 82q-22 34 -55 55q-33 20 -78 37l-90 29 q-31 10 -88 35q-45 18 -78 49q-37 33 -56 74q-20 42 -20 112zM174 -340q12 -4 23 -6q6 -2 16.5 -2t14.5 -2q20 -4 34 -4q6 0 16.5 -1t14.5 -1q61 0 88 30q27 29 27 74q0 33 -14.5 53.5t-38.5 34.5q-29 16 -47.5 20.5t-51.5 8.5l41 153h86l-18 -81q90 -8 143 -54 q51 -43 51 -116q0 -47 -18 -84t-51 -64q-31 -25 -78 -41q-43 -14 -100 -14q-33 0 -70 6q-45 8 -68 16v74z" />
<glyph unicode="&#x160;" horiz-adv-x="1138" d="M137 1014q0 77 31 141q33 68 88 109q59 45 141 67q86 25 193 25q98 0 188 -13q92 -12 164 -30v-279h-65l-35 164q-45 33 -109 53q-61 20 -143 21q-72 0 -127 -16.5t-88 -43.5q-35 -29 -53 -65q-16 -33 -17 -80q0 -66 31 -109t80 -73q47 -29 112 -51l131 -46 q74 -27 129 -53q66 -31 113 -76q49 -46 80 -110q31 -66 31 -162q0 -92 -29 -168q-29 -78 -86 -129q-63 -55 -143 -82q-90 -29 -203 -28q-61 0 -123 6q-45 4 -113 16q-41 8 -98 23q-16 4 -78 26v309h66l35 -180q16 -20 53 -45q45 -29 74 -39q57 -20 88 -26q41 -8 90 -9 q80 0 133 21q59 23 92 55.5t53 85.5q18 49 19 107q0 72 -31 119q-31 46 -80 79q-49 35 -113 56l-129 45q-37 12 -129 51q-59 27 -112 72q-49 43 -80 106.5t-31 155.5zM274 1727v32h56l268 -184l268 184h56v-32l-217 -275h-213z" />
<glyph unicode="&#x161;" horiz-adv-x="796" d="M84 698q0 61 22 113q23 53 66 86t98 51q51 16 127 16.5t133 -8.5q43 -6 125 -22v-205h-47l-43 109q-27 23 -69 34q-45 12 -97 13q-82 0 -123 -39q-43 -39 -43 -109q0 -47 21 -75q18 -25 55 -50q33 -20 78 -37l90 -30q49 -16 90 -37q53 -27 80 -51q33 -31 55 -78 q20 -43 21 -115q0 -63 -18.5 -114.5t-63.5 -90.5q-47 -39 -109 -59q-63 -20 -159 -20q-46 0 -92 6q-31 4 -84 12q-39 6 -70 16q-8 2 -22.5 6.5t-18.5 6.5v231h45l49 -131q27 -25 80 -47q47 -20 115 -21q92 0 143 41t51 125q0 49 -20 82q-22 34 -55 55q-33 20 -78 37l-90 29 q-31 10 -88 35q-45 18 -78 49q-37 33 -56 74q-20 42 -20 112zM92 1393v32h56l268 -184l268 184h56v-32l-217 -275h-213z" />
<glyph unicode="&#x162;" horiz-adv-x="1249" d="M37 1026v315h1180v-315h-68l-27 209q-20 4 -53 6t-84 6q-61 4 -102 4q-18 0 -55 1t-58 1h-49v-1173l213 -27v-53h-619v53l213 27v1175h-51q-132 0 -221 -6q-94 -6 -125 -14l-27 -209h-67zM502 -373q61 20 88 39q33 23 33 49q0 25 -16.5 35t-38.5 21q-4 2 -37 28 q-18 15 -19 49q0 39 29 62q27 20 70 20q27 0 45 -8q23 -10 37 -26q15 -18 24 -43q10 -27 10 -58q0 -49 -14 -84t-41 -61q-29 -29 -69 -49q-29 -14 -101 -37v63z" />
<glyph unicode="&#x163;" horiz-adv-x="567" d="M20 856v45l125 39l101 213h63v-213h215v-84h-215v-641q0 -68 29 -98q31 -33 78 -33q49 0 73 4q37 6 68 12v-65q-27 -16 -39 -21q-31 -12 -55 -16l-62 -12q-34 -6 -67 -6q-98 0 -144 57q-47 59 -47 160v659h-123zM190 -373q61 20 88 39q33 23 33 49q0 25 -16.5 35 t-38.5 21q-4 2 -37 28q-18 15 -19 49q0 39 29 62q27 20 70 20q27 0 45 -8q23 -10 37 -26q15 -18 24 -43q10 -27 10 -58q0 -49 -14 -84t-41 -61q-29 -29 -69 -49q-29 -14 -101 -37v63z" />
<glyph unicode="&#x164;" horiz-adv-x="1249" d="M37 1026v315h1180v-315h-68l-27 209q-20 4 -53 6t-84 6q-61 4 -102 4q-18 0 -55 1t-58 1h-49v-1173l213 -27v-53h-619v53l213 27v1175h-51q-132 0 -221 -6q-94 -6 -125 -14l-27 -209h-67zM301 1727v32h56l268 -184l268 184h56v-32l-217 -275h-213z" />
<glyph unicode="&#x165;" horiz-adv-x="874" d="M20 856v45l125 39l101 213h63v-213h215v-84h-215v-641q0 -68 29 -98q31 -33 78 -33q49 0 73 4q37 6 68 12v-65q-27 -16 -39 -21q-31 -12 -55 -16l-62 -12q-34 -6 -67 -6q-98 0 -144 57q-47 59 -47 160v659h-123zM532 1021v64q78 18 103 31q33 16 55 38.5t24 38.5 q4 25 5 35q0 16 -14.5 28.5t-33.5 27.5q-12 10 -32 34q-14 16 -15 50q0 37 29 59q27 20 70 20q20 0 45 -10q23 -10 37 -26q16 -18 24 -45q10 -31 10 -62q0 -51 -16 -96q-14 -41 -53 -80q-33 -33 -94 -61q-54 -26 -144 -46z" />
<glyph unicode="&#x166;" horiz-adv-x="1249" d="M37 1026v315h1180v-315h-68l-27 209q-20 4 -53 6t-84 6q-61 4 -102 4q-18 0 -55 1t-58 1h-49v-542h323v-82h-323v-549l213 -27v-53h-619v53l213 27v549h-321v82h321v544h-51q-132 0 -221 -6q-94 -6 -125 -14l-27 -209h-67z" />
<glyph unicode="&#x167;" horiz-adv-x="567" d="M20 856v45l125 39l101 213h63v-213h215v-84h-215v-274h205v-84h-205v-283q0 -68 29 -98q31 -33 78 -33q49 0 73 4q37 6 68 12v-65q-27 -16 -39 -21q-31 -12 -55 -16l-62 -12q-34 -6 -67 -6q-98 0 -144 57q-47 59 -47 160v301h-120v84h120v274h-123z" />
<glyph unicode="&#x168;" horiz-adv-x="1478" d="M43 1288v53h537v-53l-172 -26v-805q0 -82 18 -150q16 -61 63 -114q43 -51 109 -74q74 -27 164 -27q100 0 180 27q72 25 123 71q49 47 72 115q23 72 22 148v809l-180 26v53h457v-53l-172 -26v-801q0 -88 -23 -178q-20 -82 -82 -154q-61 -70 -158 -109q-104 -41 -253 -40 q-266 0 -399.5 120.5t-133.5 341.5v820zM452 1473q4 47 13 90q8 39 32 78q18 29 60 53q35 20 90 20q47 0 88 -22q53 -29 78 -47q43 -33 70 -49q33 -20 65 -21q27 0 47 10q18 10 29 29q14 27 16 37q4 14 8 43h52q-4 -47 -13 -90q-8 -35 -35 -78q-20 -31 -57 -53 q-35 -20 -90 -21q-49 0 -88 21q-43 23 -78 49q-25 18 -69 47q-35 23 -66 22q-29 0 -49 -10q-18 -10 -29 -28q-12 -25 -14 -39q0 -8 -4 -20.5t-4 -20.5h-52z" />
<glyph unicode="&#x169;" d="M27 895v45h286v-672q0 -84 37 -127q39 -45 123 -45q35 0 117 8q53 6 115 23v743l-142 25v45h307v-870l119 -25v-45h-274l-8 76q-16 -10 -68 -33q-6 -4 -84 -31q-27 -8 -88 -22q-47 -10 -80 -10q-53 0 -98 16q-49 18 -76 47q-31 34 -49 86q-16 47 -17 127v614zM188 1139 q4 47 13 90q8 39 32 78q18 29 60 53q35 20 90 20q47 0 88 -22q53 -29 78 -47q43 -33 70 -49q33 -20 65 -21q27 0 47 10q18 10 29 29q14 27 16 37q4 14 8 43h52q-4 -47 -13 -90q-8 -35 -35 -78q-20 -31 -57 -53q-35 -20 -90 -21q-49 0 -88 21q-43 23 -78 49q-25 18 -69 47 q-35 23 -66 22q-29 0 -49 -10q-18 -10 -29 -28q-12 -25 -14 -39q0 -8 -4 -20.5t-4 -20.5h-52z" />
<glyph unicode="&#x16a;" horiz-adv-x="1478" d="M43 1288v53h537v-53l-172 -26v-805q0 -82 18 -150q16 -61 63 -114q43 -51 109 -74q74 -27 164 -27q100 0 180 27q72 25 123 71q49 47 72 115q23 72 22 148v809l-180 26v53h457v-53l-172 -26v-801q0 -88 -23 -178q-20 -82 -82 -154q-61 -70 -158 -109q-104 -41 -253 -40 q-266 0 -399.5 120.5t-133.5 341.5v820zM455 1475v108h628v-108h-628z" />
<glyph unicode="&#x16b;" d="M27 895v45h286v-672q0 -84 37 -127q39 -45 123 -45q35 0 117 8q53 6 115 23v743l-142 25v45h307v-870l119 -25v-45h-274l-8 76q-16 -10 -68 -33q-6 -4 -84 -31q-27 -8 -88 -22q-47 -10 -80 -10q-53 0 -98 16q-49 18 -76 47q-31 34 -49 86q-16 47 -17 127v614zM197 1141 v108h628v-108h-628z" />
<glyph unicode="&#x16c;" horiz-adv-x="1478" d="M43 1288v53h537v-53l-172 -26v-805q0 -82 18 -150q16 -61 63 -114q43 -51 109 -74q74 -27 164 -27q100 0 180 27q72 25 123 71q49 47 72 115q23 72 22 148v809l-180 26v53h457v-53l-172 -26v-801q0 -88 -23 -178q-20 -82 -82 -154q-61 -70 -158 -109q-104 -41 -253 -40 q-266 0 -399.5 120.5t-133.5 341.5v820zM495 1733h74q10 -43 29 -64q22 -25 49 -43q18 -12 63 -24q31 -8 72 -8t72 8q45 12 63 24q28 18 49 43q18 20 29 64h74q-4 -66 -18.5 -109t-53.5 -88q-33 -39 -88 -61.5t-127 -22.5t-127 22.5t-88 61.5q-39 45 -53 88q-19 54 -19 109z " />
<glyph unicode="&#x16d;" d="M27 895v45h286v-672q0 -84 37 -127q39 -45 123 -45q35 0 117 8q53 6 115 23v743l-142 25v45h307v-870l119 -25v-45h-274l-8 76q-16 -10 -68 -33q-6 -4 -84 -31q-27 -8 -88 -22q-47 -10 -80 -10q-53 0 -98 16q-49 18 -76 47q-31 34 -49 86q-16 47 -17 127v614zM225 1399 h74q10 -43 29 -64q22 -25 49 -43q18 -12 63 -24q31 -8 72 -8t72 8q45 12 63 24q28 18 49 43q18 20 29 64h74q-4 -66 -18.5 -109t-53.5 -88q-33 -39 -88 -61.5t-127 -22.5t-127 22.5t-88 61.5q-39 45 -53 88q-19 54 -19 109z" />
<glyph unicode="&#x16e;" horiz-adv-x="1478" d="M43 1288v53h537v-53l-172 -26v-805q0 -82 18 -150q16 -61 63 -114q43 -51 109 -74q74 -27 164 -27q100 0 180 27q72 25 123 71q49 47 72 115q23 72 22 148v809l-180 26v53h457v-53l-172 -26v-801q0 -88 -23 -178q-20 -82 -82 -154q-61 -70 -158 -109q-104 -41 -253 -40 q-266 0 -399.5 120.5t-133.5 341.5v820zM583 1614q0 41 17 80q14 35 42.5 63.5t63.5 42.5q39 16 80 16.5t80 -16.5q35 -14 63.5 -42.5t42.5 -63.5q16 -39 16.5 -80t-16.5 -80q-14 -35 -42.5 -63.5t-63.5 -42.5q-39 -16 -80 -16.5t-80 16.5q-35 14 -63.5 42.5t-42.5 63.5 q-17 39 -17 80zM663 1614q0 -23 10 -47q10 -27 27 -39q25 -20 39 -27q25 -10 47 -10t47 10q14 6 39 27q16 12 27 39q10 25 10 47.5t-10 46.5q-10 20 -26.5 38.5t-39.5 27.5q-25 10 -47.5 10t-46.5 -10q-23 -8 -39 -26.5t-27 -39.5q-10 -24 -10 -47z" />
<glyph unicode="&#x16f;" d="M27 895v45h286v-672q0 -84 37 -127q39 -45 123 -45q35 0 117 8q53 6 115 23v743l-142 25v45h307v-870l119 -25v-45h-274l-8 76q-16 -10 -68 -33q-6 -4 -84 -31q-27 -8 -88 -22q-47 -10 -80 -10q-53 0 -98 16q-49 18 -76 47q-31 34 -49 86q-16 47 -17 127v614zM309 1280 q0 41 17 80q14 35 42.5 63.5t63.5 42.5q39 16 80 16.5t80 -16.5q35 -14 63.5 -42.5t42.5 -63.5q16 -39 16.5 -80t-16.5 -80q-14 -35 -42.5 -63.5t-63.5 -42.5q-39 -16 -80 -16.5t-80 16.5q-35 14 -63.5 42.5t-42.5 63.5q-17 39 -17 80zM389 1280q0 -23 10 -47q10 -27 27 -39 q25 -20 39 -27q25 -10 47 -10t47 10q14 6 39 27q16 12 27 39q10 25 10 47.5t-10 46.5q-10 20 -26.5 38.5t-39.5 27.5q-25 10 -47.5 10t-46.5 -10q-23 -8 -39 -26.5t-27 -39.5q-10 -24 -10 -47z" />
<glyph unicode="&#x170;" horiz-adv-x="1478" d="M43 1288v53h537v-53l-172 -26v-805q0 -82 18 -150q16 -61 63 -114q43 -51 109 -74q74 -27 164 -27q100 0 180 27q72 25 123 71q49 47 72 115q23 72 22 148v809l-180 26v53h457v-53l-172 -26v-801q0 -88 -23 -178q-20 -82 -82 -154q-61 -70 -158 -109q-104 -41 -253 -40 q-266 0 -399.5 120.5t-133.5 341.5v820zM508 1452v33l155 272h193v-37l-293 -268h-55zM858 1452v33l156 272h192v-37l-293 -268h-55z" />
<glyph unicode="&#x171;" d="M27 895v45h286v-672q0 -84 37 -127q39 -45 123 -45q35 0 117 8q53 6 115 23v743l-142 25v45h307v-870l119 -25v-45h-274l-8 76q-16 -10 -68 -33q-6 -4 -84 -31q-27 -8 -88 -22q-47 -10 -80 -10q-53 0 -98 16q-49 18 -76 47q-31 34 -49 86q-16 47 -17 127v614zM228 1118 v33l155 272h193v-37l-293 -268h-55zM578 1118v33l156 272h192v-37l-293 -268h-55z" />
<glyph unicode="&#x172;" horiz-adv-x="1478" d="M43 1288v53h537v-53l-172 -26v-805q0 -82 18 -150q16 -61 63 -114q43 -51 109 -74q74 -27 164 -27q100 0 180 27q72 25 123 71q49 47 72 115q23 72 22 148v809l-180 26v53h457v-53l-172 -26v-801q0 -88 -23 -178q-20 -82 -82 -154q-61 -70 -158 -109q-104 -41 -253 -40 q-266 0 -399.5 120.5t-133.5 341.5v820zM682 -190q0 37 8 63q10 31 23 57q8 16 28 46q15 22 31 36h109q-8 -12 -17 -28q0 -2 -16 -43q-8 -18 -15 -51q-6 -28 -6 -56q0 -78 35 -114q37 -39 103 -39q33 0 63 6q29 6 53 16v-63q-33 -20 -71 -33q-51 -14 -97 -14q-63 0 -106 18 q-47 20 -72 47q-29 33 -41 70q-12 39 -12 82z" />
<glyph unicode="&#x173;" d="M27 895v45h286v-672q0 -84 37 -127q39 -45 123 -45q35 0 117 8q53 6 115 23v743l-142 25v45h307v-870l119 -25v-45h-274l-8 76q-16 -10 -68 -33q-6 -4 -84 -31q-27 -8 -88 -22q-47 -10 -80 -10q-53 0 -98 16q-49 18 -76 47q-31 34 -49 86q-16 47 -17 127v614zM627 -186 q0 37 8 63q10 31 23 57q8 16 28 46q15 22 31 36h109q-8 -12 -17 -28q0 -2 -16 -43q-8 -18 -15 -51q-6 -28 -6 -56q0 -78 35 -114q37 -39 103 -39q33 0 63 6q29 6 53 16v-63q-33 -20 -71 -33q-51 -14 -97 -14q-63 0 -106 18q-47 20 -72 47q-29 33 -41 70q-12 39 -12 82z" />
<glyph unicode="&#x174;" horiz-adv-x="1931" d="M2 1288v53h512v-53l-197 -26l320 -945l360 930h45l349 -930l303 945l-209 26v53h444v-53l-117 -26l-438 -1293h-53l-348 924l-357 -924h-53l-444 1293zM677 1452v33l218 274h213l217 -274v-33h-56l-268 185l-268 -185h-56z" />
<glyph unicode="&#x175;" horiz-adv-x="1478" d="M2 895v45h447v-45l-156 -27l223 -635l227 613h84l226 -617l213 641l-154 25v45h358v-45l-104 -21l-315 -894h-78l-232 620l-229 -620h-74l-325 890zM446 1118v33l218 274h213l217 -274v-33h-56l-268 185l-268 -185h-56z" />
<glyph unicode="&#x176;" horiz-adv-x="1478" d="M23 1288v53h567v-53l-180 -26l385 -619l366 619l-170 26v53h436v-53l-147 -26l-442 -734v-448l213 -27v-53h-619v53l213 27v442l-471 740zM415 1452v33l218 274h213l217 -274v-33h-56l-268 185l-268 -185h-56z" />
<glyph unicode="&#x177;" d="M25 895v45h436v-45l-148 -27l254 -657l246 659l-147 25v45h350v-45l-98 -21l-367 -933q-29 -74 -66 -152q-31 -66 -73 -121q-35 -47 -93 -80q-53 -31 -120 -30q-8 0 -23.5 1t-21.5 1q-25 0 -37 2q-6 0 -16.5 2t-16.5 4q-25 4 -39 8v203h47l33 -96q33 -23 86 -23 q43 0 78 18.5t65 53.5q23 25 54 82q20 39 45 104l26 72l-358 880zM211 1118v33l218 274h213l217 -274v-33h-56l-268 185l-268 -185h-56z" />
<glyph unicode="&#x178;" horiz-adv-x="1478" d="M23 1288v53h567v-53l-180 -26l385 -619l366 619l-170 26v53h436v-53l-147 -26l-442 -734v-448l213 -27v-53h-619v53l213 27v442l-471 740zM473 1559q0 23 9 39q12 25 20 31q20 16 33 22q16 8 39 8q41 0 69.5 -28.5t28.5 -71.5q0 -39 -29 -72q-27 -29 -69 -28q-23 0 -39 8 q-25 12 -33 20t-20 33q-9 16 -9 39zM830 1559q0 43 28.5 71.5t71.5 28.5q41 0 69.5 -28.5t28.5 -71.5q0 -39 -28 -72q-27 -29 -70 -28q-23 0 -39 8q-27 14 -32 20q-10 14 -21 33q-8 16 -8 39z" />
<glyph unicode="&#x179;" horiz-adv-x="1249" d="M98 0v94l752 1161h-250q-131 0 -217 -6q-92 -6 -123 -14l-31 -211h-69v317h913v-86l-758 -1171h291q43 0 129 4q80 4 119 8q10 2 45 5t51.5 5.5t37 6.5t22.5 4l59 256h70l-27 -373h-1014zM514 1452v33l196 272h213v-37l-354 -268h-55z" />
<glyph unicode="&#x17a;" horiz-adv-x="907" d="M55 0v45l516 815h-221q-37 0 -55 -2q-10 -2 -27.5 -5t-25.5 -3q-20 -2 -43 -10.5t-29 -14.5l-31 -135h-47v250h694v-49l-516 -811h275q16 0 57 4t60 8q37 8 53 14q25 10 39 21l51 197h47l-25 -324h-772zM336 1118v33l196 272h213v-37l-354 -268h-55z" />
<glyph unicode="&#x17b;" horiz-adv-x="1249" d="M98 0v94l752 1161h-250q-131 0 -217 -6q-92 -6 -123 -14l-31 -211h-69v317h913v-86l-758 -1171h291q43 0 129 4q80 4 119 8q10 2 45 5t51.5 5.5t37 6.5t22.5 4l59 256h70l-27 -373h-1014zM521 1581q0 23 8 41q10 23 22 35q14 14 35 25q16 8 41 8t43 -8.5t34.5 -24.5 t25 -34.5t8.5 -41.5q0 -25 -9 -41q-10 -20 -24 -35q-16 -16 -34.5 -24t-43.5 -8t-41 8q-20 10 -35 24q-10 10 -22 35q-8 16 -8 41z" />
<glyph unicode="&#x17c;" horiz-adv-x="907" d="M55 0v45l516 815h-221q-37 0 -55 -2q-10 -2 -27.5 -5t-25.5 -3q-20 -2 -43 -10.5t-29 -14.5l-31 -135h-47v250h694v-49l-516 -811h275q16 0 57 4t60 8q37 8 53 14q25 10 39 21l51 197h47l-25 -324h-772zM357 1247q0 23 8 41q10 23 22 35q14 14 35 25q16 8 41 8t43 -8.5 t34.5 -24.5t25 -34.5t8.5 -41.5q0 -25 -9 -41q-10 -20 -24 -35q-16 -16 -34.5 -24t-43.5 -8t-41 8q-20 10 -35 24q-10 10 -22 35q-8 16 -8 41z" />
<glyph unicode="&#x17d;" horiz-adv-x="1249" d="M98 0v94l752 1161h-250q-131 0 -217 -6q-92 -6 -123 -14l-31 -211h-69v317h913v-86l-758 -1171h291q43 0 129 4q80 4 119 8q10 2 45 5t51.5 5.5t37 6.5t22.5 4l59 256h70l-27 -373h-1014zM307 1727v32h56l268 -184l268 184h56v-32l-217 -275h-213z" />
<glyph unicode="&#x17e;" horiz-adv-x="907" d="M55 0v45l516 815h-221q-37 0 -55 -2q-10 -2 -27.5 -5t-25.5 -3q-20 -2 -43 -10.5t-29 -14.5l-31 -135h-47v250h694v-49l-516 -811h275q16 0 57 4t60 8q37 8 53 14q25 10 39 21l51 197h47l-25 -324h-772zM133 1393v32h56l268 -184l268 184h56v-32l-217 -275h-213z" />
<glyph unicode="&#x17f;" horiz-adv-x="567" d="M49 0v45l139 33v932q0 111 20.5 186.5t63.5 134.5q39 53 99 82q61 29 131 29q46 0 80 -6q59 -10 63 -13v-204h-49l-45 122q-10 6 -35 15q-18 6 -47 6q-35 0 -57 -16q-25 -16 -35 -48q-12 -35 -19 -81q-4 -33 -4 -121v-1018l162 -33v-45h-467z" />
<glyph unicode="&#x192;" d="M195 702l8 50l166 34l32 232q12 82 39 143q25 59 72 109q39 41 100 67q59 25 127 25q88 0 154 -19v-182h-47l-33 96q-33 23 -86 23q-43 0 -70 -20q-25 -20 -45 -60q-16 -35 -26 -88l-19 -111l-30 -215h249l-14 -84h-248l-143 -987h-162l137 987h-161z" />
<glyph unicode="&#x1fa;" horiz-adv-x="1478" d="M20 0v53l152 27l457 1272h190l475 -1272l170 -27v-53h-567v53l180 27l-133 387h-528l-135 -387l180 -27v-53h-441zM446 557h467l-237 651zM520 1477q0 41 17 80q14 35 42.5 63.5t63.5 42.5q39 16 80 16.5t80 -16.5q35 -14 63.5 -42.5t42.5 -63.5q16 -39 16.5 -80 t-16.5 -80q-14 -35 -42.5 -63.5t-63.5 -42.5q-39 -16 -80 -16.5t-80 16.5q-35 14 -63.5 42.5t-42.5 63.5q-17 39 -17 80zM600 1477q0 -23 10 -47q10 -27 27 -39q25 -20 39 -27q25 -10 47 -10t47 10q14 6 39 27q16 12 27 39q10 25 10 47.5t-10 46.5q-10 20 -26.5 38.5 t-39.5 27.5q-25 10 -47.5 10t-46.5 -10q-23 -8 -39 -26.5t-27 -39.5q-10 -24 -10 -47zM625 1704v33l196 272h213v-37l-354 -268h-55z" />
<glyph unicode="&#x1fb;" horiz-adv-x="907" d="M72 260q0 63 14 107q16 47 43 77q29 31 64 50q37 18 79 30q47 14 90 17q61 4 95 4l141 4v147q0 41 -6 76q-6 29 -25 59q-12 20 -45 39q-27 14 -69 15q-47 0 -97 -13q-45 -12 -86 -34l-34 -117h-56v205q65 15 135 24q78 10 150 11q63 0 118.5 -12.5t96.5 -41.5 q39 -27 61.5 -78t22.5 -124v-635l117 -25v-45h-258l-19 94q-6 -6 -20.5 -17t-20.5 -18q-23 -18 -61 -39q-27 -14 -84 -28q-46 -12 -105 -12q-72 0 -114 20q-45 20 -74 59t-41 90.5t-12 110.5zM238 266q0 -176 143 -176q63 0 117 16q59 18 100 39v334l-131 -4 q-59 -4 -102 -12q-39 -8 -70 -33q-28 -22 -43 -61q-14 -37 -14 -103zM268 1280q0 41 17 80q14 35 42.5 63.5t63.5 42.5q39 16 80 16.5t80 -16.5q35 -14 63.5 -42.5t42.5 -63.5q16 -39 16.5 -80t-16.5 -80q-14 -35 -42.5 -63.5t-63.5 -42.5q-39 -16 -80 -16.5t-80 16.5 q-35 14 -63.5 42.5t-42.5 63.5q-17 39 -17 80zM348 1280q0 -23 10 -47q10 -27 27 -39q25 -20 39 -27q25 -10 47 -10t47 10q14 6 39 27q16 12 27 39q10 25 10 47.5t-10 46.5q-10 20 -26.5 38.5t-39.5 27.5q-25 10 -47.5 10t-46.5 -10q-23 -8 -39 -26.5t-27 -39.5 q-10 -24 -10 -47zM353 1530v33l196 272h213v-37l-354 -268h-55z" />
<glyph unicode="&#x1fc;" horiz-adv-x="1820" d="M20 0v53l136 27l647 1190l-164 18v53h995v-321h-65l-33 217q-29 2 -78 6q-10 0 -28.5 2t-34 3t-29.5 1q-16 0 -45 1t-43 1h-66h-137v-524h281l30 160h64v-412h-64l-30 162h-281v-547h182q20 0 59.5 1t57.5 1q70 0 99 2l75 6q33 4 47 6l58 248h65l-18 -354h-969v53l152 27 v387h-412l-207 -387l158 -27v-53h-402zM520 557h363v674zM987 1452v33l196 272h213v-37l-354 -268h-55z" />
<glyph unicode="&#x1fd;" horiz-adv-x="1363" d="M72 260q0 63 14 107q16 47 43 77q29 31 64 50q37 18 79 30q47 14 90 17q61 4 95 4l141 4v147q0 41 -6 76q-6 29 -25 59q-12 20 -45 39q-27 14 -69 15q-47 0 -97 -13q-45 -12 -86 -34l-34 -117h-56v205q65 15 135 24q78 10 150 11q70 0 135 -17q63 -16 102 -57 q49 41 107 59q61 18 137 19q74 0 135 -21q66 -23 113 -65q47 -45 75.5 -127t28.5 -197v-82h-534v-90q0 -68 8 -117q8 -51 35 -94q25 -41 76 -66q45 -23 129 -22q41 0 63 2l66 6q23 2 63 10q8 2 28.5 5.5t29.5 5.5v-56q-23 -16 -53.5 -28.5t-67.5 -24.5t-80 -18t-88 -6 q-119 0 -197 32q-80 35 -125 97q-31 -29 -61 -48q-37 -23 -78 -41q-35 -14 -90 -28q-49 -12 -109 -12q-72 0 -114 20q-45 20 -74 59t-41 90.5t-12 110.5zM238 266q0 -176 143 -176q70 0 129 21q76 27 115 47q-8 16 -11 28q0 6 -3 19.5t-5 21.5q-4 29 -6 45.5t-2 46.5v160 l-131 -4q-59 -4 -102 -12q-39 -8 -70 -33q-28 -22 -43 -61q-14 -37 -14 -103zM764 553h360q0 70 -10 137.5t-29 104.5q-22 43 -55 67q-31 23 -84 23q-57 0 -92 -23q-33 -23 -55 -67q-20 -41 -27 -105q-8 -82 -8 -137zM572 1118v33l196 272h213v-37l-354 -268h-55z" />
<glyph unicode="&#x1fe;" horiz-adv-x="1478" d="M84 672q0 178 43 307t127 213q86 86 205 125t280 39q123 0 232 -29q113 -29 186 -84l123 148h115l-170 -205q84 -90 125 -211q45 -131 45 -303q0 -182 -45 -310q-47 -133 -129 -215q-84 -84 -207 -127q-117 -41 -275 -40q-129 0 -229 26q-109 29 -184 84l-121 -145h-119 l170 205q-88 90 -129 215q-43 129 -43 307zM293 672q0 -129 14.5 -221.5t50.5 -176.5l715 865q-55 68 -133 102.5t-201 34.5q-135 0 -217 -41q-86 -43 -137 -121q-49 -76 -72 -190q-20 -105 -20 -252zM410 193q53 -68 133 -101q78 -33 196 -33q129 0 215 43q84 43 138 123 q51 80 73 195q20 109 21 252q0 123 -15 215q-14 94 -49 172zM627 1452v33l196 272h213v-37l-354 -268h-55z" />
<glyph unicode="&#x1ff;" d="M70 -84l127 178q-59 61 -91 158q-29 88 -28 223q0 238 108 365q106 125 328 125q150 0 250 -64l84 121h104l-123 -174q53 -55 86 -156q31 -92 31 -217q0 -240 -106 -366q-106 -129 -334 -129q-141 0 -242 59l-86 -123h-108zM258 475q0 -74 6 -139q6 -57 23 -113l405 578 q-31 43 -76 63q-43 20 -110 21q-74 0 -121 -27q-51 -29 -78 -80q-27 -49 -39 -129q-10 -63 -10 -174zM330 135q29 -39 71.5 -57.5t104.5 -18.5q72 0 123 29q47 27 80 82q33 57 45 129q12 78 12 176q0 49 -8 131q-6 53 -23 109zM404 1118v33l196 272h213v-37l-354 -268h-55z " />
<glyph unicode="&#x2c6;" horiz-adv-x="681" d="M18 1118v33l218 274h213l217 -274v-33h-56l-268 185l-268 -185h-56z" />
<glyph unicode="&#x2c7;" horiz-adv-x="681" d="M18 1393v32h56l268 -184l268 184h56v-32l-217 -275h-213z" />
<glyph unicode="&#x2c9;" horiz-adv-x="681" d="M27 1141v108h628v-108h-628z" />
<glyph unicode="&#x2d8;" horiz-adv-x="681" d="M53 1399h74q10 -43 29 -64q22 -25 49 -43q18 -12 63 -24q31 -8 72 -8t72 8q45 12 63 24q28 18 49 43q18 20 29 64h74q-4 -66 -18.5 -109t-53.5 -88q-33 -39 -88 -61.5t-127 -22.5t-127 22.5t-88 61.5q-39 45 -53 88q-19 54 -19 109z" />
<glyph unicode="&#x2d9;" horiz-adv-x="681" d="M236 1247q0 23 8 41q10 23 22 35q14 14 35 25q16 8 41 8t43 -8.5t34.5 -24.5t25 -34.5t8.5 -41.5q0 -25 -9 -41q-10 -20 -24 -35q-16 -16 -34.5 -24t-43.5 -8t-41 8q-20 10 -35 24q-10 10 -22 35q-8 16 -8 41z" />
<glyph unicode="&#x2da;" horiz-adv-x="681" d="M137 1280q0 41 17 80q14 35 42.5 63.5t63.5 42.5q39 16 80 16.5t80 -16.5q35 -14 63.5 -42.5t42.5 -63.5q16 -39 16.5 -80t-16.5 -80q-14 -35 -42.5 -63.5t-63.5 -42.5q-39 -16 -80 -16.5t-80 16.5q-35 14 -63.5 42.5t-42.5 63.5q-17 39 -17 80zM217 1280q0 -23 10 -47 q10 -27 27 -39q25 -20 39 -27q25 -10 47 -10t47 10q14 6 39 27q16 12 27 39q10 25 10 47.5t-10 46.5q-10 20 -26.5 38.5t-39.5 27.5q-25 10 -47.5 10t-46.5 -10q-23 -8 -39 -26.5t-27 -39.5q-10 -24 -10 -47z" />
<glyph unicode="&#x2db;" horiz-adv-x="681" d="M125 -186q0 37 8 63q10 31 23 57q8 16 28 46q15 22 31 36h109q-8 -12 -17 -28q0 -2 -16 -43q-8 -18 -15 -51q-6 -28 -6 -56q0 -78 35 -114q37 -39 103 -39q33 0 63 6q29 6 53 16v-63q-33 -20 -71 -33q-51 -14 -97 -14q-63 0 -106 18q-47 20 -72 47q-29 33 -41 70 q-12 39 -12 82z" />
<glyph unicode="&#x2dc;" horiz-adv-x="681" d="M18 1139q4 47 13 90q8 39 32 78q18 29 60 53q35 20 90 20q47 0 88 -22q53 -29 78 -47q43 -33 70 -49q33 -20 65 -21q27 0 47 10q18 10 29 29q14 27 16 37q4 14 8 43h52q-4 -47 -13 -90q-8 -35 -35 -78q-20 -31 -57 -53q-35 -20 -90 -21q-49 0 -88 21q-43 23 -78 49 q-25 18 -69 47q-35 23 -66 22q-29 0 -49 -10q-18 -10 -29 -28q-12 -25 -14 -39q0 -8 -4 -20.5t-4 -20.5h-52z" />
<glyph unicode="&#x2dd;" horiz-adv-x="681" d="M-8 1118v33l155 272h193v-37l-293 -268h-55zM342 1118v33l156 272h192v-37l-293 -268h-55z" />
<glyph unicode="&#x384;" horiz-adv-x="681" d="M215 1118v33l70 293h186v-37l-201 -289h-55z" />
<glyph unicode="&#x385;" horiz-adv-x="681" d="M51 1212q0 39 27 64q31 27 63 27q37 0 64 -27q25 -25 24 -64q0 -37 -24 -65q-25 -27 -64 -27q-37 0 -63.5 26.5t-26.5 65.5zM264 1118v33l49 324h189v-37l-183 -320h-55zM453 1212q0 39 26 64q31 27 64 27q35 0 61.5 -27t26.5 -64q0 -35 -27 -65q-25 -27 -61.5 -27 t-63 26.5t-26.5 65.5z" />
<glyph unicode="&#x386;" horiz-adv-x="1478" d="M20 0v53l152 27l457 1272h190l475 -1272l170 -27v-53h-567v53l180 27l-133 387h-528l-135 -387l180 -27v-53h-441zM446 557h467l-237 651zM111 1028v33l70 293h186v-37l-201 -289h-55z" />
<glyph unicode="&#x387;" horiz-adv-x="567" d="M135 677.5q0 22.5 10.5 47.5t24.5 39t38.5 24.5t47.5 10.5t47.5 -10.5t38.5 -24.5t24.5 -39t10.5 -47.5t-10.5 -47t-24.5 -38.5t-38.5 -24.5t-47.5 -10.5t-47.5 10.5t-38.5 24.5t-24.5 38.5t-10.5 47z" />
<glyph unicode="&#x388;" horiz-adv-x="1419" d="M229 0v53l172 27v1182l-172 26v53h1006v-321h-66l-32 217q-29 2 -78 6q-10 0 -28.5 2t-34 3t-29.5 1q-16 0 -45 1t-43 1h-66h-219v-524h362l31 160h64v-412h-64l-31 162h-362v-547h264q20 0 59 1t58 1q70 0 98 2l76 6q33 4 47 6l57 248h66l-19 -354h-1071zM-72 1016v33 l70 293h186v-37l-201 -289h-55z" />
<glyph unicode="&#x389;" horiz-adv-x="1654" d="M229 0v53l172 27v1182l-172 26v53h537v-53l-172 -26v-527h631v527l-172 26v53h536v-53l-172 -26v-1182l172 -27v-53h-536v53l172 27v565h-631v-565l172 -27v-53h-537zM-72 1016v33l70 293h186v-37l-201 -289h-55z" />
<glyph unicode="&#x38a;" horiz-adv-x="841" d="M234 0v53l172 27v1182l-172 26v53h536v-53l-172 -26v-1182l172 -27v-53h-536zM-72 1016v33l70 293h186v-37l-201 -289h-55z" />
<glyph unicode="&#x38c;" horiz-adv-x="1478" d="M84 672q0 178 43 307t127 213q86 86 205 125t280 39q156 0 275 -39q117 -39 207 -125q80 -78 129 -213q45 -127 45 -307q0 -182 -45 -310q-47 -133 -129 -215q-84 -84 -207 -127q-117 -41 -275 -40q-160 0 -274 40q-125 45 -207 127t-129 215q-45 128 -45 310zM293 672 q0 -143 20 -252q23 -119 72 -195q53 -80 137 -123q86 -43 217 -43q129 0 215 43q84 43 138 123q51 80 73 195q20 109 21 252q0 147 -21 252q-22 111 -73 190q-51 78 -138 121q-82 41 -215 41q-135 0 -217 -41q-86 -43 -137 -121q-49 -76 -72 -190q-20 -105 -20 -252z M-59 1016v33l70 293h186v-37l-201 -289h-55z" />
<glyph unicode="&#x38e;" horiz-adv-x="1669" d="M216 1288v53h567v-53l-180 -26l385 -619l366 619l-170 26v53h436v-53l-147 -26l-442 -734v-448l213 -27v-53h-619v53l213 27v442l-471 740zM-68 1016v33l70 293h186v-37l-201 -289h-55z" />
<glyph unicode="&#x38f;" horiz-adv-x="1521" d="M106 801q0 139 43 243q43 106 127 175q86 70 205 102q127 35 280 35q152 0 279 -35q123 -33 207 -102q80 -66 125 -174.5t45 -243.5q0 -109 -35 -201q-33 -86 -98 -158q-63 -70 -150 -112q-90 -45 -188 -60l-10 -100h71q16 0 48 1t46 1q57 0 82 2q41 4 66 6q28 3 43 6 l57 144h66l-19 -330h-569l27 342q92 12 161 53q66 39 111 103q43 61 61 139q20 86 21 164q0 102 -23 192q-23 92 -71 150q-57 68 -138 98q-88 35 -215 35q-129 0 -217 -35q-80 -31 -137 -98q-49 -57 -72 -150q-20 -82 -20 -192q0 -78 20 -164q18 -78 62 -139 q45 -66 108 -103q70 -41 162 -53l29 -342h-569l-21 330h68l57 -144q15 -3 43 -6q25 -2 66 -6q25 -2 81 -2q14 0 45 -1t48 -1h71l-10 100q-98 14 -188 60q-82 41 -147.5 112.5t-98.5 157.5q-35 92 -35 201zM-59 1016v33l70 293h186v-37l-201 -289h-55z" />
<glyph unicode="&#x390;" horiz-adv-x="550" d="M45 895v45h299v-727q0 -66 23 -96q25 -33 61 -33q41 0 59 4l56 12v-65q-33 -18 -35 -21q-27 -10 -47 -16l-55 -12q-29 -6 -60 -6q-84 0 -127 57q-41 55 -41 160v673zM-8 1212q0 39 27 64q31 27 63 27q37 0 64 -27q25 -25 24 -64q0 -37 -24 -65q-25 -27 -64 -27 q-37 0 -63.5 26.5t-26.5 65.5zM205 1118v33l49 324h189v-37l-183 -320h-55zM394 1212q0 39 26 64q31 27 64 27q35 0 61.5 -27t26.5 -64q0 -35 -27 -65q-25 -27 -61.5 -27t-63 26.5t-26.5 65.5z" />
<glyph unicode="&#x391;" horiz-adv-x="1478" d="M20 0v53l152 27l457 1272h190l475 -1272l170 -27v-53h-567v53l180 27l-133 387h-528l-135 -387l180 -27v-53h-441zM446 557h467l-237 651z" />
<glyph unicode="&#x392;" horiz-adv-x="1363" d="M59 0v53l172 27v1182l-172 26v53h613q135 0 235 -22q92 -20 152 -62q53 -37 80 -100q25 -59 24 -131q0 -66 -20 -115q-23 -53 -58 -92q-35 -37 -88 -65q-51 -27 -110 -39q84 -8 157 -35q70 -25 119 -68t76 -100q27 -55 27 -127q0 -88 -29 -158q-31 -76 -92 -125 q-63 -51 -164 -79q-102 -29 -238 -29q-76 0 -223 4q-74 2 -205 2h-256zM424 90q61 -4 96 -4q29 -2 94 -2h105q96 0 158 20q70 23 106 60q39 39 57.5 94t18.5 125q0 66 -23 121q-18 47 -69 84q-45 33 -123 49t-180 16h-240v-563zM424 743h219q86 0 154 21q59 18 96 55t51 84 q14 45 14 113q0 59 -18 102q-20 47 -55 74q-37 29 -103 45q-57 14 -151 14h-207v-508z" />
<glyph unicode="&#x393;" horiz-adv-x="1183" d="M59 0v53l172 27v1182l-172 26v53h1041l18 -385h-65l-62 279q-33 6 -108 12q-106 8 -205 8h-254v-1175l207 -27v-53h-572z" />
<glyph unicode="&#x394;" horiz-adv-x="1316" d="M78 80l477 1272h190l494 -1272v-80h-1159zM207 109h805l-406 1087z" />
<glyph unicode="&#x395;" horiz-adv-x="1249" d="M59 0v53l172 27v1182l-172 26v53h1006v-321h-66l-32 217q-29 2 -78 6q-10 0 -28.5 2t-34 3t-29.5 1q-16 0 -45 1t-43 1h-66h-219v-524h362l31 160h64v-412h-64l-31 162h-362v-547h264q20 0 59 1t58 1q70 0 98 2l76 6q33 4 47 6l57 248h66l-19 -354h-1071z" />
<glyph unicode="&#x396;" horiz-adv-x="1249" d="M98 0v94l752 1161h-250q-131 0 -217 -6q-92 -6 -123 -14l-31 -211h-69v317h913v-86l-758 -1171h291q43 0 129 4q80 4 119 8q10 2 45 5t51.5 5.5t37 6.5t22.5 4l59 256h70l-27 -373h-1014z" />
<glyph unicode="&#x397;" horiz-adv-x="1478" d="M59 0v53l172 27v1182l-172 26v53h537v-53l-172 -26v-527h631v527l-172 26v53h536v-53l-172 -26v-1182l172 -27v-53h-536v53l172 27v565h-631v-565l172 -27v-53h-537z" />
<glyph unicode="&#x398;" horiz-adv-x="1478" d="M84 672q0 178 43 307t127 213q86 86 205 125t280 39q156 0 275 -39q117 -39 207 -125q80 -78 129 -213q45 -127 45 -307q0 -182 -45 -310q-47 -133 -129 -215q-84 -84 -207 -127q-117 -41 -275 -40q-160 0 -274 40q-125 45 -207 127t-129 215q-45 128 -45 310zM293 672 q0 -143 20 -252q23 -119 72 -195q53 -80 137 -123q86 -43 217 -43q129 0 215 43q84 43 138 123q51 80 73 195q20 109 21 252q0 147 -21 252q-22 111 -73 190q-51 78 -138 121q-82 41 -215 41q-135 0 -217 -41q-86 -43 -137 -121q-49 -76 -72 -190q-20 -105 -20 -252z M463 469v412h63l31 -142h363l30 142h66v-412h-66l-30 141h-363l-31 -141h-63z" />
<glyph unicode="&#x399;" horiz-adv-x="681" d="M74 0v53l172 27v1182l-172 26v53h536v-53l-172 -26v-1182l172 -27v-53h-536z" />
<glyph unicode="&#x39a;" horiz-adv-x="1478" d="M59 0v53l172 27v1182l-172 26v53h537v-53l-172 -26v-631l643 631l-133 26v53h420v-53l-156 -26l-459 -449l574 -733l145 -27v-53h-328l-526 678l-180 -146v-452l192 -27v-53h-557z" />
<glyph unicode="&#x39b;" horiz-adv-x="1484" d="M20 0v53l146 27l463 1272h190l475 -1272l170 -27v-53h-567v53l180 27l-395 1116l-401 -1116l180 -27v-53h-441z" />
<glyph unicode="&#x39c;" horiz-adv-x="1820" d="M59 0v53l172 27v1182l-172 26v53h406l436 -1019l475 1019h385v-53l-172 -26v-1182l172 -27v-53h-544v53l180 27v1073l-535 -1153h-35l-491 1153v-1073l180 -27v-53h-457z" />
<glyph unicode="&#x39d;" horiz-adv-x="1478" d="M59 0v53l172 27v1182l-172 26v53h406l690 -993v914l-180 26v53h457v-53l-172 -26v-1262h-97l-827 1206v-1126l180 -27v-53h-457z" />
<glyph unicode="&#x39e;" horiz-adv-x="1316" d="M111 375h65l57 -189q16 -4 52 -6q43 -4 84 -6q33 -2 108 -2q18 0 59.5 -1t61.5 -1h147q20 0 59.5 1t57.5 1q70 0 99 2l75 6q33 4 47 6l58 189h65l-18 -375h-1059zM160 1010l20 331h957l20 -331h-65l-54 157q-29 2 -77 7q-61 4 -93 4q-16 0 -44.5 1t-43.5 1q-16 0 -37.5 1 t-27.5 1h-113q-6 0 -27.5 -1t-37.5 -1q-14 0 -43 -1t-45 -1q-33 0 -95 -4q-43 -2 -75 -7l-54 -157h-65zM354 469v412h66l31 -142h415l31 142h64v-412h-64l-31 141h-415l-31 -141h-66z" />
<glyph unicode="&#x39f;" horiz-adv-x="1478" d="M84 672q0 178 43 307t127 213q86 86 205 125t280 39q156 0 275 -39q117 -39 207 -125q80 -78 129 -213q45 -127 45 -307q0 -182 -45 -310q-47 -133 -129 -215q-84 -84 -207 -127q-117 -41 -275 -40q-160 0 -274 40q-125 45 -207 127t-129 215q-45 128 -45 310zM293 672 q0 -143 20 -252q23 -119 72 -195q53 -80 137 -123q86 -43 217 -43q129 0 215 43q84 43 138 123q51 80 73 195q20 109 21 252q0 147 -21 252q-22 111 -73 190q-51 78 -138 121q-82 41 -215 41q-135 0 -217 -41q-86 -43 -137 -121q-49 -76 -72 -190q-20 -105 -20 -252z" />
<glyph unicode="&#x3a0;" horiz-adv-x="1478" d="M59 0v53l172 27v1182l-172 26v53h1360v-53l-172 -26v-1182l172 -27v-53h-536v53l172 27v1171h-631v-1171l172 -27v-53h-537z" />
<glyph unicode="&#x3a1;" horiz-adv-x="1138" d="M59 1288v53h506q139 0 236 -30q90 -29 151 -84q53 -47 80 -125q25 -70 25 -156q0 -88 -23 -158q-25 -77 -80 -135t-147 -92q-94 -35 -232 -35h-151v-446l213 -27v-53h-565v53l159 27v1182zM424 616h104q90 0 158 23q63 20 102 63q37 41 54 105q16 66 16 137q0 80 -18 137 q-20 63 -56 97q-40 37 -104 55q-66 18 -158 18h-98v-635z" />
<glyph unicode="&#x3a3;" horiz-adv-x="1191" d="M80 0v74l438 571l-430 617v79h922v-321h-68l-41 217l-76 6l-86 6q-14 0 -41.5 1t-40.5 1h-61h-266l348 -503v-52l-404 -526h263q20 0 63 1t68 1q90 0 131 2q57 2 106 6q46 3 62 6l57 189h66l-21 -375h-989z" />
<glyph unicode="&#x3a4;" horiz-adv-x="1249" d="M37 1026v315h1180v-315h-68l-27 209q-20 4 -53 6t-84 6q-61 4 -102 4q-18 0 -55 1t-58 1h-49v-1173l213 -27v-53h-619v53l213 27v1175h-51q-132 0 -221 -6q-94 -6 -125 -14l-27 -209h-67z" />
<glyph unicode="&#x3a5;" horiz-adv-x="1478" d="M23 1288v53h567v-53l-180 -26l385 -619l366 619l-170 26v53h436v-53l-147 -26l-442 -734v-448l213 -27v-53h-619v53l213 27v442l-471 740z" />
<glyph unicode="&#x3a6;" horiz-adv-x="1495" d="M61 692q0 82 25 162q27 84 82 143q57 61 151 101q92 39 236 39h102v125l-172 26v53h527v-53l-172 -26v-125h102q143 0 236 -39q94 -39 151 -101q55 -59 82 -143q25 -80 25 -162q0 -49 -11 -110q-8 -49 -32 -109q-20 -49 -60 -98q-37 -46 -92 -80q-59 -37 -125 -53 q-78 -20 -164 -21h-112v-141l172 -27v-53h-527v53l172 27v141h-112q-86 0 -164 21q-66 16 -125 53q-55 34 -92 80q-39 49 -60 98q-25 59 -32 109q-11 61 -11 110zM260 690q0 -72 16 -147q14 -70 56 -125q43 -57 100 -86q70 -33 160 -33h65v762h-59q-92 0 -160 -29 q-59 -27 -102 -78q-39 -47 -57 -116q-19 -68 -19 -148zM840 299h65q88 0 158 33q61 29 102 86q41 55 56 125q16 76 16 147q0 80 -18 148q-18 70 -58 116q-43 51 -102 78q-68 29 -160 29h-59v-762z" />
<glyph unicode="&#x3a7;" horiz-adv-x="1478" d="M45 0v53l148 27l456 606l-389 576l-151 26v53h553v-53l-170 -26l278 -414l311 414l-166 26v53h439v-53l-148 -26l-377 -502l461 -680l152 -27v-53h-553v53l170 27l-352 520l-390 -520l166 -27v-53h-438z" />
<glyph unicode="&#x3a8;" horiz-adv-x="1509" d="M6 1288v53h313v-415q0 -172 82 -256t263 -84v676l-183 26v53h547v-53l-182 -26v-676q180 0 264 84q82 82 82 256v415h313v-53l-121 -26v-330q0 -111 -30 -191q-33 -82 -94 -133q-63 -51 -166 -76q-111 -27 -248 -26v-426l182 -27v-53h-547v53l183 27v426q-135 0 -246 26 q-102 25 -166 76q-61 51 -94 133q-31 80 -31 191v330z" />
<glyph unicode="&#x3a9;" horiz-adv-x="1521" d="M106 801q0 139 44 243q43 106 126 175q86 70 205 102q127 35 281 35q152 0 278 -35q119 -33 205 -102q84 -68 127 -175q43 -104 43 -243q0 -109 -35 -201q-33 -88 -96 -157.5t-149 -112.5q-90 -45 -189 -60l-10 -100h72q16 0 46.5 1t45.5 1q57 0 82 2q49 4 67 6 q28 3 43 6l58 144h65l-18 -330h-570l27 342q92 12 162 53q66 39 110 103q43 61 62 139q18 76 18 164q0 111 -20 192q-23 92 -72 150q-57 68 -137 98q-88 35 -215 35q-129 0 -217 -35q-80 -31 -137 -98q-49 -57 -72 -150q-20 -82 -21 -192q0 -88 19 -164q18 -74 63 -139.5 t109 -102.5q70 -41 162 -53l26 -342h-567l-21 330h66l57 -144q12 -2 45 -6q25 -2 66 -6q25 -2 82 -2q14 0 45 -1t47 -1h72l-11 100q-98 14 -188 60q-86 43 -149.5 112.5t-96.5 157.5q-35 92 -35 201z" />
<glyph unicode="&#x3aa;" horiz-adv-x="681" d="M74 0v53l172 27v1182l-172 26v53h536v-53l-172 -26v-1182l172 -27v-53h-536zM63 1559q0 23 9 39q12 25 20 31q20 16 33 22q16 8 39 8q41 0 69.5 -28.5t28.5 -71.5q0 -39 -29 -72q-27 -29 -69 -28q-23 0 -39 8q-25 12 -33 20t-20 33q-9 16 -9 39zM420 1559q0 43 28.5 71.5 t71.5 28.5q41 0 69.5 -28.5t28.5 -71.5q0 -39 -28 -72q-27 -29 -70 -28q-23 0 -39 8q-27 14 -32 20q-10 14 -21 33q-8 16 -8 39z" />
<glyph unicode="&#x3ab;" horiz-adv-x="1478" d="M23 1288v53h567v-53l-180 -26l385 -619l366 619l-170 26v53h436v-53l-147 -26l-442 -734v-448l213 -27v-53h-619v53l213 27v442l-471 740zM462 1559q0 23 9 39q12 25 20 31q20 16 33 22q16 8 39 8q41 0 69.5 -28.5t28.5 -71.5q0 -39 -29 -72q-27 -29 -69 -28q-23 0 -39 8 q-25 12 -33 20t-20 33q-9 16 -9 39zM819 1559q0 43 28.5 71.5t71.5 28.5q41 0 69.5 -28.5t28.5 -71.5q0 -39 -28 -72q-27 -29 -70 -28q-23 0 -39 8q-27 14 -32 20q-10 14 -21 33q-8 16 -8 39z" />
<glyph unicode="&#x3ac;" horiz-adv-x="1071" d="M78 453q0 125 28.5 223t77.5 160q52 65 123 98q68 33 162 33q61 0 115 -17q51 -16 90 -49q35 -29 67.5 -86t53.5 -125h6l69 250h156v-41q-14 -23 -38.5 -74t-43.5 -100q-23 -55 -45 -119q-12 -33 -24.5 -63.5t-22.5 -59.5q18 -80 61 -233q25 -84 64 -191l47 -14v-45h-213 q-8 23 -20 72l-19 73q-8 31 -14 68q-2 14 -6 30.5t-7 30.5h-6q-37 -72 -67 -120q-33 -53 -72 -93q-35 -35 -90 -59q-51 -23 -119 -22q-72 0 -131 30q-57 31 -98 90q-40 58 -62 148q-22 94 -22 205zM258 453q0 -180 47 -279q47 -96 125 -96q55 0 100 33q43 31 78 84 q33 49 62 124q51 129 55 144q-12 109 -35 192q-25 88 -49 131q-31 53 -68 76q-41 25 -90 25q-115 0 -170 -113q-55 -114 -55 -321zM448 1118v33l70 293h186v-37l-201 -289h-55z" />
<glyph unicode="&#x3ad;" horiz-adv-x="858" d="M80 268q0 52 18 92q20 43 49 70q33 29 72 47q43 20 84 29v6q-27 8 -72 33q-37 20 -59 42.5t-39 59.5q-14 31 -14 78q0 66 33 111q37 49 88 75q57 29 124.5 41.5t139.5 12.5q74 0 137 -9q76 -10 131 -26v-197h-47l-57 113q-20 10 -33 14q-4 2 -18.5 7t-22.5 7 q-14 4 -47 8.5t-49 4.5q-23 0 -72 -8q-37 -6 -68 -25q-33 -20 -51 -53q-18 -35 -18 -82t10 -74q12 -29 31 -51q20 -25 39 -35q22 -12 43 -18q8 2 26.5 3t28.5 1q45 4 68 4q12 0 33.5 1t29.5 1q10 0 23.5 1t15.5 1h31v-96h-31h-39q-16 0 -66 4q-12 2 -37.5 2t-37.5 2 q-10 0 -32 1t-32 3q-16 -4 -49 -20q-16 -8 -45 -37q-23 -23 -35 -55.5t-12 -77.5q0 -37 12 -70q14 -37 43 -63.5t80 -45.5q43 -16 119 -16q35 0 92 4q8 0 78 12q29 4 67 17l58 18v-65q-63 -41 -146 -64q-94 -27 -198 -26q-100 0 -168 20q-74 23 -119 61q-47 41 -68 91 q-22 55 -22 116zM418 1118v33l70 293h186v-37l-201 -289h-55z" />
<glyph unicode="&#x3ae;" horiz-adv-x="1069" d="M33 895v45h286l11 -94q25 14 78 41q29 14 86 39q29 12 86 28q35 10 84 11q51 0 104 -17q51 -16 84 -49t51 -86q18 -51 19 -125v-618q0 -59 4 -158q0 -25 12 -137q6 -55 12 -103q4 -37 15 -63v-45h-177q-6 35 -14 108q-8 78 -10 121l-6 131q-2 45 -2 133v613q0 86 -41 133 q-39 45 -133 45q-33 0 -66 -6q-23 -4 -67 -17q-23 -6 -64 -22q-10 -4 -53 -23v-780h-166v870zM459 1118v33l70 293h186v-37l-201 -289h-55z" />
<glyph unicode="&#x3af;" horiz-adv-x="550" d="M45 895v45h299v-727q0 -66 23 -96q25 -33 61 -33q41 0 59 4l56 12v-65q-33 -18 -35 -21q-27 -10 -47 -16l-55 -12q-29 -6 -60 -6q-84 0 -127 57q-41 55 -41 160v673zM195 1118v33l70 293h186v-37l-201 -289h-55z" />
<glyph unicode="&#x3b0;" horiz-adv-x="1013" d="M27 895v45h286v-657q0 -46 13 -86q10 -35 36 -68q25 -31 64 -47t88 -16q66 0 115 26q46 25 73 74q27 45 39 125q10 61 11 170q0 175 -25 282.5t-92 147.5l-2 74q72 -16 127 -50q51 -31 94 -94q37 -53 59 -143q20 -82 21 -199q0 -113 -31 -215q-29 -92 -82 -155 q-51 -61 -133 -97q-74 -33 -174 -32q-104 0 -172 26q-70 27 -113 74q-45 49 -63 110q-18 65 -19 136v544zM211 1212q0 39 27 64q31 27 63 27q37 0 64 -27q25 -25 24 -64q0 -37 -24 -65q-25 -27 -64 -27q-37 0 -63.5 26.5t-26.5 65.5zM424 1118v33l49 324h189v-37l-183 -320 h-55zM613 1212q0 39 26 64q31 27 64 27q35 0 61.5 -27t26.5 -64q0 -35 -27 -65q-25 -27 -61.5 -27t-63 26.5t-26.5 65.5z" />
<glyph unicode="&#x3b1;" horiz-adv-x="1071" d="M78 453q0 125 28.5 223t77.5 160q52 65 123 98q68 33 162 33q61 0 115 -17q51 -16 90 -49q35 -29 67.5 -86t53.5 -125h6l69 250h156v-41q-14 -23 -38.5 -74t-43.5 -100q-23 -55 -45 -119q-12 -33 -24.5 -63.5t-22.5 -59.5q18 -80 61 -233q25 -84 64 -191l47 -14v-45h-213 q-8 23 -20 72l-19 73q-8 31 -14 68q-2 14 -6 30.5t-7 30.5h-6q-37 -72 -67 -120q-33 -53 -72 -93q-35 -35 -90 -59q-51 -23 -119 -22q-72 0 -131 30q-57 31 -98 90q-40 58 -62 148q-22 94 -22 205zM258 453q0 -180 47 -279q47 -96 125 -96q55 0 100 33q43 31 78 84 q33 49 62 124q51 129 55 144q-12 109 -35 192q-25 88 -49 131q-31 53 -68 76q-41 25 -90 25q-115 0 -170 -113q-55 -114 -55 -321z" />
<glyph unicode="&#x3b2;" horiz-adv-x="1040" d="M131 -436v1376q0 141 31 238q33 102 84 155q57 61 129 84q76 25 168 25q86 0 153 -25q66 -25 113 -67.5t71.5 -108t24.5 -141.5q0 -78 -20 -133q-23 -61 -54 -101q-33 -41 -77.5 -67.5t-89.5 -34.5v-10q72 -16 120 -41q53 -27 92 -72t60 -104q18 -53 18 -146 q0 -102 -26 -176q-29 -78 -76 -129t-125 -80q-72 -27 -164 -26q-84 0 -153 16q-65 15 -111 37v-469h-168zM299 106q57 -20 117 -28q72 -10 137 -10q109 0 168 77.5t59 243.5q0 72 -16 133q-16 59 -53 101q-41 43 -95 63q-66 25 -141 27v78q82 4 121 20q47 20 80 59 q29 35 45 95q14 51 14 131q0 59 -12 108q-14 55 -35 84q-29 41 -59 55q-37 18 -88 19q-57 0 -103 -19q-43 -16 -75.5 -69t-47.5 -129q-16 -88 -16 -207v-832z" />
<glyph unicode="&#x3b3;" horiz-adv-x="903" d="M-2 895v45h217l72 -174l73 -199l68 -202q39 -119 59 -191h9l170 408q16 41 22 61q12 41 19 59q8 27 12 54q0 6 3 21.5t3 21.5q0 37 -25 65q-20 25 -47 31v45h195q4 -10 8 -33q2 -14 2 -43q0 -52 -24 -123q-29 -80 -64 -159l-248 -564q6 -39 13 -94q4 -43 8 -121l6 -125 q4 -82 4 -104l-160 -10l-47 28q0 25 4 91q0 2 2 41.5t4 60.5l13 106q4 35 16 101l-82 239q-12 39 -88 246q-43 119 -86 223q-45 109 -78 172z" />
<glyph unicode="&#x3b4;" horiz-adv-x="964" d="M78 399q0 102 28 185q27 76 78 137q47 57 117 94q66 35 143 57q-57 53 -79 76q-33 33 -62 76q-29 41 -39 78q-12 40 -12 86q0 53 22 102q20 45 64 76q51 37 100 49q61 16 125 16.5t131 -10.5q82 -12 117 -20v-207h-47l-43 111q-53 47 -156 47q-78 0 -123 -41 q-43 -41 -43 -109q0 -33 17 -69q14 -31 47 -68t72 -70l96 -80q59 -49 112 -104q47 -51 80 -109q37 -66 49 -116q16 -66 17 -135q0 -115 -27 -197q-31 -94 -78 -150q-51 -61 -127 -92q-78 -33 -172 -32q-96 0 -170 26q-77 28 -129 80q-55 55 -82 131q-26 78 -26 182zM250 391 q0 -80 14 -137q16 -68 43 -104q29 -41 76 -68q39 -23 104 -23q109 0 168.5 90.5t59.5 272.5q0 61 -13 113q-14 57 -32 98q-12 27 -60 86q-27 35 -82 82q-2 2 -6 5t-6 5q-4 2 -6 5t-6 5q-51 -18 -94 -44.5t-82 -78.5q-35 -47 -58 -123q-20 -69 -20 -184z" />
<glyph unicode="&#x3b5;" horiz-adv-x="858" d="M80 268q0 52 18 92q20 43 49 70q33 29 72 47q43 20 84 29v6q-27 8 -72 33q-37 20 -59 42.5t-39 59.5q-14 31 -14 78q0 66 33 111q37 49 88 75q57 29 124.5 41.5t139.5 12.5q74 0 137 -9q76 -10 131 -26v-197h-47l-57 113q-20 10 -33 14q-4 2 -18.5 7t-22.5 7 q-14 4 -47 8.5t-49 4.5q-23 0 -72 -8q-37 -6 -68 -25q-33 -20 -51 -53q-18 -35 -18 -82t10 -74q12 -29 31 -51q20 -25 39 -35q22 -12 43 -18q8 2 26.5 3t28.5 1q45 4 68 4q12 0 33.5 1t29.5 1q10 0 23.5 1t15.5 1h31v-96h-31h-39q-16 0 -66 4q-12 2 -37.5 2t-37.5 2 q-10 0 -32 1t-32 3q-16 -4 -49 -20q-16 -8 -45 -37q-23 -23 -35 -55.5t-12 -77.5q0 -37 12 -70q14 -37 43 -63.5t80 -45.5q43 -16 119 -16q35 0 92 4q8 0 78 12q29 4 67 17l58 18v-65q-63 -41 -146 -64q-94 -27 -198 -26q-100 0 -168 20q-74 23 -119 61q-47 41 -68 91 q-22 55 -22 116z" />
<glyph unicode="&#x3b6;" horiz-adv-x="847" d="M88 373q0 84 24.5 170t67.5 172q41 82 99 168q55 82 120 164q88 109 129 153l129 139v4l-503 -77v114l182 13q33 2 91 7t79 7q29 2 79 8t70 8q82 6 125 15v-68l-196 -242q-84 -104 -158 -237q-72 -125 -109 -242q-39 -119 -38 -256q0 -70 20 -110q25 -49 55 -72 q33 -25 88 -45q37 -14 113 -33q121 -27 184.5 -78t63.5 -137q0 -53 -19 -94q-18 -40 -55 -74q-39 -37 -90 -61q-53 -27 -127 -51v65q29 10 61 29q18 10 48 35q20 16 32 43q10 20 11 55q0 61 -52 88q-45 25 -153 47q-96 20 -172 53q-74 33 -115 76q-47 49 -63 107 q-21 67 -21 137z" />
<glyph unicode="&#x3b7;" horiz-adv-x="1069" d="M33 895v45h286l11 -94q25 14 78 41q29 14 86 39q29 12 86 28q35 10 84 11q51 0 104 -17q51 -16 84 -49t51 -86q18 -51 19 -125v-618q0 -59 4 -158q0 -25 12 -137q6 -55 12 -103q4 -37 15 -63v-45h-177q-6 35 -14 108q-8 78 -10 121l-6 131q-2 45 -2 133v613q0 86 -41 133 q-39 45 -133 45q-33 0 -66 -6q-23 -4 -67 -17q-23 -6 -64 -22q-10 -4 -53 -23v-780h-166v870z" />
<glyph unicode="&#x3b8;" horiz-adv-x="980" d="M96 711q0 168 23 309q23 137 69 227q49 90 123 137q76 47 181 48q203 0 303 -182.5t100 -538.5q0 -178 -25 -314q-25 -139 -73 -229q-47 -88 -127 -139q-76 -49 -187 -49q-98 0 -174 47q-74 45 -121 141q-49 98 -69 227q-23 142 -23 316zM276 662q0 -156 9 -254 q8 -102 32 -189q23 -80 62 -119q41 -41 104.5 -41t108.5 41t70 119q27 86 38 189q8 76 13 254h-437zM276 750h439q-4 158 -15 256q-12 113 -36 188q-25 74 -70 117q-45 41 -111 41q-63 0 -104 -41q-43 -43 -64 -117q-20 -76 -30 -188q-9 -98 -9 -256z" />
<glyph unicode="&#x3b9;" horiz-adv-x="550" d="M45 895v45h299v-727q0 -66 23 -96q25 -33 61 -33q41 0 59 4l56 12v-65q-33 -18 -35 -21q-27 -10 -47 -16l-55 -12q-29 -6 -60 -6q-84 0 -127 57q-41 55 -41 160v673z" />
<glyph unicode="&#x3ba;" horiz-adv-x="1030" d="M39 895v45h285v-487l434 487h184v-45l-117 -23l-264 -278l340 -526l103 -23v-45h-256l-291 473l-133 -108v-365h-166v870z" />
<glyph unicode="&#x3bb;" horiz-adv-x="991" d="M53 0v33l430 952l-45 139q-35 102 -76 162q-43 61 -98 62q-8 0 -28 -5q-16 -4 -27 -8l-41 -82h-49v170q10 4 67 13q40 6 80 6q57 0 92 -16.5t68 -55.5t55 -90q33 -74 51 -129l334 -1004q14 -47 49 -69q41 -27 66 -33v-45h-195l-237 764q-16 -43 -27 -68q-31 -82 -35 -90 l-38 -92l-31 -74l-191 -440h-174z" />
<glyph unicode="&#x3bc;" horiz-adv-x="1097" d="M166 -438v1378h166v-672q0 -82 41 -127t125 -45q55 0 116 13q63 12 115 32v799h166v-870l119 -25v-45h-275l-8 86q-18 -14 -59 -39q-35 -20 -66 -35q-25 -12 -69 -22q-41 -10 -72 -10q-43 0 -80 14q-35 14 -53 33v-465h-166z" />
<glyph unicode="&#x3bd;" horiz-adv-x="925" d="M4 895v45h234l276 -735l156 346q33 74 51 139q18 63 18 105q0 43 -24 67q-23 23 -53 33v45h196q12 -23 14 -33q6 -23 7 -47q0 -35 -17 -90q-14 -49 -43 -113l-321 -677h-72l-350 890z" />
<glyph unicode="&#x3be;" horiz-adv-x="911" d="M90 356q0 76 35 140q29 51 92 108q57 51 127 84q76 37 145 60v10q-45 12 -90 37q-55 29 -88 57q-39 33 -65.5 82t-26.5 102q0 49 25 97q27 49 73 88q43 35 127 71q72 31 185 58v2l-490 -27v98h84h107h116q20 0 61.5 1t59.5 1q20 0 58.5 1t56.5 1q39 0 100 5v-86 q-37 -6 -80 -19q-63 -18 -88 -29q-57 -25 -86 -41q-45 -27 -73 -57q-37 -41 -52 -74q-18 -43 -18 -96q0 -51 18 -90q20 -43 48 -68q37 -33 65 -47q33 -16 68 -22q6 2 20 3t21 1q14 2 43 2q8 0 20 1t18.5 1t16.5 1t12 1h33v-106h-33q-2 0 -11 1t-15 1q-16 2 -37 4l-43.5 4 t-42.5 4q-162 -53 -236 -131q-78 -82 -78 -201q0 -66 25 -108q20 -37 70 -68q35 -23 106 -43q20 -6 141 -35q127 -29 189 -78q63 -51 63 -139q0 -59 -16 -94q-18 -40 -55 -74q-39 -37 -90 -61q-53 -27 -127 -51v65q29 10 61 29q18 10 47 35q20 16 33 43q10 20 10 55 q0 29 -12 51q-10 20 -39 37q-20 12 -66 27q-35 10 -90 20q-108 22 -190 49q-84 29 -135.5 68t-79.5 100q-27 55 -27 139z" />
<glyph unicode="&#x3bf;" d="M78 475q0 238 108 365q106 125 328 125q215 0 324 -123q109 -125 108 -367q0 -240 -106 -366q-106 -129 -334 -129q-211 0 -319.5 126.5t-108.5 368.5zM258 475q0 -113 10 -176q12 -80 39 -129q29 -55 78 -82q51 -29 121 -29q72 0 123 29q47 27 80 82q33 57 45 129 q12 78 12 176t-12 174q-12 72 -45 129q-31 52 -80 80q-47 27 -123 27q-74 0 -121 -27q-51 -29 -78 -80q-27 -49 -39 -129q-10 -63 -10 -174z" />
<glyph unicode="&#x3c0;" horiz-adv-x="1032" d="M29 727l20 213h955v-84h-189v-643q0 -61 25 -96q25 -33 61 -33q31 0 43 4q25 8 39 12v-65q-20 -16 -65 -37q-43 -18 -91 -18q-178 0 -178 217v659h-287l-36 -459q-8 -104 -23 -256q-8 -90 -22 -141h-185v45q49 53 51 57q18 23 35 64q18 47 27 88q10 61 16 131l41 471 h-133l-47 -129h-57z" />
<glyph unicode="&#x3c1;" horiz-adv-x="1021" d="M131 -436v997q0 96 27 180q23 70 73 125q43 45 111 72q59 23 143 23q90 0 170 -33q82 -35 146 -97q61 -61 100 -165q37 -98 37 -234q0 -121 -33 -205t-90 -141q-55 -55 -129 -80q-80 -27 -147 -26q-77 0 -136 12q-55 12 -106 31v-459h-166zM297 102q31 -12 100 -30 q49 -12 117 -13q121 0 186 93q63 90 64 268q0 123 -25 209q-25 84 -63 135q-41 53 -88 74q-51 23 -96 22q-90 0 -144 -67q-51 -66 -51 -218v-473z" />
<glyph unicode="&#x3c2;" horiz-adv-x="808" d="M76 356q0 127 35 242q31 104 94 193q59 84 137 129t166 45q74 0 125 -9q61 -10 115 -24v-217h-56l-43 129q-16 14 -57 33q-37 16 -84 16q-55 0 -102.5 -41t-79.5 -107q-29 -57 -50 -159q-18 -92 -18 -197q0 -61 23 -106q20 -39 63 -70q33 -23 98 -43q16 -6 125 -35 q113 -29 168.5 -78t55.5 -139q0 -52 -19 -92q-23 -47 -53 -76q-35 -31 -90 -59q-66 -33 -127 -53v65q23 8 59 29q25 14 49 35q14 12 31 45q12 25 12 57q0 57 -47 86q-49 29 -139 47q-111 25 -172 47q-76 29 -123 70q-51 45 -73.5 98t-22.5 139z" />
<glyph unicode="&#x3c3;" horiz-adv-x="1103" d="M78 473q0 104 35 193q33 82 102 145q68 61 168 96q96 33 227 33h351l55 109h57l-18 -193h-291v-6q33 -33 55 -57q33 -35 64 -88q31 -51 51 -117q23 -72 22 -150q0 -104 -30 -190q-31 -84 -86 -144q-59 -61 -138 -92q-86 -33 -180 -32q-96 0 -182 34q-80 33 -141.5 100.5 t-89.5 155.5q-31 92 -31 203zM258 451q0 -100 22.5 -178t61.5 -123q41 -47 88 -68q51 -23 102 -23q55 0 99 25q49 27 76 72q31 49 49 120.5t18 167.5q0 94 -10 148q-12 65 -31 117q-18 53 -38.5 87.5t-45.5 59.5q-90 0 -164 -25q-72 -25 -123 -75.5t-77.5 -124.5t-26.5 -180 z" />
<glyph unicode="&#x3c4;" horiz-adv-x="821" d="M45 727l21 213h712v-84h-295v-643q0 -68 29 -100q27 -29 76 -29q25 0 55 6q6 2 25.5 5t27.5 5v-65q-14 -10 -32 -19q-29 -12 -46 -18q-2 -2 -53 -12q-29 -6 -53 -6q-88 0 -141.5 53t-53.5 164v659h-167l-48 -129h-57z" />
<glyph unicode="&#x3c5;" horiz-adv-x="1013" d="M27 895v45h286v-657q0 -46 13 -86q10 -35 36 -68q25 -31 64 -47t88 -16q66 0 115 26q46 25 73 74q27 45 39 125q10 61 11 170q0 175 -25 282.5t-92 147.5l-2 74q72 -16 127 -50q51 -31 94 -94q37 -53 59 -143q20 -82 21 -199q0 -113 -31 -215q-29 -92 -82 -155 q-51 -61 -133 -97q-74 -33 -174 -32q-104 0 -172 26q-70 27 -113 74q-45 49 -63 110q-18 65 -19 136v544z" />
<glyph unicode="&#x3c6;" horiz-adv-x="1181" d="M80 467q0 131 22 211q27 90 70 145q47 59 112.5 92t155.5 50l-2 -74q-57 -23 -88 -55.5t-53 -87.5q-18 -45 -29 -121q-8 -59 -8 -156q0 -106 16 -172q18 -72 53.5 -123t86.5 -78q53 -29 123 -41v613q0 59 12 114q12 51 41 95q27 37 72 63q43 25 108 25q158 0 244 -121 t86 -354q0 -123 -33 -213q-33 -88 -94 -154q-63 -68 -144 -98q-86 -33 -188 -43v-420h-104v420q-115 10 -197 38.5t-143.5 90t-89.5 143.5q-29 80 -29 211zM643 59q63 8 121 39q47 25 88 80q33 45 53 123q18 74 19 176q0 98 -15 189q-12 72 -35 125q-23 49 -53 71 q-33 23 -65 23q-51 0 -82 -53.5t-31 -161.5v-611z" />
<glyph unicode="&#x3c7;" horiz-adv-x="907" d="M-2 -403l51 96l64 117l69 131l74 135l25.5 48t19.5 38.5t23 44.5l63 121l-229 479q-12 25 -27 39q-16 16 -37 26q-12 6 -37 15q-12 4 -37 8v45h185q12 -8 26 -33q10 -16 27 -53l188 -436l58 119q14 33 31.5 65.5t33.5 67.5l64 139l29.5 63.5t29.5 67.5h174v-39 q-51 -88 -82 -147l-88 -168l-88 -170l-82 -158l267 -561q23 -47 47 -66q20 -16 59 -22v-45h-151q-4 2 -15 16q-2 2 -16 27l-19 37q-12 25 -18 39l-213 483l-74 -146l-78 -159l-75 -158l-64 -139h-178v33z" />
<glyph unicode="&#x3c8;" horiz-adv-x="1280" d="M27 895v45h286v-641q0 -49 15 -90q16 -45 47 -74q37 -35 86 -51q61 -23 129 -25v1174h104v-1174q68 2 129 25q45 16 84 51q34 31 49 74q14 41 15 90v641h284v-45l-120 -25v-551q0 -72 -21 -126q-23 -61 -74 -106.5t-135 -72.5q-86 -29 -211 -30v-420h-104v418 q-123 2 -215 32.5t-137 71.5q-49 47 -70 104q-20 59 -21 129v551z" />
<glyph unicode="&#x3c9;" horiz-adv-x="1347" d="M80 422q0 119 35 217q31 88 96 160q61 68 139 106q80 39 174 56v-66q-51 -18 -106 -64q-51 -41 -84 -98q-37 -61 -53 -137q-20 -88 -21 -178q0 -37 12 -119q10 -61 33 -109q25 -49 62 -77q39 -31 96 -31q31 0 57 14q28 15 49 43q29 39 41 68q14 39 25 90q-2 8 -5 25.5 t-5 27.5l-12.5 72t-10.5 74q-4 49 -4 59v53h166v-53q0 -12 -4 -57q-2 -18 -10 -70q-4 -25 -13 -70q-2 -16 -6 -31.5t-6 -29.5q18 -100 61 -155.5t105 -55.5q53 0 94 31q37 29 59 76q25 51 33 106q10 66 10 119q0 90 -20 178q-16 76 -53 137q-33 57 -84 98q-55 45 -107 64v66 q92 -15 172 -56q82 -41 141.5 -106.5t96.5 -159.5q35 -90 35 -217q0 -92 -19 -172q-16 -74 -59 -139q-41 -61 -103 -97q-63 -35 -149 -34q-59 0 -102 18q-45 18 -74 45q-31 28 -49 61q-20 37 -31 64h-8l-33 -64q-18 -34 -49 -61q-29 -27 -74 -45q-43 -18 -102 -18 q-84 0 -150 34q-61 33 -106 97q-41 57 -60 139q-20 88 -20 172z" />
<glyph unicode="&#x3ca;" horiz-adv-x="550" d="M45 895v45h299v-727q0 -66 23 -96q25 -33 61 -33q41 0 59 4l56 12v-65q-33 -18 -35 -21q-27 -10 -47 -16l-55 -12q-29 -6 -60 -6q-84 0 -127 57q-41 55 -41 160v673zM-15 1194q0 23 9 39q12 25 20 31q20 16 33 22q16 8 39 8q41 0 69.5 -28.5t28.5 -71.5q0 -39 -29 -72 q-27 -29 -69 -28q-23 0 -39 8q-25 12 -33 20t-20 33q-9 16 -9 39zM342 1194q0 43 28.5 71.5t71.5 28.5q41 0 69.5 -28.5t28.5 -71.5q0 -39 -28 -72q-27 -29 -70 -28q-23 0 -39 8q-27 14 -32 20q-10 14 -21 33q-8 16 -8 39z" />
<glyph unicode="&#x3cb;" horiz-adv-x="1013" d="M27 895v45h286v-657q0 -46 13 -86q10 -35 36 -68q25 -31 64 -47t88 -16q66 0 115 26q46 25 73 74q27 45 39 125q10 61 11 170q0 175 -25 282.5t-92 147.5l-2 74q72 -16 127 -50q51 -31 94 -94q37 -53 59 -143q20 -82 21 -199q0 -113 -31 -215q-29 -92 -82 -155 q-51 -61 -133 -97q-74 -33 -174 -32q-104 0 -172 26q-70 27 -113 74q-45 49 -63 110q-18 65 -19 136v544zM231 1194q0 23 9 39q12 25 20 31q20 16 33 22q16 8 39 8q41 0 69.5 -28.5t28.5 -71.5q0 -39 -29 -72q-27 -29 -69 -28q-23 0 -39 8q-25 12 -33 20t-20 33q-9 16 -9 39 zM588 1194q0 43 28.5 71.5t71.5 28.5q41 0 69.5 -28.5t28.5 -71.5q0 -39 -28 -72q-27 -29 -70 -28q-23 0 -39 8q-27 14 -32 20q-10 14 -21 33q-8 16 -8 39z" />
<glyph unicode="&#x3cc;" d="M78 475q0 238 108 365q106 125 328 125q215 0 324 -123q109 -125 108 -367q0 -240 -106 -366q-106 -129 -334 -129q-211 0 -319.5 126.5t-108.5 368.5zM258 475q0 -113 10 -176q12 -80 39 -129q29 -55 78 -82q51 -29 121 -29q72 0 123 29q47 27 80 82q33 57 45 129 q12 78 12 176t-12 174q-12 72 -45 129q-31 52 -80 80q-47 27 -123 27q-74 0 -121 -27q-51 -29 -78 -80q-27 -49 -39 -129q-10 -63 -10 -174zM440 1118v33l70 293h186v-37l-201 -289h-55z" />
<glyph unicode="&#x3cd;" horiz-adv-x="1013" d="M27 895v45h286v-657q0 -46 13 -86q10 -35 36 -68q25 -31 64 -47t88 -16q66 0 115 26q46 25 73 74q27 45 39 125q10 61 11 170q0 175 -25 282.5t-92 147.5l-2 74q72 -16 127 -50q51 -31 94 -94q37 -53 59 -143q20 -82 21 -199q0 -113 -31 -215q-29 -92 -82 -155 q-51 -61 -133 -97q-74 -33 -174 -32q-104 0 -172 26q-70 27 -113 74q-45 49 -63 110q-18 65 -19 136v544zM432 1118v33l70 293h186v-37l-201 -289h-55z" />
<glyph unicode="&#x3ce;" horiz-adv-x="1347" d="M80 422q0 119 35 217q31 88 96 160q61 68 139 106q80 39 174 56v-66q-51 -18 -106 -64q-51 -41 -84 -98q-37 -61 -53 -137q-20 -88 -21 -178q0 -37 12 -119q10 -61 33 -109q25 -49 62 -77q39 -31 96 -31q31 0 57 14q28 15 49 43q29 39 41 68q14 39 25 90q-2 8 -5 25.5 t-5 27.5l-12.5 72t-10.5 74q-4 49 -4 59v53h166v-53q0 -12 -4 -57q-2 -18 -10 -70q-4 -25 -13 -70q-2 -16 -6 -31.5t-6 -29.5q18 -100 61 -155.5t105 -55.5q53 0 94 31q37 29 59 76q25 51 33 106q10 66 10 119q0 90 -20 178q-16 76 -53 137q-33 57 -84 98q-55 45 -107 64v66 q92 -15 172 -56q82 -41 141.5 -106.5t96.5 -159.5q35 -90 35 -217q0 -92 -19 -172q-16 -74 -59 -139q-41 -61 -103 -97q-63 -35 -149 -34q-59 0 -102 18q-45 18 -74 45q-31 28 -49 61q-20 37 -31 64h-8l-33 -64q-18 -34 -49 -61q-29 -27 -74 -45q-43 -18 -102 -18 q-84 0 -150 34q-61 33 -106 97q-41 57 -60 139q-20 88 -20 172zM600 1118v33l70 293h186v-37l-201 -289h-55z" />
<glyph unicode="&#x401;" horiz-adv-x="1249" d="M59 0v53l172 27v1182l-172 26v53h1006v-321h-66l-32 217q-29 2 -78 6q-10 0 -28.5 2t-34 3t-29.5 1q-16 0 -45 1t-43 1h-66h-219v-524h362l31 160h64v-412h-64l-31 162h-362v-547h264q20 0 59 1t58 1q70 0 98 2l76 6q33 4 47 6l57 248h66l-19 -354h-1071zM350 1565 q0 23 9 39q12 25 20 31q20 16 33 22q16 8 39 8q41 0 69.5 -28.5t28.5 -71.5q0 -39 -29 -72q-27 -29 -69 -28q-23 0 -39 8q-25 12 -33 20t-20 33q-9 16 -9 39zM707 1565q0 43 28.5 71.5t71.5 28.5q41 0 69.5 -28.5t28.5 -71.5q0 -39 -28 -72q-27 -29 -70 -28q-23 0 -39 8 q-27 14 -32 20q-10 14 -21 33q-8 16 -8 39z" />
<glyph unicode="&#x402;" horiz-adv-x="1538" d="M37 1026v315h1096v-315h-68l-27 209q-18 4 -114 12q-76 6 -195 6h-47v-424q10 4 66 23q31 10 71 20l76 15q37 6 74 6q96 0 170 -23q68 -20 116 -69q45 -45 68 -123t23 -178v-484q0 -92 -19 -159q-20 -76 -45 -119q-31 -53 -63.5 -84t-75.5 -53q-35 -18 -78 -29 q-35 -8 -72 -8q-72 0 -119 8q-59 10 -88 22v244h66l31 -139q23 -25 53 -37q35 -12 78 -12q139 0 139 190v652q0 137 -59.5 208.5t-194.5 71.5q-61 0 -113 -8q-84 -12 -104 -19v-665l162 -27v-53h-529v53l172 27v1175h-51q-23 0 -60.5 -1t-51.5 -1q-37 0 -86 -4l-64 -6 l-24.5 -5t-18.5 -3l-27 -209h-67z" />
<glyph unicode="&#x403;" horiz-adv-x="1183" d="M59 0v53l172 27v1182l-172 26v53h1041l18 -385h-65l-62 279q-33 6 -108 12q-106 8 -205 8h-254v-1175l207 -27v-53h-572zM498 1452v33l196 272h213v-37l-354 -268h-55z" />
<glyph unicode="&#x404;" horiz-adv-x="1351" d="M84 655q0 176 47 312q47 133 135 219q90 86 217 129q123 41 295 41q47 0 129 -4q10 0 117 -13q47 -6 106 -16l97 -18l6 -293h-66l-30 174q-72 43 -162 67q-84 23 -189 23q-109 0 -198 -29q-84 -27 -149.5 -92t-100.5 -166q-37 -104 -43 -254h582v-90h-584q0 -145 35 -260 q33 -104 96 -182q61 -74 149 -111q84 -35 203 -35q70 0 119 9q84 14 104 20q53 16 88 33q41 18 64 39l37 200h65l-6 -315q-18 -6 -96 -23q-45 -10 -115 -20q-45 -6 -129 -14q-68 -6 -133 -6q-162 0 -293 47q-125 45 -217 133q-90 86 -135 211q-45 122 -45 284z" />
<glyph unicode="&#x405;" horiz-adv-x="1138" d="M137 1014q0 77 31 141q33 68 88 109q59 45 141 67q86 25 193 25q98 0 188 -13q92 -12 164 -30v-279h-65l-35 164q-45 33 -109 53q-61 20 -143 21q-72 0 -127 -16.5t-88 -43.5q-35 -29 -53 -65q-16 -33 -17 -80q0 -66 31 -109t80 -73q47 -29 112 -51l131 -46 q74 -27 129 -53q66 -31 113 -76q49 -46 80 -110q31 -66 31 -162q0 -92 -29 -168q-29 -78 -86 -129q-63 -55 -143 -82q-90 -29 -203 -28q-61 0 -123 6q-45 4 -113 16q-41 8 -98 23q-16 4 -78 26v309h66l35 -180q16 -20 53 -45q45 -29 74 -39q57 -20 88 -26q41 -8 90 -9 q80 0 133 21q59 23 92 55.5t53 85.5q18 49 19 107q0 72 -31 119q-31 46 -80 79q-49 35 -113 56l-129 45q-37 12 -129 51q-59 27 -112 72q-49 43 -80 106.5t-31 155.5z" />
<glyph unicode="&#x406;" horiz-adv-x="681" d="M74 0v53l172 27v1182l-172 26v53h536v-53l-172 -26v-1182l172 -27v-53h-536z" />
<glyph unicode="&#x407;" horiz-adv-x="681" d="M74 0v53l172 27v1182l-172 26v53h536v-53l-172 -26v-1182l172 -27v-53h-536zM63 1565q0 23 9 39q12 25 20 31q20 16 33 22q16 8 39 8q41 0 69.5 -28.5t28.5 -71.5q0 -39 -29 -72q-27 -29 -69 -28q-23 0 -39 8q-25 12 -33 20t-20 33q-9 16 -9 39zM420 1565q0 43 28.5 71.5 t71.5 28.5q41 0 69.5 -28.5t28.5 -71.5q0 -39 -28 -72q-27 -29 -70 -28q-23 0 -39 8q-27 14 -32 20q-10 14 -21 33q-8 16 -8 39z" />
<glyph unicode="&#x408;" horiz-adv-x="796" d="M43 10v244h66l30 -139q18 -23 54 -35q39 -14 77 -14q139 0 140 190v1006l-172 26v53h516v-53l-152 -26v-830q0 -100 -16 -160q-20 -76 -45 -118q-29 -49 -66 -84q-33 -31 -76 -54q-35 -18 -77 -28q-35 -8 -72 -8q-70 0 -117 8q-63 10 -90 22z" />
<glyph unicode="&#x409;" horiz-adv-x="1785" d="M18 244h45l48 -88q16 -20 36 -29q18 -8 43 -8q43 0 78 41q33 39 66 141q31 100 55 256q23 139 45 395l29 310l-172 26v53h954v-53l-213 -26v-517h203q137 0 229 -30q94 -31 150 -84q55 -51 80 -121q23 -61 22 -143q0 -74 -24 -142q-27 -72 -80 -116q-66 -55 -152 -80 q-98 -29 -235 -29h-557v53l172 27v1171h-277l-26 -311q-25 -270 -48 -422q-25 -166 -69 -299q-39 -121 -101 -180q-59 -59 -141 -59q-43 0 -84 12q-37 12 -67 35zM1032 90h150q88 0 157 16q61 14 103 50q39 33 57 84q18 52 19 122q0 63 -17 123q-15 55 -55 93 q-39 37 -103 57q-61 20 -155 20h-156v-565z" />
<glyph unicode="&#x40a;" horiz-adv-x="1785" d="M59 0v53l172 27v1182l-172 26v53h537v-53l-172 -26v-527h496v527l-175 26v53h537v-53l-170 -26v-517h123q137 0 229 -30q94 -31 150 -84q55 -51 80 -121q23 -61 22 -143q0 -74 -24 -142q-27 -72 -80 -116q-66 -55 -152 -80q-98 -29 -235 -29h-477v53l172 27v565h-496 v-565l172 -27v-53h-537zM1112 90h70q88 0 157 16q61 14 103 50q39 33 57 84q18 52 19 122q0 63 -17 123q-15 55 -55 93q-39 37 -103 57q-61 20 -155 20h-76v-565z" />
<glyph unicode="&#x40b;" horiz-adv-x="1517" d="M37 1026v315h1093v-315h-67l-27 209q-18 4 -112 12q-76 6 -195 6h-47v-424q10 4 66 23q31 10 71 20l76 15q37 6 74 6q94 0 168 -23q70 -20 112 -67q45 -47 66 -121q20 -70 20 -180v-422l152 -27v-53h-475v53l131 27v414q0 68 -12.5 121t-40.5 87q-25 31 -76 52 q-47 18 -115 18q-61 0 -113 -8q-84 -12 -104 -19v-665l162 -27v-53h-529v53l172 27v1175h-51q-23 0 -60.5 -1t-51.5 -1q-37 0 -86 -4l-64 -6l-24.5 -5t-18.5 -3l-27 -209h-67z" />
<glyph unicode="&#x40c;" horiz-adv-x="1363" d="M59 0v53l172 27v1182l-172 26v53h537v-53l-172 -26v-637l600 637l-129 26v53h420v-53l-156 -26l-424 -451l494 -731l143 -27v-53h-338l-438 670l-172 -154v-436l192 -27v-53h-557zM586 1452v33l196 272h213v-37l-354 -268h-55z" />
<glyph unicode="&#x40e;" horiz-adv-x="1449" d="M66 1288v53h557v-53l-170 -26l395 -693l354 693l-149 26v53h397v-53l-127 -26l-440 -828l-107 -194q-49 -86 -100 -144q-49 -55 -108.5 -85.5t-133.5 -30.5q-47 0 -90 12q-45 12 -72 31l-10 241h45l49 -96q23 -27 45 -37q28 -12 56 -12q39 0 69.5 14t67.5 47q31 27 68 82 q33 47 69 119l-516 881zM413 1737h164q6 -106 57.5 -157.5t145.5 -51.5t145.5 51t57.5 158h164q-2 -55 -19 -109q-14 -49 -55 -90q-37 -37 -110.5 -59.5t-182.5 -22.5t-182.5 22.5t-110.5 59.5q-41 41 -55 90q-17 54 -19 109z" />
<glyph unicode="&#x40f;" horiz-adv-x="1478" d="M59 0v53l172 27v1182l-172 26v53h537v-53l-172 -26v-1172h631v1172l-172 26v53h536v-53l-172 -26v-1182l172 -27v-53h-575l-70 -436h-63l-72 436h-580z" />
<glyph unicode="&#x410;" horiz-adv-x="1478" d="M20 0v53l152 27l457 1272h190l475 -1272l170 -27v-53h-567v53l180 27l-133 387h-528l-135 -387l180 -27v-53h-441zM446 557h467l-237 651z" />
<glyph unicode="&#x411;" horiz-adv-x="1175" d="M59 0v53l172 27v1182l-159 26v53h901l12 -309h-63l-58 203q-15 3 -43 6q-25 2 -65 6q-25 2 -82 6q-29 2 -92 2h-158v-510h151q139 0 232 -30q94 -31 147 -82q55 -53 80 -119q23 -61 23 -141q0 -76 -25 -144q-25 -70 -80 -118q-57 -51 -151 -82q-88 -29 -236 -29h-506z M424 90h98q88 0 158 16q65 15 104 50q37 31 56 84q18 52 18 122q0 63 -16 123q-16 57 -54 93q-39 37 -102 57q-61 20 -158 20h-104v-565z" />
<glyph unicode="&#x412;" horiz-adv-x="1363" d="M59 0v53l172 27v1182l-172 26v53h613q135 0 235 -22q92 -20 152 -62q53 -37 80 -100q25 -59 24 -131q0 -66 -20 -115q-23 -53 -58 -92q-35 -37 -88 -65q-51 -27 -110 -39q84 -8 157 -35q70 -25 119 -68t76 -100q27 -55 27 -127q0 -88 -29 -158q-31 -76 -92 -125 q-63 -51 -164 -79q-102 -29 -238 -29q-76 0 -223 4q-74 2 -205 2h-256zM424 90q61 -4 96 -4q29 -2 94 -2h105q96 0 158 20q70 23 106 60q39 39 57.5 94t18.5 125q0 66 -23 121q-18 47 -69 84q-45 33 -123 49t-180 16h-240v-563zM424 743h219q86 0 154 21q59 18 96 55t51 84 q14 45 14 113q0 59 -18 102q-20 47 -55 74q-37 29 -103 45q-57 14 -151 14h-207v-508z" />
<glyph unicode="&#x413;" horiz-adv-x="1183" d="M59 0v53l172 27v1182l-172 26v53h1041l18 -385h-65l-62 279q-33 6 -108 12q-106 8 -205 8h-254v-1175l207 -27v-53h-572z" />
<glyph unicode="&#x414;" horiz-adv-x="1396" d="M14 59l176 21q55 102 107 239q53 141 90 283q35 135 59 318q23 174 23 342l-172 26v53h1042v-53l-172 -26v-1182l181 -21l-19 -495h-63l-99 436h-974l-97 -436h-65zM313 90h662v1161h-404q0 -178 -20 -333q-18 -141 -57 -314q-31 -137 -82 -280q-47 -130 -99 -234z" />
<glyph unicode="&#x415;" horiz-adv-x="1249" d="M59 0v53l172 27v1182l-172 26v53h1006v-321h-66l-32 217q-29 2 -78 6q-10 0 -28.5 2t-34 3t-29.5 1q-16 0 -45 1t-43 1h-66h-219v-524h362l31 160h64v-412h-64l-31 162h-362v-547h264q20 0 59 1t58 1q70 0 98 2l76 6q33 4 47 6l57 248h66l-19 -354h-1071z" />
<glyph unicode="&#x416;" horiz-adv-x="1832" d="M0 0v53l121 27l430 735l-365 447l-135 26v53h352v-53l-84 -26l502 -625v625l-133 26v53h459v-53l-133 -26v-625l502 625l-84 26v53h352v-53l-135 -26l-365 -447l430 -735l121 -27v-53h-297l-375 676l-149 -133v-463l151 -27v-53h-477v53l133 27v463l-147 133l-377 -676 h-297z" />
<glyph unicode="&#x417;" d="M96 305h68l43 -188q23 -14 43 -21q37 -12 59 -16l20.5 -5t24 -5t21.5 -2q45 -4 61 -5q88 0 145.5 23t90.5 63.5t45 100.5q12 57 12 125q0 74 -22.5 129t-59.5 84q-39 31 -90 45q-52 15 -111 18l-143 8v82l143 9q57 4 101 20q49 20 78 51q33 37 49 80t16 115 q0 129 -51 192q-53 66 -178 66q-10 0 -31.5 -3t-26.5 -3q-25 -2 -59 -11q-10 -2 -53 -18q-27 -10 -41 -18l-35 -164h-65v258q53 14 145 28q90 14 170 15q104 0 180 -21q80 -22 135 -61t86 -102q31 -61 31 -148q0 -63 -20 -117q-23 -55 -60 -96q-43 -47 -96 -72 q-57 -27 -129 -39q175 -22 258 -104q84 -84 84 -233q0 -88 -35 -162q-35 -72 -96 -121q-66 -51 -152 -76q-96 -27 -194 -26q-95 0 -185 12q-92 12 -163 31z" />
<glyph unicode="&#x418;" horiz-adv-x="1478" d="M59 0v53l172 27v1182l-172 26v53h537v-53l-172 -26v-969l631 930v39l-172 26v53h536v-53l-172 -26v-1182l172 -27v-53h-536v53l172 27v983l-631 -930v-53l172 -27v-53h-537z" />
<glyph unicode="&#x419;" horiz-adv-x="1478" d="M59 0v53l172 27v1182l-172 26v53h537v-53l-172 -26v-969l631 930v39l-172 26v53h536v-53l-172 -26v-1182l172 -27v-53h-536v53l172 27v983l-631 -930v-53l172 -27v-53h-537zM374 1737h164q6 -106 57.5 -157.5t145.5 -51.5t145.5 51t57.5 158h164q-2 -55 -19 -109 q-14 -49 -55 -90q-37 -37 -110.5 -59.5t-182.5 -22.5t-182.5 22.5t-110.5 59.5q-41 41 -55 90q-17 54 -19 109z" />
<glyph unicode="&#x41a;" horiz-adv-x="1363" d="M59 0v53l172 27v1182l-172 26v53h537v-53l-172 -26v-637l600 637l-129 26v53h420v-53l-156 -26l-424 -451l494 -731l143 -27v-53h-338l-438 670l-172 -154v-436l192 -27v-53h-557z" />
<glyph unicode="&#x41b;" horiz-adv-x="1388" d="M18 244h45l48 -88q16 -20 36 -29q18 -8 43 -8q43 0 78 41q33 39 66 141q31 100 55 256q23 139 45 395l29 310l-172 26v53h1038v-53l-172 -26v-1182l172 -27v-53h-534v53l172 27v1171h-404l-26 -311q-25 -270 -48 -422q-25 -166 -69 -299q-39 -121 -101 -180 q-59 -59 -141 -59q-43 0 -84 12q-37 12 -67 35z" />
<glyph unicode="&#x41c;" horiz-adv-x="1820" d="M59 0v53l172 27v1182l-172 26v53h406l436 -1019l475 1019h385v-53l-172 -26v-1182l172 -27v-53h-544v53l180 27v1073l-535 -1153h-35l-491 1153v-1073l180 -27v-53h-457z" />
<glyph unicode="&#x41d;" horiz-adv-x="1478" d="M59 0v53l172 27v1182l-172 26v53h537v-53l-172 -26v-527h631v527l-172 26v53h536v-53l-172 -26v-1182l172 -27v-53h-536v53l172 27v565h-631v-565l172 -27v-53h-537z" />
<glyph unicode="&#x41e;" horiz-adv-x="1478" d="M84 672q0 178 43 307t127 213q86 86 205 125t280 39q156 0 275 -39q117 -39 207 -125q80 -78 129 -213q45 -127 45 -307q0 -182 -45 -310q-47 -133 -129 -215q-84 -84 -207 -127q-117 -41 -275 -40q-160 0 -274 40q-125 45 -207 127t-129 215q-45 128 -45 310zM293 672 q0 -143 20 -252q23 -119 72 -195q53 -80 137 -123q86 -43 217 -43q129 0 215 43q84 43 138 123q51 80 73 195q20 109 21 252q0 147 -21 252q-22 111 -73 190q-51 78 -138 121q-82 41 -215 41q-135 0 -217 -41q-86 -43 -137 -121q-49 -76 -72 -190q-20 -105 -20 -252z" />
<glyph unicode="&#x41f;" horiz-adv-x="1478" d="M59 0v53l172 27v1182l-172 26v53h1360v-53l-172 -26v-1182l172 -27v-53h-536v53l172 27v1171h-631v-1171l172 -27v-53h-537z" />
<glyph unicode="&#x420;" horiz-adv-x="1138" d="M59 1288v53h506q139 0 236 -30q90 -29 151 -84q53 -47 80 -125q25 -70 25 -156q0 -88 -23 -158q-25 -77 -80 -135t-147 -92q-94 -35 -232 -35h-151v-446l213 -27v-53h-565v53l159 27v1182zM424 616h104q90 0 158 23q63 20 102 63q37 41 54 105q16 66 16 137q0 80 -18 137 q-20 63 -56 97q-40 37 -104 55q-66 18 -158 18h-98v-635z" />
<glyph unicode="&#x421;" horiz-adv-x="1363" d="M84 655q0 176 47 312q47 133 135 219q90 86 217 129q123 41 295 41q47 0 129 -4q10 0 117 -13q47 -6 106 -16l97 -18l6 -293h-66l-30 174q-72 43 -162 67q-84 23 -189 23q-111 0 -208 -33q-88 -29 -154 -104.5t-98 -190.5q-33 -117 -33 -291q0 -154 33 -264 q33 -113 96 -188q61 -74 151 -111q89 -37 203 -37q70 0 119 9q84 14 104 20q53 16 88 33q41 18 64 39l37 200h65l-6 -315q-18 -6 -96 -23q-45 -10 -115 -20q-45 -6 -129 -14q-68 -6 -133 -6q-162 0 -293 47q-125 45 -217 133q-90 86 -135 211q-45 122 -45 284z" />
<glyph unicode="&#x422;" horiz-adv-x="1249" d="M37 1026v315h1180v-315h-68l-27 209q-20 4 -53 6t-84 6q-61 4 -102 4q-18 0 -55 1t-58 1h-49v-1173l213 -27v-53h-619v53l213 27v1175h-51q-132 0 -221 -6q-94 -6 -125 -14l-27 -209h-67z" />
<glyph unicode="&#x423;" horiz-adv-x="1449" d="M66 1288v53h557v-53l-170 -26l395 -693l354 693l-149 26v53h397v-53l-127 -26l-440 -828l-107 -194q-49 -86 -100 -144q-49 -55 -108.5 -85.5t-133.5 -30.5q-47 0 -90 12q-45 12 -72 31l-10 241h45l49 -96q23 -27 45 -37q28 -12 56 -12q39 0 69.5 14t67.5 47q31 27 68 82 q33 47 69 119l-516 881z" />
<glyph unicode="&#x424;" horiz-adv-x="1617" d="M84 692q0 61 10 109q12 55 37 104t68 92q45 45 102 74q61 31 141 49q72 16 185 17h86v125l-172 26v53h536v-53l-172 -26v-125h86q113 0 185 -17q80 -18 141 -49q57 -29 102 -74q43 -43 67.5 -92t37 -104.5t12.5 -108.5q0 -66 -10 -110q-12 -57 -37 -109q-23 -49 -66 -98 q-37 -43 -100 -80q-61 -35 -139 -53q-88 -20 -180 -21h-99v-141l172 -27v-53h-536v53l172 27v141h-97q-94 0 -182 21q-76 16 -137 53q-63 37 -100 80q-43 49 -66 98q-25 51 -37 109q-10 44 -10 110zM283 690q0 -77 18 -147q16 -66 64 -125q43 -55 116 -86q78 -33 185 -33h47 v762h-41q-106 0 -183 -29q-74 -29 -120 -78t-68 -116q-18 -58 -18 -148zM905 299h49q104 0 183 33q76 33 118 86q47 59 64 125q18 71 18 147q0 84 -20 148q-23 72 -66 116q-47 49 -121 78q-76 29 -184 29h-41v-762z" />
<glyph unicode="&#x425;" horiz-adv-x="1478" d="M45 0v53l148 27l456 606l-389 576l-151 26v53h553v-53l-170 -26l278 -414l311 414l-166 26v53h439v-53l-148 -26l-377 -502l461 -680l152 -27v-53h-553v53l170 27l-352 520l-390 -520l166 -27v-53h-438z" />
<glyph unicode="&#x426;" horiz-adv-x="1478" d="M59 0v53l172 27v1182l-172 26v53h537v-53l-172 -26v-1172h631v1172l-172 26v53h536v-53l-172 -26v-1182l180 -21l-18 -495h-63l-109 436h-1178z" />
<glyph unicode="&#x427;" horiz-adv-x="1329" d="M20 1288v53h517v-53l-172 -26v-400q0 -63 14 -129q12 -55 43 -92q29 -35 80 -53q49 -18 125 -19q23 0 75 4q4 0 76 13q43 8 70 14l59 14v648l-172 26v53h537v-53l-172 -26v-1182l172 -27v-53h-555v53l190 27v448l-67 -22q-8 -2 -40 -12.5t-50 -14.5q-43 -10 -99 -20 q-57 -10 -96 -10q-102 0 -176 24q-72 25 -119 74q-41 45 -65 129q-23 80 -23 186v400z" />
<glyph unicode="&#x428;" horiz-adv-x="2064" d="M59 0v53l172 27v1182l-172 26v53h537v-53l-172 -26v-1172h514v1172l-172 26v53h534v-53l-172 -26v-1172h514v1172l-172 26v53h537v-53l-172 -26v-1182l172 -27v-53h-1948z" />
<glyph unicode="&#x429;" horiz-adv-x="2064" d="M59 0v53l172 27v1182l-172 26v53h537v-53l-172 -26v-1172h514v1172l-172 26v53h534v-53l-172 -26v-1172h514v1172l-172 26v53h537v-53l-172 -26v-1182l180 -21l-16 -495h-66l-106 436h-1768z" />
<glyph unicode="&#x42a;" horiz-adv-x="1445" d="M61 1026v315h897v-53l-213 -26v-517h152q137 0 229 -30q96 -33 149.5 -82t78.5 -119q25 -68 24.5 -143.5t-24.5 -143.5q-27 -74 -80 -118q-59 -51 -152 -80q-88 -29 -235 -29h-506v53l172 27v1175h-51q-154 -4 -221 -8q-104 -8 -125 -12l-29 -209h-66zM745 90h99 q88 0 157 16q61 14 103 50q39 33 57 84q18 52 19 122q0 63 -17 123q-15 55 -55 93q-39 37 -102 57q-61 20 -156 20h-105v-565z" />
<glyph unicode="&#x42b;" horiz-adv-x="1785" d="M59 0v53l172 27v1182l-159 26v53h565v-53l-213 -26v-517h201q139 0 231 -30q94 -31 150 -84q55 -51 79 -121q23 -61 23 -143q0 -74 -25 -142q-25 -70 -82 -116q-66 -55 -151 -80q-98 -29 -236 -29h-555zM424 90h147q88 0 158 16q65 15 105 50q39 33 57 84q16 47 16 122 q0 72 -14 123q-15 55 -55 93q-39 37 -103 57q-61 20 -157 20h-154v-565zM1188 0v53l172 27v1182l-172 26v53h536v-53l-172 -26v-1182l172 -27v-53h-536z" />
<glyph unicode="&#x42c;" horiz-adv-x="1175" d="M59 0v53l172 27v1182l-159 26v53h565v-53l-213 -26v-517h201q139 0 231 -30q94 -31 150 -84q55 -51 79 -121q23 -61 23 -143q0 -74 -25 -142q-25 -70 -82 -116q-66 -55 -151 -80q-98 -29 -236 -29h-555zM424 90h147q88 0 158 16q65 15 105 50q39 33 57 84q16 47 16 122 q0 72 -14 123q-15 55 -55 93q-39 37 -103 57q-61 20 -157 20h-154v-565z" />
<glyph unicode="&#x42d;" horiz-adv-x="1351" d="M113 358h65l37 -200q53 -41 145 -72q86 -29 215 -29q113 0 201 37q90 37 150 109q63 76 96 184q31 102 35 258h-580v90h580q-6 156 -39 256q-33 102 -90 166q-59 66 -144 92q-82 27 -194 27q-104 0 -189 -23q-90 -25 -161 -67l-31 -174h-66l7 293l96 18q59 10 106 16 q106 12 117 13q82 4 129 4q168 0 291 -39t209 -125q84 -84 127 -213t43 -309q0 -156 -47 -287t-134 -217q-88 -88 -217 -137t-292 -49q-121 0 -254 20q-117 18 -205 43z" />
<glyph unicode="&#x42e;" horiz-adv-x="2103" d="M59 0v53l172 27v1182l-172 26v53h537v-53l-172 -26v-527h367q6 156 51 279q41 111 123 192q76 76 188 113q111 37 252 37q147 0 258 -39q109 -39 192 -125q80 -82 123 -213q43 -129 43 -307q0 -180 -43 -309.5t-123 -215.5q-78 -84 -192 -127q-109 -41 -258 -40 q-141 0 -254 40.5t-190 120.5q-82 84 -123 207q-45 129 -47 297h-367v-565l172 -27v-53h-537zM999 672q0 -139 18.5 -252t65.5 -195q47 -80 125 -123q80 -43 197 -43t197 43q78 43 124 123q47 82 66 195q20 127 20 252q0 129 -20 252q-18 109 -66 190q-45 78 -124 121 q-76 41 -197 41t-197 -41q-80 -43 -125 -121q-47 -82 -65 -190q-19 -111 -19 -252z" />
<glyph unicode="&#x42f;" horiz-adv-x="1363" d="M8 0v53l152 27l305 534q-49 14 -103 48q-49 31 -81.5 75.5t-55.5 108.5q-20 59 -20 137q0 88 26 150q31 72 86 112q63 49 158 72q98 25 238 24h594v-53l-172 -26v-1182l159 -27v-53h-555v53l203 27v508h-289l-323 -588h-322zM403 969q0 -82 17 -131q18 -57 55 -90 q43 -39 103 -54q70 -16 155 -16h209v573h-186q-92 0 -156 -14q-72 -16 -111 -47q-47 -37 -65 -86q-21 -53 -21 -135z" />
<glyph unicode="&#x430;" horiz-adv-x="907" d="M72 260q0 63 14 107q16 47 43 77q29 31 64 50q37 18 79 30q47 14 90 17q61 4 95 4l141 4v147q0 41 -6 76q-6 29 -25 59q-12 20 -45 39q-27 14 -69 15q-47 0 -97 -13q-45 -12 -86 -34l-34 -117h-56v205q65 15 135 24q78 10 150 11q63 0 118.5 -12.5t96.5 -41.5 q39 -27 61.5 -78t22.5 -124v-635l117 -25v-45h-258l-19 94q-6 -6 -20.5 -17t-20.5 -18q-23 -18 -61 -39q-27 -14 -84 -28q-46 -12 -105 -12q-72 0 -114 20q-45 20 -74 59t-41 90.5t-12 110.5zM238 266q0 -176 143 -176q63 0 117 16q59 18 100 39v334l-131 -4 q-59 -4 -102 -12q-39 -8 -70 -33q-28 -22 -43 -61q-14 -37 -14 -103z" />
<glyph unicode="&#x431;" horiz-adv-x="1040" d="M96 578q0 182 21 317q23 143 71 240q51 98 138 159q84 59 219 76q33 4 62.5 8t56.5 6q49 6 100 17q47 10 76 24q27 14 41 41h49q-2 -78 -29 -123q-27 -47 -72 -69q-49 -25 -120 -37q-27 -4 -170 -23q-106 -12 -170 -40q-59 -27 -95 -80q-33 -49 -45 -133q-8 -59 -16 -201 h6q15 43 43 80q29 39 68 65q40 28 92 43q55 16 117 17q211 0 317 -125q109 -127 109 -365q0 -236 -109 -366q-106 -129 -332 -129q-212 0 -319 147q-109 150 -109 451zM276 475q0 -104 15 -176q16 -80 45 -129q33 -57 76 -82q47 -29 112 -29q72 0 123 29q47 27 80 82 q31 52 43 129q14 90 14 176q0 84 -14 174q-12 77 -43 129t-80 80q-47 27 -122.5 27t-123 -27t-75.5 -80q-27 -49 -39 -129q-11 -63 -11 -174z" />
<glyph unicode="&#x432;" horiz-adv-x="966" d="M37 0v45l125 25v800l-125 25v45h401q84 0 166 -10q72 -8 127 -35q53 -25 82 -70q31 -47 31 -112q0 -95 -56 -148q-59 -55 -153 -76v-8q133 -16 194 -63q68 -52 68 -154q0 -66 -23 -117q-20 -49 -75 -84q-49 -31 -133 -47q-88 -16 -203 -16h-426zM328 80h118q74 0 117 8 q51 10 84 31q37 23 53 57q16 33 17 92q0 52 -19 86q-18 35 -55 54q-41 20 -88 28t-121 8h-106v-364zM328 524h106q70 0 113 13q45 12 69 34q29 25 37 56q10 37 11 73q0 82 -56 121q-53 39 -178 39h-102v-336z" />
<glyph unicode="&#x433;" horiz-adv-x="839" d="M37 0v45l125 25v800l-125 25v45h749v-268h-55l-43 166q-31 6 -88 12q-52 6 -111 6h-161v-786l153 -25v-45h-444z" />
<glyph unicode="&#x434;" horiz-adv-x="1040" d="M0 53l147 21q39 72 74 164q41 109 64 190q31 109 47 213q16 96 26 229l-127 25v45h734v-45l-115 -25v-800l145 -17l-16 -448h-66l-86 395h-657l-88 -395h-66zM254 84h430v786h-240q-6 -117 -24 -227q-23 -135 -41 -211q-18 -74 -57 -188q-31 -89 -68 -160z" />
<glyph unicode="&#x435;" horiz-adv-x="907" d="M80 477q0 250 102 367q104 121 295 121q80 0 141 -21q66 -23 113 -65q49 -47 78 -127q29 -82 29 -197v-82h-578v-18q0 -63 10 -140q8 -59 43 -118q31 -51 88.5 -82t149.5 -31q41 0 63 2l66 6q23 2 63 10q8 2 29 5.5t29 5.5v-56q-25 -18 -56 -28l-71 -25q-41 -12 -82 -18 q-43 -6 -90 -6q-111 0 -197 32q-84 33 -131 94q-51 68 -72 156q-22 96 -22 215zM262 553h402q0 82 -9 137q-9 61 -30 105q-23 45 -58 67.5t-90 22.5q-59 0 -96 -23q-40 -25 -68 -67q-27 -41 -39 -105q-12 -61 -12 -137z" />
<glyph unicode="&#x436;" horiz-adv-x="1413" d="M-8 0v45l76 23l329 520l-254 284l-100 23v45h305v-45l-88 -27l371 -413v415l-86 25v45h325v-45l-84 -25v-415l369 413l-88 27v45h305v-45l-100 -23l-254 -284l330 -520l75 -23v-45h-221l-289 473l-127 -102v-301l84 -25v-45h-325v45l86 25v301l-129 102l-289 -473h-221z " />
<glyph unicode="&#x437;" horiz-adv-x="808" d="M57 51v60q39 -12 101 -19q78 -8 121 -8q86 0 137 14q57 16 88 41t43 62t12 78q0 47 -16 73q-18 31 -45 51q-25 18 -64 29q-41 10 -76 10h-120v84h120q53 0 84 15q45 20 60 37q20 23 33 55q12 31 12 67q0 88 -45 138q-43 47 -152 47q-41 0 -84 -13q-45 -12 -73 -34 l-35 -136h-56v232q66 14 119 22q55 8 137 9q188 0 274.5 -61.5t86.5 -190.5q0 -84 -47 -138q-49 -55 -127 -83v-7q41 -6 78 -24q39 -18 61 -45q27 -31 41 -61.5t14 -71.5q0 -150 -102 -226q-106 -78 -313 -77q-40 0 -80 6q-27 4 -76 16q-35 8 -66 23q-33 14 -45 26z" />
<glyph unicode="&#x438;" horiz-adv-x="1095" d="M37 0v45l125 25v800l-125 25v45h405v-45l-114 -25v-591l440 477v114l-125 25v45h406v-45l-115 -25v-800l115 -25v-45h-406v45l125 25v571l-440 -475v-96l114 -25v-45h-405z" />
<glyph unicode="&#x439;" horiz-adv-x="1095" d="M37 0v45l125 25v800l-125 25v45h405v-45l-114 -25v-591l440 477v114l-125 25v45h406v-45l-115 -25v-800l115 -25v-45h-406v45l125 25v571l-440 -475v-96l114 -25v-45h-405zM178 1403h164q6 -106 57.5 -157.5t145.5 -51.5t145.5 51t57.5 158h164q-2 -55 -19 -109 q-14 -49 -55 -90q-37 -37 -110.5 -59.5t-182.5 -22.5t-182.5 22.5t-110.5 59.5q-41 41 -55 90q-17 54 -19 109z" />
<glyph unicode="&#x43a;" horiz-adv-x="993" d="M37 0v45l125 25v800l-125 25v45h405v-45l-114 -25v-415l385 413l-99 27v45h332v-45l-117 -23l-268 -274l344 -530l92 -23v-45h-374v45l86 25l-258 405l-123 -104v-301l114 -25v-45h-405z" />
</font>
</defs>
</svg>
